<svg width="48" height="48" viewBox="0 0 48 48" fill="none" xmlns="http://www.w3.org/2000/svg">
    <path fill-rule="evenodd" clip-rule="evenodd" d="M12 21C11.4696 21 10.9609 21.2107 10.5858 21.5858C10.2107 21.9609 10 22.4696 10 23V25C10 25.5304 10.2107 26.0391 10.5858 26.4142C10.9609 26.7893 11.4696 27 12 27H14C14.5304 27 15.0391 26.7893 15.4142 26.4142C15.7893 26.0391 16 25.5304 16 25V23C16 22.4696 15.7893 21.9609 15.4142 21.5858C15.0391 21.2107 14.5304 21 14 21H12ZM12 23V25H14V23H12ZM18 23C18 22.4696 18.2107 21.9609 18.5858 21.5858C18.9609 21.2107 19.4696 21 20 21H22C22.5304 21 23.0391 21.2107 23.4142 21.5858C23.7893 21.9609 24 22.4696 24 23V25C24 25.5304 23.7893 26.0391 23.4142 26.4142C23.0391 26.7893 22.5304 27 22 27H20C19.4696 27 18.9609 26.7893 18.5858 26.4142C18.2107 26.0391 18 25.5304 18 25V23ZM20 23H22V25H20V23ZM28 21C27.4696 21 26.9609 21.2107 26.5858 21.5858C26.2107 21.9609 26 22.4696 26 23V25C26 25.5304 26.2107 26.0391 26.5858 26.4142C26.9609 26.7893 27.4696 27 28 27H30C30.5304 27 31.0391 26.7893 31.4142 26.4142C31.7893 26.0391 32 25.5304 32 25V23C32 22.4696 31.7893 21.9609 31.4142 21.5858C31.0391 21.2107 30.5304 21 30 21H28ZM28 23V25H30V23H28ZM10 31C10 30.4696 10.2107 29.9609 10.5858 29.5858C10.9609 29.2107 11.4696 29 12 29H14C14.5304 29 15.0391 29.2107 15.4142 29.5858C15.7893 29.9609 16 30.4696 16 31V33C16 33.5304 15.7893 34.0391 15.4142 34.4142C15.0391 34.7893 14.5304 35 14 35H12C11.4696 35 10.9609 34.7893 10.5858 34.4142C10.2107 34.0391 10 33.5304 10 33V31ZM14 31V33H12V31H14ZM20 29C19.4696 29 18.9609 29.2107 18.5858 29.5858C18.2107 29.9609 18 30.4696 18 31V33C18 33.5304 18.2107 34.0391 18.5858 34.4142C18.9609 34.7893 19.4696 35 20 35H22C22.5304 35 23.0391 34.7893 23.4142 34.4142C23.7893 34.0391 24 33.5304 24 33V31C24 30.4696 23.7893 29.9609 23.4142 29.5858C23.0391 29.2107 22.5304 29 22 29H20ZM22 31H20V33H22V31Z" fill="black"/>
    <path d="M36 32.5C36 32.2348 35.8946 31.9804 35.7071 31.7929C35.5196 31.6054 35.2652 31.5 35 31.5C34.7348 31.5 34.4804 31.6054 34.2929 31.7929C34.1054 31.9804 34 32.2348 34 32.5V35.414L35.293 36.707C35.4816 36.8892 35.7342 36.99 35.9964 36.9877C36.2586 36.9854 36.5094 36.8802 36.6948 36.6948C36.8802 36.5094 36.9854 36.2586 36.9877 35.9964C36.99 35.7342 36.8892 35.4816 36.707 35.293L36 34.586V32.5Z" fill="black"/>
    <path fill-rule="evenodd" clip-rule="evenodd" d="M12 7C12 6.73478 12.1054 6.48043 12.2929 6.29289C12.4804 6.10536 12.7348 6 13 6C13.2652 6 13.5196 6.10536 13.7071 6.29289C13.8946 6.48043 14 6.73478 14 7V12C14 12.2652 14.1054 12.5196 14.2929 12.7071C14.4804 12.8946 14.7348 13 15 13C15.2652 13 15.5196 12.8946 15.7071 12.7071C15.8946 12.5196 16 12.2652 16 12V9H26V7C26 6.73478 26.1054 6.48043 26.2929 6.29289C26.4804 6.10536 26.7348 6 27 6C27.2652 6 27.5196 6.10536 27.7071 6.29289C27.8946 6.48043 28 6.73478 28 7V12C28 12.2652 28.1054 12.5196 28.2929 12.7071C28.4804 12.8946 28.7348 13 29 13C29.2652 13 29.5196 12.8946 29.7071 12.7071C29.8946 12.5196 30 12.2652 30 12V9H33C33.7956 9 34.5587 9.31607 35.1213 9.87868C35.6839 10.4413 36 11.2044 36 12V28.07C37.7515 28.3232 39.3422 29.2303 40.452 30.6088C41.5618 31.9874 42.1083 33.7351 41.9816 35.5003C41.8548 37.2655 41.0643 38.9172 39.769 40.1231C38.4737 41.329 36.7697 41.9996 35 42C33.8713 42.0009 32.7593 41.7285 31.7588 41.2061C30.7583 40.6836 29.8993 39.9267 29.255 39H9C8.20435 39 7.44129 38.6839 6.87868 38.1213C6.31607 37.5587 6 36.7956 6 36V12C6 11.2044 6.31607 10.4413 6.87868 9.87868C7.44129 9.31607 8.20435 9 9 9H12V7ZM28 35C27.9996 33.3164 28.6059 31.6891 29.7079 30.4163C30.8099 29.1435 32.3337 28.3105 34 28.07V18H8V36C8 36.2652 8.10536 36.5196 8.29289 36.7071C8.48043 36.8946 8.73478 37 9 37H28.29C28.0971 36.3509 27.9994 35.6772 28 35ZM40 35C40 36.3261 39.4732 37.5979 38.5355 38.5355C37.5979 39.4732 36.3261 40 35 40C33.6739 40 32.4021 39.4732 31.4645 38.5355C30.5268 37.5979 30 36.3261 30 35C30 33.6739 30.5268 32.4021 31.4645 31.4645C32.4021 30.5268 33.6739 30 35 30C36.3261 30 37.5979 30.5268 38.5355 31.4645C39.4732 32.4021 40 33.6739 40 35Z" fill="black"/>
</svg>
