<svg width="144" height="90" viewBox="0 0 144 90" fill="none" xmlns="http://www.w3.org/2000/svg">
    <path d="M143.169 49.1535C143.516 37.1506 139.11 24.2615 132.252 16.2047C122.441 4.67874 106.759 1.30403 92.2444 2.29319C80.1642 3.11649 67.9506 6.61758 55.8185 4.72264C47.8219 3.47365 40.2956 -0.246017 32.092 0.0128654C8.14265 0.768681 -3.94368 27.4392 2.5533 48.5528C8.08436 66.5272 26.4895 70.867 43.2835 70.4542C49.4439 70.3028 55.2711 69.9497 61.4021 70.5178C69.1123 71.2324 76.7332 72.7223 84.2193 74.6813C100.866 79.0375 123.926 84.7117 136.625 68.9313C140.953 63.5542 142.956 56.5208 143.169 49.1535Z" fill="#F6F9FF"/>
    <path d="M29.613 81.2858H65.6739C66.593 81.2858 67.2599 80.5407 67.1635 79.6216L60.6636 17.6533C60.5672 16.7342 59.744 15.9891 58.8249 15.9891H22.764C21.8449 15.9891 21.178 16.7342 21.2744 17.6533L27.7743 79.6216C27.8707 80.5407 28.6939 81.2858 29.613 81.2858Z" fill="#6880E4"/>
    <path d="M30.5969 74.4031H63.2452L57.5834 20.4244H24.9351L30.5969 74.4031Z" fill="#D4DFFF"/>
    <mask id="mask0_8802_4352" style="mask-type:luminance" maskUnits="userSpaceOnUse" x="24" y="20" width="40" height="55">
        <path d="M30.596 74.4029H63.2442L57.5824 20.4242H24.9341L30.596 74.4029Z" fill="white"/>
    </mask>
    <g mask="url(#mask0_8802_4352)">
        <path opacity="0.19" d="M29.8138 19.4456C29.8138 19.4456 35.8503 59.1028 64.6707 65.0675L66.6748 76.3977H27.4352L21.4629 19.4591L29.8138 19.4456Z" fill="#6880E4"/>
    </g>
    <path d="M43.6032 79.5678H51.3236C51.8513 79.5678 52.2342 79.14 52.1788 78.6123L52.0468 77.3534C51.9914 76.8257 51.5188 76.3979 50.9911 76.3979H43.2707C42.743 76.3979 42.3601 76.8257 42.4155 77.3534L42.5475 78.6123C42.6029 79.14 43.0755 79.5678 43.6032 79.5678Z" fill="#1B3D9E"/>
    <path d="M44.6115 39.1094C44.5853 38.5147 45.0014 38.0104 45.53 37.9965C49.972 37.8802 68.2341 37.4801 68.4761 38.7539C68.7515 40.2041 69.8592 59.6503 69.1028 59.9877C68.3463 60.325 46.2884 60.1842 45.877 59.691C45.5221 59.2654 44.8023 43.4405 44.6115 39.1094Z" fill="#F8B151"/>
    <path d="M44.5737 38.5745C44.5737 38.5745 44.4363 37.9946 43.4293 37.7464C42.4223 37.4982 23.4977 35.4707 21.7816 37.085C20.0655 38.6994 23.1322 60.1134 24.053 60.3441C24.9737 60.5748 45.3932 60.392 46.1166 59.6654C46.84 58.9388 44.5737 38.5745 44.5737 38.5745Z" fill="#F8B151"/>
    <path d="M66.6189 40.6633C66.6189 40.6633 45.65 40.9833 44.6929 40.8667C43.7359 40.7501 23.6873 39.5319 23.4177 39.7829C23.148 40.0338 43.7627 41.9209 44.682 41.7661C45.6012 41.6112 67.9504 41.4917 66.6189 40.6633Z" fill="#EE7123"/>
    <path d="M24.0382 41.1534C24.0382 41.1534 44.6157 42.4382 44.752 42.733C44.8883 43.0278 46.2364 57.4613 45.715 57.8813C45.1936 58.3013 26.1064 58.5105 25.8227 58.2839C25.539 58.0572 23.2857 42.5452 24.0382 41.1534Z" fill="#EE7123"/>
    <path d="M22.7254 36.7152C22.7254 36.7152 22.0353 38.8862 22.2853 42.8988C22.5353 46.9114 24.9638 60.4035 24.9638 60.4035L24.053 60.3441C24.053 60.3441 22.964 57.8434 22.2688 51.8661C21.5736 45.8888 20.6656 39.1227 21.7817 37.085C21.7817 37.085 22.0778 36.7308 22.7254 36.7152Z" fill="#EE7123"/>
    <path d="M67.8091 38.3979C67.8091 38.3979 68.1665 38.6123 68.356 41.0815C68.5454 43.5507 68.9919 57.0873 68.7676 58.573C68.5433 60.0588 68.3512 60.0706 68.3512 60.0706C68.3512 60.0706 69.2272 60.1863 69.2911 59.9528C69.3549 59.7192 69.6479 57.2167 69.4547 54.5979C69.2615 51.9791 69.2315 44.3602 69.0136 43.4915C68.7956 42.6228 69.2425 38.3034 67.8091 38.3979Z" fill="#EE7123"/>
    <path d="M45.9975 42.6315C45.9975 42.6315 67.3095 42.126 67.3828 42.4777C67.4561 42.8294 67.7053 45.5836 67.5772 45.9866C67.449 46.3897 46.3703 46.7121 46.1581 46.3495C45.9459 45.9869 45.5277 43.0241 45.9975 42.6315Z" fill="#EE7123"/>
    <path d="M43.8204 43.4487L43.8116 43.3558C43.7876 43.3538 43.7567 43.3511 43.7192 43.3481L43.7283 43.2365C43.7981 43.2422 43.8455 43.2463 43.8687 43.2486L43.9144 43.2533L43.9319 43.4382L43.8204 43.4487Z" fill="#F8B151"/>
    <path d="M30.3763 57.7582H30.255V57.6462L30.5347 57.6461V57.7581L30.3763 57.7582ZM30.8145 57.758L30.8144 57.646L31.0941 57.6455L31.0944 57.7575L30.8145 57.758ZM29.9753 57.7579L29.6955 57.7574L29.6958 57.6454L29.9754 57.6459L29.9753 57.7579ZM31.3742 57.7567L31.3739 57.6447L31.6538 57.6438L31.6542 57.7558L31.3742 57.7567ZM29.4157 57.7566L29.1359 57.7556L29.1364 57.6436L29.4161 57.6446L29.4157 57.7566ZM31.9341 57.7548L31.9336 57.6428L32.2134 57.6415L32.214 57.7535L31.9341 57.7548ZM28.8561 57.754L28.5763 57.7523L28.5772 57.6403L28.8568 57.642L28.8561 57.754ZM32.4939 57.752L32.4933 57.64L32.773 57.6384L32.7738 57.7504L32.4939 57.752ZM28.2965 57.75C28.2002 57.7491 28.1069 57.7482 28.0167 57.7472L28.018 57.6352C28.1081 57.6362 28.2013 57.6371 28.2975 57.638L28.2965 57.75ZM33.0536 57.7486L33.0529 57.6366L33.3326 57.6347L33.3335 57.7467L33.0536 57.7486ZM33.6134 57.7444L33.6125 57.6324L33.8923 57.63L33.8933 57.742L33.6134 57.7444ZM27.7368 57.7437C27.6389 57.7423 27.5455 57.7409 27.4569 57.7394L27.4588 57.6274C27.5473 57.6289 27.6406 57.6303 27.7384 57.6317L27.7368 57.7437ZM34.1731 57.7395L34.1721 57.6275L34.4519 57.6248L34.4531 57.7368L34.1731 57.7395ZM27.1769 57.7339C27.0745 57.7316 26.9809 57.7291 26.8968 57.7266L26.9002 57.6146C26.984 57.6171 27.0773 57.6196 27.1794 57.6219L27.1769 57.7339ZM34.7328 57.7338L34.7316 57.6218L35.0067 57.6188L35.0121 57.6747L35.008 57.7308L34.7328 57.7338ZM35.2925 57.7274L35.2912 57.6154L35.572 57.612L35.5734 57.724L35.2925 57.7274ZM35.8537 57.7203L35.8523 57.6083L36.1322 57.6045L36.1338 57.7165L35.8537 57.7203ZM26.616 57.7156C26.4143 57.7053 26.3793 57.696 26.3607 57.6873C26.3345 57.6751 26.3198 57.6483 26.31 57.6263L26.4123 57.5807C26.4135 57.5834 26.4145 57.5855 26.4154 57.5873C26.4327 57.5902 26.4836 57.5966 26.6217 57.6037L26.616 57.7156ZM36.4134 57.7124L36.4118 57.6004L36.6909 57.5961L36.6927 57.7081L36.4134 57.7124ZM36.9717 57.7037L36.9698 57.5917L37.2496 57.587L37.2515 57.699L36.9717 57.7037ZM37.5313 57.694L37.5293 57.582L37.8091 57.5769L37.8112 57.6889L37.5313 57.694ZM38.0911 57.6835L38.0888 57.5715L38.3686 57.5658L38.3709 57.6778L38.0911 57.6835ZM38.6507 57.6719L38.6483 57.5599L38.928 57.5537L38.9306 57.6657L38.6507 57.6719ZM39.2104 57.6591L39.2077 57.5471L39.4875 57.5402L39.4903 57.6522L39.2104 57.6591ZM39.7702 57.645L39.7672 57.533L40.0469 57.5253L40.05 57.6373L39.7702 57.645ZM40.3298 57.6294L40.3265 57.5174L40.6062 57.509L40.6097 57.621L40.3298 57.6294ZM40.8896 57.6121L40.8859 57.5002L41.1656 57.4908L41.1694 57.6027L40.8896 57.6121ZM41.4493 57.5928L41.4452 57.4809C41.5398 57.4775 41.6329 57.4739 41.7248 57.4703L41.7292 57.5822C41.6372 57.5858 41.544 57.5893 41.4493 57.5928ZM42.0091 57.5708L42.0044 57.4589C42.0993 57.455 42.1925 57.451 42.284 57.4468L42.289 57.5587C42.1974 57.5628 42.1041 57.5669 42.0091 57.5708ZM42.5688 57.5457L42.5634 57.4338C42.6588 57.4292 42.752 57.4245 42.8428 57.4197L42.8487 57.5316C42.7578 57.5364 42.6644 57.5411 42.5688 57.5457ZM43.1287 57.516L43.1222 57.4042C43.2185 57.3986 43.3116 57.393 43.4014 57.3871L43.4087 57.4989C43.3186 57.5047 43.2252 57.5104 43.1287 57.516ZM43.6887 57.4797L43.6805 57.368C43.7784 57.3609 43.8714 57.3535 43.9592 57.3461L43.9688 57.4576C43.8806 57.4652 43.7871 57.4725 43.6887 57.4797ZM44.2489 57.4315L44.2374 57.3201C44.3402 57.3096 44.4334 57.2985 44.5142 57.2874L44.5294 57.3983C44.4473 57.4096 44.353 57.4207 44.2489 57.4315ZM44.8113 57.3486L44.785 57.2398C44.8615 57.2213 44.8881 57.2067 44.8959 57.2014C44.8984 57.192 44.9028 57.1692 44.9059 57.1185L45.0177 57.1253C45.0139 57.1862 45.0079 57.2241 44.9983 57.2481C44.981 57.2916 44.9268 57.3207 44.8113 57.3486ZM26.2339 57.3432C26.2177 57.265 26.2002 57.1714 26.1817 57.065L26.2921 57.0459C26.3103 57.151 26.3276 57.2434 26.3436 57.3206L26.2339 57.3432ZM44.9093 56.8431C44.9081 56.7613 44.9055 56.6679 44.9017 56.5637L45.0136 56.5597C45.0174 56.6648 45.02 56.7591 45.0213 56.8415L44.9093 56.8431ZM26.1359 56.7872C26.1222 56.7003 26.1081 56.6075 26.0935 56.5093L26.2043 56.4929C26.2188 56.5907 26.2329 56.6831 26.2466 56.7697L26.1359 56.7872ZM44.8898 56.284C44.8856 56.1959 44.8808 56.1026 44.8754 56.0044L44.9873 55.9983C44.9926 56.0967 44.9975 56.1903 45.0017 56.2787L44.8898 56.284ZM26.0534 56.2313C26.0408 56.1421 26.0279 56.0494 26.0149 55.9533L26.1258 55.9382C26.1389 56.034 26.1517 56.1265 26.1643 56.2156L26.0534 56.2313ZM44.8593 55.7248C44.8539 55.6347 44.8481 55.5415 44.8419 55.4453L44.9537 55.4382C44.9599 55.5345 44.9656 55.6279 44.9711 55.7181L44.8593 55.7248ZM25.9776 55.6754C25.9657 55.5851 25.9536 55.4923 25.9414 55.3973L26.0525 55.3831C26.0647 55.4779 26.0767 55.5705 26.0886 55.6607L25.9776 55.6754ZM44.8237 55.1659C44.8176 55.075 44.8113 54.9818 44.8047 54.8866L44.9164 54.8788C44.923 54.9742 44.9294 55.0674 44.9354 55.1584L44.8237 55.1659ZM25.9061 55.1192C25.8947 55.0283 25.8831 54.9356 25.8715 54.8411L25.9826 54.8274C25.9942 54.9218 26.0057 55.0144 26.0172 55.1052L25.9061 55.1192ZM44.785 54.6072L44.7647 54.328L44.8764 54.3198L44.8967 54.5992L44.785 54.6072ZM25.8375 54.563L25.8042 54.2848L25.9154 54.2715L25.9487 54.5495L25.8375 54.563ZM44.7441 54.0488L44.7229 53.7696L44.8346 53.7611L44.8558 54.0404L44.7441 54.0488ZM25.7713 54.0065L25.739 53.7282L25.8502 53.7155L25.8826 53.9936L25.7713 54.0065ZM44.7015 53.4905L44.6797 53.2114L44.7914 53.2027L44.8132 53.4818L44.7015 53.4905ZM25.7071 53.4499L25.6755 53.1715L25.7868 53.1591L25.8183 53.4372L25.7071 53.4499ZM44.6576 52.9324L44.6353 52.6533L44.7469 52.6444L44.7693 52.9235L44.6576 52.9324ZM25.6444 52.8933L25.6137 52.6149L25.725 52.6026L25.7558 52.8809L25.6444 52.8933ZM44.6127 52.3744L44.5899 52.0954L44.7016 52.0862L44.7243 52.3653L44.6127 52.3744ZM25.5833 52.3365L25.5532 52.0581L25.6645 52.0461L25.6946 52.3245L25.5833 52.3365ZM44.5669 51.8163L44.5438 51.5373L44.6554 51.528L44.6785 51.8071L44.5669 51.8163ZM25.5235 51.7796L25.4941 51.5012L25.6055 51.4895L25.6349 51.7678L25.5235 51.7796ZM44.5205 51.2585L44.4969 50.9795L44.6085 50.9701L44.6321 51.2491L44.5205 51.2585ZM25.4651 51.2227L25.4363 50.9442L25.5477 50.9328L25.5765 51.2111L25.4651 51.2227ZM44.4732 50.7005L44.4494 50.4216L44.561 50.4121L44.5848 50.691L44.4732 50.7005ZM25.4079 50.6664L25.3797 50.388L25.4912 50.3767L25.5193 50.655L25.4079 50.6664ZM44.4254 50.142L44.4013 49.8629L44.5128 49.8532L44.537 50.1323L44.4254 50.142ZM25.3517 50.1089L25.324 49.8293L25.4355 49.8184L25.4632 50.0979L25.3517 50.1089ZM44.3771 49.5843L44.3529 49.3063L44.4644 49.2965L44.4886 49.5746L44.3771 49.5843ZM25.2968 49.5506L25.2698 49.2719L25.3813 49.2612L25.4083 49.5398L25.2968 49.5506ZM44.3284 49.0275L44.3039 48.7486L44.4155 48.7387L44.44 49.0177L44.3284 49.0275ZM25.2432 48.9932L25.2168 48.7144L25.3283 48.7039L25.3547 48.9826L25.2432 48.9932ZM44.2793 48.4697L44.2545 48.1909L44.3661 48.1809L44.3908 48.4598L44.2793 48.4697ZM25.1907 48.4356L25.165 48.1567L25.2765 48.1464L25.3022 48.4253L25.1907 48.4356ZM44.2297 47.912L44.2047 47.6332L44.3162 47.6232L44.3412 47.9021L44.2297 47.912ZM25.1397 47.8779L25.1147 47.599L25.2262 47.589L25.2512 47.8679L25.1397 47.8779ZM44.1796 47.3543L44.1545 47.0755L44.2661 47.0654L44.2912 47.3443L44.1796 47.3543ZM25.0901 47.32L25.0659 47.041L25.1774 47.0314L25.2017 47.3102L25.0901 47.32ZM44.1294 46.7966L44.104 46.5178L44.2156 46.5076L44.2409 46.7865L44.1294 46.7966ZM25.042 46.7618L25.0187 46.4827L25.1303 46.4734L25.1536 46.7524L25.042 46.7618ZM44.0787 46.239L44.0532 45.96L44.1647 45.9498L44.1902 46.2288L44.0787 46.239ZM24.9958 46.2036C24.9882 46.1094 24.9807 46.0163 24.9734 45.9243L25.0851 45.9155C25.0924 46.0075 25.0998 46.1005 25.1074 46.1945L24.9958 46.2036ZM44.0277 45.681L44.002 45.4022L44.1135 45.3919L44.1392 45.6709L44.0277 45.681ZM24.9517 45.645C24.9444 45.5506 24.9374 45.4574 24.9305 45.3656L25.0422 45.3573C25.0491 45.449 25.0561 45.5421 25.0633 45.6364L24.9517 45.645ZM43.9764 45.1231L43.9506 44.844L44.062 44.8337L44.0879 45.1128L43.9764 45.1231ZM24.91 45.0861C24.9032 44.9912 24.8966 44.898 24.8903 44.8065L25.002 44.7987C25.0084 44.8902 25.0149 44.9833 25.0217 45.078L24.91 45.0861ZM43.9247 44.5651L43.8987 44.2858L44.0102 44.2754L44.0362 44.5547L43.9247 44.5651ZM24.8715 44.5267C24.8653 44.4312 24.8593 44.3379 24.8538 44.2469L24.9656 44.24C24.9712 44.3309 24.9771 44.4241 24.9833 44.5194L24.8715 44.5267ZM43.8727 44.0064L43.8465 43.7268L43.9579 43.7163L43.9842 43.996L43.8727 44.0064ZM24.8373 43.9669C24.8319 43.8702 24.8269 43.7768 24.8224 43.6866L24.9343 43.681C24.9388 43.7709 24.9437 43.8642 24.9491 43.9606L24.8373 43.9669ZM24.8096 43.406C24.8054 43.3071 24.8021 43.2134 24.7994 43.125L24.9113 43.1216C24.914 43.2095 24.9174 43.3029 24.9214 43.4013L24.8096 43.406ZM43.5222 43.3324L43.2427 43.3109L43.2512 43.1992L43.5309 43.2207L43.5222 43.3324ZM42.9628 43.2898L42.6831 43.269L42.6914 43.1573L42.9712 43.1782L42.9628 43.2898ZM42.4035 43.2483L42.1241 43.2277L42.1323 43.1161L42.4119 43.1366L42.4035 43.2483ZM41.8447 43.2074L41.5652 43.1871L41.5734 43.0754L41.8528 43.0957L41.8447 43.2074ZM41.2859 43.1669L41.0065 43.1468L41.0145 43.0351L41.2939 43.0552L41.2859 43.1669ZM40.7273 43.1267L40.4479 43.1068L40.4559 42.9951L40.7352 43.015L40.7273 43.1267ZM40.1687 43.0869L39.8894 43.0671L39.8973 42.9555L40.1766 42.9753L40.1687 43.0869ZM39.6101 43.0473L39.3309 43.0277L39.3388 42.916L39.618 42.9356L39.6101 43.0473ZM39.0516 43.0082L38.7723 42.9886L38.7802 42.877L39.0594 42.8964L39.0516 43.0082ZM38.4931 42.9692L38.2139 42.9499L38.2217 42.8381L38.5009 42.8575L38.4931 42.9692ZM37.9347 42.9306L37.6555 42.9113L37.6632 42.7995L37.9424 42.8188L37.9347 42.9306ZM37.3762 42.8921L37.0969 42.873L37.1046 42.7613L37.3839 42.7804L37.3762 42.8921ZM36.8178 42.854L36.5385 42.835L36.5461 42.7232L36.8254 42.7422L36.8178 42.854ZM24.7932 42.8438C24.7927 42.8016 24.7925 42.7613 24.7925 42.7229C24.7925 42.665 24.793 42.6114 24.7942 42.5622L24.9062 42.5648C24.905 42.6132 24.9045 42.666 24.9045 42.7229C24.9045 42.7609 24.9047 42.8008 24.9052 42.8425L24.7932 42.8438ZM36.2593 42.8161L35.98 42.7973L35.9876 42.6856L36.2668 42.7044L36.2593 42.8161ZM35.7008 42.7786L35.4215 42.76L35.429 42.6482L35.7082 42.6669L35.7008 42.7786ZM35.1423 42.7414L34.863 42.7229L34.8705 42.6111L35.1497 42.6297L35.1423 42.7414ZM34.5838 42.7045L34.3035 42.6861L34.3108 42.5743L34.5911 42.5927L34.5838 42.7045ZM34.0235 42.6679L33.7441 42.6497L33.7513 42.5379L34.0308 42.5561L34.0235 42.6679ZM33.4652 42.6317L33.1866 42.6139L33.1938 42.5021L33.4724 42.52L33.4652 42.6317ZM32.9074 42.5961L32.6281 42.5784L32.6351 42.4666L32.9145 42.4843L32.9074 42.5961ZM32.3488 42.5607L32.0695 42.5432L32.0765 42.4314L32.3558 42.449L32.3488 42.5607ZM31.7901 42.5259L31.5108 42.5087L31.5177 42.3969L31.797 42.4141L31.7901 42.5259ZM31.2314 42.4916L30.9521 42.4747L30.9588 42.3629L31.2382 42.3799L31.2314 42.4916ZM30.6727 42.458L30.3933 42.4414L30.3999 42.3296L30.6794 42.3462L30.6727 42.458ZM30.1139 42.425L29.8345 42.4089L29.8409 42.297L30.1204 42.3133L30.1139 42.425ZM29.555 42.3929L29.2755 42.3771L29.2817 42.2653L29.5613 42.281L29.555 42.3929ZM28.9961 42.3617L28.7166 42.3465L28.7226 42.2347L29.0022 42.2498L28.9961 42.3617ZM28.437 42.3316L28.1574 42.3171L28.1632 42.2053L28.4429 42.2198L28.437 42.3316ZM27.8779 42.303L27.5982 42.2893L27.6036 42.1774L27.8835 42.1911L27.8779 42.303ZM24.9253 42.2939L24.8148 42.2756C24.8266 42.2039 24.843 42.1664 24.8713 42.1466C24.8903 42.1332 24.9235 42.1182 25.077 42.1099L25.083 42.2217C24.9883 42.2268 24.952 42.2341 24.939 42.2378C24.9361 42.245 24.9307 42.2611 24.9253 42.2939ZM27.3185 42.2762C27.2231 42.2718 27.1298 42.2676 27.0388 42.2637L27.0437 42.1518C27.1347 42.1558 27.2281 42.16 27.3237 42.1643L27.3185 42.2762ZM26.7591 42.2519C26.6627 42.248 26.5694 42.2443 26.4793 42.241L26.4834 42.1291C26.5736 42.1325 26.6671 42.1361 26.7636 42.14L26.7591 42.2519ZM26.1993 42.2313C26.1011 42.2282 26.0077 42.2255 25.9193 42.2232L25.9222 42.1113C26.0108 42.1135 26.1045 42.1162 26.2029 42.1194L26.1993 42.2313ZM25.6394 42.2175C25.55 42.2161 25.468 42.2154 25.3937 42.2154L25.3597 42.2154L25.3594 42.1034L25.3937 42.1034C25.4686 42.1034 25.5512 42.1041 25.6411 42.1055L25.6394 42.2175Z" fill="#F8B151"/>
    <path d="M46.5407 47.1567C46.4165 47.1652 46.3223 47.2712 46.3279 47.3955C46.3983 48.9557 46.8414 58.3451 47.304 58.294C47.8085 58.2382 67.6329 58.6611 67.7811 58.2999C67.9292 57.9388 67.8029 47.6771 67.2477 46.9023C67.2477 46.9023 49.1059 46.9811 46.5407 47.1567Z" fill="#EE7123"/>
    <path d="M44.5737 38.5746L45.0857 43.4027C45.0857 43.4027 44.6002 38.2991 45.5301 37.9966C45.5301 37.9966 44.8748 37.9846 44.5737 38.5746Z" fill="#EE7123"/>
    <path d="M45.9497 59.7461C45.9497 59.7461 46.2524 59.3426 46.2548 58.7234C46.2573 58.1043 46.1904 56.3597 46.1904 56.3597C46.1904 56.3597 46.6751 59.3537 46.2823 59.7915L45.9497 59.7461Z" fill="#EE7123"/>
    <path d="M63.5714 57.9567L63.2914 57.9567L63.2915 57.8447L63.5715 57.8447V57.9567H63.5714ZM63.8516 57.9566L63.8514 57.8446L64.1315 57.8442L64.1316 57.9562L63.8516 57.9566ZM63.0113 57.9564L62.7311 57.9559L62.7313 57.8439L63.0115 57.8444L63.0113 57.9564ZM64.4119 57.9554L64.4115 57.8434L64.6915 57.8423L64.6921 57.9543L64.4119 57.9554ZM62.4507 57.9553L62.1705 57.9545L62.1708 57.8425L62.451 57.8433L62.4507 57.9553ZM61.8902 57.9536L61.61 57.9526L61.6104 57.8406L61.8906 57.8416L61.8902 57.9536ZM64.9721 57.953L64.9715 57.841C65.0672 57.8404 65.1606 57.8398 65.2515 57.8391L65.2524 57.9511C65.1615 57.9519 65.068 57.9524 64.9721 57.953ZM61.3298 57.9515L61.0495 57.9503L61.05 57.8383L61.3302 57.8395L61.3298 57.9515ZM60.7693 57.9488L60.489 57.9473L60.4897 57.8353L60.7699 57.8368L60.7693 57.9488ZM65.5326 57.9487L65.5315 57.8367C65.6283 57.8358 65.7216 57.8348 65.8114 57.8336L65.8127 57.9456C65.7229 57.9468 65.6295 57.9478 65.5326 57.9487ZM60.2088 57.9457L59.9286 57.9441L59.9293 57.8321L60.2094 57.8338L60.2088 57.9457ZM59.6483 57.9423L59.3681 57.9405L59.3689 57.8285L59.6491 57.8303L59.6483 57.9423ZM66.093 57.9417L66.0912 57.8297C66.1902 57.8281 66.2835 57.8263 66.3709 57.8244L66.3734 57.9364C66.2857 57.9383 66.1922 57.9401 66.093 57.9417ZM59.0879 57.9385L58.8076 57.9365L58.8085 57.8245L59.0887 57.8265L59.0879 57.9385ZM58.5275 57.9343L58.2473 57.9322L58.2482 57.8202L58.5284 57.8223L58.5275 57.9343ZM57.9671 57.93L57.6859 57.9277L57.6869 57.8157L57.968 57.818L57.9671 57.93ZM66.6539 57.9293L66.6505 57.8173C66.7571 57.8142 66.8504 57.8106 66.9294 57.8068L66.9349 57.9186C66.8553 57.9225 66.7613 57.9261 66.6539 57.9293ZM57.405 57.9253L57.1246 57.9228L57.1256 57.8109L57.406 57.8133L57.405 57.9253ZM56.8446 57.9204L56.5649 57.9178L56.5659 57.8058L56.8456 57.8084L56.8446 57.9204ZM56.2856 57.9152L56.0054 57.9125L56.0065 57.8005L56.2867 57.8032L56.2856 57.9152ZM55.7251 57.9099L55.445 57.907L55.446 57.795L55.7262 57.7979L55.7251 57.9099ZM55.1648 57.9041L54.8846 57.9012L54.8858 57.7892L55.1659 57.7921L55.1648 57.9041ZM54.6044 57.8982L54.3241 57.8951L54.3254 57.7831L54.6055 57.7862L54.6044 57.8982ZM67.2221 57.8941L67.2015 57.7893C67.1998 57.7911 67.199 57.7925 67.199 57.7925C67.1994 57.7917 67.2002 57.7903 67.2011 57.7879L67.2004 57.7842C67.2012 57.784 67.2019 57.7839 67.2027 57.7837C67.2088 57.7658 67.2207 57.7158 67.2312 57.5835L67.3428 57.5923C67.3249 57.8185 67.2997 57.855 67.2732 57.8749C67.2618 57.8836 67.2469 57.8891 67.2221 57.8941ZM54.0439 57.892L53.7637 57.8889L53.7649 57.7769L54.0452 57.7801L54.0439 57.892ZM53.4834 57.8856L53.2032 57.8823L53.2045 57.7703L53.4847 57.7736L53.4834 57.8856ZM52.923 57.8791L52.6428 57.8756L52.6441 57.7636L52.9243 57.7671L52.923 57.8791ZM52.3626 57.8721L52.0822 57.8686L52.0837 57.7566L52.3639 57.7601L52.3626 57.8721ZM51.802 57.8648L51.5217 57.8611L51.5232 57.7491L51.8035 57.7528L51.802 57.8648ZM51.2414 57.8573L50.9611 57.8534L50.9626 57.7414L51.2429 57.7453L51.2414 57.8573ZM50.6807 57.8495L50.4004 57.8453L50.402 57.7333L50.6824 57.7375L50.6807 57.8495ZM50.1199 57.841L49.8395 57.8367L49.8413 57.7247L50.1217 57.729L50.1199 57.841ZM49.559 57.8321L49.2784 57.8274L49.2804 57.7154L49.5608 57.7201L49.559 57.8321ZM48.9978 57.8223L48.7169 57.8168L48.7192 57.7048L48.9998 57.7103L48.9978 57.8223ZM48.4358 57.8109C48.3233 57.8083 48.2289 57.8059 48.1541 57.8036L48.1574 57.6916C48.2321 57.6939 48.3262 57.6963 48.4384 57.6989L48.4358 57.8109ZM47.8619 57.6966C47.8407 57.6381 47.8195 57.5451 47.7973 57.4123L47.9077 57.3938C47.9286 57.5181 47.9486 57.6071 47.9672 57.6584L47.8619 57.6966ZM67.3576 57.3102L67.2456 57.3065C67.2484 57.2222 67.2505 57.129 67.252 57.0275L67.364 57.0292C67.3625 57.1313 67.3604 57.2253 67.3576 57.3102ZM47.7563 57.1315C47.7452 57.0456 47.734 56.9519 47.7228 56.8511L47.8341 56.8388C47.8452 56.9387 47.8563 57.0317 47.8674 57.117L47.7563 57.1315ZM67.3663 56.7483L67.2543 56.748L67.2544 56.6597C67.2544 56.5978 67.2542 56.5339 67.2539 56.4682L67.3659 56.4675C67.3662 56.5335 67.3664 56.5975 67.3664 56.6597L67.3663 56.7483ZM47.6933 56.571C47.6843 56.4816 47.6754 56.3881 47.6664 56.2909L47.7779 56.2806C47.7868 56.3774 47.7957 56.4707 47.8047 56.5598L47.6933 56.571ZM67.2516 56.1879C67.2506 56.0972 67.2493 56.0036 67.2479 55.9077L67.3599 55.9059C67.3613 56.0021 67.3626 56.0958 67.3636 56.1867L67.2516 56.1879ZM47.6416 56.0108C47.6337 55.92 47.626 55.8266 47.6182 55.7308L47.7298 55.7218C47.7376 55.8173 47.7453 55.9106 47.7531 56.0012L47.6416 56.0108ZM67.2429 55.6273C67.2412 55.5357 67.2392 55.4423 67.2371 55.3471L67.3491 55.3446C67.3513 55.4399 67.3532 55.5334 67.3549 55.6252L67.2429 55.6273ZM47.5959 55.4508C47.5888 55.3592 47.5817 55.2658 47.5747 55.1708L47.6863 55.1626C47.6934 55.2574 47.7004 55.3507 47.7076 55.4422L47.5959 55.4508ZM67.2305 55.0669C67.2281 54.9747 67.2256 54.8813 67.223 54.7867L67.335 54.7835C67.3376 54.8781 67.3401 54.9717 67.3424 55.064L67.2305 55.0669ZM47.5542 54.8908C47.5476 54.7986 47.5411 54.7052 47.5345 54.6108L47.6462 54.603C47.6528 54.6974 47.6593 54.7907 47.6659 54.8828L47.5542 54.8908ZM67.2149 54.5065C67.2122 54.414 67.2092 54.3206 67.2062 54.2264L67.3182 54.2228C67.3212 54.3171 67.3241 54.4107 67.3268 54.5032L67.2149 54.5065ZM47.5154 54.3307L47.4969 54.0507L47.6087 54.0434L47.6271 54.3232L47.5154 54.3307ZM67.197 53.9463L67.1872 53.6662L67.2992 53.6621L67.3089 53.9425L67.197 53.9463ZM47.4788 53.7706L47.4612 53.4906L47.573 53.4836L47.5906 53.7635L47.4788 53.7706ZM67.177 53.386L67.1663 53.1068L67.2782 53.1025L67.2889 53.3818L67.177 53.386ZM47.444 53.2105L47.4272 52.9304L47.5389 52.9237L47.5558 53.2037L47.444 53.2105ZM67.1552 52.827L67.1436 52.5465L67.2555 52.5418L67.2671 52.8224L67.1552 52.827ZM47.4106 52.6494L47.3944 52.3692L47.5062 52.3628L47.5224 52.6428L47.4106 52.6494ZM67.1316 52.2666L67.1192 51.9866L67.2311 51.9815L67.2435 52.2617L67.1316 52.2666ZM47.3785 52.0899L47.3629 51.8098L47.4747 51.8036L47.4903 52.0836L47.3785 52.0899ZM67.1063 51.7065L67.093 51.4265L67.2049 51.4211L67.2182 51.7013L67.1063 51.7065ZM47.3475 51.5296L47.3324 51.2494L47.4442 51.2434L47.4593 51.5235L47.3475 51.5296ZM67.0793 51.1466L67.065 50.8667L67.1769 50.861L67.1911 51.1411L67.0793 51.1466ZM47.3175 50.9692L47.3028 50.6889L47.4147 50.6832L47.4293 50.9633L47.3175 50.9692ZM67.0503 50.5868L67.035 50.307L67.1469 50.3007L67.1621 50.5808L67.0503 50.5868ZM47.2883 50.4087L47.2741 50.1283L47.3859 50.1226L47.4002 50.4029L47.2883 50.4087ZM67.0193 50.0271C67.0138 49.9322 67.0084 49.8388 67.0029 49.7472L67.1147 49.7405C67.1201 49.8323 67.1256 49.9257 67.1311 50.0206L67.0193 50.0271ZM47.2601 49.8479L47.2462 49.5674L47.3581 49.562L47.3719 49.8423L47.2601 49.8479ZM66.9857 49.4674C66.9797 49.3718 66.9737 49.2784 66.9677 49.1876L67.0795 49.1802C67.0855 49.2712 67.0915 49.3647 67.0975 49.4604L66.9857 49.4674ZM47.2325 49.2869L47.219 49.0062L47.3309 49.0008L47.3444 49.2814L47.2325 49.2869ZM66.9488 48.9079C66.9421 48.8111 66.9353 48.7177 66.9287 48.6282L67.0403 48.6199C67.0471 48.7096 67.0538 48.8031 67.0606 48.9002L66.9488 48.9079ZM47.2057 48.7253L47.1926 48.4442L47.3045 48.439L47.3176 48.7201L47.2057 48.7253ZM66.9068 48.3487C66.8987 48.2488 66.8906 48.1555 66.8827 48.0695L66.9942 48.0592C67.0022 48.1455 67.0103 48.2393 67.0184 48.3396L66.9068 48.3487ZM47.1797 48.1625L47.167 47.8787L47.2789 47.8738L47.2916 48.1576L47.1797 48.1625ZM47.3567 47.8661L47.3314 47.7571C47.3989 47.7414 47.4942 47.7257 47.6146 47.7105L47.6286 47.8216C47.5121 47.8363 47.4206 47.8514 47.3567 47.8661ZM47.9064 47.7912L47.8958 47.6797C47.982 47.6715 48.0757 47.6633 48.1765 47.6553L48.1853 47.7669C48.0853 47.7749 47.9921 47.783 47.9064 47.7912ZM66.8547 47.7909C66.8413 47.6713 66.8286 47.579 66.817 47.5165L66.9271 47.4959C66.9392 47.5612 66.9523 47.6562 66.966 47.7785L66.8547 47.7909ZM48.4648 47.7462L48.457 47.6344C48.5464 47.6283 48.6399 47.6221 48.7375 47.6161L48.7444 47.7279C48.6472 47.7339 48.5539 47.74 48.4648 47.7462ZM49.0242 47.7114L49.0179 47.5996C49.1085 47.5944 49.202 47.5893 49.2983 47.5844L49.3041 47.6963C49.208 47.7012 49.1147 47.7062 49.0242 47.7114ZM49.584 47.6823L49.5785 47.5704C49.6699 47.566 49.7633 47.5616 49.8588 47.5573L49.8639 47.6692C49.7686 47.6735 49.6752 47.6779 49.584 47.6823ZM50.1438 47.6569L50.1391 47.545L50.4193 47.5334L50.4238 47.6453L50.1438 47.6569ZM50.7039 47.6343L50.6996 47.5224L50.9798 47.5119L50.9839 47.6238L50.7039 47.6343ZM51.264 47.6138L51.2601 47.5019L51.5403 47.4924L51.544 47.6043L51.264 47.6138ZM51.8241 47.5952L51.8205 47.4833L52.1007 47.4745L52.1041 47.5865L51.8241 47.5952ZM52.3843 47.5781L52.381 47.4661L52.6612 47.458L52.6644 47.57L52.3843 47.5781ZM52.9444 47.5621L52.9413 47.4501L53.2215 47.4425L53.2245 47.5545L52.9444 47.5621ZM53.5046 47.5473L53.5017 47.4353L53.7819 47.4282L53.7846 47.5402L53.5046 47.5473ZM54.0649 47.5335L54.0622 47.4215L54.3423 47.4149L54.345 47.5269L54.0649 47.5335ZM54.625 47.5204L54.6226 47.4084L54.9027 47.4023L54.9051 47.5143L54.625 47.5204ZM55.1852 47.5084L55.1829 47.3964L55.4631 47.3906L55.4654 47.5026L55.1852 47.5084ZM55.7456 47.4969L55.7434 47.3849L56.0235 47.3795L56.0257 47.4915L55.7456 47.4969ZM56.3058 47.4862L56.3038 47.3742L56.584 47.3692L56.5859 47.4812L56.3058 47.4862ZM56.866 47.4762L56.8641 47.3642L57.1452 47.3595L57.1471 47.4715L56.866 47.4762ZM57.4277 47.4669L57.4259 47.3549L57.7061 47.3504L57.7079 47.4624L57.4277 47.4669ZM57.9876 47.4582L57.986 47.3462L58.2654 47.3421L58.267 47.4541L57.9876 47.4582ZM58.5472 47.45L58.5456 47.338L58.8258 47.3342L58.8273 47.4462L58.5472 47.45ZM59.1076 47.4426L59.106 47.3306L59.3863 47.3271L59.3877 47.4391L59.1076 47.4426ZM66.6685 47.4384C66.5986 47.4342 66.505 47.4304 66.3903 47.4268L66.3937 47.3148C66.5096 47.3184 66.6043 47.3224 66.6752 47.3266L66.6685 47.4384ZM59.6679 47.4357L59.6666 47.3237L59.9468 47.3205L59.9481 47.4325L59.6679 47.4357ZM60.2283 47.4293L60.2271 47.3174L60.5073 47.3144L60.5084 47.4264L60.2283 47.4293ZM60.7886 47.4238L60.7876 47.3118L61.0678 47.3092L61.0688 47.4212L60.7886 47.4238ZM66.1109 47.4199C66.0245 47.4183 65.9311 47.4167 65.8312 47.4153L65.8327 47.3033C65.9329 47.3047 66.0265 47.3063 66.1131 47.3079L66.1109 47.4199ZM61.349 47.4188L61.3481 47.3068L61.6283 47.3045L61.6292 47.4165L61.349 47.4188ZM61.9095 47.4145L61.9087 47.3025L62.1889 47.3006L62.1897 47.4126L61.9095 47.4145ZM65.5513 47.4119C65.462 47.411 65.3687 47.4103 65.2715 47.4096L65.2722 47.2976C65.3696 47.2983 65.463 47.299 65.5525 47.2999L65.5513 47.4119ZM62.4699 47.4108L62.4693 47.2988L62.7497 47.2974L62.7502 47.4094L62.4699 47.4108ZM63.0305 47.4082L63.03 47.2962L63.3104 47.2952L63.3108 47.4072L63.0305 47.4082ZM64.9915 47.4078L64.7116 47.4068L64.7119 47.2948L64.9921 47.2958L64.9915 47.4078ZM63.591 47.4064L63.5908 47.2945L63.8711 47.294L63.8713 47.406L63.591 47.4064ZM64.4316 47.4062L64.1516 47.4059L64.1516 47.2939L64.4317 47.2942L64.4316 47.4062Z" fill="#F8B151"/>
    <path opacity="0.48" d="M26.1382 43.4829C26.1382 43.4829 26.7687 56.547 27.2253 56.7668C27.6819 56.9867 43.8038 57.3249 44.0718 56.6638C44.3397 56.0027 43.6161 44.3052 43.0591 43.9999C42.5021 43.6946 26.1028 42.7757 26.1382 43.4829Z" fill="#F8B151"/>
    <mask id="mask1_8802_4352" style="mask-type:luminance" maskUnits="userSpaceOnUse" x="26" y="43" width="19" height="15">
        <path d="M26.1382 43.4819C26.1382 43.4819 26.7687 56.546 27.2253 56.7659C27.6819 56.9857 43.8038 57.3239 44.0718 56.6628C44.3397 56.0018 43.6161 44.3042 43.0591 43.9989C42.5021 43.6936 26.1028 42.7747 26.1382 43.4819Z" fill="white"/>
    </mask>
    <g mask="url(#mask1_8802_4352)">
        <path opacity="0.21" d="M30.0446 42.7103L25.4121 50.1436L26.0713 54.4544L31.0334 48.5816L27.1468 57.4912L32.3992 57.6517L36.5645 47.9843L34.1517 57.6827L42.0066 57.5139L44.3257 48.3534L44.2729 43.0355L42.5599 42.9466L40.2377 52.0377L41.4326 42.8027L35.3559 42.454L32.8006 49.2931L34.5437 42.4292L30.0446 42.7103Z" fill="white"/>
    </g>
    <path d="M35.9878 40.3117C35.9878 40.3117 39.3888 33.1084 44.6101 32.8756C49.8316 32.6428 52.2169 40.8522 52.2169 40.8522L44.8761 40.8976L35.9878 40.3117Z" fill="#68A9FD"/>
    <mask id="mask2_8802_4352" style="mask-type:luminance" maskUnits="userSpaceOnUse" x="35" y="32" width="18" height="9">
        <path d="M35.9878 40.3126C35.9878 40.3126 39.3888 33.1093 44.6101 32.8766C49.8316 32.6438 52.2169 40.8531 52.2169 40.8531L44.8761 40.8986L35.9878 40.3126Z" fill="white"/>
    </mask>
    <g mask="url(#mask2_8802_4352)">
        <path opacity="0.34" d="M42.6305 32.691C42.6305 32.691 44.3811 36.7216 45.3582 37.5766C46.3353 38.4316 52.8494 39.3272 52.8494 39.3272L53.0122 41.7758C53.0122 41.7758 43.8111 41.0677 42.6305 41.1542C41.4498 41.2407 35.1338 40.4672 35.1338 40.4672C35.1338 40.4672 36.6049 36.5588 37.3378 35.8666C38.0706 35.1745 42.6305 32.691 42.6305 32.691Z" fill="#6880E4"/>
    </g>
    <path d="M44.6104 32.8751C44.6104 32.8751 49.1704 32.4529 52.1841 40.7618C54.9292 48.3304 66.3478 60.3436 68.3607 62.4242C68.5417 62.6113 68.8208 62.6631 69.0569 62.5535C70.2382 62.005 73.6926 60.4119 73.9012 60.4378C74.1531 60.469 76.6721 52.8152 77.3649 52.6747C78.0576 52.5342 84.67 49.8657 84.7329 49.2477C84.7959 48.6298 71.2131 33.8307 67.1728 31.3747C63.1325 28.9187 45.0436 32.2974 44.6104 32.8751Z" fill="#7DB9F9"/>
    <path d="M46.3276 32.3525C46.3276 32.3525 49.9315 33.1444 52.452 37.9053C54.9724 42.6661 55.8126 45.7525 59.6866 50.1371C63.5607 54.5217 68.4902 61.1495 69.3627 60.9162C70.2352 60.6828 73.0033 59.5377 73.0966 59.3044C73.19 59.071 75.258 52.4309 75.7248 52.0575C76.1915 51.6841 83.1184 48.8694 83.025 48.6881C82.9317 48.5068 71.4021 35.2916 70.5619 34.7315C69.7218 34.1714 66.0556 30.5457 63.2457 30.5287C60.4359 30.5117 52.8523 30.2537 46.3276 32.3525Z" fill="#97C7FA"/>
    <mask id="mask3_8802_4352" style="mask-type:luminance" maskUnits="userSpaceOnUse" x="46" y="30" width="38" height="31">
        <path d="M46.3276 32.3532C46.3276 32.3532 49.9315 33.1452 52.452 37.906C54.9724 42.6669 55.8126 45.7532 59.6866 50.1378C63.5607 54.5224 68.4902 61.1503 69.3627 60.9169C70.2352 60.6835 73.0033 59.5385 73.0966 59.3051C73.19 59.0718 75.258 52.4316 75.7248 52.0582C76.1915 51.6848 83.1184 48.8701 83.025 48.6889C82.9317 48.5075 71.4021 35.2923 70.5619 34.7322C69.7218 34.1721 66.0556 30.5464 63.2457 30.5294C60.4359 30.5125 52.8523 30.2544 46.3276 32.3532Z" fill="white"/>
    </mask>
    <g mask="url(#mask3_8802_4352)">
        <path opacity="0.24" d="M78.1286 41.1538L73.2512 63.7868L63.6595 63.1327L65.8865 47.4143L61.7674 57.0522L55.96 49.9313L61.1583 35.8281L53.9304 46.9028L45.9497 35.449L57.2655 29.6968L69.3359 30.1056L72.7694 33.9478L70.117 48.6377L74.2863 35.449L78.1286 41.1538Z" fill="#F6F9FF"/>
    </g>
    <path d="M62.2444 36.045C61.0886 37.0109 61.0054 38.8733 61.3093 40.2392C61.6266 41.6656 62.4041 43.0509 63.5325 43.9918C64.6814 44.9498 66.5021 45.6035 67.91 44.8125C68.5233 44.468 68.9695 43.8646 69.1956 43.1984C69.8846 41.1677 68.8617 39.0817 67.4663 37.6212C66.2068 36.3032 64.2625 34.6078 62.4022 35.9236C62.3475 35.9623 62.2949 36.0028 62.2444 36.045Z" fill="#68A9FD"/>
    <path d="M40.4618 32.7824H11.9138C11.5411 32.7824 11.1979 32.4803 11.1471 32.1077L8.65329 13.8049C8.6025 13.4322 8.86345 13.1301 9.23607 13.1301H37.7841C38.1567 13.1301 38.5 13.4322 38.5508 13.8049L41.0446 32.1077C41.0954 32.4803 40.8344 32.7824 40.4618 32.7824Z" fill="#F9C438"/>
    <path d="M24.0035 18.3687H11.5925C11.4704 18.3687 11.3579 18.2697 11.3413 18.1477L10.9811 15.5036C10.9644 15.3815 11.0499 15.2826 11.172 15.2826H23.583C23.7051 15.2826 23.8176 15.3815 23.8342 15.5036L24.1944 18.1477C24.2111 18.2697 24.1256 18.3687 24.0035 18.3687Z" fill="#F6AB36"/>
    <path d="M12.8709 20.0463L13.2217 20.6033C13.2344 20.6236 13.2557 20.6376 13.2784 20.6408L13.9052 20.7301C13.9626 20.7383 13.9946 20.8075 13.9592 20.8472L13.5735 21.2807C13.5595 21.2964 13.5552 21.3192 13.562 21.3415L13.7504 21.9536C13.7677 22.0097 13.7146 22.0524 13.6607 22.026L13.0716 21.737C13.0501 21.7264 13.0263 21.7264 13.0078 21.737L12.4974 22.026C12.4506 22.0525 12.386 22.0097 12.388 21.9536L12.4095 21.3415C12.4103 21.3192 12.3998 21.2965 12.3815 21.2807L11.8777 20.8472C11.8316 20.8075 11.8446 20.7383 11.8998 20.7301L12.5023 20.6408C12.5241 20.6376 12.5416 20.6235 12.5488 20.6033L12.7477 20.0463C12.7661 19.9953 12.8388 19.9953 12.8709 20.0463Z" fill="#F6AB36"/>
    <path d="M16.7264 20.0463L17.0772 20.6033C17.09 20.6236 17.1112 20.6376 17.134 20.6408L17.7608 20.7301C17.8182 20.7383 17.8501 20.8075 17.8148 20.8472L17.429 21.2807C17.415 21.2964 17.4107 21.3192 17.4176 21.3415L17.6059 21.9536C17.6232 22.0097 17.5701 22.0524 17.5162 22.026L16.9271 21.737C16.9057 21.7264 16.8818 21.7264 16.8632 21.737L16.3528 22.026C16.3061 22.0525 16.2415 22.0097 16.2434 21.9536L16.265 21.3415C16.2658 21.3192 16.2553 21.2965 16.237 21.2807L15.7332 20.8472C15.687 20.8075 15.7001 20.7383 15.7552 20.7301L16.3577 20.6408C16.3796 20.6376 16.397 20.6235 16.4043 20.6033L16.6032 20.0463C16.6216 19.9953 16.6943 19.9953 16.7264 20.0463Z" fill="#F6AB36"/>
    <path d="M20.5824 20.0463L20.9331 20.6033C20.9459 20.6236 20.9671 20.6376 20.9899 20.6408L21.6167 20.7301C21.6741 20.7383 21.706 20.8075 21.6707 20.8472L21.285 21.2807C21.271 21.2964 21.2667 21.3192 21.2735 21.3415L21.4619 21.9536C21.4791 22.0097 21.4261 22.0524 21.3722 22.026L20.783 21.737C20.7616 21.7264 20.7377 21.7264 20.7192 21.737L20.2088 22.026C20.1621 22.0525 20.0974 22.0097 20.0994 21.9536L20.1209 21.3415C20.1217 21.3192 20.1113 21.2965 20.0929 21.2807L19.5891 20.8472C19.543 20.8075 19.556 20.7383 19.6112 20.7301L20.2137 20.6408C20.2356 20.6376 20.253 20.6235 20.2602 20.6033L20.4592 20.0463C20.4775 19.9953 20.5502 19.9953 20.5824 20.0463Z" fill="#F6AB36"/>
    <path d="M24.4383 20.0463L24.789 20.6033C24.8018 20.6236 24.823 20.6376 24.8458 20.6408L25.4726 20.7301C25.53 20.7383 25.5619 20.8075 25.5266 20.8472L25.1409 21.2807C25.1269 21.2964 25.1226 21.3192 25.1295 21.3415L25.3178 21.9536C25.3351 22.0097 25.2821 22.0524 25.2281 22.026L24.639 21.737C24.6175 21.7264 24.5937 21.7264 24.5751 21.737L24.0648 22.026C24.0181 22.0525 23.9534 22.0097 23.9553 21.9536L23.9769 21.3415C23.9777 21.3192 23.9672 21.2965 23.9489 21.2807L23.4451 20.8472C23.3989 20.8075 23.412 20.7383 23.4671 20.7301L24.0696 20.6408C24.0915 20.6376 24.1089 20.6235 24.1162 20.6033L24.3151 20.0463C24.3334 19.9953 24.4061 19.9953 24.4383 20.0463Z" fill="#F6AB36"/>
    <path d="M28.2943 20.0463L28.6451 20.6033C28.6578 20.6236 28.6791 20.6376 28.7018 20.6408L29.3286 20.7301C29.386 20.7383 29.418 20.8075 29.3826 20.8472L28.9969 21.2807C28.9829 21.2964 28.9786 21.3192 28.9854 21.3415L29.1738 21.9536C29.1911 22.0097 29.138 22.0524 29.0841 22.026L28.495 21.737C28.4735 21.7264 28.4497 21.7264 28.4311 21.737L27.9207 22.026C27.874 22.0525 27.8093 22.0097 27.8113 21.9536L27.8329 21.3415C27.8336 21.3192 27.8232 21.2965 27.8049 21.2807L27.301 20.8472C27.2549 20.8075 27.2679 20.7383 27.3231 20.7301L27.9256 20.6408C27.9475 20.6376 27.9649 20.6235 27.9721 20.6033L28.1711 20.0463C28.1895 19.9953 28.2621 19.9953 28.2943 20.0463Z" fill="white"/>
    <path d="M35.1775 25.0328H12.4503C12.3562 25.0328 12.2695 24.9565 12.2567 24.8624L12.1178 23.843C12.105 23.7489 12.1709 23.6726 12.265 23.6726H34.9922C35.0864 23.6726 35.1731 23.7489 35.1859 23.843L35.3248 24.8624C35.3376 24.9565 35.2717 25.0328 35.1775 25.0328Z" fill="#F6AB36"/>
    <path d="M35.4886 27.3162H12.7614C12.6672 27.3162 12.5805 27.2399 12.5677 27.1458L12.4288 26.1265C12.416 26.0324 12.4819 25.9561 12.5761 25.9561H35.3033C35.3974 25.9561 35.4841 26.0324 35.4969 26.1265L35.6358 27.1458C35.6487 27.2399 35.5828 27.3162 35.4886 27.3162Z" fill="#F6AB36"/>
    <path d="M24.638 29.5996H13.1428C13.0097 29.5996 12.8871 29.4917 12.8689 29.3585L12.7493 28.4805C12.7312 28.3473 12.8244 28.2394 12.9575 28.2394H24.4527C24.5858 28.2394 24.7085 28.3473 24.7266 28.4805L24.8462 29.3585C24.8644 29.4917 24.7712 29.5996 24.638 29.5996Z" fill="#F6AB36"/>
    <path d="M74.9308 29.2092H47.5825C47.1715 29.2092 46.7857 28.8759 46.7208 28.4649L45.6895 21.9328C45.6246 21.5217 45.9052 21.1885 46.3163 21.1885H73.6645C74.0756 21.1885 74.4614 21.5217 74.5263 21.9328L75.5576 28.4649C75.6225 28.876 75.3419 29.2092 74.9308 29.2092Z" fill="#F9C438"/>
    <path d="M49.896 25.0165C49.6801 24.8634 49.5198 24.628 49.478 24.3635C49.4051 23.9019 49.7203 23.5276 50.1819 23.5276C50.6436 23.5276 51.0769 23.9019 51.1498 24.3635C51.1915 24.628 51.1055 24.8634 50.938 25.0165C51.7836 25.2181 52.5198 25.8809 52.8072 26.7116C53.024 26.2991 53.1105 25.8004 53.0257 25.2631C52.8016 23.8439 51.4695 22.6934 50.0502 22.6934C48.631 22.6934 47.6622 23.8439 47.8862 25.2631C47.971 25.8004 48.2149 26.2991 48.5621 26.7116C48.5873 25.8809 49.114 25.2181 49.896 25.0165Z" fill="#F6AB36"/>
    <path d="M50.8615 27.8328C51.7434 27.8328 52.4511 27.3884 52.8071 26.7115C52.5197 25.8809 51.7836 25.2181 50.938 25.0165C51.1055 24.8633 51.1915 24.628 51.1497 24.3635C51.0769 23.9018 50.6435 23.5276 50.1819 23.5276C49.7202 23.5276 49.4051 23.9018 49.478 24.3635C49.5198 24.628 49.68 24.8633 49.896 25.0165C49.114 25.2181 48.5872 25.8808 48.562 26.7115C49.1316 27.3884 49.9797 27.8328 50.8615 27.8328Z" fill="white"/>
    <path d="M72.4665 24.8306H56.148C55.9518 24.8306 55.7676 24.6715 55.7366 24.4752L55.4835 22.8717C55.4525 22.6754 55.5864 22.5164 55.7827 22.5164H72.1011C72.2974 22.5164 72.4816 22.6754 72.5126 22.8717L72.7657 24.4752C72.7967 24.6715 72.6628 24.8306 72.4665 24.8306Z" fill="#F6AB36"/>
    <path d="M72.9479 27.8822H56.6295C56.4332 27.8822 56.249 27.7231 56.2181 27.5268L55.9649 25.9234C55.9339 25.7271 56.0679 25.568 56.2642 25.568H72.5826C72.7789 25.568 72.963 25.7271 72.994 25.9234L73.2472 27.5268C73.2782 27.7231 73.1442 27.8822 72.9479 27.8822Z" fill="#F6AB36"/>
    <path d="M57.9041 23.7667C57.938 23.9809 57.7917 24.1546 57.5775 24.1546C57.3633 24.1546 57.1622 23.9809 57.1284 23.7667C57.0946 23.5524 57.2408 23.3788 57.455 23.3788C57.6692 23.3788 57.8703 23.5525 57.9041 23.7667Z" fill="#F9C438"/>
    <path d="M59.7962 23.7666C59.8301 23.9808 59.6838 24.1545 59.4696 24.1545C59.2553 24.1545 59.0543 23.9808 59.0205 23.7666C58.9867 23.5523 59.1329 23.3787 59.3471 23.3787C59.5613 23.3787 59.7624 23.5524 59.7962 23.7666Z" fill="#F9C438"/>
    <path d="M61.6883 23.7666C61.7222 23.9808 61.5759 24.1545 61.3617 24.1545C61.1474 24.1545 60.9464 23.9808 60.9126 23.7666C60.8788 23.5523 61.025 23.3787 61.2392 23.3787C61.4534 23.3787 61.6545 23.5524 61.6883 23.7666Z" fill="#F9C438"/>
    <path d="M63.5804 23.7666C63.6142 23.9808 63.468 24.1545 63.2538 24.1545C63.0396 24.1545 62.8385 23.9808 62.8047 23.7666C62.7708 23.5523 62.9171 23.3787 63.1313 23.3787C63.3456 23.3787 63.5466 23.5524 63.5804 23.7666Z" fill="#F9C438"/>
    <path d="M65.4725 23.7666C65.5063 23.9808 65.3601 24.1545 65.1459 24.1545C64.9317 24.1545 64.7306 23.9808 64.6968 23.7666C64.6629 23.5523 64.8092 23.3787 65.0234 23.3787C65.2376 23.3787 65.4387 23.5524 65.4725 23.7666Z" fill="#F9C438"/>
    <path d="M67.3651 23.7666C67.3989 23.9808 67.2526 24.1545 67.0384 24.1545C66.8243 24.1545 66.6232 23.9808 66.5893 23.7666C66.5555 23.5523 66.7018 23.3787 66.916 23.3787C67.1302 23.3787 67.3313 23.5524 67.3651 23.7666Z" fill="#F9C438"/>
    <path d="M69.2572 23.7666C69.291 23.9808 69.1447 24.1545 68.9305 24.1545C68.7163 24.1545 68.5152 23.9808 68.4814 23.7666C68.4476 23.5523 68.5939 23.3787 68.8081 23.3787C69.0223 23.3787 69.2233 23.5524 69.2572 23.7666Z" fill="#F9C438"/>
    <path d="M71.1493 23.7666C71.1831 23.9808 71.0368 24.1545 70.8226 24.1545C70.6084 24.1545 70.4073 23.9808 70.3735 23.7666C70.3397 23.5523 70.486 23.3787 70.7002 23.3787C70.9144 23.3787 71.1154 23.5524 71.1493 23.7666Z" fill="#F9C438"/>
    <path d="M58.3719 26.7248C58.4057 26.9391 58.2595 27.1127 58.0453 27.1127C57.8311 27.1127 57.63 26.9391 57.5962 26.7248C57.5623 26.5106 57.7086 26.3369 57.9228 26.3369C58.137 26.3369 58.3381 26.5106 58.3719 26.7248Z" fill="#F9C438"/>
    <path d="M60.264 26.7248C60.2978 26.9391 60.1516 27.1127 59.9374 27.1127C59.7232 27.1127 59.5221 26.9391 59.4883 26.7248C59.4544 26.5106 59.6007 26.3369 59.8149 26.3369C60.0291 26.3369 60.2302 26.5106 60.264 26.7248Z" fill="#F9C438"/>
    <path d="M62.1561 26.7248C62.1899 26.9391 62.0437 27.1127 61.8295 27.1127C61.6153 27.1127 61.4142 26.9391 61.3803 26.7248C61.3465 26.5106 61.4928 26.3369 61.707 26.3369C61.9212 26.3369 62.1223 26.5106 62.1561 26.7248Z" fill="#F9C438"/>
    <path d="M64.0482 26.7248C64.082 26.9391 63.9357 27.1127 63.7216 27.1127C63.5074 27.1127 63.3063 26.9391 63.2724 26.7248C63.2386 26.5106 63.3849 26.3369 63.5991 26.3369C63.8133 26.3369 64.0144 26.5106 64.0482 26.7248Z" fill="#F9C438"/>
    <path d="M65.9403 26.7248C65.9741 26.9391 65.8278 27.1127 65.6136 27.1127C65.3994 27.1127 65.1984 26.9391 65.1645 26.7248C65.1307 26.5106 65.277 26.3369 65.4912 26.3369C65.7054 26.3369 65.9065 26.5106 65.9403 26.7248Z" fill="#F9C438"/>
    <path d="M67.8324 26.7248C67.8662 26.9391 67.7199 27.1127 67.5057 27.1127C67.2915 27.1127 67.0904 26.9391 67.0566 26.7248C67.0228 26.5106 67.1691 26.3369 67.3833 26.3369C67.5975 26.3369 67.7985 26.5106 67.8324 26.7248Z" fill="#F9C438"/>
    <path d="M69.7245 26.7248C69.7583 26.9391 69.612 27.1127 69.3978 27.1127C69.1836 27.1127 68.9825 26.9391 68.9487 26.7248C68.9149 26.5106 69.0612 26.3369 69.2754 26.3369C69.4895 26.3369 69.6906 26.5106 69.7245 26.7248Z" fill="#F9C438"/>
    <path d="M71.6166 26.7248C71.6504 26.9391 71.5042 27.1127 71.29 27.1127C71.0757 27.1127 70.8746 26.9391 70.8408 26.7248C70.807 26.5106 70.9532 26.3369 71.1674 26.3369C71.3817 26.3369 71.5828 26.5106 71.6166 26.7248Z" fill="#F9C438"/>
    <path d="M65.4553 16.2503C65.3827 16.1798 65.3496 16.0787 65.3667 15.979C65.5492 14.9138 66.9259 9.2922 70.7612 7.57936C74.3508 5.97629 78.7351 2.80692 79.343 2.45962C79.9508 2.11231 81.0599 6.3638 81.6677 6.53745C82.2755 6.7111 84.9837 8.40008 85.2277 9.05745C85.4717 9.71482 76.3258 12.7892 75.567 14.4389C74.8082 16.0886 73.6916 19.9091 73.2513 20.0828C72.8111 20.2564 69.2934 19.3013 68.6644 19.0408C68.1132 18.8125 65.9751 16.7551 65.4553 16.2503Z" fill="#7DB9F9"/>
    <path d="M65.8995 15.8063C65.8995 15.8063 67.2707 10.7464 69.5169 9.07992C71.7632 7.41334 73.2123 7.05108 74.8547 6.03661C76.4971 5.02219 79.2747 2.99335 79.3472 3.13822C79.4196 3.28315 80.7722 6.64039 80.9896 6.76118C81.207 6.88196 84.7091 8.86247 84.7574 9.03153C84.8058 9.20059 75.9899 12.1472 75.1929 13.8622C74.3958 15.577 73.3331 19.5381 73.1157 19.6347C72.8983 19.7313 68.9098 18.6591 68.6441 18.4901C68.3785 18.321 65.6839 15.8555 65.8995 15.8063Z" fill="#97C7FA"/>
    <mask id="mask4_8802_4352" style="mask-type:luminance" maskUnits="userSpaceOnUse" x="65" y="3" width="20" height="17">
        <path d="M65.9004 15.8053C65.9004 15.8053 67.2717 10.7455 69.5179 9.07894C71.7641 7.41236 73.2133 7.0501 74.8557 6.03563C76.4981 5.02121 79.2757 2.99238 79.3482 3.13725C79.4206 3.28217 80.7732 6.63941 80.9905 6.7602C81.2079 6.88099 84.7101 8.8615 84.7584 9.03056C84.8067 9.19962 75.9909 12.1463 75.1938 13.8612C74.3968 15.576 73.3341 19.5372 73.1167 19.6338C72.8993 19.7304 68.9108 18.6581 68.6451 18.4891C68.3795 18.32 65.6849 15.8545 65.9004 15.8053Z" fill="white"/>
    </mask>
    <g mask="url(#mask4_8802_4352)">
        <path opacity="0.24" d="M78.5809 2.66211L80.8523 12.4051L76.6812 15.2578L75.4982 8.98482L75.5682 16.3315L74.4099 20.1028L69.8258 12.78L72.0014 20.5439L67.761 18.8506L66.1504 11.9127L68.8703 7.61778L72.3028 11.8554L71.2294 6.37886L75.323 3.7771L77.0116 7.94817L76.516 3.13048L78.5809 2.66211Z" fill="#F6F9FF"/>
    </g>
    <path d="M73.4714 8.79082C73.4186 8.80768 73.3677 8.8252 73.3189 8.84318C72.5028 9.14457 72.0576 9.89394 72.0039 10.7436C71.9792 11.1346 72.0701 11.5401 72.3015 11.8563C72.5797 12.2365 73.0686 12.4361 73.533 12.4024C74.0566 12.3645 74.4516 11.9121 74.7851 11.556C75.1048 11.2147 75.6117 11.0276 75.7932 10.5684C75.9988 10.0484 75.8997 9.38312 75.4968 8.98575C74.9562 8.45259 74.1284 8.58139 73.4714 8.79082Z" fill="#68A9FD"/>
    <path d="M34.7036 70.0378C36.0201 70.0378 37.0873 68.9705 37.0873 67.654C37.0873 66.3375 36.0201 65.2703 34.7036 65.2703C33.3871 65.2703 32.3198 66.3375 32.3198 67.654C32.3198 68.9705 33.3871 70.0378 34.7036 70.0378Z" fill="#D4DFFF"/>
    <path d="M42.5249 70.0378C43.8414 70.0378 44.9086 68.9705 44.9086 67.654C44.9086 66.3375 43.8414 65.2703 42.5249 65.2703C41.2084 65.2703 40.1411 66.3375 40.1411 67.654C40.1411 68.9705 41.2084 70.0378 42.5249 70.0378Z" fill="#D4DFFF"/>
    <path d="M50.3462 70.0378C51.6627 70.0378 52.7299 68.9705 52.7299 67.654C52.7299 66.3375 51.6627 65.2703 50.3462 65.2703C49.0296 65.2703 47.9624 66.3375 47.9624 67.654C47.9624 68.9705 49.0296 70.0378 50.3462 70.0378Z" fill="#D4DFFF"/>
    <path d="M58.1674 70.0378C59.484 70.0378 60.5512 68.9705 60.5512 67.654C60.5512 66.3375 59.484 65.2703 58.1674 65.2703C56.8509 65.2703 55.7837 66.3375 55.7837 67.654C55.7837 68.9705 56.8509 70.0378 58.1674 70.0378Z" fill="#D4DFFF"/>
    <path d="M123.094 37.066C123.463 36.6401 123.362 35.9478 122.868 35.5197C122.374 35.0916 121.674 35.0898 121.305 35.5158C120.936 35.9417 121.037 36.634 121.531 37.0621C122.026 37.4902 122.725 37.4919 123.094 37.066Z" fill="#D4DFFF"/>
    <path d="M127.375 37.0656C127.744 36.6397 127.642 35.9474 127.148 35.5193C126.654 35.0912 125.954 35.0895 125.585 35.5154C125.216 35.9413 125.318 36.6337 125.812 37.0617C126.306 37.4898 127.006 37.4916 127.375 37.0656Z" fill="#D4DFFF"/>
    <path d="M131.655 37.0658C132.024 36.6398 131.923 35.9475 131.429 35.5194C130.935 35.0913 130.235 35.0896 129.866 35.5155C129.497 35.9415 129.598 36.6338 130.092 37.0619C130.587 37.49 131.286 37.4917 131.655 37.0658Z" fill="#D4DFFF"/>
    <path d="M135.935 37.0637C136.304 36.6378 136.203 35.9454 135.709 35.5173C135.214 35.0893 134.515 35.0875 134.146 35.5134C133.777 35.9394 133.878 36.6317 134.372 37.0598C134.866 37.4879 135.566 37.4896 135.935 37.0637Z" fill="#D4DFFF"/>
    <path d="M123.64 40.7224C124.009 40.2964 123.908 39.6041 123.414 39.176C122.92 38.7479 122.22 38.7462 121.851 39.1721C121.482 39.5981 121.583 40.2904 122.077 40.7185C122.571 41.1466 123.271 41.1483 123.64 40.7224Z" fill="#D4DFFF"/>
    <path d="M127.921 40.7221C128.29 40.2962 128.189 39.6039 127.694 39.1758C127.2 38.7477 126.501 38.746 126.132 39.1719C125.763 39.5978 125.864 40.2902 126.358 40.7182C126.852 41.1463 127.552 41.1481 127.921 40.7221Z" fill="#D4DFFF"/>
    <path d="M132.411 39.9459C132.501 40.5498 132.08 41.0394 131.469 41.0395C130.859 41.0396 130.292 40.5501 130.202 39.9463C130.111 39.3424 130.533 38.8528 131.143 38.8527C131.753 38.8525 132.321 39.342 132.411 39.9459Z" fill="#D4DFFF"/>
    <path d="M136.481 40.7207C136.85 40.2947 136.749 39.6024 136.254 39.1743C135.76 38.7462 135.061 38.7445 134.692 39.1704C134.323 39.5964 134.424 40.2887 134.918 40.7168C135.412 41.1449 136.112 41.1466 136.481 40.7207Z" fill="#D4DFFF"/>
    <path d="M124.396 43.6043C124.486 44.2082 124.065 44.6978 123.455 44.6979C122.845 44.698 122.277 44.2085 122.187 43.6047C122.097 43.0008 122.518 42.5112 123.128 42.5111C123.739 42.5111 124.306 43.0005 124.396 43.6043Z" fill="#D4DFFF"/>
    <path d="M128.466 44.3778C128.835 43.9518 128.733 43.2595 128.239 42.8314C127.745 42.4033 127.045 42.4016 126.676 42.8275C126.307 43.2535 126.409 43.9458 126.903 44.3739C127.397 44.802 128.097 44.8037 128.466 44.3778Z" fill="#D4DFFF"/>
    <path d="M132.957 43.6029C133.047 44.2067 132.625 44.6963 132.015 44.6965C131.405 44.6966 130.838 44.2071 130.747 43.6032C130.657 42.9994 131.079 42.5097 131.689 42.5096C132.299 42.5095 132.867 42.999 132.957 43.6029Z" fill="#D4DFFF"/>
    <path d="M137.027 44.3777C137.396 43.9517 137.294 43.2594 136.8 42.8313C136.306 42.4032 135.607 42.4015 135.237 42.8274C134.868 43.2533 134.97 43.9457 135.464 44.3738C135.958 44.8018 136.658 44.8036 137.027 44.3777Z" fill="#D4DFFF"/>
    <path d="M124.732 48.0373C125.101 47.6114 125 46.9191 124.505 46.491C124.011 46.0629 123.312 46.0611 122.943 46.4871C122.574 46.913 122.675 47.6053 123.169 48.0334C123.663 48.4615 124.363 48.4633 124.732 48.0373Z" fill="#D4DFFF"/>
    <path d="M129.011 48.0348C129.38 47.6088 129.279 46.9165 128.785 46.4884C128.291 46.0603 127.591 46.0586 127.222 46.4845C126.853 46.9105 126.954 47.6028 127.448 48.0309C127.943 48.459 128.642 48.4607 129.011 48.0348Z" fill="#D4DFFF"/>
    <path d="M133.292 48.0344C133.661 47.6085 133.56 46.9161 133.065 46.488C132.571 46.06 131.872 46.0582 131.503 46.4841C131.134 46.9101 131.235 47.6024 131.729 48.0305C132.223 48.4586 132.923 48.4603 133.292 48.0344Z" fill="#D4DFFF"/>
    <path d="M137.573 48.0351C137.942 47.6092 137.84 46.9169 137.346 46.4888C136.852 46.0607 136.152 46.0589 135.783 46.4849C135.414 46.9108 135.516 47.6031 136.01 48.0312C136.504 48.4593 137.204 48.4611 137.573 48.0351Z" fill="#D4DFFF"/>
    <path d="M7.84977 45.4336C7.91244 45.8535 7.61934 46.1939 7.19515 46.194C6.77096 46.1941 6.37628 45.8537 6.31361 45.4339C6.25095 45.014 6.54405 44.6735 6.96824 44.6735C7.39243 44.6733 7.78711 45.0137 7.84977 45.4336Z" fill="#D4DFFF"/>
    <path d="M10.6799 45.9723C10.9365 45.6762 10.866 45.1948 10.5224 44.8971C10.1789 44.5995 9.69236 44.5983 9.43578 44.8944C9.17919 45.1906 9.2497 45.672 9.59327 45.9696C9.93683 46.2673 10.4233 46.2685 10.6799 45.9723Z" fill="#D4DFFF"/>
    <path d="M13.6555 45.9722C13.9121 45.676 13.8416 45.1947 13.498 44.897C13.1545 44.5993 12.6679 44.5981 12.4114 44.8943C12.1548 45.1905 12.2253 45.6718 12.5689 45.9695C12.9124 46.2671 13.3989 46.2684 13.6555 45.9722Z" fill="#D4DFFF"/>
    <path d="M16.778 45.4321C16.8407 45.852 16.5476 46.1925 16.1234 46.1925C15.6992 46.1926 15.3045 45.8523 15.2418 45.4324C15.1792 45.0125 15.4723 44.6721 15.8965 44.672C16.3207 44.6719 16.7153 45.0123 16.778 45.4321Z" fill="#D4DFFF"/>
    <path d="M8.08325 48.5166C8.33983 48.2205 8.26932 47.7391 7.92575 47.4414C7.58219 47.1438 7.09568 47.1426 6.8391 47.4387C6.58251 47.7349 6.65302 48.2163 6.99659 48.5139C7.34015 48.8116 7.82667 48.8128 8.08325 48.5166Z" fill="#D4DFFF"/>
    <path d="M11.2052 47.9768C11.2679 48.3967 10.9748 48.7372 10.5506 48.7372C10.1264 48.7373 9.73175 48.397 9.66908 47.9771C9.60642 47.5572 9.89952 47.2167 10.3237 47.2167C10.7479 47.2166 11.1426 47.5569 11.2052 47.9768Z" fill="#D4DFFF"/>
    <path d="M14.1813 47.9763C14.244 48.3962 13.9509 48.7367 13.5267 48.7367C13.1025 48.7368 12.7078 48.3965 12.6452 47.9766C12.5825 47.5567 12.8756 47.2162 13.2998 47.2162C13.724 47.2161 14.1187 47.5564 14.1813 47.9763Z" fill="#D4DFFF"/>
    <path d="M17.0115 48.515C17.2681 48.2189 17.1975 47.7375 16.854 47.4398C16.5104 47.1422 16.0239 47.141 15.7673 47.4371C15.5107 47.7333 15.5812 48.2147 15.9248 48.5123C16.2684 48.81 16.7549 48.8112 17.0115 48.515Z" fill="#D4DFFF"/>
    <path d="M8.46215 51.0593C8.71874 50.7632 8.64822 50.2818 8.30466 49.9842C7.9611 49.6865 7.47458 49.6853 7.218 49.9815C6.96142 50.2776 7.03193 50.759 7.37549 51.0566C7.71906 51.3543 8.20557 51.3555 8.46215 51.0593Z" fill="#D4DFFF"/>
    <path d="M11.5846 50.5193C11.6473 50.9392 11.3542 51.2796 10.93 51.2797C10.5058 51.2797 10.1111 50.9394 10.0485 50.5196C9.98581 50.0997 10.2789 49.7592 10.7031 49.7592C11.1273 49.7591 11.522 50.0994 11.5846 50.5193Z" fill="#D4DFFF"/>
    <path d="M14.5607 50.5187C14.6234 50.9385 14.3303 51.279 13.9061 51.2791C13.4819 51.2791 13.0872 50.9388 13.0246 50.519C12.9619 50.0991 13.255 49.7586 13.6792 49.7585C14.1034 49.7585 14.498 50.0988 14.5607 50.5187Z" fill="#D4DFFF"/>
    <path d="M17.3904 51.0584C17.647 50.7622 17.5764 50.2808 17.2329 49.9832C16.8893 49.6855 16.4028 49.6843 16.1462 49.9805C15.8896 50.2766 15.9602 50.758 16.3037 51.0557C16.6473 51.3533 17.1338 51.3545 17.3904 51.0584Z" fill="#D4DFFF"/>
    <path d="M8.98747 53.0622C9.05013 53.4821 8.75703 53.8226 8.33284 53.8227C7.90865 53.8227 7.51397 53.4824 7.45131 53.0625C7.38865 52.6427 7.68174 52.3022 8.10594 52.3021C8.53013 52.302 8.92481 52.6424 8.98747 53.0622Z" fill="#D4DFFF"/>
    <path d="M11.8176 53.6006C12.0742 53.3045 12.0037 52.8231 11.6601 52.5254C11.3166 52.2278 10.8301 52.2266 10.5735 52.5227C10.3169 52.8189 10.3874 53.3003 10.731 53.5979C11.0745 53.8956 11.561 53.8968 11.8176 53.6006Z" fill="#D4DFFF"/>
    <path d="M14.7932 53.6012C15.0498 53.3051 14.9793 52.8237 14.6357 52.526C14.2922 52.2284 13.8056 52.2272 13.5491 52.5233C13.2925 52.8195 13.363 53.3009 13.7065 53.5985C14.0501 53.8962 14.5366 53.8974 14.7932 53.6012Z" fill="#D4DFFF"/>
    <path d="M17.9162 53.0607C17.9788 53.4805 17.6857 53.821 17.2616 53.8211C16.8374 53.8211 16.4427 53.4808 16.38 53.0609C16.3174 52.6411 16.6105 52.3006 17.0346 52.3005C17.4588 52.3004 17.8535 52.6408 17.9162 53.0607Z" fill="#D4DFFF"/>
    <path d="M105.613 88.7798C116.958 88.7798 126.154 88.0204 126.154 87.0836C126.154 86.1468 116.958 85.3873 105.613 85.3873C94.2684 85.3873 85.0718 86.1468 85.0718 87.0836C85.0718 88.0204 94.2684 88.7798 105.613 88.7798Z" fill="#D4DFFF"/>
    <path d="M85.1251 45.9111C85.1251 45.9111 83.9939 46.6913 83.9213 46.7058C83.8487 46.7203 80.7213 46.6832 81.2878 47.217C81.4373 47.3579 83.4911 47.7632 83.4911 47.7632L84.67 49.104L85.315 48.6108L86.5232 47.8726L85.1251 45.9111Z" fill="#F8B151"/>
    <mask id="mask5_8802_4352" style="mask-type:luminance" maskUnits="userSpaceOnUse" x="81" y="45" width="6" height="5">
        <path d="M85.1251 45.9119C85.1251 45.9119 83.9939 46.692 83.9213 46.7065C83.8487 46.721 80.7213 46.684 81.2878 47.2178C81.4373 47.3587 83.4911 47.764 83.4911 47.764L84.67 49.1048L85.315 48.6116L86.5232 47.8733L85.1251 45.9119Z" fill="white"/>
    </mask>
    <g mask="url(#mask5_8802_4352)">
        <path d="M83.4912 47.7635C83.4912 47.7635 85.1202 48.1887 85.0746 48.2268C85.029 48.2648 83.5391 47.9987 83.5163 47.9835C83.4935 47.9683 83.4912 47.7635 83.4912 47.7635Z" fill="#FFC73B"/>
    </g>
    <path d="M115.473 78.9299L109.578 54.5893C110.691 50.3487 111.694 45.2575 110.67 42.3475L99.336 42.9388C99.336 42.9388 98.0504 48.6665 98.363 57.0088C98.4738 59.9672 100.944 80.7198 100.944 80.7198H106.36C106.36 80.7198 106.069 73.2354 105.934 68.1456L110.454 80.7198L115.473 78.9299Z" fill="#1B3D9E"/>
    <mask id="mask6_8802_4352" style="mask-type:luminance" maskUnits="userSpaceOnUse" x="98" y="42" width="18" height="39">
        <path d="M115.474 78.9299L109.579 54.5893C110.692 50.3487 111.695 45.2575 110.671 42.3475L99.337 42.9388C99.337 42.9388 98.0513 48.6665 98.3639 57.0088C98.4747 59.9672 100.945 80.7198 100.945 80.7198H106.361C106.361 80.7198 106.07 73.2354 105.935 68.1456L110.455 80.7198L115.474 78.9299Z" fill="white"/>
    </mask>
    <g mask="url(#mask6_8802_4352)">
        <path d="M113.117 79.8612C113.084 79.8612 113.052 79.8411 113.039 79.8081C112.729 79.0259 105.443 60.6311 105.27 58.9737C105.098 57.3207 105.956 43.6411 105.993 43.0596C105.996 43.0132 106.038 42.9778 106.082 42.981C106.128 42.9839 106.163 43.0239 106.16 43.0701C106.151 43.2124 105.267 57.3172 105.437 58.9563C105.607 60.5909 113.119 79.5549 113.195 79.7462C113.212 79.7894 113.191 79.8382 113.148 79.8553C113.138 79.8593 113.127 79.8612 113.117 79.8612Z" fill="#1C056D"/>
    </g>
    <mask id="mask7_8802_4352" style="mask-type:luminance" maskUnits="userSpaceOnUse" x="98" y="42" width="18" height="39">
        <path d="M115.474 78.9299L109.579 54.5893C110.692 50.3487 111.695 45.2575 110.671 42.3475L99.337 42.9388C99.337 42.9388 98.0513 48.6665 98.3639 57.0088C98.4747 59.9672 100.945 80.7198 100.945 80.7198H106.361C106.361 80.7198 106.07 73.2354 105.935 68.1456L110.455 80.7198L115.474 78.9299Z" fill="white"/>
    </mask>
    <g mask="url(#mask7_8802_4352)">
        <path d="M103.516 81.1352C103.475 81.1352 103.439 81.105 103.433 81.0631C103.404 80.865 100.601 61.2267 100.546 59.4116C100.491 57.5992 100.655 44.1897 100.657 44.0545C100.657 44.0085 100.695 43.9716 100.741 43.9716C100.741 43.9716 100.742 43.9716 100.742 43.9716C100.788 43.9722 100.825 44.0102 100.825 44.0566C100.823 44.1917 100.659 57.5977 100.714 59.4065C100.769 61.2123 103.571 80.8413 103.599 81.0394C103.606 81.0853 103.574 81.1279 103.528 81.1344C103.524 81.1349 103.52 81.1352 103.516 81.1352Z" fill="#1C056D"/>
    </g>
    <path d="M111.069 44.5349C111.046 43.5711 110.646 42.1427 110.646 42.1427C110.646 42.1427 103.65 43.411 102.151 43.2273C100.652 43.0436 99.3345 42.9389 99.3345 42.9389L99.186 43.8122C99.186 43.8122 100.186 44.8303 101.288 45.4584L101.286 45.4574C101.286 45.4574 101.766 52.0745 101.952 53.9298C102.137 55.785 102.684 58.042 102.684 58.042C102.351 56.6157 102.248 45.8717 102.248 45.8717C103.647 46.2382 111.069 44.5349 111.069 44.5349Z" fill="#1C056D"/>
    <path d="M103.238 61.077C103.238 61.077 104.341 71.404 106.075 72.841L105.933 68.1456L103.238 61.077Z" fill="#1C056D"/>
    <path d="M105.595 19.9163C105.595 19.9163 110.235 23.149 111.07 25.3485C111.905 27.5481 109.695 42.6606 109.695 42.6606C109.695 42.6606 100.384 43.9126 99.3354 42.9388C98.2871 41.965 98.25 27.2878 98.4773 25.8966C98.7045 24.5054 101.439 20.4327 101.439 20.4327L105.595 19.9163Z" fill="white"/>
    <path d="M101.438 20.4327C101.438 20.4327 98.1102 23.6366 97.405 25.4917C97.3656 25.5952 97.3344 25.6946 97.3124 25.7889C96.7295 27.6567 93.5727 37.7197 93.018 38.3954C92.4065 39.1403 84.6219 45.1051 84.7331 45.3133C84.8443 45.5214 87.3472 49.2349 87.792 49.2469C88.1826 49.2573 95.475 43.4873 97.2467 42.0806C97.3035 42.9458 97.3851 43.4751 97.4992 43.4914C98.1281 43.5812 99.8354 42.9972 99.8354 42.9972C99.8354 42.9972 100.691 29.0723 100.93 22.9924C100.997 21.2736 101.643 20.4699 101.438 20.4327Z" fill="#7DB9F9"/>
    <path d="M90.784 33.3721L88.1581 33.4181C88.0628 33.4198 87.9721 33.3354 87.9555 33.2295L86.9714 26.9637C86.9548 26.8579 87.0185 26.7708 87.1139 26.7691L89.7397 26.723C89.835 26.7214 89.9257 26.8058 89.9423 26.9116L90.9264 33.1775C90.943 33.2833 90.8793 33.3704 90.784 33.3721Z" fill="#6880E4"/>
    <path d="M92.0822 32.0931C92.0822 32.0931 91.0804 31.4366 91.0621 31.3632C91.0438 31.2899 90.9396 28.7614 90.2377 28.7027C90.0637 28.6882 90.3049 30.297 90.1766 30.3154C90.0483 30.3337 87.4195 29.6098 87.3288 29.6732C87.2382 29.7367 87.2897 30.3103 87.5767 30.504C87.5767 30.504 87.2835 30.9878 87.5282 31.2235L87.7108 31.3579C87.7108 31.3579 87.4739 31.704 87.6099 31.9035C87.7459 32.103 87.8909 32.1574 87.8909 32.1574C87.8909 32.1574 87.6824 32.3024 87.7278 32.5562C87.7731 32.8101 87.8973 33.0336 88.1661 33.1847C88.4349 33.3359 89.9287 33.4986 89.9287 33.4986L91.138 34.2947L92.0822 32.0931Z" fill="#F8B151"/>
    <path d="M111.624 25.0128C110.535 22.8221 108.258 20.3233 105.595 19.9174C105.595 19.9174 105.561 22.2491 105.507 24.5901C104.16 27.8528 101.786 33.4393 101.17 33.8147C100.298 34.3472 92.0756 30.51 92.0756 30.51L89.9458 35.4762C89.9458 35.4762 99.4745 40.3843 102.457 40.939C103.513 41.1352 105.004 39.9049 106.477 38.1254C106.967 41.3266 107.472 44.0566 107.64 44.0566C108.01 44.0566 112.241 43.2102 112.4 42.8928C112.56 42.5754 112.953 27.6846 111.624 25.0128Z" fill="#7DB9F9"/>
    <mask id="mask8_8802_4352" style="mask-type:luminance" maskUnits="userSpaceOnUse" x="89" y="19" width="24" height="26">
        <path d="M111.624 25.0138C110.535 22.8231 108.258 20.3243 105.595 19.9183C105.595 19.9183 105.561 22.2501 105.507 24.5911C104.16 27.8538 101.786 33.4402 101.17 33.8157C100.298 34.3482 92.0756 30.511 92.0756 30.511L89.9458 35.4771C89.9458 35.4771 99.4745 40.3853 102.457 40.9399C103.513 41.1362 105.004 39.9059 106.477 38.1264C106.967 41.3276 107.472 44.0576 107.64 44.0576C108.01 44.0576 112.241 43.2111 112.4 42.8938C112.56 42.5763 112.953 27.6856 111.624 25.0138Z" fill="white"/>
    </mask>
    <g mask="url(#mask8_8802_4352)">
        <path opacity="0.34" d="M102.334 37.9856C100.443 37.9856 91.1043 32.9896 90.6923 32.7687C90.6514 32.7467 90.636 32.6958 90.6579 32.6549C90.6799 32.614 90.7309 32.5988 90.7717 32.6206C94.378 34.5546 101.465 38.1272 102.472 37.8015C102.999 37.6315 104.43 35.6056 106.399 32.2432C107.989 29.5267 109.471 26.7103 109.637 26.1896C109.651 26.1455 109.699 26.1212 109.743 26.1352C109.787 26.1494 109.811 26.1966 109.797 26.2408C109.628 26.7695 108.139 29.6027 106.544 32.328C103.957 36.7466 102.93 37.8303 102.523 37.9614C102.473 37.9777 102.409 37.9856 102.334 37.9856Z" fill="#6880E4"/>
    </g>
    <mask id="mask9_8802_4352" style="mask-type:luminance" maskUnits="userSpaceOnUse" x="89" y="19" width="24" height="26">
        <path d="M111.624 25.0138C110.535 22.8231 108.258 20.3243 105.595 19.9183C105.595 19.9183 105.561 22.2501 105.507 24.5911C104.16 27.8538 101.786 33.4402 101.17 33.8157C100.298 34.3482 92.0756 30.511 92.0756 30.511L89.9458 35.4771C89.9458 35.4771 99.4745 40.3853 102.457 40.9399C103.513 41.1362 105.004 39.9059 106.477 38.1264C106.967 41.3276 107.472 44.0576 107.64 44.0576C108.01 44.0576 112.241 43.2111 112.4 42.8938C112.56 42.5763 112.953 27.6856 111.624 25.0138Z" fill="white"/>
    </mask>
    <g mask="url(#mask9_8802_4352)">
        <path opacity="0.34" d="M111.186 30.582C111.177 30.582 111.167 30.5805 111.158 30.5773C111.115 30.5621 111.091 30.5143 111.106 30.4705C111.114 30.4482 111.852 28.2179 109.662 26.2781C108.511 25.2594 107.447 24.8773 106.757 24.7361C106.009 24.5833 105.527 24.6721 105.522 24.6731C105.477 24.6817 105.433 24.652 105.424 24.6064C105.415 24.5609 105.445 24.5169 105.49 24.5081C105.572 24.4923 107.506 24.1451 109.773 26.1523C110.961 27.2049 111.305 28.3358 111.383 29.0991C111.469 29.9285 111.274 30.5016 111.265 30.5256C111.253 30.5602 111.221 30.582 111.186 30.582Z" fill="#6880E4"/>
    </g>
    <path opacity="0.34" d="M106.477 38.1249C106.477 38.1249 110.996 31.1785 111.624 29.406C111.624 29.406 107.847 38.935 106.782 40.042L106.477 38.1249Z" fill="#6880E4"/>
    <path d="M100.456 26.5116C100.456 26.714 100.291 26.8781 100.089 26.8781C99.8867 26.8781 99.7227 26.714 99.7227 26.5116C99.7227 26.3092 99.8867 26.1451 100.089 26.1451C100.291 26.1451 100.456 26.3092 100.456 26.5116Z" fill="white"/>
    <path d="M100.197 29.4054C100.197 29.6078 100.033 29.7719 99.8303 29.7719C99.6279 29.7719 99.4639 29.6078 99.4639 29.4054C99.4639 29.203 99.6279 29.0389 99.8303 29.0389C100.033 29.0389 100.197 29.203 100.197 29.4054Z" fill="white"/>
    <path d="M100.197 32.2993C100.197 32.5017 100.033 32.6658 99.8303 32.6658C99.6279 32.6658 99.4639 32.5017 99.4639 32.2993C99.4639 32.0969 99.6279 31.9329 99.8303 31.9329C100.033 31.9329 100.197 32.0969 100.197 32.2993Z" fill="white"/>
    <path opacity="0.34" d="M97.5958 32.6674C97.6319 31.4367 97.8121 25.244 97.7768 25.35C97.7376 25.4676 96.688 32.5216 96.688 32.5216L97.5895 32.8795C97.5895 32.8795 98.7104 33.3715 100.391 33.7624L100.444 32.6046C100.444 32.6046 99.5202 33.233 97.5958 32.6674Z" fill="#6880E4"/>
    <path opacity="0.34" d="M97.2467 38.992L93.5269 37.2557C93.5269 37.2557 96.4895 39.0412 96.4096 39.3396C96.3297 39.638 96.279 42.8473 96.279 42.8473L97.2467 42.0806V39.9515L100.015 41.3724L100.141 40.2069L97.2467 38.992Z" fill="#6880E4"/>
    <path d="M104.027 11.0798C103.513 10.5049 101.672 9.90852 100.208 10.2221C99.3827 10.3988 98.7519 11.0676 98.5944 11.897C98.2378 13.7741 97.5476 18.1997 98.8859 18.5679C99.4818 18.7319 100.174 18.573 100.834 18.2643C100.999 19.3968 101.605 21.9693 101.711 22.3126C101.861 22.7952 105.913 20.6582 105.595 19.9164C105.38 19.4136 103.372 16.0947 103.372 16.0947C103.668 15.3176 104.743 11.8796 104.027 11.0798Z" fill="#F8B151"/>
    <mask id="mask10_8802_4352" style="mask-type:luminance" maskUnits="userSpaceOnUse" x="98" y="10" width="8" height="13">
        <path d="M104.027 11.0798C103.513 10.5049 101.672 9.90852 100.208 10.2221C99.3827 10.3988 98.7519 11.0676 98.5944 11.897C98.2378 13.7741 97.5476 18.1997 98.8859 18.5679C99.4818 18.7319 100.174 18.573 100.834 18.2643C100.999 19.3968 101.605 21.9693 101.711 22.3126C101.861 22.7952 105.913 20.6582 105.595 19.9164C105.38 19.4136 103.372 16.0947 103.372 16.0947C103.668 15.3176 104.743 11.8796 104.027 11.0798Z" fill="white"/>
    </mask>
    <g mask="url(#mask10_8802_4352)">
        <path d="M98.2454 13.0276C98.2975 13.0146 99.3547 12.7027 99.5965 12.3916C99.5965 12.3916 99.9275 12.7018 100.525 12.5513C101.123 12.4008 102.226 11.6348 102.226 11.6348C102.226 11.6348 102.279 12.9001 102.906 13.2021C102.906 13.2021 102.879 11.1228 102.649 11.04C102.419 10.9573 98.2134 11.1044 98.0958 11.4262C97.9782 11.748 98.2454 13.0276 98.2454 13.0276Z" fill="#FFC73B"/>
    </g>
    <path d="M98.5947 16.1256C98.5947 16.1256 99.2517 16.6325 100.177 15.8843C100.177 15.8843 100.129 16.6118 99.4829 16.7273C98.6304 16.8798 98.5947 16.1256 98.5947 16.1256Z" fill="white"/>
    <path d="M99.9758 12.5513C99.9758 12.5513 98.3675 14.7104 98.7195 14.9414C99.0714 15.1725 100.193 14.6518 100.193 14.6518C100.181 14.8063 100.079 14.9388 99.933 14.9903C99.5099 15.1394 98.6887 15.3933 98.5131 15.0556C98.2047 14.4623 99.9758 12.5513 99.9758 12.5513Z" fill="#FFC73B"/>
    <path d="M100.834 18.2641C100.834 18.2641 102.158 17.3445 102.591 16.7927C102.591 16.7927 102.235 18.6691 101.002 19.2058L100.834 18.2641Z" fill="#FFC73B"/>
    <path d="M102.43 11.4108C102.472 11.1397 100.754 12.0987 99.6186 12.0898C99.5632 12.0893 99.4963 12.0809 99.4735 12.0305C99.4603 12.0013 99.4672 11.9675 99.4756 11.9367C99.5184 11.78 99.5955 11.6328 99.7 11.5086C99.1893 11.9957 98.5825 12.3816 97.9248 12.6374C97.7548 12.7036 97.5774 12.7618 97.395 12.76C97.2126 12.7582 97.0225 12.6874 96.9164 12.539C96.8393 12.4312 96.8138 12.2952 96.8023 12.1632C96.7449 11.4991 97.0047 10.8255 97.4515 10.331C97.8984 9.83649 98.5199 9.51572 99.1721 9.37814C98.7793 9.78861 98.1822 10.109 97.6181 10.1762C97.5235 10.1874 97.4232 10.1924 97.3373 10.1513C97.133 10.0534 97.1215 9.76716 97.171 9.54608C97.2814 9.05362 97.5481 8.59746 97.923 8.25967C98.2579 7.95801 98.6694 7.75428 99.0889 7.58982C99.485 7.43459 99.8964 7.31021 100.32 7.26905C101.713 7.13371 103.143 8.01585 103.648 9.32141C103.691 9.07395 103.947 8.8989 104.198 8.89996C104.449 8.90103 104.683 9.04937 104.838 9.24637C104.994 9.44337 105.082 9.68495 105.151 9.92659C105.454 10.9935 105.419 12.1476 105.093 13.2077C104.767 14.2678 104.159 15.3135 103.372 16.0946C103.372 16.0946 103.116 14.4289 103.186 14.1836C103.186 14.1836 104.238 13.6403 103.957 12.729C103.677 11.8178 102.906 13.2022 102.906 13.2022C102.906 13.2022 102.33 12.0517 102.43 11.4108Z" fill="#1B3D9E"/>
    <path d="M102.149 80.7208L102.43 83.1627C102.43 83.1627 103.583 83.8654 104.229 83.8092C104.876 83.753 105.354 83.0502 105.354 83.0502V80.7208H102.149Z" fill="#F8B151"/>
    <path d="M102.427 83.1304C102.427 83.1304 96.7121 85.9556 96.5916 86.277C96.5052 86.5072 96.4395 87.0054 96.4092 87.2695C96.3989 87.3592 96.4727 87.436 96.5627 87.4295C97.8523 87.3365 105.964 86.7462 106.111 86.5983C106.272 86.4377 105.991 83.7263 105.891 83.5255C105.79 83.3246 105.354 83.0497 105.354 83.0497C105.354 83.0497 104.149 84.2935 102.427 83.1304Z" fill="#1B3D9E"/>
    <mask id="mask11_8802_4352" style="mask-type:luminance" maskUnits="userSpaceOnUse" x="96" y="83" width="11" height="5">
        <path d="M102.428 83.1294C102.428 83.1294 96.713 85.9547 96.5925 86.276C96.5062 86.5062 96.4405 87.0045 96.4101 87.2686C96.3998 87.3583 96.4736 87.435 96.5636 87.4285C97.8533 87.3355 105.965 86.7452 106.112 86.5973C106.273 86.4367 105.992 83.7253 105.892 83.5245C105.791 83.3237 105.355 83.0487 105.355 83.0487C105.355 83.0487 104.15 84.2925 102.428 83.1294Z" fill="white"/>
    </mask>
    <g mask="url(#mask11_8802_4352)">
        <path d="M98.1343 85.2393C98.1343 85.2393 98.9383 85.5461 99.1951 86.7408C99.1951 86.7408 106.207 86.0485 106.252 86.1043C106.297 86.1602 106.386 86.685 106.241 86.7185C106.096 86.752 96.761 87.6787 96.5154 87.5894C96.2697 87.5001 96.2139 87.5224 96.2139 87.3438C96.2139 87.1651 96.3479 86.1602 96.493 86.0374C96.6381 85.9146 98.1343 85.2393 98.1343 85.2393Z" fill="#1C056D"/>
    </g>
    <mask id="mask12_8802_4352" style="mask-type:luminance" maskUnits="userSpaceOnUse" x="96" y="83" width="11" height="5">
        <path d="M102.428 83.1294C102.428 83.1294 96.713 85.9547 96.5925 86.276C96.5062 86.5062 96.4405 87.0045 96.4101 87.2686C96.3998 87.3583 96.4736 87.435 96.5636 87.4285C97.8533 87.3355 105.965 86.7452 106.112 86.5973C106.273 86.4367 105.992 83.7253 105.892 83.5245C105.791 83.3237 105.355 83.0487 105.355 83.0487C105.355 83.0487 104.15 84.2925 102.428 83.1294Z" fill="white"/>
    </mask>
    <g mask="url(#mask12_8802_4352)">
        <path d="M103.788 84.2696C103.389 84.2696 102.96 84.1221 102.536 83.838C102.175 83.5967 101.948 83.3462 101.939 83.3356L102.022 83.2607C102.031 83.2706 102.926 84.2513 103.932 84.1504C104.945 84.0491 105.773 83.1994 105.781 83.1908L105.862 83.2684C105.827 83.3045 104.998 84.1564 103.943 84.2619C103.892 84.267 103.84 84.2696 103.788 84.2696Z" fill="#1C056D"/>
    </g>
    <path d="M101.368 83.6599C101.368 83.6599 100.599 82.3863 99.6121 82.2666C98.6249 82.1469 98.1848 82.9081 98.4822 83.4195C98.7795 83.931 101.146 83.8124 101.146 83.8124C101.146 83.8124 98.8791 83.4809 98.7947 83.2206C98.7102 82.9603 98.9775 82.482 99.2871 82.482C99.5966 82.482 101.368 83.6599 101.368 83.6599Z" fill="#1C056D"/>
    <path d="M101.284 83.7539C101.284 83.7539 101.39 82.0188 102.025 81.8576C102.66 81.6964 102.916 81.9335 103.078 82.6824C103.239 83.4315 101.368 83.8124 101.368 83.8124C101.368 83.8124 102.818 83.0121 102.84 82.811C102.863 82.6099 102.598 82.0274 102.435 82.0274C102.271 82.0274 101.817 82.1175 101.764 82.2665C101.711 82.4157 101.421 83.6953 101.284 83.7539Z" fill="#1C056D"/>
    <path d="M104.971 85.478C105.049 85.146 104.843 84.8134 104.511 84.735C104.179 84.6566 103.847 84.8622 103.768 85.1941C103.69 85.5261 103.896 85.8587 104.228 85.9371C104.559 86.0155 104.892 85.8099 104.971 85.478Z" fill="#1C056D"/>
    <path d="M111.326 80.0212L112.385 82.2389C112.385 82.2389 113.704 82.5288 114.297 82.2654C114.89 82.0021 115.114 81.1821 115.114 81.1821L114.463 79.2902L111.326 80.0212Z" fill="#F8B151"/>
    <path d="M112.372 82.2102C112.372 82.2102 107.886 86.74 107.877 87.083C107.87 87.3288 107.97 87.8213 108.027 88.0809C108.046 88.169 108.141 88.2177 108.224 88.1823C109.414 87.6751 116.892 84.4797 116.984 84.2917C117.084 84.0876 115.936 81.6149 115.776 81.4576C115.616 81.3003 115.114 81.1821 115.114 81.1821C115.114 81.1821 114.378 82.7503 112.372 82.2102Z" fill="#1B3D9E"/>
    <mask id="mask13_8802_4352" style="mask-type:luminance" maskUnits="userSpaceOnUse" x="107" y="81" width="10" height="8">
        <path d="M112.372 82.2102C112.372 82.2102 107.886 86.74 107.877 87.083C107.87 87.3288 107.97 87.8213 108.027 88.0809C108.046 88.169 108.141 88.2177 108.224 88.1823C109.414 87.6751 116.892 84.4797 116.984 84.2917C117.084 84.0876 115.936 81.6149 115.776 81.4576C115.616 81.3003 115.114 81.1821 115.114 81.1821C115.114 81.1821 114.378 82.7503 112.372 82.2102Z" fill="white"/>
    </mask>
    <g mask="url(#mask13_8802_4352)">
        <path d="M108.998 85.6007C108.998 85.6007 109.858 85.6295 110.49 86.6758C110.49 86.6758 116.896 83.7413 116.956 83.7795C117.017 83.8178 117.272 84.285 117.145 84.364C117.019 84.4429 108.493 88.3542 108.231 88.3496C107.97 88.345 107.924 88.3843 107.866 88.2153C107.808 88.0464 107.608 87.0525 107.705 86.8891C107.803 86.7258 108.998 85.6007 108.998 85.6007Z" fill="#1C056D"/>
    </g>
    <mask id="mask14_8802_4352" style="mask-type:luminance" maskUnits="userSpaceOnUse" x="107" y="81" width="10" height="8">
        <path d="M112.372 82.2102C112.372 82.2102 107.886 86.74 107.877 87.083C107.87 87.3288 107.97 87.8213 108.027 88.0809C108.046 88.169 108.141 88.2177 108.224 88.1823C109.414 87.6751 116.892 84.4797 116.984 84.2917C117.084 84.0876 115.936 81.6149 115.776 81.4576C115.616 81.3003 115.114 81.1821 115.114 81.1821C115.114 81.1821 114.378 82.7503 112.372 82.2102Z" fill="white"/>
    </mask>
    <g mask="url(#mask14_8802_4352)">
        <path d="M113.411 82.9428C113.189 82.9428 112.951 82.9102 112.704 82.8446C112.285 82.7337 111.989 82.5705 111.977 82.5636L112.031 82.4657C112.043 82.4722 113.209 83.1081 114.126 82.6862C115.052 82.261 115.558 81.1884 115.563 81.1776L115.664 81.2247C115.643 81.2702 115.136 82.3453 114.173 82.7879C113.949 82.891 113.692 82.9428 113.411 82.9428Z" fill="#1C056D"/>
    </g>
    <path d="M111.542 83.0546C111.542 83.0546 110.402 82.1001 109.429 82.3078C108.457 82.5155 108.288 83.3784 108.735 83.7654C109.183 84.1524 111.383 83.2708 111.383 83.2708C111.383 83.2708 109.131 83.6944 108.966 83.4757C108.802 83.2571 108.899 82.7178 109.192 82.6172C109.484 82.5165 111.542 83.0546 111.542 83.0546Z" fill="#1C056D"/>
    <path d="M111.494 83.1707C111.494 83.1707 111.03 81.4953 111.578 81.1364C112.127 80.7774 112.446 80.9183 112.842 81.5743C113.238 82.2302 111.592 83.1988 111.592 83.1988C111.592 83.1988 112.704 81.9703 112.659 81.7729C112.615 81.5756 112.175 81.1108 112.021 81.1639C111.866 81.217 111.466 81.45 111.464 81.6081C111.462 81.7664 111.605 83.0707 111.494 83.1707Z" fill="#1C056D"/>
    <path d="M115.506 83.4535C115.617 83.776 115.446 84.1274 115.123 84.2383C114.801 84.3492 114.449 84.1776 114.338 83.8551C114.228 83.5325 114.399 83.1811 114.722 83.0702C115.044 82.9593 115.396 83.1309 115.506 83.4535Z" fill="#1C056D"/>
    <path d="M49.8301 90C64.7035 90 76.7608 88.8496 76.7608 87.4305C76.7608 86.0114 64.7035 84.861 49.8301 84.861C34.9567 84.861 22.8994 86.0114 22.8994 87.4305C22.8994 88.8496 34.9567 90 49.8301 90Z" fill="#D4DFFF"/>
    <path d="M84.4644 14.1046C85.5197 14.3067 87.9225 14.8191 88.6143 15.1128C88.8931 15.2313 89.5021 15.6722 90.8201 17.1006C91.2379 17.5534 92.394 18.9491 92.5998 19.187C92.8537 19.4804 92.5461 19.3399 91.6453 20.1658C91.5244 20.2766 91.3383 20.3956 91.2794 20.4591C91.2227 20.7337 91.0155 21.6221 91.0063 21.6619L90.9216 22.0245L90.6063 21.8267C90.3731 21.6805 89.9675 21.3688 89.4979 21.0079C88.6261 20.3379 87.3088 19.3254 86.8658 19.2407C86.6777 19.2047 86.246 19.1367 85.7463 19.0579C84.9126 18.9267 83.8751 18.7632 83.1094 18.6166C82.795 18.5564 82.5584 18.5052 82.3861 18.4602C82.143 18.3965 81.9664 18.3387 81.9083 18.1734C81.8747 18.0779 81.894 17.9746 81.9599 17.8971C82.1348 17.6915 82.9073 16.6553 83.0025 16.425C83.026 16.3499 83.0447 16.0404 83.0597 15.7914C83.0782 15.4854 83.0991 15.1387 83.1404 14.8406C83.1981 14.4242 83.2829 14.1944 83.4239 14.0724C83.5049 14.0023 83.606 13.9683 83.7087 13.9769C83.8389 13.9878 84.1915 14.0523 84.4644 14.1046Z" fill="#7DB9F9"/>
    <path d="M90.7476 21.6011C90.058 21.1687 87.6613 19.122 86.916 18.9793C86.1707 18.8365 82.0056 18.2534 82.1625 18.0689C82.3195 17.8844 83.1359 16.8045 83.25 16.5219C83.364 16.2393 83.2898 14.2083 83.6867 14.2414C84.0836 14.2745 87.6772 15.0032 88.5105 15.3571C89.3439 15.7109 92.0863 18.8584 92.1977 19.1778C92.3091 19.4971 91.0664 20.1603 91.0268 20.3672C90.9871 20.5742 90.7476 21.6011 90.7476 21.6011Z" fill="#97C7FA"/>
    <mask id="mask15_8802_4352" style="mask-type:luminance" maskUnits="userSpaceOnUse" x="82" y="14" width="11" height="8">
        <path d="M90.7476 21.6004C90.058 21.168 87.6613 19.1213 86.916 18.9785C86.1707 18.8358 82.0056 18.2527 82.1625 18.0682C82.3195 17.8836 83.1359 16.8038 83.25 16.5212C83.364 16.2386 83.2898 14.2075 83.6867 14.2406C84.0836 14.2737 87.6772 15.0025 88.5105 15.3564C89.3439 15.7102 92.0863 18.8577 92.1977 19.177C92.3091 19.4964 91.0664 20.1595 91.0268 20.3665C90.9871 20.5735 90.7476 21.6004 90.7476 21.6004Z" fill="white"/>
    </mask>
    <g mask="url(#mask15_8802_4352)">
        <path opacity="0.24" d="M89.5048 20.8195C89.5048 20.8195 92.5364 19.1124 92.4892 19.0564C92.442 19.0004 91.68 17.699 91.3952 17.7585C91.1104 17.818 89.0546 18.7388 89.0546 18.7388C89.0546 18.7388 90.8403 17.4571 90.8301 17.2785C90.8199 17.0999 89.6292 15.7935 89.3679 15.8283C89.1067 15.8632 87.6491 16.8147 87.6491 16.8147C87.6491 16.8147 88.4428 14.9292 88.0372 14.7882C87.6316 14.6471 86.3402 14.4104 86.3402 14.4104C86.3402 14.4104 82.4427 18.5865 82.5455 18.6592C82.6482 18.7319 84.5701 19.1106 84.6823 19.079C84.7944 19.0474 86.6628 17.379 86.6628 17.379C86.6628 17.379 85.6111 19.2145 85.7592 19.3277C85.9072 19.4409 87.4777 19.8266 87.525 19.8568C87.5722 19.8871 89.7078 19.1504 89.7078 19.1504C89.7078 19.1504 88.5511 20.1489 88.7508 20.325C88.9505 20.5011 89.5048 20.8195 89.5048 20.8195Z" fill="#F6F9FF"/>
    </g>
    <path d="M86.4238 17.2324C86.5051 16.8078 87.016 16.5488 87.5649 16.6539C88.1138 16.759 88.8865 17.4246 88.4862 17.9522C88.2248 18.2966 87.6897 18.0044 87.1408 17.8993C86.5919 17.7942 86.3424 17.657 86.4238 17.2324Z" fill="#7DB9F9"/>
</svg>
