<svg width="616" height="778" viewBox="0 0 616 778" fill="none" xmlns="http://www.w3.org/2000/svg">
    <path d="M308.444 516.001C449.522 516.001 563.889 505.915 563.889 493.474C563.889 481.032 449.522 470.947 308.444 470.947C167.366 470.947 53 481.032 53 493.474C53 505.915 167.366 516.001 308.444 516.001Z" fill="#E8EBFF"/>
    <path d="M419.814 487.615H413.986L423.952 436.573L419.814 487.615ZM458.253 487.614H452.425L452.715 482.254L454.273 453.415L454.48 449.586L454.836 442.976C454.862 442.985 454.888 442.995 454.914 443.005L458.253 487.614Z" fill="#55A3EB"/>
    <path d="M459.822 444.686L459.221 438.8L459.083 437.455C458.99 436.558 458.736 435.686 458.332 434.879C457.835 433.886 457.126 433.015 456.254 432.327C456.195 432.28 456.135 432.234 456.074 432.19C456.048 432.169 456.022 432.15 455.995 432.131C455.942 432.093 455.889 432.055 455.835 432.019C455.811 432.003 455.787 431.985 455.763 431.969C455.709 431.934 455.655 431.899 455.601 431.865C455.597 431.862 455.593 431.86 455.589 431.858C455.567 431.843 455.544 431.829 455.521 431.817C455.383 431.731 455.241 431.65 455.097 431.574C455.045 431.546 454.992 431.519 454.939 431.493C454.93 431.488 454.922 431.485 454.914 431.48L454.836 431.443C453.82 430.956 452.708 430.704 451.582 430.706H431.242C429.292 430.704 427.419 431.458 426.014 432.81C425.048 433.736 424.347 434.903 423.983 436.19C423.864 436.613 423.781 437.046 423.736 437.484L423.62 438.625L418.618 487.614L418.014 493.527H424.956L425.453 487.614C425.774 483.797 428.965 480.862 432.796 480.862H450.028C453.858 480.862 457.05 483.797 457.37 487.614L457.867 493.527H464.809L459.822 444.686ZM429.919 437.554C430.492 436.979 431.173 436.523 431.923 436.213C432.673 435.902 433.477 435.743 434.289 435.744H448.687C449.797 435.744 450.838 436.036 451.738 436.548C452.425 436.938 453.03 437.456 453.522 438.073C453.928 438.582 454.252 439.152 454.48 439.762C454.732 440.435 454.87 441.164 454.87 441.926C454.87 442.876 454.656 443.775 454.274 444.579C453.279 446.665 451.152 448.107 448.688 448.107H434.29C433.954 448.107 433.626 448.08 433.305 448.028C432.537 447.906 431.799 447.638 431.132 447.239C430.249 446.716 429.511 445.98 428.985 445.098C428.409 444.14 428.106 443.043 428.108 441.926C428.108 441.686 428.121 441.449 428.148 441.217V441.216C428.306 439.83 428.931 438.539 429.919 437.554Z" fill="#6BB8FF"/>
    <path d="M454.484 473.482L442.712 453.093C442.342 452.452 441.416 452.452 441.046 453.093L429.274 473.482C428.904 474.123 429.367 474.925 430.107 474.925H453.651C454.391 474.925 454.854 474.123 454.484 473.482Z" fill="white"/>
    <path d="M452.637 472.807L442.373 455.03C442.323 454.943 442.251 454.871 442.164 454.821C442.078 454.771 441.979 454.744 441.879 454.744C441.779 454.744 441.68 454.771 441.594 454.821C441.507 454.871 441.435 454.943 441.385 455.03L431.121 472.807C431.071 472.894 431.044 472.992 431.044 473.093C431.044 473.193 431.071 473.291 431.121 473.378C431.171 473.464 431.243 473.536 431.33 473.587C431.416 473.637 431.515 473.663 431.615 473.663H452.143C452.243 473.663 452.341 473.636 452.428 473.586C452.515 473.536 452.587 473.464 452.637 473.378C452.687 473.291 452.713 473.193 452.713 473.092C452.713 472.992 452.687 472.894 452.637 472.807Z" fill="#6BB8FF"/>
    <path d="M442.526 459.733H441.231C441.135 459.733 441.04 459.753 440.952 459.792C440.864 459.83 440.786 459.887 440.721 459.958C440.656 460.028 440.606 460.112 440.575 460.202C440.544 460.293 440.532 460.389 440.54 460.485L441.187 468.148C441.202 468.321 441.281 468.483 441.409 468.601C441.537 468.718 441.705 468.784 441.879 468.784C442.053 468.784 442.22 468.718 442.348 468.601C442.476 468.483 442.555 468.321 442.57 468.148L443.217 460.485C443.225 460.389 443.214 460.293 443.183 460.202C443.151 460.111 443.102 460.028 443.037 459.957C442.972 459.887 442.893 459.83 442.805 459.792C442.717 459.753 442.622 459.733 442.526 459.733ZM441.05 470.653C441.05 470.433 441.138 470.222 441.293 470.067C441.448 469.911 441.659 469.824 441.879 469.824C442.099 469.824 442.31 469.911 442.465 470.067C442.62 470.222 442.708 470.433 442.708 470.653C442.708 470.872 442.62 471.083 442.465 471.239C442.31 471.394 442.099 471.481 441.879 471.481C441.659 471.481 441.448 471.394 441.293 471.239C441.138 471.083 441.05 470.872 441.05 470.653Z" fill="white"/>
    <path d="M263.547 393.487C260.935 394.4 258.317 394.379 255.693 393.446C252.059 387.629 257.938 382.611 257.608 377.682C257.599 377.541 257.619 377.4 257.666 377.267C257.714 377.134 257.789 377.013 257.885 376.91C257.982 376.807 258.099 376.725 258.229 376.669C258.359 376.614 258.499 376.585 258.64 376.586L260.776 376.597C261.4 376.6 261.826 377.149 261.789 377.772C261.457 383.351 267.383 388.088 263.547 393.487Z" fill="#80C2FF"/>
    <path d="M264.421 391.717C259.894 393.32 255.419 389.182 256.488 384.501C257.099 381.821 258.274 379.197 258.085 376.749C257.929 376.847 257.802 376.986 257.718 377.15C257.634 377.314 257.596 377.498 257.608 377.682C257.938 382.611 252.059 387.629 255.693 393.446C258.317 394.379 260.935 394.4 263.546 393.487C263.977 392.881 264.278 392.285 264.485 391.694L264.421 391.717Z" fill="#5DACF5"/>
    <path d="M258.632 375.351L260.857 375.363L260.851 376.6L258.626 376.588L258.632 375.351ZM256.661 371.003L258.763 371.014L258.752 373.064L256.651 373.053L256.661 371.003Z" fill="#4F43AB"/>
    <path d="M256.876 371.467C256.876 371.467 255.544 373.967 253.532 374.038C253.08 374.054 255.26 373.038 256.125 370.271L257.087 370.658L256.876 371.467Z" fill="#4F43AB"/>
    <path d="M261.365 375.454L258.17 375.437C258.149 375.437 258.127 375.433 258.107 375.425C258.087 375.416 258.069 375.404 258.054 375.389C258.039 375.373 258.027 375.355 258.018 375.335C258.01 375.315 258.006 375.293 258.006 375.272L258.013 374.017C258.013 373.995 258.017 373.974 258.026 373.954C258.034 373.934 258.046 373.916 258.062 373.9C258.077 373.885 258.095 373.873 258.116 373.865C258.136 373.857 258.157 373.853 258.179 373.853L261.373 373.869C261.464 373.87 261.538 373.944 261.537 374.035L261.531 375.29C261.531 375.334 261.513 375.376 261.482 375.406C261.451 375.437 261.409 375.454 261.365 375.454Z" fill="#80C2FF"/>
    <path d="M261.976 370.403C261.976 370.403 260.753 367.815 253.372 369.025L253.371 369.184L252.744 369.181L252.737 370.6L253.364 370.604L253.363 370.787C253.363 370.787 254.807 370.403 256.571 371.33C258.335 372.257 258.346 373.854 258.346 373.854L261.3 373.869L261.308 372.346L262.869 372.354L262.879 370.408L261.976 370.403Z" fill="#80C2FF"/>
    <path d="M181.033 439.363C195.985 439.363 208.105 437.576 208.105 435.372C208.105 433.167 195.985 431.38 181.033 431.38C166.081 431.38 153.96 433.167 153.96 435.372C153.96 437.576 166.081 439.363 181.033 439.363Z" fill="#4E9DE6"/>
    <path d="M166.587 396.891L164.042 397.394L181.035 483.303C181.103 483.639 181.302 483.934 181.587 484.124C181.872 484.313 182.221 484.383 182.557 484.316C182.893 484.25 183.189 484.053 183.381 483.769C183.572 483.485 183.644 483.136 183.579 482.8L166.587 396.891Z" fill="#4F43AB"/>
    <path d="M166.587 396.891L164.042 397.394L181.035 483.303C181.103 483.639 181.302 483.934 181.587 484.124C181.872 484.313 182.221 484.383 182.557 484.316C182.893 484.25 183.189 484.053 183.381 483.769C183.572 483.485 183.644 483.136 183.579 482.8L166.587 396.891Z" fill="#A5B8E6"/>
    <path d="M182.64 484.307L165.503 397.667L164.15 397.935L164.042 397.394L166.587 396.891L183.595 482.881C183.626 483.038 183.626 483.198 183.595 483.355C183.564 483.511 183.502 483.66 183.413 483.792C183.325 483.925 183.211 484.038 183.078 484.127C182.945 484.215 182.797 484.276 182.64 484.307Z" fill="#BED0FA"/>
    <path d="M173.125 369.422C172.87 369.318 172.603 369.248 172.331 369.212C171.919 369.153 171.501 369.173 171.097 369.272C170.363 369.446 169.621 369.587 168.875 369.694C168.683 369.723 168.495 369.748 168.305 369.774C167.423 369.887 166.544 369.962 165.666 370.007C165.404 370.021 165.142 370.032 164.884 370.044C164.087 370.07 163.289 370.083 162.491 370.082L161.974 370.081C161.052 370.077 160.135 370.063 159.224 370.056L158.364 370.051C157.574 370.045 156.783 370.053 155.993 370.075C155.763 370.083 155.532 370.093 155.305 370.105C154.513 370.138 153.73 370.195 152.953 370.285C152.693 370.313 152.436 370.349 152.178 370.385C150.94 370.564 149.723 370.835 148.523 371.241C148.282 371.323 148.04 371.408 147.801 371.501C147.063 371.787 146.346 372.126 145.656 372.514C145.423 372.644 145.194 372.779 144.967 372.92C144.578 373.164 144.198 373.423 143.829 373.696C142.336 374.802 142.022 376.913 143.096 378.43L150.436 388.767L173.27 383.143L175.214 373.294C175.552 371.584 174.574 370.008 173.125 369.422Z" fill="#FFBB42"/>
    <path d="M175.215 373.295L173.271 383.144L171.614 383.552L172.722 377.941C173.06 376.231 172.081 374.654 170.633 374.069C170.378 373.965 170.111 373.894 169.838 373.858C169.427 373.799 169.008 373.82 168.605 373.918C167.871 374.092 167.129 374.233 166.382 374.341C166.191 374.369 166.003 374.395 165.812 374.42C164.93 374.533 164.052 374.608 163.173 374.653C162.912 374.667 162.65 374.679 162.392 374.69C161.594 374.716 160.797 374.729 159.999 374.729L159.481 374.727C158.56 374.723 157.642 374.709 156.732 374.703L155.872 374.698C155.081 374.691 154.291 374.699 153.501 374.721C153.27 374.729 153.04 374.74 152.812 374.751C152.021 374.784 151.237 374.842 150.46 374.931C150.2 374.96 149.943 374.995 149.686 375.031C148.447 375.211 147.231 375.482 146.031 375.888C145.789 375.969 145.548 376.055 145.309 376.147C144.571 376.434 143.854 376.772 143.163 377.16C142.981 377.262 142.803 377.37 142.624 377.478C142.194 376.121 142.63 374.585 143.83 373.696C144.208 373.419 144.584 373.159 144.968 372.92C145.194 372.779 145.424 372.644 145.657 372.514C146.347 372.126 147.064 371.787 147.802 371.501C148.041 371.409 148.283 371.323 148.524 371.241C149.724 370.835 150.941 370.564 152.179 370.385C152.436 370.349 152.693 370.313 152.954 370.285C153.735 370.196 154.52 370.136 155.306 370.105C155.533 370.094 155.764 370.083 155.994 370.075C156.784 370.053 157.575 370.045 158.365 370.052L159.225 370.056C160.136 370.063 161.053 370.077 161.975 370.081L162.492 370.082C163.29 370.083 164.088 370.07 164.885 370.044C165.143 370.032 165.405 370.021 165.667 370.007C166.545 369.962 167.423 369.886 168.305 369.774C168.497 369.748 168.684 369.723 168.875 369.694C169.622 369.587 170.364 369.446 171.098 369.272C171.502 369.173 171.92 369.153 172.332 369.212C172.604 369.247 172.871 369.318 173.126 369.423C174.574 370.008 175.553 371.585 175.215 373.295Z" fill="#FAB232"/>
    <path d="M170.183 394.39L167.828 394.97C168.003 395.273 168.152 395.595 168.24 395.951C168.389 396.553 168.388 397.182 168.238 397.784C168.087 398.385 167.793 398.941 167.379 399.403L168.753 404.982L164.515 406.026L163.127 400.391C162.028 399.949 161.147 399.012 160.841 397.774C160.754 397.417 160.737 397.063 160.751 396.714L158.69 397.221C157.942 397.405 157.156 397.349 156.442 397.06C155.729 396.77 155.125 396.263 154.717 395.611L150.437 388.768L173.271 383.143L172.961 390.986C172.93 391.778 172.642 392.538 172.141 393.152C171.64 393.766 170.953 394.201 170.183 394.39Z" fill="#2A53A3"/>
    <path d="M150.987 383.162C149.287 381.235 147.891 379.041 146.894 376.671C146.328 375.321 145.935 373.93 145.656 372.515C145.424 372.645 145.194 372.78 144.967 372.921C145.351 374.28 145.861 375.603 146.441 376.875C147.523 379.253 148.956 381.452 150.721 383.382C150.869 383.544 151.134 383.331 150.987 383.162ZM151.992 378.455C150.756 377.048 149.834 375.32 149.179 373.567C148.898 372.811 148.679 372.033 148.524 371.242C148.283 371.324 148.041 371.409 147.802 371.501C147.977 372.285 148.208 373.055 148.494 373.806C149.206 375.671 150.313 377.267 151.659 378.729C151.844 378.93 152.176 378.666 151.992 378.455ZM156.607 382.227C155.263 379.828 154.286 377.224 153.649 374.551C153.314 373.148 153.082 371.722 152.953 370.285C152.694 370.314 152.436 370.349 152.179 370.385C152.596 374.626 154.051 378.763 156.251 382.39C156.377 382.598 156.732 382.448 156.607 382.227ZM156.754 375.362C156.463 373.633 156.168 371.906 156.002 370.162C155.998 370.135 155.998 370.104 155.994 370.076C155.763 370.083 155.533 370.094 155.305 370.105L155.316 370.195C155.521 371.961 155.802 373.727 156.272 375.444C156.352 375.743 156.804 375.68 156.754 375.362ZM161.429 381.283C160.486 378.514 159.801 375.63 159.451 372.726C159.344 371.839 159.268 370.949 159.224 370.057L158.364 370.052C158.42 370.99 158.506 371.931 158.631 372.863C159.025 375.84 159.777 378.74 160.918 381.516C161.059 381.855 161.542 381.62 161.429 381.283ZM163.008 376.863C162.653 374.75 162.514 372.635 162.491 370.494C162.491 370.357 162.488 370.219 162.492 370.083L161.974 370.082C161.97 370.256 161.973 370.428 161.976 370.603C162.018 372.722 162.277 374.842 162.655 376.923C162.694 377.15 163.046 377.093 163.008 376.863ZM166.759 381.655C166.121 378.78 165.743 375.845 165.661 372.903C165.632 371.936 165.634 370.97 165.667 370.007C165.404 370.021 165.143 370.033 164.885 370.044C164.854 370.987 164.854 371.933 164.889 372.876C164.997 375.872 165.466 378.85 166.263 381.741C166.349 382.045 166.832 381.977 166.759 381.655ZM168.83 376.569C168.667 374.66 168.618 372.736 168.767 370.828C168.795 370.448 168.83 370.07 168.875 369.695C168.684 369.723 168.496 369.749 168.305 369.774C168.271 370.106 168.244 370.44 168.221 370.773C168.083 372.733 168.128 374.695 168.411 376.64C168.452 376.915 168.854 376.839 168.83 376.569ZM173.125 369.423C172.871 369.319 172.604 369.248 172.331 369.212C172.034 370.345 171.785 371.491 171.585 372.646C171.082 375.543 170.902 378.441 170.916 381.38C170.915 381.63 171.297 381.676 171.306 381.42C171.376 378.565 171.754 375.683 172.315 372.881C172.55 371.719 172.818 370.564 173.125 369.423Z" fill="#FFDC9C"/>
    <path d="M205.256 436.669L198.21 488.396C186.761 490.032 175.223 490.356 163.504 488.396L158.381 447.021L157.105 436.668C174.018 439.203 190.015 439.077 205.256 436.669Z" fill="#6BB8FF"/>
    <path d="M205.256 436.67L198.21 488.397C198.21 488.397 201.641 463.209 191.992 455.201C180.333 445.526 158.381 447.023 158.381 447.023L157.105 436.67C174.018 439.204 190.015 439.078 205.256 436.67Z" fill="#E6D8E0"/>
    <path d="M170.967 481.623C168.368 481.623 165.814 480.943 163.33 479.583C150.884 472.771 154.242 439.911 154.751 435.822L158.673 436.829C157.374 447.266 156.315 471.646 165.057 476.431C168.419 478.27 171.797 478.521 175.39 477.196C191.01 471.428 203.634 438.572 203.76 438.24L207.119 439.515C206.584 440.93 193.788 474.233 176.638 480.567C174.73 481.271 172.837 481.623 170.967 481.623Z" fill="#2A53A3"/>
    <path d="M208.105 442.228C190.057 445.373 172.008 445.373 153.96 442.228V435.372C172.745 438.905 190.818 439.477 208.105 435.824V442.228Z" fill="#6BB8FF"/>
    <path d="M149.92 487.235H283.914V490.941H149.92V487.235ZM214.241 392.209H270.344V396.946H214.241V392.209ZM214.241 421.037H270.344V425.774H214.241V421.037ZM214.241 457.38H270.344V462.117H214.241V457.38Z" fill="#AABAE6"/>
    <path d="M268.707 380.891H274.984V489.528H268.707V380.891ZM211.103 380.891H217.379V489.528H211.103V380.891Z" fill="#AABAE6"/>
    <path d="M268.707 379.802H293.268V385.555H268.707V379.802Z" fill="#AABAE6"/>
    <path d="M164.851 504.034C169.666 503.833 173.407 499.768 173.206 494.953C173.006 490.138 168.94 486.397 164.125 486.598C159.31 486.798 155.57 490.864 155.77 495.679C155.971 500.494 160.036 504.234 164.851 504.034Z" fill="#AABAE6"/>
    <path d="M160.113 495.322C160.113 492.912 162.066 490.959 164.476 490.959C166.885 490.959 168.839 492.912 168.839 495.322C168.839 497.731 166.886 499.685 164.476 499.685C162.066 499.685 160.113 497.731 160.113 495.322Z" fill="white"/>
    <path d="M270.452 504.03C275.267 503.829 279.007 499.763 278.807 494.948C278.606 490.134 274.541 486.393 269.726 486.593C264.911 486.794 261.17 490.86 261.371 495.674C261.571 500.489 265.637 504.23 270.452 504.03Z" fill="#AABAE6"/>
    <path d="M265.714 495.322C265.714 492.912 267.667 490.959 270.077 490.959C272.486 490.959 274.44 492.912 274.44 495.322C274.44 497.731 272.486 499.685 270.077 499.685C267.667 499.685 265.714 497.731 265.714 495.322Z" fill="white"/>
    <path d="M234.19 372.656H231.752C231.677 372.656 231.603 372.671 231.534 372.699C231.465 372.728 231.402 372.77 231.349 372.823C231.296 372.876 231.254 372.938 231.226 373.008C231.197 373.077 231.183 373.151 231.183 373.226V374.355H234.76V373.226C234.76 373.151 234.745 373.077 234.717 373.008C234.688 372.938 234.646 372.876 234.593 372.823C234.54 372.77 234.478 372.728 234.409 372.699C234.339 372.671 234.265 372.656 234.19 372.656Z" fill="#4F43AB"/>
    <path d="M233.7 373.157H232.243C232.414 372.28 232.384 371.403 232.243 370.529H233.7C233.535 371.345 233.555 372.228 233.7 373.157Z" fill="#4F43AB"/>
    <path d="M237.992 390.528C237.861 391.623 236.924 392.443 235.822 392.443H230.048C228.989 392.443 228.08 391.666 227.942 390.617C227.753 389.182 227.852 387.853 228.02 386.453C228.044 386.259 228.07 386.063 228.095 385.865C228.143 385.508 228.192 385.144 228.24 384.772C228.37 383.755 228.497 382.672 228.545 381.47C228.559 381.111 228.566 380.742 228.566 380.361C228.564 380.168 228.562 379.974 228.558 379.775C228.541 379.166 228.502 378.558 228.442 377.952C228.367 377.159 228.541 376.362 228.94 375.673L228.961 375.637C229.241 375.151 229.644 374.747 230.129 374.467C230.614 374.186 231.165 374.039 231.725 374.039H234.342C234.918 374.039 235.483 374.195 235.978 374.49C236.472 374.786 236.878 375.21 237.151 375.717C237.511 376.392 237.665 377.158 237.592 377.92C237.518 378.732 237.487 379.547 237.498 380.362C237.504 380.74 237.517 381.108 237.535 381.47C237.595 382.628 237.719 383.713 237.834 384.773C237.873 385.14 237.913 385.503 237.95 385.866C237.969 386.063 237.988 386.258 238.003 386.454C238.117 387.783 238.161 389.109 237.992 390.528Z" fill="#C2E2FF"/>
    <path d="M237.293 390.446C237.205 391.183 236.573 391.74 235.821 391.74H230.047C229.336 391.74 228.729 391.218 228.639 390.526C228.465 389.204 228.545 387.976 228.718 386.538C228.739 386.368 228.762 386.194 228.784 386.019L228.815 385.79C228.856 385.486 228.896 385.177 228.937 384.863C229.061 383.903 229.198 382.77 229.248 381.498C229.262 381.131 229.269 380.75 229.269 380.362C229.268 380.161 229.265 379.964 229.261 379.76C229.254 379.49 229.242 379.219 229.226 378.95C231.323 378.392 233.569 379.573 236.818 378.95C236.806 379.218 236.799 379.49 236.794 379.767C236.793 379.967 236.793 380.167 236.794 380.366C236.8 380.743 236.813 381.124 236.832 381.506C236.888 382.601 237.001 383.629 237.109 384.622L237.154 385.032C237.187 385.336 237.219 385.635 237.25 385.936C237.269 386.127 237.287 386.319 237.302 386.509C237.391 387.558 237.471 388.946 237.293 390.446Z" fill="#80C2FF"/>
    <path d="M237.165 370.032C237.116 369.928 237.038 369.84 236.94 369.779C236.843 369.717 236.73 369.684 236.615 369.684H231.181V369.529C231.181 369.478 231.161 369.43 231.125 369.394C231.089 369.358 231.041 369.338 230.99 369.338H230.352C230.302 369.338 230.253 369.358 230.218 369.394C230.182 369.43 230.162 369.478 230.162 369.529V370.758C230.162 370.863 230.247 370.948 230.352 370.948H230.99C231.041 370.948 231.089 370.928 231.125 370.893C231.161 370.857 231.181 370.808 231.181 370.758V370.602H236.187C236.353 370.602 236.505 370.698 236.576 370.849L236.884 371.501H237.861L237.165 370.032Z" fill="#4F43AB"/>
    <path d="M237.834 384.773H228.24C228.37 383.756 228.497 382.673 228.545 381.471H237.534C237.595 382.628 237.719 383.714 237.834 384.773ZM237.498 379.776C237.496 379.972 237.496 380.168 237.498 380.362H228.566C228.564 380.169 228.562 379.975 228.557 379.776H237.498ZM238.003 386.454H228.02C228.044 386.26 228.069 386.064 228.095 385.866H237.949C237.969 386.063 237.987 386.259 238.003 386.454Z" fill="white"/>
    <path d="M224.186 421.037H239.162V442.634H224.186V421.037Z" fill="#80C2FF"/>
    <path d="M237.096 421.037V427.012C237.096 434.142 231.317 439.923 224.186 439.923V442.634H239.162V421.037H237.096Z" fill="#70BAFF"/>
    <path d="M224.167 434.485H239.171V435.357H224.167V434.485ZM224.167 436.454H239.171V437.326H224.167V436.454Z" fill="white"/>
    <path d="M328.099 398.62L323.39 433.191C315.738 434.284 308.026 434.5 300.194 433.191L296.771 405.538L295.918 398.619C307.221 400.314 317.912 400.229 328.099 398.62Z" fill="#6BB8FF"/>
    <path d="M311.909 400.42C321.902 400.42 330.002 399.226 330.002 397.753C330.002 396.28 321.902 395.085 311.909 395.085C301.916 395.085 293.815 396.28 293.815 397.753C293.815 399.226 301.916 400.42 311.909 400.42Z" fill="#4E9DE6"/>
    <path d="M328.099 398.62L323.39 433.191C323.39 433.191 325.683 416.357 319.234 411.004C311.442 404.538 296.771 405.538 296.771 405.538L295.918 398.619C307.221 400.314 317.912 400.229 328.099 398.62Z" fill="#F0EBEC"/>
    <path d="M312.035 373.599H312.044C318.578 373.62 323.569 378.009 326.478 386.291C328.641 392.449 328.887 398.502 328.896 398.757L327.595 398.837C327.593 398.778 327.347 392.806 325.275 386.932C322.551 379.208 318.097 375.281 312.039 375.261H312.03C305.953 375.246 301.452 379.148 298.652 386.86C296.523 392.725 296.225 398.7 296.222 398.76L294.922 398.665C294.934 398.41 295.231 392.355 297.455 386.206C300.443 377.942 305.485 373.582 312.035 373.599Z" fill="#3A3E40"/>
    <path d="M307.041 373.44L316.908 373.465C317.062 373.465 317.209 373.527 317.317 373.636C317.425 373.744 317.486 373.892 317.486 374.045L317.481 376.084C317.48 376.238 317.419 376.385 317.31 376.493C317.201 376.602 317.054 376.662 316.9 376.662L307.033 376.636C306.879 376.636 306.732 376.575 306.624 376.466C306.515 376.357 306.455 376.209 306.455 376.056L306.46 374.017C306.461 373.863 306.522 373.716 306.631 373.608C306.74 373.5 306.887 373.439 307.041 373.44Z" fill="white"/>
    <path d="M330.002 402.335C317.94 404.437 305.878 404.437 293.815 402.335V397.752C306.37 400.114 318.449 400.193 330.002 397.752V402.335Z" fill="#6BB8FF"/>
    <path d="M270.172 303.549C270.172 303.549 280.397 305.243 283.558 300.558C286.684 295.922 283.511 277.651 273.775 274.188C270.227 272.926 259.097 273.012 260.022 283.646C260.737 291.862 254.215 297.774 258.543 301.083C262.871 304.391 270.172 303.549 270.172 303.549Z" fill="#302B4F"/>
    <path d="M260.49 301.975C259.933 301.611 259.272 301.446 258.69 301.122C258.147 300.82 257.641 300.443 257.256 299.949C256.42 298.877 256.525 297.384 256.769 296.122C257.289 293.443 258.722 291.082 259.601 288.523C260.073 287.15 260.443 285.608 260.251 284.15C260.246 284.116 260.191 284.123 260.191 284.157C260.187 284.914 260.147 285.667 259.987 286.41C259.836 287.107 259.614 287.786 259.36 288.453C258.838 289.822 258.146 291.115 257.548 292.451C256.982 293.715 256.456 294.988 256.229 296.362C256.019 297.634 256.055 298.936 256.86 300.005C257.265 300.543 257.812 300.968 258.397 301.294C259.024 301.643 259.738 302.002 260.453 302.101C260.524 302.111 260.541 302.009 260.49 301.975ZM285.839 292.156C285.548 290.48 285.066 288.835 284.499 287.234C283.971 285.744 283.319 284.295 282.5 282.94C281.567 281.397 280.436 280.009 279.078 278.821C279.046 278.793 278.997 278.838 279.029 278.869C281.324 281.022 282.953 283.809 284.033 286.746C284.568 288.199 284.953 289.705 285.243 291.225C285.421 292.16 285.557 293.109 285.538 294.062C285.52 294.928 285.343 295.773 285.051 296.586C284.744 297.444 284.309 298.251 283.826 299.021C283.328 299.817 282.706 300.548 282.261 301.374C282.164 301.554 282.395 301.763 282.55 301.606C283.146 301.001 283.623 300.257 284.085 299.548C284.55 298.832 284.973 298.088 285.311 297.303C286.026 295.644 286.145 293.926 285.839 292.156Z" fill="#302B4F"/>
    <path d="M258.781 363.254C258.781 363.254 245.922 424.744 249.197 434.048C251.701 441.162 280.281 475.649 280.281 475.649C280.281 475.649 285.153 469.988 285.227 469.091C285.3 468.194 264.074 430.294 264.074 430.294L278.994 367.259L258.781 363.254Z" fill="#FAB8AA"/>
    <path d="M290.276 497.532C292.765 495.368 292.372 493.244 292.205 490.641C292.038 488.038 293.85 485.836 293.85 485.836C293.85 485.836 296.322 483.171 295.272 481.348L295.263 481.336C294.965 480.738 294.723 480.26 294.574 479.925C293.758 478.091 289.234 474.995 289.234 474.995C289.231 475.015 289.174 475.028 289.172 475.048C287.913 477.363 285.556 478.947 282.95 479.602C282.95 479.602 282.959 479.613 282.973 479.656L282.991 479.678C283.081 479.842 283.297 480.287 283.578 480.934C284.223 482.451 285.169 485.086 285.379 487.979C285.439 488.759 285.361 489.664 285.204 490.629C284.525 494.655 282.45 499.79 283.25 501.277C284.239 503.123 287.787 499.696 290.276 497.532Z" fill="#302B4F"/>
    <path d="M284.565 493.546C292.048 495.373 289.203 475.009 289.203 475.009C288.888 475.384 283.586 466.337 283.586 466.337C283.586 466.337 278.262 469.516 276.344 470.002C280.357 475.782 285.938 481.939 284.565 493.546Z" fill="#FAB8AA"/>
    <path d="M261.824 361.222L263.944 420.925L269.251 485.852L276.074 486.199L282.699 416.813L284.525 360.595L261.824 361.222ZM265.208 318.891C261.185 322.162 240.079 330.385 234.594 327.829C228.906 325.179 224.994 304.254 222.364 301.321C222.364 301.321 227.246 297.98 227.624 299.517C228.631 303.613 237.903 318.071 237.903 318.071C237.903 318.071 255.497 309.692 260.859 307.357C268.941 303.807 272.784 312.712 265.208 318.891Z" fill="#FFCDC2"/>
    <path d="M263.995 503.962C267.28 503.664 268.205 501.711 269.593 499.503C270.98 497.294 273.738 496.57 273.738 496.57C273.738 496.57 277.183 495.674 277.341 494.993C277.442 494.557 277.458 494.134 277.518 493.762L277.517 493.747C277.626 493.088 277.709 492.558 277.784 492.2C278.196 490.234 276.339 485.077 276.339 485.077C276.325 485.092 276.272 485.069 276.257 485.084C273.882 486.224 271.044 486.129 268.548 485.135C268.548 485.135 268.548 485.149 268.535 485.193L268.536 485.221C268.513 485.407 268.428 485.894 268.278 486.583C267.913 488.191 267.138 490.88 265.615 493.349C265.208 494.017 264.615 494.705 263.923 495.396C261.016 498.263 256.329 501.213 256.108 502.887C255.828 504.963 260.711 504.26 263.995 503.962Z" fill="#302B4F"/>
    <path d="M261.697 497.387C266.696 503.248 276.306 485.07 276.306 485.07C275.83 485.19 276.826 474.751 276.826 474.751C276.826 474.751 270.648 474.213 268.808 473.485C268.68 480.52 269.602 488.779 261.697 497.387ZM285.406 311.771C293.098 322.499 311.182 366.44 311.182 366.44C311.182 366.44 318.484 371.607 316.559 375.906C314.636 380.204 310.484 377.745 310.682 376.646C311.358 372.889 309.532 372.34 308.497 373.851C307.791 374.882 308.289 375.958 307.041 375.958C304.804 375.958 306.469 368.936 306.469 368.936C306.469 368.936 300.992 358.674 294.905 349.542C290.18 342.453 282.718 328.563 280.366 323.996C275.1 313.769 281.905 306.888 285.406 311.771Z" fill="#FFCDC2"/>
    <path d="M281.816 350.652C281.985 353.019 282.331 355.083 282.912 356.674C278.021 358.389 257.604 353.23 259.134 343.924C260.003 338.641 260.269 333.33 258.968 329.66C254.987 318.425 252.428 310.485 257.049 306.992C259.385 305.226 263.509 304.344 266.82 303.848L273.152 303.966C277.977 304.875 283.592 306.14 285.92 308.746C285.92 308.746 284.682 318.64 283.418 327.339C282.28 335.019 281.356 344.018 281.816 350.652Z" fill="#FFB857"/>
    <path d="M243.089 314.99C243.013 319.069 243.58 322.926 244.859 326.537C245.138 327.328 245.451 328.106 245.799 328.869L258.771 325.423L257.643 313.361L257.048 306.993C253.975 308.933 245.799 313.644 243.089 314.99Z" fill="#FFB857"/>
    <path d="M244.86 326.536C245.138 327.327 245.452 328.105 245.8 328.868L258.772 325.422V312.09C257.861 314.035 255.184 319.03 255.354 321.57C255.529 324.232 248.485 325.87 244.86 326.536ZM281.816 350.652C281.173 350.985 280.663 351.254 280.421 351.422C279.506 352.056 264.678 345.5 264.678 345.5C264.678 345.5 274.406 343.938 276.173 341.902C281.604 335.645 279.018 323.631 279.018 323.631L283.418 327.34C282.28 335.019 281.356 344.018 281.816 350.652Z" fill="#EBA647"/>
    <path d="M273.156 303.961C272.493 305.363 271.759 306.333 271.022 306.934H271.013C268.763 308.774 266.569 307.134 266.826 303.844L267.558 298.729L267.749 297.417L272.07 296.464L273.156 303.961Z" fill="#FFCDC2"/>
    <path d="M273.156 303.961C272.493 305.363 271.759 306.333 271.022 306.935H271.013C270.805 307.005 273.791 300.979 271.109 300.815C268.823 300.676 268.014 299.722 268.014 299.722L267.558 298.729L267.749 297.417L272.07 296.464L273.156 303.961Z" fill="#F5C0B5"/>
    <path d="M262.68 278.345C261.564 280.67 258.582 296.432 266.281 299.485C273.289 302.264 278.133 293.527 278.133 293.527C278.133 293.527 282.166 292.611 281.862 288.992C281.649 286.454 278.766 288.116 278.766 288.116L278.337 281.638C273.993 276.23 263.795 276.021 262.68 278.345Z" fill="#FFCDC2"/>
    <path d="M241.56 422.483C252.469 427.742 271.635 428.8 286.047 426.878C289.923 426.364 293.449 425.632 296.386 424.707C285.92 404.677 295.678 369.881 281.686 347.845C274.949 349.644 268.978 349.724 262.572 348.072C262.498 348.054 262.426 348.034 262.354 348.01C261.099 347.675 260.112 347.264 258.776 346.783C258.602 347.501 258.417 348.251 258.219 349.035C254.721 362.876 247.484 386.687 243.779 406.027C242.617 412.103 241.801 417.739 241.56 422.483Z" fill="#FFB857"/>
    <path d="M243.778 406.027C246.351 408.836 251.813 411.201 263.341 410.361C281.596 409.029 285.471 420.345 286.047 426.878C289.923 426.364 293.449 425.632 296.385 424.707C285.92 404.677 295.678 369.881 281.685 347.845C274.949 349.644 268.977 349.724 262.571 348.072C262.498 348.054 262.426 348.034 262.354 348.01C260.896 348.369 259.498 348.718 258.219 349.035C254.721 362.876 247.484 386.686 243.778 406.027Z" fill="#EBA647"/>
    <path d="M261.172 287.818C261.781 284.886 262.634 280.454 266.431 279.362C266.431 279.362 267.062 283.878 271.06 285.726C275.494 287.776 276.587 292.682 276.587 292.682C276.587 292.682 279.976 289.325 280.209 285.042C280.442 280.759 274.317 274.658 268.979 274.165C260.494 273.381 259.953 283.278 261.172 287.818Z" fill="#302B4F"/>
    <path d="M275.392 287.9C274.161 287.403 272.789 287.428 271.53 287.014C269.228 286.259 267.412 284.355 266.807 282.006C266.439 280.576 266.511 279.047 266.966 277.645C266.989 277.572 266.881 277.543 266.854 277.612C265.928 279.93 266.31 282.626 267.758 284.648C268.414 285.565 269.262 286.329 270.243 286.886C270.733 287.164 271.258 287.394 271.801 287.548C272.476 287.739 273.174 287.82 273.863 287.942C275.171 288.175 276.799 288.679 277.152 290.152C277.192 290.317 277.431 290.251 277.404 290.088C277.228 289.026 276.348 288.285 275.392 287.9Z" fill="#302B4F"/>
    <path d="M269.809 295.13C269.836 295.627 269.649 296.092 269.321 296.446C268.968 296.829 268.452 297.083 267.866 297.115C267.237 297.15 266.66 296.92 266.265 296.531C265.948 296.222 265.745 295.811 265.72 295.354C265.663 294.318 267.018 295.026 267.782 294.984C268.419 294.95 269.752 294.094 269.809 295.13Z" fill="#B84F4F"/>
    <path d="M269.321 296.446C268.968 296.829 268.452 297.084 267.866 297.116C267.237 297.15 266.66 296.92 266.265 296.532C266.555 296.206 267.096 295.971 267.726 295.937C268.409 295.899 269.014 296.108 269.321 296.446Z" fill="#F59595"/>
    <path d="M265.191 290.204C265.125 290.746 264.706 291.141 264.254 291.086C263.803 291.031 263.49 290.548 263.555 290.006C263.62 289.464 264.04 289.069 264.491 289.124C264.943 289.178 265.256 289.662 265.191 290.204Z" fill="#FFE9E3"/>
    <path d="M265.015 290.182C264.964 290.608 264.634 290.918 264.279 290.875C263.924 290.832 263.678 290.452 263.73 290.026C263.781 289.601 264.111 289.29 264.466 289.333C264.82 289.376 265.067 289.756 265.015 290.182Z" fill="#302B4F"/>
    <path d="M264.776 290.154C264.743 290.421 264.537 290.616 264.314 290.589C264.092 290.562 263.938 290.323 263.97 290.056C264.002 289.789 264.209 289.595 264.432 289.621C264.654 289.648 264.808 289.887 264.776 290.154Z" fill="#181A2E"/>
    <path d="M263.97 289.779C263.972 289.756 263.98 289.733 263.991 289.713C264.003 289.692 264.019 289.674 264.037 289.659C264.056 289.644 264.077 289.634 264.1 289.627C264.123 289.621 264.147 289.619 264.17 289.622C264.194 289.625 264.217 289.632 264.237 289.644C264.258 289.655 264.276 289.671 264.291 289.69C264.305 289.708 264.316 289.73 264.323 289.753C264.329 289.775 264.331 289.799 264.328 289.823C264.322 289.87 264.298 289.914 264.26 289.943C264.223 289.973 264.175 289.986 264.127 289.98C264.08 289.975 264.036 289.95 264.007 289.913C263.977 289.875 263.964 289.827 263.97 289.779ZM264.443 289.622C264.444 289.612 264.447 289.602 264.452 289.592C264.458 289.583 264.465 289.575 264.473 289.569C264.481 289.562 264.491 289.557 264.501 289.554C264.511 289.552 264.522 289.551 264.532 289.552C264.543 289.553 264.553 289.557 264.562 289.562C264.571 289.567 264.58 289.574 264.586 289.582C264.593 289.591 264.597 289.6 264.6 289.61C264.603 289.621 264.604 289.631 264.603 289.642C264.602 289.652 264.598 289.662 264.593 289.672C264.588 289.681 264.581 289.689 264.573 289.695C264.564 289.702 264.555 289.707 264.545 289.71C264.534 289.713 264.524 289.713 264.513 289.712C264.503 289.711 264.492 289.708 264.483 289.702C264.474 289.697 264.466 289.69 264.459 289.682C264.453 289.674 264.448 289.664 264.445 289.654C264.442 289.644 264.441 289.633 264.443 289.622Z" fill="white"/>
    <path d="M269.976 290.113C269.961 290.659 270.318 291.111 270.773 291.123C271.227 291.135 271.608 290.703 271.622 290.157C271.637 289.611 271.28 289.159 270.825 289.147C270.37 289.135 269.99 289.568 269.976 290.113Z" fill="#FFE9E3"/>
    <path d="M270.152 290.118C270.14 290.547 270.421 290.902 270.778 290.911C271.135 290.921 271.435 290.581 271.446 290.152C271.457 289.723 271.176 289.368 270.819 289.359C270.462 289.349 270.163 289.689 270.152 290.118Z" fill="#302B4F"/>
    <path d="M270.393 290.125C270.386 290.394 270.562 290.616 270.786 290.622C271.01 290.628 271.197 290.415 271.204 290.146C271.211 289.877 271.035 289.654 270.811 289.648C270.587 289.642 270.4 289.856 270.393 290.125Z" fill="#181A2E"/>
    <path d="M271.245 289.872C271.246 289.849 271.242 289.825 271.233 289.803C271.225 289.781 271.212 289.76 271.195 289.743C271.179 289.726 271.159 289.712 271.138 289.703C271.116 289.693 271.093 289.688 271.069 289.687C271.045 289.686 271.022 289.691 271 289.699C270.977 289.708 270.957 289.72 270.94 289.737C270.923 289.753 270.909 289.773 270.899 289.794C270.89 289.816 270.884 289.839 270.884 289.863C270.883 289.911 270.9 289.957 270.933 289.992C270.966 290.027 271.012 290.047 271.06 290.048C271.108 290.049 271.154 290.032 271.189 289.999C271.224 289.966 271.244 289.92 271.245 289.872Z" fill="white"/>
    <path d="M265.218 288.438C264.819 288.053 264.2 288.025 263.748 288.33C263.67 288.382 263.664 288.504 263.718 288.574C263.78 288.652 263.884 288.656 263.963 288.604C264.116 288.502 264.299 288.454 264.483 288.468C264.685 288.485 264.859 288.571 265.008 288.715C265.075 288.78 265.199 288.75 265.251 288.682C265.314 288.599 265.286 288.503 265.218 288.438ZM271.658 288.612C271.252 288.234 270.633 288.218 270.187 288.531C270.11 288.585 270.105 288.707 270.162 288.776C270.225 288.853 270.329 288.855 270.406 288.801C270.555 288.696 270.749 288.643 270.924 288.655C271.126 288.669 271.301 288.751 271.453 288.892C271.522 288.956 271.646 288.924 271.696 288.855C271.757 288.771 271.727 288.676 271.658 288.612Z" fill="#302B4F"/>
    <path d="M268.047 293.063C267.892 293.018 267.739 293.055 267.581 293.053C267.434 293.051 267.348 292.986 267.344 292.841C267.341 292.684 267.379 292.523 267.403 292.368L267.484 291.829C267.493 291.768 267.426 291.715 267.367 291.715C267.296 291.715 267.255 291.768 267.245 291.829L267.156 292.425C267.13 292.601 267.082 292.788 267.12 292.965C267.154 293.127 267.285 293.242 267.455 293.27C267.628 293.298 267.812 293.235 267.981 293.284C268.127 293.326 268.192 293.105 268.047 293.063Z" fill="#F09E8B"/>
    <path d="M270.702 289.896C270.704 289.885 270.707 289.875 270.712 289.866C270.717 289.857 270.724 289.848 270.733 289.842C270.741 289.835 270.75 289.831 270.761 289.828C270.771 289.825 270.781 289.824 270.792 289.825C270.802 289.827 270.813 289.83 270.822 289.835C270.831 289.84 270.839 289.847 270.846 289.856C270.852 289.864 270.857 289.873 270.86 289.884C270.863 289.894 270.863 289.904 270.862 289.915C270.86 289.936 270.849 289.955 270.832 289.969C270.815 289.982 270.794 289.988 270.772 289.985C270.751 289.983 270.732 289.972 270.719 289.955C270.706 289.938 270.7 289.917 270.702 289.896Z" fill="white"/>
    <path d="M272.505 291.978C272.495 292.254 272.05 292.462 271.512 292.443C270.973 292.423 270.545 292.183 270.555 291.906C270.565 291.63 271.01 291.422 271.549 291.442C272.087 291.462 272.515 291.701 272.505 291.978ZM264.426 291.867C264.416 292.143 263.971 292.351 263.432 292.331C262.894 292.312 262.465 292.071 262.476 291.795C262.486 291.519 262.931 291.31 263.469 291.33C264.008 291.35 264.436 291.59 264.426 291.867Z" fill="#F09E8B"/>
    <path d="M244.176 397.818C244.19 397.997 244.204 398.172 244.223 398.347C244.327 399.348 244.515 400.245 244.798 401.005C246.182 404.701 253.933 406.061 262.595 406.382C267.594 406.561 272.9 406.396 277.456 406.136C277.99 406.108 278.509 406.075 279.019 406.042C282.975 405.787 286.067 402.912 286.841 399.277C286.878 399.107 286.912 398.937 286.935 398.763C287.067 397.873 287.059 396.968 286.911 396.081C285.009 384.563 284.112 366.233 280.86 351.452C280.74 350.902 280.794 350.328 281.016 349.81C281.238 349.292 281.615 348.856 282.096 348.563L282.12 348.549C284.499 347.379 287.978 350.862 288.493 351.825C289.003 352.788 290.381 352.127 290.726 351.353C292.359 347.652 284.457 346.321 282.672 347.072C282.96 344.801 288.913 346.85 287.714 344.258C286.51 341.662 282.3 344.258 281.695 346.581L281.681 346.586C280.742 346.996 279.647 346.529 279.236 345.585C277.806 342.309 277.362 332.906 277.541 325.9V325.895L277.57 324.956C277.588 324.404 277.612 323.87 277.636 323.36V323.356C277.678 322.629 277.725 321.944 277.777 321.326C279.019 306.937 281.535 306.168 281.535 306.168L278.117 305.04C276.536 307.938 275.502 310.889 274.978 313.886C274.908 314.278 274.806 314.664 274.671 315.038C274.485 315.566 274.231 316.067 273.916 316.53C272.632 318.442 270.432 319.66 268.015 319.66C267.916 319.66 267.812 319.66 267.709 319.655C264.909 319.541 262.591 317.823 261.543 315.463C261.322 314.974 261.16 314.46 261.062 313.933V313.924C260.902 313.106 260.894 312.266 261.038 311.446C261.401 309.331 262.138 306.895 262.652 304.653L260.042 305.413C260.042 305.413 256.761 314.529 257.412 323.63C257.474 324.503 257.662 326.047 257.885 327.973C257.885 327.992 257.889 328.011 257.894 328.034C258.578 334.044 259.546 343.735 257.87 348.612C257.796 348.82 257.751 349.038 257.739 349.258C254.254 357.669 243.274 385.365 244.176 397.818Z" fill="#2A53A3"/>
    <path d="M276.757 348.884C281.143 355.143 275.531 374.381 282.508 386.277C286.988 393.92 281.53 403.549 277.456 406.135C277.99 406.107 278.509 406.074 279.019 406.041C284.084 405.715 287.738 401.085 286.911 396.081C285.009 384.562 284.112 366.232 280.86 351.452C280.74 350.901 280.794 350.327 281.016 349.809C281.238 349.291 281.615 348.856 282.096 348.563L282.12 348.549C284.499 347.378 287.978 350.862 288.493 351.825C289.003 352.787 290.381 352.127 290.726 351.352C292.359 347.651 284.457 346.32 282.672 347.071C282.96 344.8 288.913 346.849 287.714 344.257C286.511 341.661 282.3 344.257 281.696 346.58L281.681 346.585C280.742 346.996 279.647 346.528 279.236 345.584C277.806 342.308 277.362 332.905 277.541 325.899C277.541 325.899 272.377 342.619 276.757 348.884Z" fill="#1A408A"/>
    <path d="M257.884 327.971C257.884 327.99 257.889 328.009 257.894 328.033C257.889 327.991 257.884 327.971 257.884 327.971Z" fill="#DCDFF5"/>
    <path d="M244.799 401.005C246.182 404.701 253.933 406.061 262.595 406.381C262.558 406.376 262.524 406.372 262.487 406.372C245.828 403.919 255.014 347.465 262.925 349.358C268.569 350.71 272.227 347.847 272.227 347.847C255.968 350.682 264.678 335.495 257.893 328.032C258.578 334.042 259.545 343.733 257.87 348.61C257.795 348.818 257.751 349.036 257.738 349.256C253.914 358.49 241.05 390.973 244.799 401.005Z" fill="#1A408A"/>
    <path d="M285.227 308.086C289.293 311.206 294.127 321.621 297.768 330.424C294.082 333.332 290.21 335.633 285.92 336.565L279.018 323.631L285.227 308.086Z" fill="#FFB857"/>
    <path d="M199.543 280.404C200.634 278.503 202.48 277.178 204.27 275.914L201.648 276.414C202.683 275.492 203.945 274.836 205.287 274.489C204.567 274.208 203.788 274.06 203.078 274.327C203.233 274.061 203.441 273.828 203.689 273.645C203.937 273.462 204.221 273.332 204.521 273.262C202.891 272.539 200.959 272.53 199.322 273.237C200.141 272.305 201.385 271.762 202.626 271.796C201.307 270.865 199.621 270.47 198.026 270.718C199.953 269.673 202.22 269.516 204.407 269.38L201.913 268.428C202.986 268.239 204.092 268.264 205.159 268.48C204.814 267.857 204.352 267.304 203.699 267.055C203.992 266.958 204.302 266.923 204.609 266.951C204.916 266.979 205.215 267.069 205.486 267.217C204.747 265.593 203.309 264.303 201.615 263.745C202.846 263.591 204.137 264.012 205.042 264.862C204.674 263.29 203.676 261.875 202.319 261C204.453 261.499 206.252 262.887 207.978 264.238L206.745 261.87C207.831 262.538 209.932 265.318 210.087 265.653C210.244 265.418 212.363 262.721 213.488 261.995C212.505 263.276 212.042 264.944 212.226 266.548C212.791 265.443 213.864 264.612 215.075 264.341C213.849 265.298 212.994 266.712 212.697 268.237C213.714 267.106 215.023 266.236 216.469 265.761L214.72 267.779C216.712 266.864 218.784 265.931 220.976 265.94C219.453 266.476 218.154 267.621 217.432 269.065C218.509 268.449 219.862 268.338 221.025 268.772C219.247 268.923 217.549 269.845 216.455 271.253C216.753 271.172 217.064 271.153 217.369 271.197C217.674 271.241 217.967 271.347 218.23 271.509C217.296 271.632 216.568 272.371 216.013 273.132C215.119 274.358 214.704 276.01 214.335 277.482L213.949 277.853C214.079 278.389 214.143 278.906 214.071 279.374L212.76 280.108C211.298 279.689 209.768 279.556 208.255 279.715C207.318 279.814 206.314 280.073 205.739 280.819C205.731 280.511 205.786 280.204 205.901 279.918C206.016 279.631 206.188 279.372 206.408 279.155C204.64 279.396 202.991 280.403 201.97 281.865C202.177 280.641 202.951 279.526 204.024 278.904C202.413 278.806 200.77 279.355 199.543 280.404Z" fill="#FFBB42"/>
    <path d="M214.107 282.449L215.214 281.794L227.346 302.261L226.24 302.917L214.107 282.449Z" fill="#585FAB"/>
    <path d="M214.115 282.454L215.221 281.798L214.343 277.432C213.274 278.654 211.997 279.466 210.422 279.689L214.115 282.454ZM226.192 303.134C226.776 303.078 227.233 302.807 227.563 302.322C227.647 302.198 227.641 302.033 227.565 301.905L224.159 296.157C224.024 295.93 223.721 295.901 223.527 296.078C223.269 296.312 222.964 296.489 222.632 296.596C222.387 296.677 222.292 296.975 222.424 297.196L225.825 302.936C225.901 303.065 226.043 303.148 226.192 303.134ZM215.821 282.804L214.715 283.46L214.469 283.045L215.576 282.389L215.821 282.804Z" fill="#302B4F"/>
    <path d="M220.057 297.654C220.079 299.755 221.029 301.213 223.175 302.733C224.36 303.573 224.695 299.637 224.672 297.536C224.65 295.435 224.097 293.806 222.645 293.821C221.193 293.837 220.034 295.553 220.057 297.654Z" fill="#FFCDC2"/>
    <path d="M225.963 294.76C227.439 294.545 226.991 296.41 227.081 297.379C227.17 298.348 227.624 299.566 227.624 299.566L226.365 299.767C226.365 299.767 225.098 298.738 224.845 297.931C224.359 296.385 224.487 294.975 225.963 294.76Z" fill="#FFCDC2"/>
    <path d="M261.181 364.635C258.035 360.751 259.558 353.36 259.625 353.048L259.69 352.741L259.967 352.889C263.659 354.86 267.451 355.597 273.954 352.784L274.24 352.66L274.282 352.968C274.325 353.282 275.297 360.699 271.887 364.608C270.553 366.137 268.724 366.912 266.448 366.912C264.177 366.912 262.405 366.146 261.181 364.635ZM260.029 353.454C259.776 354.9 258.894 361.063 261.548 364.338C262.678 365.733 264.327 366.44 266.448 366.44C268.581 366.44 270.29 365.719 271.53 364.299C274.417 360.99 273.994 354.794 273.848 353.342C267.513 356.014 263.696 355.348 260.029 353.454ZM244.175 397.818C244.189 397.997 244.204 398.172 244.223 398.347C249.566 400.448 255.533 401.968 261.821 402.062C262.444 402.071 263.058 402.076 263.662 402.076C274.156 402.076 281.747 400.717 286.84 399.277C286.878 399.107 286.911 398.937 286.934 398.762C284.891 399.347 282.426 399.923 279.509 400.405L278.886 400.504C274.302 401.221 268.652 401.689 261.825 401.589C255.519 401.495 249.528 399.947 244.175 397.818Z" fill="#5881D1"/>
    <path d="M277.201 350.791C279.854 358.014 284.183 392.692 278.886 400.504C278.868 400.537 278.847 400.569 278.825 400.599L279.212 400.873C279.316 400.727 279.415 400.571 279.509 400.405C284.646 391.682 280.35 358 277.645 350.631C273.491 339.316 275.903 329.851 277.569 324.955C277.588 324.403 277.611 323.869 277.635 323.36C276.045 327.688 272.532 338.078 277.201 350.791ZM262.326 319.677C263.228 321.023 264.593 321.858 266.372 322.161C266.908 322.256 267.452 322.305 267.996 322.307C269.592 322.307 270.937 321.839 272.009 320.914C273.883 319.3 274.482 316.684 274.671 315.037C274.485 315.564 274.231 316.066 273.916 316.529C273.58 317.916 272.934 319.493 271.702 320.56C270.394 321.688 268.629 322.07 266.452 321.697C264.805 321.414 263.549 320.645 262.718 319.413C261.915 318.228 261.618 316.765 261.543 315.462C261.322 314.973 261.16 314.46 261.061 313.932C260.967 315.542 261.113 317.869 262.326 319.677Z" fill="#5881D1"/>
    <path d="M371.267 306.782L371.85 310.994L374.583 330.666L377.03 348.316C377.03 348.316 385.191 351.095 387.862 346.822C387.866 346.814 387.87 346.81 387.874 346.802C388.819 345.27 389.198 341.842 389.082 337.491C388.762 325.551 384.708 306.678 378.4 301.146C378.066 300.847 377.704 300.58 377.32 300.347C377.038 300.172 376.741 300.022 376.432 299.9L371.267 306.782Z" fill="#FFB857"/>
    <path d="M371.85 310.994L374.583 330.666C377.03 333.781 379.262 336.314 379.262 336.314C379.262 336.314 384.114 343.343 387.874 346.802C388.82 345.269 389.198 341.841 389.082 337.491C385.797 332.365 381.207 328.06 382.049 323.671C383.315 317.039 380.184 306.967 380.184 306.967L378.401 301.146C378.066 300.847 377.704 300.579 377.32 300.347C376.139 302.536 373.834 306.875 371.85 310.994Z" fill="#EBA647"/>
    <path d="M378.487 480.468L376.751 490.519C374.736 494.207 371.69 494.456 367.941 490.921L367.337 480.29L378.487 480.468ZM329.215 478.504L325.621 487.977C323.136 491.186 320.293 490.8 317.869 486.622L319.821 476.166L329.215 478.504Z" fill="#FFD5CC"/>
    <path d="M344.267 342.568L348.722 361.575L353.35 381.309L362.659 421.019L364.446 428.653L364.665 439.296V439.3L364.876 449.637C364.876 449.637 364.876 449.653 364.88 449.687L365.569 483.473C369.656 484.497 373.409 484.534 377.872 483.977C378.875 483.861 379.919 483.704 381.005 483.526C381.005 483.526 385.744 440.179 384.79 422.972C383.833 405.769 374.148 346.197 373.409 342.874L344.267 342.568Z" fill="#2A53A3"/>
    <path d="M353.349 381.308L362.658 421.019L364.446 428.652L364.665 439.295C367.212 431.274 371.266 429.118 371.266 429.118C365.755 427.863 363.127 411.595 364.592 399.288C366.058 386.982 359.72 376.792 359.72 376.792L353.349 381.308Z" fill="#1A408A"/>
    <path d="M316.215 477.163C316.684 477.525 317.175 477.859 317.684 478.162C317.804 478.236 317.928 478.306 318.052 478.376C318.23 478.475 318.407 478.574 318.593 478.673H318.597C318.82 478.793 319.051 478.909 319.286 479.02C321.879 480.275 325.083 481.237 328.03 481.625C329.347 481.803 330.61 481.864 331.745 481.786C331.745 481.786 337.826 467.564 343.577 452.104C346.636 443.884 349.6 435.314 351.516 428.341C352.742 423.882 354.881 411.13 356.974 396.776C358.204 388.336 359.345 379.883 360.396 371.419C360.511 370.449 360.631 369.487 360.743 368.542C360.875 367.464 360.998 366.399 361.118 365.359C361.122 365.342 361.122 365.33 361.122 365.314C361.597 361.218 361.997 357.449 362.299 354.204C362.493 352.132 362.642 350.274 362.741 348.68C362.823 347.396 362.902 346.125 362.976 344.89L362.191 344.729L357.415 343.747L352.069 342.649L345.93 341.386L344.757 341.146C342.247 342.93 340.32 346.86 338.808 352.124C338.664 352.615 338.528 353.123 338.391 353.647C337.97 355.257 337.586 356.974 337.227 358.783C336.488 362.515 335.873 366.622 335.353 370.928C335.351 370.941 335.348 370.953 335.345 370.966C334.664 376.564 334.135 382.496 333.665 388.375C332.657 401.045 331.951 413.458 330.713 421.715C330.713 421.715 330.139 423.932 329.206 427.499C328.317 430.925 327.427 434.35 326.535 437.774C322.944 451.583 318.052 470.326 316.215 477.163Z" fill="#2A53A3"/>
    <path d="M376.785 490.323C378.052 489.973 380.252 493.753 382.45 493.228C387.265 492.076 391.002 494.892 391.002 499.924H367.646C366.949 500.096 366.645 491.713 367.94 490.921C368.559 490.543 369.763 492.099 372.851 492.509C375.938 492.92 375.024 490.754 376.785 490.323ZM327.002 485.448C327.002 485.448 327.298 488.554 329.022 489.505C330.746 490.457 339.372 492.454 335.612 500.465L314.222 492.286C313.254 489.146 316.92 482.902 318.441 482.993C319.532 483.059 322.464 489.659 324.786 487.317C325.496 486.602 325.705 484.711 327.002 485.448Z" fill="#302B4F"/>
    <path d="M318.599 478.675C322.402 480.678 327.839 482.061 331.748 481.788C331.748 481.788 337.826 467.564 343.577 452.104C337.817 462.702 326.7 480.141 318.599 478.675ZM364.879 449.686L365.568 483.473C369.656 484.494 373.408 484.534 377.872 483.976C367.33 479.545 364.984 451.02 364.879 449.686Z" fill="#1A408A"/>
    <path d="M336.411 327.487C337.921 339.539 339.695 350.953 336.608 362.796C344.147 364.166 349.328 364.617 356.484 364.674C357.695 362.176 358.317 358.733 358.493 355.281C360.235 357.988 360.872 361.753 360.876 364.603C367.124 364.357 371.402 364.842 377.494 363.416C371.834 349.037 383.804 307.453 377.227 300.367C369.835 295.437 338.975 294.267 332.939 303.777C331.224 312.98 335.494 318.101 336.411 327.487Z" fill="#FFB857"/>
    <path d="M351.381 297.329C352.322 298.993 353.378 300.15 354.449 300.874H354.463C357.733 303.087 361.017 301.206 360.728 297.329L359.787 291.296L359.541 289.748L353.19 288.532L351.381 297.329Z" fill="#FFD5CC"/>
    <path d="M351.381 297.329C352.322 298.993 353.378 300.15 354.449 300.874H354.463C354.767 300.961 354.94 301.004 354.94 301.004C354.94 301.004 352.539 293.784 353.884 294.001C355.229 294.204 358.138 292.771 358.138 292.771L359.787 291.296L359.541 289.748L353.19 288.532L351.381 297.329Z" fill="#F5C0B5"/>
    <path d="M349.835 285.718C349.835 285.718 349.947 286.071 350.189 286.622H350.193L349.412 280.386C349.412 280.386 346.642 278.648 346.339 281.131C345.908 284.671 349.835 285.718 349.835 285.718Z" fill="#393F70"/>
    <path d="M350.188 286.622C349.947 286.071 349.835 285.718 349.835 285.718C349.835 285.718 345.907 284.671 346.339 281.131C346.641 278.648 349.411 280.385 349.411 280.385C349.411 280.385 351.952 274.496 356.114 275.442C359.24 276.151 363.941 276.879 366.342 275.081C370.388 272.051 366.665 265.151 364.392 264.117C364.392 264.117 363.77 268.15 360.069 267.337C356.719 266.602 351.668 266.065 350.695 268.279C350.695 268.279 347.138 267.807 345.337 271.663C343.014 276.638 344.392 284.981 350.188 286.622Z" fill="#302B4F"/>
    <path d="M349.835 285.718C349.835 285.718 349.947 286.071 350.188 286.622H350.193C351.214 288.935 354.512 294.705 361.154 292.031C366.844 289.739 367.025 280.49 366.342 275.082C364.036 277.001 359.241 276.152 356.114 275.443C351.952 274.496 349.411 280.386 349.411 280.386C349.411 280.386 347.474 279.138 346.786 281.169C345.642 284.546 349.835 285.718 349.835 285.718Z" fill="#FFD5CC"/>
    <path d="M356.981 286.568C356.973 287.082 357.185 287.553 357.537 287.903C357.916 288.283 358.458 288.523 359.063 288.532C359.712 288.542 360.296 288.281 360.687 287.865C361.001 287.533 361.193 287.102 361.2 286.63C361.215 285.561 359.849 286.346 359.061 286.335C358.403 286.325 356.996 285.5 356.981 286.568Z" fill="#B84F4F"/>
    <path d="M357.538 287.903C357.917 288.282 358.459 288.523 359.063 288.532C359.713 288.541 360.297 288.281 360.688 287.864C360.375 287.541 359.808 287.321 359.159 287.312C358.454 287.302 357.84 287.542 357.538 287.903Z" fill="#F59595"/>
    <path d="M361.53 281.305C361.62 281.86 362.068 282.25 362.531 282.175C362.993 282.1 363.295 281.589 363.205 281.034C363.115 280.479 362.667 280.089 362.205 280.164C361.742 280.239 361.44 280.75 361.53 281.305Z" fill="#FFE9E3"/>
    <path d="M361.71 281.276C361.78 281.712 362.132 282.018 362.496 281.959C362.859 281.9 363.097 281.499 363.026 281.063C362.956 280.627 362.604 280.321 362.24 280.38C361.876 280.438 361.639 280.84 361.71 281.276Z" fill="#393F70"/>
    <path d="M361.955 281.236C362 281.51 362.22 281.702 362.448 281.665C362.676 281.628 362.825 281.376 362.781 281.102C362.737 280.829 362.516 280.637 362.288 280.674C362.06 280.711 361.911 280.963 361.955 281.236Z" fill="#181A2E"/>
    <path d="M362.769 280.818C362.758 280.773 362.73 280.733 362.691 280.707C362.652 280.681 362.605 280.671 362.559 280.679C362.512 280.686 362.471 280.711 362.442 280.748C362.413 280.784 362.399 280.831 362.403 280.877C362.414 280.923 362.442 280.962 362.481 280.988C362.52 281.014 362.567 281.024 362.613 281.017C362.659 281.009 362.701 280.985 362.73 280.948C362.759 280.911 362.773 280.865 362.769 280.818ZM362.276 280.676C362.274 280.665 362.27 280.655 362.265 280.646C362.259 280.636 362.251 280.628 362.243 280.622C362.234 280.616 362.224 280.611 362.213 280.609C362.203 280.606 362.192 280.606 362.181 280.608C362.159 280.611 362.14 280.623 362.127 280.641C362.114 280.659 362.108 280.681 362.112 280.703C362.117 280.723 362.13 280.741 362.147 280.752C362.164 280.764 362.186 280.768 362.206 280.765C362.227 280.761 362.245 280.75 362.258 280.734C362.271 280.718 362.277 280.697 362.276 280.676Z" fill="#FFB857"/>
    <path d="M356.601 281.411C356.639 281.973 356.289 282.453 355.822 282.484C355.355 282.516 354.945 282.086 354.908 281.525C354.87 280.963 355.219 280.483 355.686 280.452C356.154 280.421 356.563 280.851 356.601 281.411Z" fill="#FFE9E3"/>
    <path d="M356.42 281.424C356.449 281.864 356.175 282.242 355.807 282.266C355.44 282.291 355.118 281.953 355.089 281.512C355.06 281.071 355.334 280.694 355.701 280.669C356.068 280.645 356.39 280.983 356.42 281.424Z" fill="#393F70"/>
    <path d="M356.172 281.44C356.19 281.716 356.018 281.953 355.788 281.969C355.557 281.984 355.356 281.772 355.337 281.496C355.319 281.219 355.491 280.982 355.721 280.967C355.951 280.952 356.153 281.163 356.172 281.44Z" fill="#181A2E"/>
    <path d="M355.284 281.215C355.281 281.19 355.283 281.165 355.291 281.141C355.298 281.117 355.31 281.095 355.326 281.076C355.342 281.056 355.362 281.04 355.384 281.029C355.407 281.018 355.431 281.011 355.456 281.009C355.481 281.008 355.506 281.011 355.53 281.019C355.554 281.027 355.575 281.04 355.594 281.057C355.613 281.074 355.627 281.095 355.638 281.118C355.648 281.14 355.654 281.165 355.655 281.19C355.656 281.238 355.639 281.285 355.606 281.32C355.574 281.356 355.529 281.377 355.481 281.38C355.434 281.384 355.386 281.368 355.349 281.338C355.313 281.307 355.289 281.263 355.284 281.215Z" fill="#FFB857"/>
    <path d="M361.428 279.489C361.823 279.076 362.459 279.022 362.936 279.317C363.019 279.368 363.031 279.493 362.977 279.567C362.917 279.65 362.809 279.659 362.727 279.608C362.564 279.51 362.374 279.468 362.186 279.489C361.979 279.516 361.803 279.611 361.656 279.765C361.589 279.836 361.46 279.81 361.403 279.741C361.336 279.659 361.361 279.559 361.428 279.489ZM354.806 279.935C355.208 279.53 355.845 279.487 356.317 279.791C356.399 279.844 356.408 279.968 356.353 280.042C356.292 280.124 356.184 280.131 356.103 280.078C355.942 279.977 355.753 279.932 355.564 279.95C355.357 279.973 355.179 280.065 355.029 280.216C354.961 280.285 354.833 280.257 354.777 280.188C354.711 280.104 354.737 280.004 354.806 279.935Z" fill="#393F70"/>
    <path d="M358.709 284.367C358.866 284.315 359.025 284.346 359.188 284.337C359.339 284.329 359.425 284.259 359.423 284.11C359.42 283.948 359.374 283.784 359.343 283.625L359.237 283.073C359.225 283.01 359.292 282.953 359.353 282.951C359.425 282.949 359.47 283.002 359.482 283.064L359.599 283.674C359.634 283.854 359.69 284.044 359.658 284.228C359.63 284.396 359.5 284.521 359.326 284.556C359.149 284.592 358.957 284.534 358.785 284.592C358.637 284.641 358.561 284.417 358.709 284.367Z" fill="#F09986"/>
    <path d="M355.844 281.217C355.842 281.206 355.838 281.196 355.832 281.186C355.827 281.177 355.819 281.169 355.81 281.163C355.801 281.156 355.791 281.152 355.781 281.149C355.77 281.147 355.759 281.146 355.748 281.148C355.738 281.15 355.727 281.154 355.718 281.159C355.709 281.165 355.701 281.173 355.694 281.182C355.688 281.19 355.683 281.2 355.681 281.211C355.678 281.222 355.678 281.233 355.68 281.243C355.687 281.289 355.73 281.32 355.775 281.312C355.797 281.308 355.816 281.296 355.829 281.278C355.842 281.261 355.847 281.238 355.844 281.217Z" fill="#FFB857"/>
    <path d="M354.074 283.435C354.096 283.719 354.563 283.915 355.116 283.872C355.67 283.829 356.101 283.564 356.078 283.28C356.056 282.996 355.59 282.8 355.037 282.843C354.483 282.886 354.052 283.151 354.074 283.435ZM362.386 282.985C362.408 283.269 362.875 283.464 363.428 283.422C363.982 283.379 364.413 283.114 364.391 282.83C364.369 282.546 363.903 282.35 363.349 282.393C362.795 282.435 362.364 282.7 362.386 282.985Z" fill="#F09986"/>
    <path d="M335.345 370.966L341.55 371.077L350.992 371.251L360.396 371.42L378.107 371.742C378.107 371.742 378.107 371.73 378.103 371.701V371.692C378.008 370.4 376.059 343.851 377.591 333.179C378.358 327.824 376.324 332.845 375.295 325.835C374.284 318.949 374.3 299.995 372.897 298.542C370.928 297.696 370.263 297.7 368.455 297.551C369.78 299.896 370.052 304.185 370.486 307.476C370.56 308.033 370.593 308.578 370.593 309.111C370.593 314.787 366.535 319.035 360.566 319.18C355.124 319.312 350.402 315.456 349.427 310.101C348.036 302.418 343.83 297.902 343.83 297.902C343.268 298.034 339.788 299.058 339.788 299.058C343.908 303.178 344.663 308.611 343.961 313.862V313.866C342.715 323.098 336.952 331.767 336.952 331.767C338.586 340.775 338.083 351.026 337.228 358.783C336.477 365.582 335.453 370.466 335.354 370.929C335.35 370.954 335.345 370.966 335.345 370.966Z" fill="#2A53A3"/>
    <path d="M360.924 344.844C361.097 344.84 361.279 344.836 361.461 344.819C367.352 344.444 371.886 339.367 371.781 333.265L371.665 326.563L371.629 326.12L350.009 326.49L349.562 326.53L349.692 333.98C349.796 340.073 354.83 344.948 360.924 344.844ZM370.676 328.793L350.635 329.138L350.607 327.506L370.648 327.166L370.676 328.793ZM350.719 333.964L350.656 330.166L370.696 329.821L370.755 333.308C370.841 338.347 367.331 342.794 362.583 343.647C362.03 343.748 361.47 343.805 360.907 343.817C355.379 343.911 350.813 339.488 350.719 333.964Z" fill="#5881D1"/>
    <path d="M341.006 367.687C343.465 361.566 350.082 366.284 354.46 367.009C363.231 368.46 368.834 368.954 371.266 367.895V358.507C366.038 356.324 348.499 347.848 345.93 341.387C345.348 340.095 344.363 336.849 344.917 335.669C348.834 327.317 344.089 314.214 343.961 313.868C342.714 323.099 336.951 331.768 336.951 331.768C340.409 351.776 334.521 368.815 333.665 388.376C332.098 409.336 335.3 380.596 341.006 367.687Z" fill="#1A408A"/>
    <path d="M317.685 478.162C317.804 478.236 317.928 478.306 318.052 478.377C318.06 478.361 318.065 478.344 318.069 478.327C320.599 469.137 323.844 458.833 326.982 448.871C332.175 432.382 337.08 416.806 336.952 411.481C336.481 391.83 338.62 367.349 344.428 360.025L344.102 359.77C338.232 367.171 336.069 391.768 336.539 411.49C336.667 416.745 331.771 432.292 326.586 448.748C323.456 458.692 320.215 468.976 317.685 478.162Z" fill="#5881D1"/>
    <path d="M353.933 309.418L357.301 308.441L405.58 474.87L402.212 475.847L353.933 309.418Z" fill="#363C6B"/>
    <path d="M433.06 498.998C433.033 499.01 433.002 499.026 432.968 499.04C431.429 499.764 429.685 499.927 428.039 499.502C426.45 499.093 425.045 498.161 424.052 496.856C420.807 492.586 417.878 488.439 417.878 488.439C417.878 488.439 419.54 496.169 423.38 503.322L423.318 503.348C420.164 504.609 416.619 502.974 415.494 499.769C413.3 493.531 409.795 487.506 406.219 483.302C408.673 489.791 410.184 495.376 411.111 499.925C411.936 503.99 409.334 507.968 405.28 508.833C405.118 508.864 404.957 508.899 404.796 508.934C404.81 503.953 402.842 498.509 402.842 498.509C403.192 500.468 402.598 503.864 401.747 506.677C401.469 507.591 400.936 508.408 400.211 509.03C399.486 509.652 398.598 510.054 397.652 510.19C396.581 510.345 395.51 510.484 394.433 510.606C394.847 500.878 392.519 462.394 387.506 441.342C387.304 440.491 387.09 439.643 386.865 438.798C386.586 437.761 386.283 436.73 385.957 435.706L397.821 432.265C402.02 448.471 422.593 484.587 433.06 498.998Z" fill="#FFBB3C"/>
    <path d="M433.06 498.998C433.033 499.01 433.002 499.027 432.968 499.041C431.429 499.765 429.685 499.928 428.039 499.502C425.74 491.417 404.137 461.253 398.421 446.723C396.714 442.378 391.993 440.045 387.505 441.343L387.501 441.344C387.301 440.493 387.088 439.645 386.864 438.799C386.585 437.762 386.282 436.731 385.956 435.707L397.821 432.266C402.019 448.471 422.593 484.587 433.06 498.998Z" fill="#FFAD14"/>
    <path d="M397.88 481.279C397.858 481.285 397.868 481.319 397.89 481.312C397.911 481.306 397.902 481.273 397.88 481.279ZM387.429 434.18C387.933 436.888 388.547 439.579 389.07 442.285C389.591 444.991 390.084 447.702 390.55 450.418C391.484 455.821 392.364 461.242 393.039 466.683C393.425 469.787 393.756 472.898 394.123 476.004C394.139 476.136 394.342 476.139 394.333 476.002C393.983 470.449 393.328 464.905 392.635 459.385C391.948 453.943 391.107 448.521 390.112 443.126C389.549 440.059 389.007 436.967 388.269 433.936C388.134 433.381 387.328 433.636 387.429 434.18ZM389.769 434.31C389.62 433.982 389.039 434.155 389.083 434.508C389.209 435.525 389.585 436.535 389.849 437.525C390.124 438.553 390.389 439.585 390.644 440.618C391.146 442.656 391.615 444.701 392.052 446.754C392.942 450.926 393.668 455.131 394.229 459.36C394.541 461.717 394.84 464.078 395.083 466.443C395.088 466.495 395.167 466.495 395.165 466.442C394.755 457.981 393.553 449.533 391.632 441.281C391.356 440.096 391.066 438.913 390.764 437.734C390.473 436.604 390.254 435.373 389.769 434.31ZM390.43 433.814C393.369 443.831 395.7 454.022 397.51 464.302C398.032 467.248 398.496 470.205 398.9 473.17C398.925 473.353 399.215 473.353 399.192 473.166C397.955 462.736 396.159 452.389 393.597 442.2C392.869 439.311 392.092 436.434 391.266 433.572C391.11 433.034 390.273 433.277 390.43 433.814ZM393.237 432.165C393.065 431.659 392.289 431.877 392.435 432.397C392.916 434.11 393.486 435.8 393.978 437.51C394.47 439.221 394.951 440.934 395.404 442.655C396.309 446.095 397.027 449.58 397.897 453.026C397.92 453.116 398.075 453.097 398.063 453.001C397.624 449.495 396.831 446.009 396.031 442.569C395.631 440.834 395.2 439.106 394.738 437.386C394.267 435.643 393.818 433.874 393.237 432.165ZM411.418 465.391C406.971 456.929 403.01 448.215 399.734 439.232C398.816 436.727 397.942 434.206 397.111 431.67C396.959 431.204 396.224 431.414 396.377 431.883C399.346 440.954 403.016 449.808 407.306 458.335C408.531 460.77 409.831 463.169 411.175 465.541C411.266 465.702 411.503 465.553 411.418 465.391ZM397.372 439.073C397.005 437.917 396.657 436.756 396.326 435.589C396.162 435.006 395.998 434.422 395.835 433.838C395.675 433.26 395.58 432.64 395.257 432.13C395.106 431.891 394.755 432.01 394.744 432.278C394.722 432.802 394.904 433.283 395.045 433.783C395.191 434.308 395.343 434.833 395.5 435.355C395.818 436.4 396.145 437.441 396.483 438.479C397.156 440.557 397.88 442.617 398.655 444.659C400.193 448.703 401.922 452.672 403.838 456.551C404.94 458.786 406.131 460.95 407.385 463.101C407.404 463.134 407.452 463.103 407.434 463.07C403.43 455.362 399.997 447.358 397.372 439.073ZM403.061 459.319C402.457 457.958 401.883 456.584 401.339 455.198C401.074 454.524 400.817 453.847 400.57 453.166C400.319 452.472 400.138 451.707 399.799 451.052C399.646 450.755 399.242 450.988 399.297 451.275C399.434 451.997 399.792 452.722 400.056 453.409C400.327 454.114 400.604 454.817 400.89 455.517C401.437 456.852 402.025 458.167 402.645 459.469C403.928 462.169 405.353 464.799 406.913 467.348C406.974 467.447 407.124 467.354 407.067 467.253C405.615 464.676 404.264 462.022 403.061 459.319ZM402.629 468.314C402.187 466.956 401.794 465.582 401.452 464.195C401.101 462.782 400.862 461.33 400.481 459.927C400.402 459.634 399.895 459.692 399.938 460.008C400.134 461.431 400.558 462.865 400.954 464.244C401.366 465.676 401.815 467.096 402.301 468.504C403.256 471.279 404.405 473.969 405.69 476.606C405.748 476.724 405.92 476.616 405.864 476.499C404.609 473.85 403.539 471.101 402.629 468.314ZM395.648 468.661C395.904 470.201 396.17 471.735 396.368 473.29C396.557 474.772 396.722 476.256 396.866 477.743C397.157 480.748 397.385 483.755 397.505 486.772C397.508 486.854 397.636 486.853 397.634 486.77C397.552 483.727 397.413 480.683 397.167 477.648C396.92 474.622 396.626 471.579 396.248 468.572C396.193 468.133 395.574 468.219 395.648 468.661ZM406.515 470.695C406.348 470.329 405.806 470.66 405.978 471.025C408.168 475.684 410.714 480.222 413.844 484.317C413.903 484.393 414.026 484.323 413.974 484.238C411.254 479.849 408.663 475.396 406.515 470.695ZM415.236 477.255C414.556 476.066 413.896 474.865 413.256 473.654C412.951 473.073 412.652 472.49 412.358 471.904C412.046 471.283 411.792 470.56 411.371 470.005C411.229 469.817 410.915 469.93 410.98 470.178C411.148 470.82 411.542 471.424 411.845 472.011C412.146 472.592 412.453 473.171 412.764 473.747C413.428 474.978 414.119 476.195 414.836 477.396C416.262 479.775 417.823 482.062 419.444 484.311C419.479 484.359 419.558 484.312 419.524 484.262C418.002 481.986 416.591 479.634 415.236 477.255ZM400.089 476.085C399.972 475.738 399.432 475.89 399.54 476.244C400.319 478.798 401.1 481.33 401.629 483.951C402.165 486.608 402.543 489.306 402.782 492.005C402.789 492.09 402.92 492.09 402.916 492.003C402.788 489.329 402.483 486.666 402.004 484.031C401.519 481.364 400.956 478.658 400.089 476.085ZM394.093 481.277C394.187 482.126 394.439 482.972 394.601 483.812C395.096 486.375 395.486 488.958 395.769 491.553C396.146 495 396.35 498.474 396.346 501.942C396.346 502.081 396.56 502.077 396.562 501.939C396.603 498.438 396.487 494.945 396.162 491.459C396.001 489.733 395.794 488.013 395.541 486.299C395.419 485.477 395.288 484.657 395.146 483.84C394.995 482.968 394.903 482.04 394.637 481.196C394.547 480.911 394.058 480.955 394.093 481.277ZM399.123 487.573C399.105 487.546 399.079 487.523 399.048 487.51C399.018 487.496 398.984 487.492 398.951 487.497C398.918 487.502 398.887 487.516 398.862 487.538C398.837 487.561 398.819 487.589 398.81 487.622C398.694 488.001 398.856 488.416 398.925 488.799C399.007 489.254 399.073 489.711 399.137 490.17C399.263 491.066 399.377 491.964 399.474 492.863C399.668 494.661 399.83 496.466 399.9 498.273C399.903 498.348 400.017 498.347 400.016 498.272C400.002 496.435 399.957 494.601 399.81 492.768C399.737 491.869 399.649 490.971 399.541 490.075C399.487 489.627 399.426 489.18 399.374 488.732C399.328 488.352 399.351 487.893 399.123 487.573ZM403.893 485.236C403.755 484.841 403.127 485.02 403.265 485.418C405.046 490.54 406.681 495.768 407.846 501.068C407.869 501.175 408.029 501.126 408.008 501.02C407.483 498.347 406.955 495.677 406.263 493.041C405.574 490.41 404.784 487.806 403.893 485.236ZM413.015 489.822C411.275 486.747 409.345 483.784 407.237 480.949C406.952 480.566 406.31 480.957 406.601 481.34C408.718 484.13 410.692 487.035 412.487 490.043C414.275 493.04 415.991 496.109 417.416 499.299C417.444 499.361 417.554 499.313 417.527 499.25C416.169 496.034 414.737 492.862 413.015 489.822ZM425.387 494.396C423.546 492.727 421.867 490.829 420.403 488.821C419.694 487.851 419.032 486.846 418.422 485.81C418.118 485.291 417.826 484.765 417.548 484.231C417.25 483.661 417.017 483.008 416.657 482.478C416.472 482.206 416.024 482.385 416.118 482.717C416.285 483.306 416.649 483.876 416.939 484.414C417.224 484.943 417.525 485.464 417.84 485.976C418.51 487.073 419.241 488.132 420.031 489.146C421.584 491.136 423.341 492.897 425.287 494.501C425.358 494.56 425.458 494.459 425.387 494.396ZM400.819 470.311C400.698 470.117 400.41 470.214 400.403 470.432C400.388 470.884 400.56 471.33 400.677 471.762L401.067 473.19C401.333 474.172 401.606 475.152 401.887 476.13C402.442 478.054 402.989 479.984 403.612 481.888C403.646 481.992 403.797 481.946 403.774 481.84C403.361 479.878 402.869 477.931 402.386 475.984C402.147 475.027 401.901 474.071 401.649 473.117L401.272 471.686C401.151 471.225 401.074 470.719 400.819 470.311Z" fill="#FFCA66"/>
    <path d="M397.783 432.607L385.89 436.056C385.756 436.095 385.615 436.107 385.475 436.092C385.336 436.077 385.201 436.034 385.079 435.966C384.956 435.899 384.848 435.808 384.76 435.698C384.673 435.589 384.608 435.464 384.569 435.329L384.271 434.303C384.232 434.169 384.22 434.028 384.235 433.889C384.251 433.749 384.294 433.615 384.361 433.492C384.429 433.369 384.52 433.261 384.629 433.174C384.738 433.086 384.864 433.021 384.998 432.982L396.891 429.533C397.026 429.494 397.166 429.482 397.306 429.497C397.445 429.512 397.58 429.555 397.702 429.623C397.825 429.69 397.933 429.781 398.021 429.891C398.108 430 398.173 430.125 398.212 430.26L398.51 431.286C398.549 431.42 398.561 431.561 398.546 431.7C398.53 431.84 398.487 431.974 398.42 432.097C398.352 432.22 398.261 432.328 398.152 432.415C398.043 432.503 397.917 432.568 397.783 432.607Z" fill="#363C6B"/>
    <path d="M396.886 429.534L385.331 432.885L383.88 427.884C383.465 426.454 384.2 424.933 385.585 424.387C387.68 423.56 389.86 422.938 392.12 422.506C393.585 422.226 395.023 423.114 395.439 424.547L396.886 429.534Z" fill="#FFBB3C"/>
    <path d="M361.597 356.56C361.597 356.56 368.647 353.612 369.05 355.723C369.454 357.833 366.007 357.235 367.243 358.718C368.017 359.647 372.38 354.442 374.462 358.119C375.55 360.042 376.401 363.455 375.054 365.311C373.825 367.006 370.54 367.258 368.472 366.818C364.138 365.895 359.432 363.125 359.432 363.125L361.597 356.56Z" fill="#FFD5CC"/>
    <path d="M323.396 339.597C323.903 345.012 324.881 349.48 326.062 351.608C328.837 356.592 360.875 364.602 360.875 364.602C362.333 363.236 363.316 361.571 363.792 359.583C364.109 358.262 364.201 356.799 364.06 355.191L341.488 344.647L338.152 343.087L338.791 334.155C338.796 334.151 338.796 334.147 338.796 334.147L339.725 321.157L337.76 299.897C335.452 300.668 329.472 303.779 326.89 309.076C323.11 316.835 322.475 329.776 323.396 339.597Z" fill="#FFB857"/>
    <path d="M333.592 344.845C333.592 344.845 337.809 345.396 341.488 344.647L338.153 343.087L338.792 334.156C338.721 334.469 336.333 344.589 333.592 344.845Z" fill="#EBA647"/>
    <path d="M323.396 339.597C324.433 346.638 324.881 349.48 326.062 351.608C328.838 356.592 360.875 364.602 360.875 364.602C362.333 363.236 363.316 361.571 363.792 359.584C361.346 360.02 360.151 361.682 355.584 360.985C346.579 359.611 325.359 352.896 323.396 339.597Z" fill="#EBA647"/>
    <path d="M355.899 316.828C356.314 315.038 359.06 312.639 362.401 313.661C365.743 314.682 367.851 320.806 367.851 320.806L362.975 324.551C362.975 324.551 361.642 321.415 359.787 321.935C356.165 322.952 355.258 319.595 355.899 316.828Z" fill="#FFD5CC"/>
    <path d="M360.329 325.245C360.329 325.245 371.648 345.553 377.231 350.409C380.064 352.872 384.422 352.167 386.968 349.585H386.973C389.444 347.082 390.216 342.809 386.254 337.931C381.963 332.652 368.801 318.614 368.801 318.614C367.88 319.01 366.673 319.764 365.409 320.685L365.4 320.694C363.589 322.025 361.672 323.712 360.329 325.245Z" fill="#FFB857"/>
    <path d="M360.329 325.246C360.329 325.246 371.648 345.554 377.231 350.409C380.064 352.872 384.422 352.167 386.968 349.586C376.424 351.48 367.127 331.41 364.594 328.15C362.126 324.977 365.233 320.915 365.4 320.694C363.589 322.025 361.672 323.713 360.329 325.246Z" fill="#EBA647"/>
</svg>
