<svg width="511" height="255" viewBox="0 0 511 255" fill="none" xmlns="http://www.w3.org/2000/svg">
    <path d="M255.444 255C396.522 255 510.889 244.915 510.889 232.473C510.889 220.032 396.522 209.947 255.444 209.947C114.366 209.947 0 220.032 0 232.473C0 244.915 114.366 255 255.444 255Z" fill="#E8EBFF"/>
    <path d="M366.814 226.615H360.986L370.952 175.573L366.814 226.615ZM405.253 226.614H399.425L399.715 221.254L401.273 192.414L401.48 188.586L401.836 181.975C401.862 181.984 401.888 181.995 401.914 182.005L405.253 226.614Z" fill="#55A3EB"/>
    <path d="M406.822 183.686L406.221 177.8L406.083 176.455C405.99 175.558 405.736 174.685 405.332 173.879C404.835 172.886 404.126 172.014 403.254 171.326C403.195 171.279 403.135 171.234 403.074 171.19C403.048 171.169 403.022 171.15 402.995 171.131C402.942 171.093 402.889 171.055 402.835 171.018C402.811 171.002 402.787 170.985 402.762 170.969C402.709 170.933 402.655 170.898 402.6 170.865C402.597 170.862 402.592 170.86 402.589 170.858C402.567 170.843 402.544 170.829 402.521 170.816C402.383 170.731 402.241 170.65 402.097 170.574C402.044 170.546 401.991 170.519 401.939 170.492C401.93 170.488 401.922 170.484 401.914 170.48L401.836 170.443C400.82 169.956 399.708 169.704 398.582 169.706H378.242C376.292 169.704 374.418 170.458 373.014 171.81C372.048 172.736 371.347 173.903 370.983 175.19C370.864 175.613 370.781 176.046 370.736 176.483L370.62 177.625L365.618 226.614L365.014 232.527H371.956L372.453 226.614C372.773 222.797 375.965 219.862 379.796 219.862H397.028C400.858 219.862 404.05 222.797 404.37 226.614L404.867 232.527H411.809L406.822 183.686ZM376.919 176.554C377.492 175.979 378.173 175.523 378.923 175.212C379.673 174.902 380.477 174.742 381.289 174.743H395.687C396.797 174.743 397.838 175.035 398.738 175.548C399.424 175.938 400.03 176.455 400.522 177.073C400.928 177.582 401.252 178.152 401.48 178.762C401.732 179.435 401.87 180.164 401.87 180.925C401.87 181.876 401.656 182.775 401.274 183.579C400.279 185.665 398.151 187.106 395.688 187.106H381.289C380.954 187.106 380.626 187.08 380.305 187.028C379.537 186.906 378.799 186.638 378.132 186.239C377.249 185.715 376.511 184.979 375.985 184.098C375.409 183.14 375.106 182.043 375.107 180.925C375.107 180.685 375.121 180.449 375.148 180.217V180.216C375.306 178.83 375.931 177.539 376.919 176.554Z" fill="#6BB8FF"/>
    <path d="M401.484 212.482L389.712 192.092C389.342 191.451 388.416 191.451 388.046 192.092L376.274 212.482C375.904 213.123 376.367 213.925 377.107 213.925H400.651C401.391 213.924 401.854 213.123 401.484 212.482Z" fill="white"/>
    <path d="M399.637 211.807L389.373 194.029C389.323 193.943 389.251 193.871 389.164 193.821C389.078 193.77 388.979 193.744 388.879 193.744C388.779 193.744 388.681 193.77 388.594 193.821C388.507 193.871 388.435 193.943 388.385 194.029L378.121 211.807C378.071 211.894 378.045 211.992 378.045 212.092C378.045 212.192 378.071 212.291 378.121 212.378C378.171 212.464 378.243 212.536 378.33 212.586C378.417 212.636 378.515 212.663 378.615 212.663H399.143C399.243 212.662 399.342 212.636 399.428 212.586C399.515 212.536 399.587 212.464 399.637 212.377C399.687 212.291 399.713 212.192 399.713 212.092C399.713 211.992 399.687 211.894 399.637 211.807Z" fill="#6BB8FF"/>
    <path d="M389.526 198.733H388.231C388.135 198.733 388.04 198.753 387.952 198.792C387.864 198.83 387.785 198.887 387.72 198.957C387.656 199.028 387.606 199.111 387.575 199.202C387.544 199.293 387.532 199.389 387.54 199.485L388.187 207.148C388.202 207.321 388.281 207.483 388.409 207.6C388.537 207.718 388.705 207.784 388.878 207.784C389.052 207.784 389.22 207.718 389.348 207.6C389.476 207.483 389.555 207.321 389.57 207.148L390.217 199.485C390.225 199.389 390.213 199.293 390.182 199.202C390.151 199.111 390.102 199.028 390.037 198.957C389.972 198.886 389.893 198.83 389.805 198.792C389.717 198.753 389.622 198.733 389.526 198.733ZM388.05 209.652C388.05 209.433 388.138 209.222 388.293 209.066C388.448 208.911 388.659 208.824 388.879 208.824C389.099 208.824 389.309 208.911 389.465 209.066C389.62 209.222 389.708 209.433 389.708 209.652C389.708 209.872 389.62 210.083 389.465 210.238C389.309 210.394 389.099 210.481 388.879 210.481C388.659 210.481 388.448 210.394 388.293 210.238C388.138 210.083 388.05 209.872 388.05 209.652Z" fill="white"/>
    <path d="M210.546 132.486C207.935 133.4 205.317 133.378 202.693 132.446C199.059 126.629 204.938 121.61 204.608 116.682C204.599 116.541 204.619 116.4 204.666 116.267C204.714 116.134 204.788 116.012 204.885 115.909C204.982 115.807 205.099 115.725 205.229 115.669C205.358 115.614 205.498 115.585 205.639 115.586L207.776 115.597C208.4 115.6 208.826 116.148 208.789 116.771C208.456 122.35 214.383 127.088 210.546 132.486Z" fill="#80C2FF"/>
    <path d="M211.421 130.717C206.894 132.32 202.419 128.182 203.488 123.501C204.099 120.821 205.274 118.197 205.085 115.749C204.929 115.847 204.802 115.986 204.718 116.15C204.634 116.314 204.596 116.498 204.608 116.682C204.938 121.61 199.059 126.629 202.693 132.446C205.317 133.378 207.935 133.4 210.546 132.486C210.977 131.881 211.278 131.285 211.485 130.694L211.421 130.717Z" fill="#5DACF5"/>
    <path d="M205.632 114.351L207.857 114.362L207.851 115.599L205.626 115.588L205.632 114.351ZM203.661 110.003L205.763 110.014L205.752 112.064L203.651 112.053L203.661 110.003Z" fill="#4F43AB"/>
    <path d="M203.875 110.467C203.875 110.467 202.544 112.966 200.532 113.038C200.08 113.054 202.26 112.038 203.125 109.27L204.087 109.658L203.875 110.467Z" fill="#4F43AB"/>
    <path d="M208.365 114.454L205.17 114.437C205.149 114.437 205.127 114.433 205.107 114.424C205.087 114.416 205.069 114.404 205.054 114.388C205.038 114.373 205.026 114.355 205.018 114.335C205.01 114.314 205.006 114.293 205.006 114.271L205.013 113.017C205.013 112.995 205.017 112.973 205.026 112.953C205.034 112.933 205.046 112.915 205.062 112.9C205.077 112.885 205.095 112.873 205.115 112.865C205.135 112.857 205.157 112.852 205.179 112.853L208.373 112.869C208.464 112.869 208.538 112.944 208.537 113.035L208.531 114.29C208.53 114.333 208.513 114.375 208.482 114.406C208.451 114.437 208.409 114.454 208.365 114.454Z" fill="#80C2FF"/>
    <path d="M208.975 109.403C208.975 109.403 207.753 106.815 200.372 108.025L200.371 108.184L199.744 108.181L199.737 109.6L200.364 109.603L200.363 109.787C200.363 109.787 201.807 109.403 203.571 110.33C205.335 111.257 205.346 112.854 205.346 112.854L208.299 112.869L208.307 111.346L209.869 111.354L209.879 109.408L208.975 109.403Z" fill="#80C2FF"/>
    <path d="M128.033 178.363C142.985 178.363 155.105 176.576 155.105 174.371C155.105 172.167 142.985 170.38 128.033 170.38C113.081 170.38 100.96 172.167 100.96 174.371C100.96 176.576 113.081 178.363 128.033 178.363Z" fill="#4E9DE6"/>
    <path d="M113.587 135.891L111.043 136.394L128.035 222.303C128.103 222.638 128.302 222.933 128.587 223.123C128.872 223.313 129.221 223.382 129.557 223.316C129.893 223.249 130.189 223.053 130.381 222.769C130.572 222.484 130.644 222.136 130.579 221.8L113.587 135.891Z" fill="#4F43AB"/>
    <path d="M113.587 135.891L111.043 136.394L128.035 222.303C128.103 222.638 128.302 222.933 128.587 223.123C128.872 223.313 129.221 223.382 129.557 223.316C129.893 223.249 130.189 223.053 130.381 222.769C130.572 222.484 130.644 222.136 130.579 221.8L113.587 135.891Z" fill="#A5B8E6"/>
    <path d="M129.64 223.307L112.503 136.667L111.15 136.935L111.043 136.394L113.587 135.891L130.595 221.881C130.626 222.037 130.626 222.198 130.595 222.355C130.564 222.511 130.502 222.659 130.413 222.792C130.325 222.924 130.211 223.038 130.078 223.126C129.946 223.215 129.797 223.276 129.64 223.307Z" fill="#BED0FA"/>
    <path d="M120.125 108.422C119.871 108.318 119.604 108.247 119.331 108.211C118.92 108.153 118.501 108.173 118.098 108.271C117.363 108.445 116.622 108.586 115.875 108.694C115.684 108.722 115.496 108.748 115.305 108.773C114.423 108.886 113.544 108.962 112.666 109.006C112.404 109.021 112.143 109.032 111.884 109.044C111.087 109.07 110.289 109.083 109.492 109.082L108.974 109.081C108.052 109.076 107.135 109.062 106.224 109.056L105.364 109.051C104.574 109.045 103.784 109.053 102.994 109.075C102.763 109.082 102.533 109.093 102.305 109.104C101.514 109.137 100.73 109.195 99.9529 109.284C99.6931 109.313 99.4358 109.349 99.1784 109.384C97.9401 109.564 96.7234 109.835 95.5235 110.241C95.2822 110.323 95.0405 110.408 94.8015 110.5C94.0633 110.787 93.3464 111.125 92.656 111.513C92.4235 111.644 92.1938 111.778 91.9669 111.92C91.5778 112.164 91.1983 112.422 90.8292 112.696C89.3359 113.802 89.0224 115.913 90.096 117.43L97.4357 127.767L120.27 122.143L122.214 112.294C122.553 110.584 121.574 109.008 120.125 108.422Z" fill="#FFBB42"/>
    <path d="M122.215 112.294L120.271 122.143L118.614 122.551L119.722 116.941C120.06 115.231 119.081 113.654 117.633 113.069C117.378 112.965 117.111 112.894 116.838 112.858C116.427 112.799 116.008 112.82 115.605 112.918C114.871 113.092 114.129 113.233 113.382 113.34C113.191 113.369 113.003 113.394 112.812 113.42C111.93 113.533 111.052 113.608 110.173 113.653C109.912 113.667 109.65 113.678 109.392 113.69C108.594 113.716 107.797 113.729 106.999 113.728L106.481 113.727C105.56 113.723 104.642 113.709 103.732 113.702L102.872 113.698C102.081 113.691 101.291 113.699 100.501 113.721C100.27 113.729 100.04 113.74 99.8125 113.751C99.0207 113.784 98.237 113.841 97.4601 113.931C97.2003 113.959 96.943 113.995 96.6856 114.031C95.4473 114.21 94.2306 114.481 93.0307 114.887C92.7894 114.969 92.5477 115.055 92.3087 115.147C91.5705 115.433 90.8536 115.772 90.1632 116.16C89.9812 116.262 89.8028 116.369 89.6244 116.478C89.1939 115.121 89.63 113.585 90.8299 112.696C91.2075 112.419 91.5835 112.159 91.9676 111.92C92.1941 111.779 92.4239 111.644 92.6567 111.514C93.347 111.126 94.064 110.787 94.8022 110.5C95.0412 110.408 95.2829 110.323 95.5242 110.241C96.7241 109.835 97.9408 109.564 99.1791 109.384C99.4365 109.349 99.6934 109.313 99.9536 109.285C100.735 109.196 101.52 109.136 102.306 109.105C102.533 109.093 102.764 109.083 102.994 109.075C103.784 109.053 104.575 109.045 105.365 109.051L106.225 109.056C107.136 109.063 108.053 109.077 108.975 109.081L109.492 109.082C110.29 109.083 111.088 109.07 111.885 109.044C112.143 109.032 112.405 109.021 112.667 109.006C113.545 108.962 114.423 108.886 115.305 108.773C115.497 108.748 115.684 108.723 115.875 108.694C116.622 108.586 117.364 108.445 118.098 108.272C118.502 108.173 118.92 108.153 119.332 108.211C119.604 108.247 119.871 108.318 120.126 108.422C121.574 109.008 122.553 110.584 122.215 112.294Z" fill="#FAB232"/>
    <path d="M117.183 133.39L114.828 133.97C115.003 134.273 115.152 134.594 115.24 134.951C115.389 135.553 115.388 136.182 115.238 136.784C115.087 137.385 114.793 137.941 114.379 138.402L115.753 143.982L111.515 145.026L110.127 139.391C109.028 138.949 108.147 138.012 107.841 136.774C107.754 136.417 107.737 136.063 107.751 135.714L105.69 136.221C104.942 136.405 104.156 136.349 103.442 136.059C102.729 135.77 102.125 135.263 101.717 134.61L97.4365 127.768L120.271 122.143L119.961 129.985C119.93 130.777 119.642 131.538 119.141 132.152C118.64 132.766 117.953 133.2 117.183 133.39Z" fill="#2A53A3"/>
    <path d="M97.9867 122.162C96.2866 120.235 94.8911 118.04 93.8941 115.67C93.328 114.321 92.9344 112.93 92.6562 111.514C92.4236 111.645 92.1939 111.779 91.967 111.921C92.3503 113.279 92.8606 114.603 93.4411 115.875C94.5231 118.253 95.9558 120.452 97.7209 122.382C97.8693 122.544 98.1342 122.331 97.9867 122.162ZM98.9913 117.455C97.7562 116.048 96.8342 114.319 96.1791 112.567C95.8975 111.811 95.6783 111.033 95.5237 110.241C95.2823 110.323 95.0406 110.409 94.8017 110.501C94.9764 111.285 95.2076 112.055 95.4936 112.806C96.206 114.67 97.3124 116.266 98.6586 117.729C98.8438 117.93 99.1757 117.665 98.9913 117.455ZM103.607 121.227C102.263 118.828 101.286 116.224 100.649 113.551C100.314 112.148 100.082 110.722 99.953 109.285C99.6933 109.313 99.4359 109.349 99.1785 109.385C99.5955 113.626 101.051 117.763 103.251 121.389C103.377 121.597 103.731 121.448 103.607 121.227ZM103.753 114.362C103.462 112.633 103.168 110.906 103.002 109.162C102.998 109.134 102.997 109.103 102.993 109.075C102.763 109.083 102.532 109.094 102.305 109.105L102.316 109.195C102.521 110.961 102.802 112.727 103.272 114.444C103.352 114.743 103.804 114.679 103.753 114.362ZM108.429 120.282C107.486 117.514 106.801 114.63 106.451 111.726C106.344 110.839 106.268 109.949 106.224 109.057L105.364 109.052C105.42 109.99 105.506 110.931 105.631 111.862C106.025 114.84 106.777 117.74 107.918 120.515C108.059 120.855 108.542 120.62 108.429 120.282ZM110.008 115.863C109.653 113.75 109.514 111.635 109.491 109.494C109.491 109.357 109.488 109.219 109.491 109.083L108.974 109.081C108.97 109.256 108.973 109.427 108.976 109.602C109.018 111.722 109.276 113.842 109.655 115.923C109.694 116.15 110.046 116.093 110.008 115.863ZM113.758 120.654C113.121 117.779 112.743 114.845 112.661 111.902C112.632 110.936 112.634 109.97 112.666 109.007C112.404 109.021 112.143 109.032 111.885 109.044C111.854 109.987 111.854 110.933 111.889 111.875C111.997 114.872 112.466 117.85 113.263 120.741C113.349 121.045 113.832 120.977 113.758 120.654ZM115.83 115.569C115.666 113.66 115.618 111.736 115.767 109.828C115.795 109.447 115.83 109.07 115.875 108.694C115.683 108.723 115.495 108.749 115.304 108.774C115.271 109.106 115.244 109.439 115.22 109.773C115.083 111.733 115.128 113.695 115.411 115.639C115.452 115.914 115.854 115.839 115.83 115.569ZM120.125 108.422C119.87 108.318 119.603 108.247 119.331 108.211C119.034 109.345 118.785 110.491 118.585 111.646C118.082 114.543 117.902 117.441 117.916 120.38C117.915 120.63 118.297 120.676 118.306 120.42C118.376 117.565 118.753 114.683 119.315 111.881C119.55 110.719 119.818 109.564 120.125 108.422Z" fill="#FFDC9C"/>
    <path d="M152.256 175.669L145.21 227.396C133.761 229.032 122.223 229.355 110.504 227.396L105.381 186.021L104.105 175.668C121.018 178.203 137.015 178.077 152.256 175.669Z" fill="#6BB8FF"/>
    <path d="M152.256 175.669L145.21 227.397C145.21 227.397 148.641 202.209 138.992 194.2C127.333 184.525 105.381 186.022 105.381 186.022L104.105 175.669C121.018 178.204 137.015 178.078 152.256 175.669Z" fill="#E6D8E0"/>
    <path d="M117.967 220.622C115.368 220.622 112.814 219.943 110.33 218.583C97.8843 211.771 101.242 178.911 101.751 174.821L105.673 175.829C104.374 186.266 103.315 210.646 112.058 215.43C115.419 217.27 118.798 217.521 122.39 216.196C138.01 210.428 150.634 177.572 150.76 177.24L154.119 178.515C153.584 179.929 140.788 213.233 123.638 219.567C121.73 220.271 119.837 220.622 117.967 220.622Z" fill="#2A53A3"/>
    <path d="M155.105 181.227C137.056 184.373 119.008 184.373 100.96 181.227V174.372C119.745 177.905 137.818 178.477 155.105 174.824V181.227Z" fill="#6BB8FF"/>
    <path d="M96.92 226.235H230.914V229.941H96.92V226.235ZM161.241 131.209H217.344V135.946H161.241V131.209ZM161.241 160.037H217.344V164.774H161.241V160.037ZM161.241 196.38H217.344V201.117H161.241V196.38Z" fill="#AABAE6"/>
    <path d="M215.707 119.891H221.984V228.528H215.707V119.891ZM158.103 119.891H164.379V228.528H158.103V119.891Z" fill="#AABAE6"/>
    <path d="M215.707 118.802H240.269V124.554H215.707V118.802Z" fill="#AABAE6"/>
    <path d="M111.851 243.034C116.666 242.833 120.407 238.767 120.207 233.953C120.006 229.138 115.94 225.397 111.126 225.597C106.311 225.798 102.57 229.864 102.77 234.679C102.971 239.493 107.037 243.234 111.851 243.034Z" fill="#AABAE6"/>
    <path d="M107.113 234.322C107.113 231.912 109.066 229.959 111.476 229.959C113.885 229.959 115.839 231.912 115.839 234.322C115.839 236.731 113.886 238.684 111.476 238.684C109.066 238.684 107.113 236.731 107.113 234.322Z" fill="white"/>
    <path d="M217.452 243.029C222.266 242.829 226.007 238.763 225.807 233.948C225.606 229.133 221.541 225.393 216.726 225.593C211.911 225.794 208.17 229.859 208.371 234.674C208.571 239.489 212.637 243.23 217.452 243.029Z" fill="#AABAE6"/>
    <path d="M212.714 234.322C212.714 231.912 214.667 229.959 217.077 229.959C219.486 229.959 221.439 231.912 221.439 234.322C221.439 236.731 219.486 238.684 217.077 238.684C214.667 238.684 212.714 236.731 212.714 234.322Z" fill="white"/>
    <path d="M181.19 111.656H178.752C178.677 111.656 178.603 111.67 178.534 111.699C178.465 111.728 178.402 111.77 178.349 111.822C178.296 111.875 178.254 111.938 178.226 112.007C178.197 112.076 178.183 112.151 178.183 112.225V113.355H181.76V112.225C181.76 112.151 181.745 112.076 181.717 112.007C181.688 111.938 181.646 111.875 181.593 111.822C181.54 111.77 181.478 111.728 181.409 111.699C181.339 111.67 181.265 111.656 181.19 111.656Z" fill="#4F43AB"/>
    <path d="M180.7 112.157H179.243C179.414 111.279 179.384 110.403 179.243 109.528H180.7C180.535 110.345 180.555 111.228 180.7 112.157Z" fill="#4F43AB"/>
    <path d="M184.992 129.528C184.861 130.623 183.924 131.442 182.821 131.442H177.048C175.988 131.442 175.08 130.666 174.942 129.617C174.753 128.182 174.852 126.853 175.02 125.453C175.044 125.259 175.07 125.062 175.095 124.865C175.143 124.508 175.192 124.143 175.24 123.772C175.37 122.755 175.497 121.672 175.545 120.469C175.559 120.111 175.566 119.742 175.566 119.361C175.564 119.168 175.562 118.974 175.557 118.774C175.541 118.166 175.502 117.558 175.442 116.952C175.367 116.159 175.541 115.362 175.94 114.673L175.961 114.636C176.241 114.151 176.643 113.747 177.129 113.466C177.614 113.186 178.165 113.038 178.725 113.039H181.341C181.918 113.039 182.483 113.194 182.978 113.49C183.472 113.785 183.877 114.209 184.15 114.717C184.511 115.392 184.665 116.158 184.592 116.92C184.518 117.731 184.487 118.546 184.498 119.361C184.504 119.74 184.516 120.108 184.534 120.47C184.595 121.628 184.719 122.713 184.834 123.773C184.873 124.14 184.913 124.503 184.949 124.865C184.969 125.062 184.987 125.258 185.003 125.454C185.117 126.782 185.161 128.109 184.992 129.528Z" fill="#C2E2FF"/>
    <path d="M184.293 129.445C184.205 130.183 183.573 130.74 182.821 130.74H177.047C176.336 130.74 175.729 130.218 175.64 129.526C175.465 128.204 175.545 126.976 175.718 125.538C175.739 125.368 175.762 125.193 175.784 125.019L175.815 124.79C175.856 124.486 175.897 124.176 175.937 123.863C176.061 122.902 176.198 121.77 176.248 120.498C176.262 120.131 176.269 119.75 176.269 119.362C176.268 119.16 176.265 118.964 176.261 118.76C176.254 118.489 176.242 118.219 176.226 117.949C178.323 117.391 180.569 118.573 183.818 117.949C183.806 118.218 183.799 118.489 183.794 118.767C183.793 118.967 183.793 119.166 183.794 119.366C183.8 119.743 183.813 120.124 183.832 120.505C183.889 121.601 184.001 122.629 184.109 123.622L184.154 124.032C184.187 124.335 184.219 124.635 184.25 124.936C184.269 125.127 184.287 125.318 184.302 125.508C184.391 126.558 184.471 127.946 184.293 129.445Z" fill="#80C2FF"/>
    <path d="M184.165 109.032C184.116 108.928 184.038 108.84 183.941 108.779C183.843 108.717 183.731 108.684 183.615 108.684H178.181V108.529C178.181 108.478 178.161 108.43 178.125 108.394C178.09 108.358 178.041 108.338 177.99 108.338H177.353C177.302 108.338 177.254 108.358 177.218 108.394C177.182 108.43 177.162 108.478 177.162 108.529V109.757C177.162 109.863 177.247 109.948 177.353 109.948H177.99C178.041 109.948 178.09 109.928 178.125 109.892C178.161 109.857 178.181 109.808 178.181 109.757V109.602H183.187C183.354 109.602 183.505 109.698 183.576 109.848L183.885 110.501H184.861L184.165 109.032Z" fill="#4F43AB"/>
    <path d="M184.834 123.773H175.24C175.371 122.756 175.497 121.673 175.545 120.47H184.534C184.595 121.628 184.719 122.714 184.834 123.773ZM184.498 118.775C184.496 118.972 184.496 119.168 184.498 119.362H175.566C175.564 119.169 175.562 118.975 175.557 118.775H184.498ZM185.003 125.454H175.02C175.044 125.26 175.07 125.063 175.095 124.866H184.949C184.969 125.063 184.987 125.258 185.003 125.454Z" fill="white"/>
    <path d="M171.186 160.036H186.162V181.634H171.186V160.036Z" fill="#80C2FF"/>
    <path d="M184.097 160.036V166.012C184.097 173.142 178.317 178.922 171.186 178.922V181.634H186.162V160.036H184.097Z" fill="#70BAFF"/>
    <path d="M171.167 173.485H186.171V174.357H171.167V173.485ZM171.167 175.454H186.171V176.326H171.167V175.454Z" fill="white"/>
    <path d="M275.099 137.619L270.39 172.191C262.738 173.284 255.026 173.5 247.194 172.191L243.771 144.538L242.918 137.619C254.221 139.313 264.912 139.229 275.099 137.619Z" fill="#6BB8FF"/>
    <path d="M258.909 139.42C268.902 139.42 277.003 138.226 277.003 136.752C277.003 135.279 268.902 134.085 258.909 134.085C248.916 134.085 240.816 135.279 240.816 136.752C240.816 138.226 248.916 139.42 258.909 139.42Z" fill="#4E9DE6"/>
    <path d="M275.099 137.619L270.39 172.191C270.39 172.191 272.683 155.356 266.234 150.004C258.442 143.538 243.771 144.538 243.771 144.538L242.918 137.619C254.221 139.313 264.912 139.229 275.099 137.619Z" fill="#F0EBEC"/>
    <path d="M259.035 112.599H259.044C265.578 112.62 270.57 117.009 273.479 125.291C275.642 131.449 275.887 137.502 275.896 137.757L274.595 137.837C274.593 137.777 274.347 131.806 272.275 125.932C269.551 118.208 265.098 114.28 259.039 114.261H259.031C252.953 114.246 248.452 118.148 245.652 125.86C243.523 131.725 243.225 137.7 243.223 137.759L241.922 137.665C241.934 137.41 242.232 131.355 244.455 125.205C247.443 116.942 252.485 112.582 259.035 112.599Z" fill="#3A3E40"/>
    <path d="M254.041 112.439L263.908 112.465C264.062 112.465 264.209 112.527 264.317 112.635C264.426 112.744 264.486 112.892 264.486 113.045L264.481 115.084C264.48 115.238 264.419 115.385 264.31 115.493C264.201 115.601 264.054 115.662 263.9 115.662L254.033 115.636C253.879 115.636 253.732 115.574 253.624 115.465C253.516 115.357 253.455 115.209 253.455 115.056L253.46 113.017C253.461 112.863 253.522 112.716 253.631 112.608C253.74 112.5 253.887 112.439 254.041 112.439Z" fill="white"/>
    <path d="M277.003 141.334C264.94 143.437 252.878 143.437 240.816 141.334V136.752C253.371 139.114 265.449 139.193 277.003 136.752V141.334Z" fill="#6BB8FF"/>
    <path d="M217.172 42.5487C217.172 42.5487 227.398 44.2428 230.558 39.5577C233.684 34.9218 230.511 16.6512 220.775 13.1879C217.227 11.9255 206.097 12.0117 207.022 22.6456C207.737 30.8613 201.216 36.7739 205.543 40.0824C209.871 43.3905 217.172 42.5487 217.172 42.5487Z" fill="#302B4F"/>
    <path d="M207.489 40.9749C206.933 40.6109 206.272 40.4461 205.69 40.1222C205.147 39.8199 204.64 39.4423 204.256 38.9492C203.42 37.8773 203.524 36.384 203.769 35.122C204.289 32.4425 205.722 30.0821 206.601 27.5232C207.073 26.1498 207.443 24.6076 207.251 23.1496C207.246 23.1155 207.191 23.1231 207.191 23.1564C207.187 23.9137 207.147 24.6669 206.986 25.4094C206.836 26.1069 206.614 26.7856 206.36 27.4523C205.838 28.8221 205.146 30.1145 204.547 31.4511C203.982 32.7147 203.455 33.9879 203.229 35.3617C203.019 36.6337 203.055 37.9358 203.859 39.0049C204.264 39.5425 204.812 39.9675 205.396 40.2934C206.024 40.643 206.738 41.0013 207.453 41.1012C207.524 41.1108 207.541 41.0085 207.489 40.9749ZM232.839 31.156C232.548 29.4799 232.066 27.8351 231.499 26.2336C230.971 24.7435 230.319 23.2943 229.5 21.9401C228.567 20.3967 227.436 19.0093 226.078 17.821C226.046 17.7926 225.997 17.8379 226.029 17.8683C228.324 20.0219 229.953 22.8088 231.033 25.7453C231.567 27.1985 231.953 28.705 232.242 30.2252C232.42 31.1596 232.557 32.1085 232.537 33.0622C232.519 33.9273 232.342 34.7724 232.051 35.5862C231.743 36.4441 231.308 37.2503 230.826 38.0212C230.327 38.8165 229.706 39.5481 229.261 40.374C229.164 40.5539 229.395 40.7632 229.55 40.6057C230.146 40.0011 230.623 39.2567 231.084 38.5475C231.55 37.8315 231.973 37.0879 232.311 36.303C233.026 34.6433 233.145 32.9259 232.839 31.156Z" fill="#302B4F"/>
    <path d="M205.781 102.254C205.781 102.254 192.922 163.743 196.197 173.047C198.701 180.162 227.281 214.648 227.281 214.648C227.281 214.648 232.153 208.988 232.226 208.091C232.3 207.194 211.073 169.294 211.073 169.294L225.994 106.259L205.781 102.254Z" fill="#FAB8AA"/>
    <path d="M237.276 236.532C239.765 234.368 239.372 232.244 239.205 229.641C239.038 227.037 240.85 224.836 240.85 224.836C240.85 224.836 243.322 222.17 242.272 220.347L242.263 220.336C241.965 219.738 241.723 219.26 241.574 218.925C240.757 217.09 236.234 213.995 236.234 213.995C236.231 214.015 236.174 214.028 236.171 214.048C234.913 216.363 232.556 217.947 229.95 218.602C229.95 218.602 229.958 218.613 229.973 218.655L229.991 218.678C230.081 218.842 230.297 219.287 230.578 219.934C231.223 221.451 232.169 224.085 232.379 226.979C232.439 227.759 232.361 228.663 232.204 229.629C231.525 233.655 229.45 238.789 230.25 240.277C231.239 242.123 234.787 238.696 237.276 236.532Z" fill="#302B4F"/>
    <path d="M231.565 232.546C239.048 234.372 236.203 214.009 236.203 214.009C235.888 214.384 230.586 205.337 230.586 205.337C230.586 205.337 225.262 208.516 223.344 209.002C227.357 214.782 232.938 220.939 231.565 232.546Z" fill="#FAB8AA"/>
    <path d="M208.824 100.222L210.944 159.924L216.251 224.852L223.074 225.199L229.699 155.813L231.525 99.5946L208.824 100.222ZM212.207 57.8911C208.185 61.1615 187.078 69.3848 181.594 66.8292C175.906 64.1786 171.994 43.254 169.364 40.3211C169.364 40.3211 174.246 36.9798 174.624 38.5168C175.631 42.613 184.903 57.0705 184.903 57.0705C184.903 57.0705 202.497 48.692 207.859 46.3565C215.941 42.8066 219.784 51.7115 212.207 57.8911Z" fill="#FFCDC2"/>
    <path d="M210.995 242.962C214.28 242.663 215.204 240.711 216.592 238.503C217.98 236.294 220.738 235.569 220.738 235.569C220.738 235.569 224.182 234.673 224.341 233.993C224.442 233.557 224.457 233.134 224.517 232.762L224.517 232.747C224.626 232.088 224.709 231.558 224.784 231.2C225.195 229.234 223.339 224.077 223.339 224.077C223.325 224.092 223.271 224.069 223.257 224.083C220.882 225.224 218.044 225.129 215.548 224.135C215.548 224.135 215.548 224.149 215.535 224.192L215.536 224.22C215.513 224.407 215.428 224.894 215.277 225.583C214.913 227.191 214.138 229.88 212.615 232.349C212.207 233.017 211.615 233.705 210.923 234.396C208.015 237.263 203.328 240.212 203.107 241.887C202.828 243.963 207.711 243.26 210.995 242.962Z" fill="#302B4F"/>
    <path d="M208.697 236.387C213.696 242.247 223.306 224.07 223.306 224.07C222.83 224.189 223.826 213.75 223.826 213.75C223.826 213.75 217.648 213.213 215.808 212.484C215.68 219.52 216.602 227.779 208.697 236.387ZM232.406 50.7707C240.098 61.4984 258.182 105.44 258.182 105.44C258.182 105.44 265.484 110.607 263.559 114.905C261.636 119.204 257.484 116.745 257.682 115.646C258.358 111.889 256.532 111.339 255.497 112.851C254.791 113.881 255.289 114.957 254.041 114.957C251.804 114.957 253.469 107.936 253.469 107.936C253.469 107.936 247.992 97.6741 241.905 88.542C237.18 81.4528 229.718 67.5629 227.366 62.9953C222.1 52.7687 228.905 45.8879 232.406 50.7707Z" fill="#FFCDC2"/>
    <path d="M228.816 89.652C228.984 92.0185 229.331 94.083 229.912 95.6741C225.021 97.3887 204.604 92.2293 206.134 82.9236C207.003 77.6408 207.269 72.3294 205.968 68.6598C201.987 57.425 199.428 49.4843 204.049 45.9914C206.385 44.2259 210.509 43.3435 213.82 42.8477L220.151 42.9655C224.977 43.8743 230.592 45.1399 232.92 47.7456C232.92 47.7456 231.682 57.6395 230.418 66.339C229.28 74.0192 228.356 83.0178 228.816 89.652Z" fill="#FFB857"/>
    <path d="M190.089 53.99C190.014 58.0686 190.58 61.9255 191.86 65.5367C192.138 66.3276 192.452 67.1056 192.799 67.8686L205.771 64.4226L204.643 52.3612L204.048 45.9932C200.975 47.933 192.799 52.6442 190.089 53.99Z" fill="#FFB857"/>
    <path d="M191.86 65.5359C192.138 66.3268 192.452 67.1049 192.799 67.8679L205.772 64.4219V51.0901C204.861 53.0352 202.184 58.0302 202.354 60.5698C202.528 63.2321 195.485 64.8701 191.86 65.5359ZM228.816 89.6515C228.173 89.9846 227.663 90.254 227.421 90.422C226.506 91.0554 211.677 84.4993 211.677 84.4993C211.677 84.4993 221.406 82.9375 223.172 80.9018C228.604 74.6444 226.018 62.6303 226.018 62.6303L230.418 66.3393C229.279 74.0186 228.355 83.0173 228.816 89.6515Z" fill="#EBA647"/>
    <path d="M220.156 42.9608C219.493 44.3627 218.759 45.3328 218.022 45.9341H218.013C215.763 47.7738 213.569 46.1342 213.826 42.8433L214.558 37.7289L214.75 36.4164L219.07 35.4639L220.156 42.9608Z" fill="#FFCDC2"/>
    <path d="M220.156 42.9612C219.493 44.3631 218.759 45.3332 218.022 45.9346H218.013C217.805 46.0043 220.792 39.9786 218.109 39.8151C215.823 39.6756 215.014 38.7218 215.014 38.7218L214.558 37.7289L214.749 36.4164L219.07 35.4639L220.156 42.9612Z" fill="#F5C0B5"/>
    <path d="M209.68 17.3451C208.565 19.6694 205.582 35.4313 213.281 38.4849C220.289 41.2642 225.133 32.5269 225.133 32.5269C225.133 32.5269 229.166 31.6105 228.862 27.9921C228.649 25.4541 225.767 27.1162 225.767 27.1162L225.338 20.6379C220.993 15.2296 210.795 15.0207 209.68 17.3451Z" fill="#FFCDC2"/>
    <path d="M188.56 161.483C199.469 166.742 218.635 167.8 233.047 165.878C236.923 165.363 240.449 164.632 243.386 163.707C232.92 143.677 242.678 108.881 228.686 86.8451C221.949 88.6438 215.978 88.724 209.572 87.0716C209.499 87.0539 209.426 87.0335 209.354 87.0102C208.099 86.6751 207.112 86.2642 205.776 85.7827C205.602 86.5003 205.417 87.2508 205.219 88.0345C201.721 101.875 194.484 125.686 190.779 145.027C189.617 151.102 188.801 156.739 188.56 161.483Z" fill="#FFB857"/>
    <path d="M190.779 145.027C193.351 147.836 198.813 150.201 210.341 149.36C228.596 148.029 232.472 159.344 233.047 165.878C236.923 165.363 240.449 164.632 243.386 163.706C232.92 143.677 242.678 108.881 228.686 86.845C221.949 88.6437 215.978 88.7239 209.572 87.0715C209.498 87.0538 209.426 87.0334 209.354 87.0101C207.896 87.3689 206.498 87.7181 205.219 88.0344C201.721 101.875 194.484 125.686 190.779 145.027Z" fill="#EBA647"/>
    <path d="M208.172 26.8175C208.781 23.8858 209.634 19.454 213.431 18.3616C213.431 18.3616 214.062 22.878 218.06 24.7261C222.494 26.7762 223.587 31.6814 223.587 31.6814C223.587 31.6814 226.976 28.3248 227.209 24.0413C227.442 19.7583 221.317 13.6577 215.979 13.1646C207.494 12.3808 206.953 22.2775 208.172 26.8175Z" fill="#302B4F"/>
    <path d="M222.392 26.8993C221.161 26.4026 219.789 26.4275 218.53 26.0142C216.228 25.2585 214.412 23.3547 213.807 21.0059C213.439 19.5756 213.511 18.047 213.966 16.6447C213.989 16.5717 213.881 16.5429 213.854 16.6114C212.928 18.9301 213.31 21.6261 214.758 23.6477C215.414 24.5649 216.262 25.3286 217.243 25.8859C217.733 26.1633 218.258 26.3942 218.801 26.5477C219.476 26.7386 220.174 26.8195 220.863 26.9418C222.171 27.1743 223.799 27.679 224.152 29.1519C224.192 29.317 224.431 29.2505 224.404 29.0873C224.228 28.0254 223.348 27.2846 222.392 26.8993Z" fill="#302B4F"/>
    <path d="M216.808 34.1293C216.836 34.6268 216.649 35.0918 216.321 35.4454C215.968 35.8287 215.452 36.0828 214.866 36.1149C214.237 36.1494 213.66 35.9197 213.265 35.5312C212.948 35.2221 212.745 34.8112 212.719 34.3534C212.662 33.3175 214.018 34.0259 214.782 33.9838C215.419 33.9493 216.751 33.0938 216.808 34.1293Z" fill="#B84F4F"/>
    <path d="M216.32 35.4459C215.968 35.8292 215.452 36.0833 214.866 36.1154C214.237 36.1499 213.66 35.9202 213.265 35.5317C213.555 35.2058 214.096 34.9709 214.726 34.9364C215.408 34.8991 216.014 35.108 216.32 35.4459Z" fill="#F59595"/>
    <path d="M212.191 29.2034C212.125 29.7454 211.706 30.1403 211.254 30.0858C210.803 30.0312 210.49 29.5474 210.555 29.0058C210.62 28.4638 211.04 28.0689 211.491 28.1234C211.943 28.178 212.256 28.6614 212.191 29.2034Z" fill="#FFE9E3"/>
    <path d="M212.015 29.1816C211.964 29.6073 211.634 29.9176 211.279 29.8747C210.925 29.8318 210.679 29.4518 210.73 29.026C210.782 28.6003 211.111 28.29 211.466 28.3325C211.821 28.3758 212.067 28.7558 212.015 29.1816Z" fill="#302B4F"/>
    <path d="M211.776 29.1535C211.743 29.4205 211.537 29.6153 211.314 29.5885C211.092 29.5616 210.937 29.3231 210.97 29.0561C211.002 28.7891 211.209 28.5943 211.431 28.6211C211.654 28.648 211.808 28.8865 211.776 29.1535Z" fill="#181A2E"/>
    <path d="M210.969 28.7792C210.972 28.7557 210.98 28.7329 210.991 28.7123C211.003 28.6916 211.019 28.6735 211.037 28.6588C211.056 28.6442 211.077 28.6334 211.1 28.627C211.123 28.6206 211.147 28.6188 211.17 28.6217C211.194 28.6245 211.217 28.632 211.237 28.6436C211.258 28.6552 211.276 28.6708 211.291 28.6895C211.305 28.7081 211.316 28.7295 211.322 28.7523C211.329 28.7751 211.331 28.799 211.328 28.8225C211.322 28.87 211.298 28.9133 211.26 28.9429C211.222 28.9724 211.175 28.9858 211.127 28.9801C211.079 28.9743 211.036 28.9499 211.007 28.9123C210.977 28.8746 210.964 28.8267 210.969 28.7792ZM211.442 28.6221C211.444 28.6115 211.447 28.6014 211.452 28.5921C211.457 28.5829 211.464 28.5748 211.473 28.5683C211.481 28.5617 211.491 28.5569 211.501 28.5541C211.511 28.5513 211.522 28.5506 211.532 28.5519C211.543 28.5532 211.553 28.5565 211.562 28.5617C211.571 28.5669 211.579 28.5738 211.586 28.5821C211.593 28.5905 211.597 28.6 211.6 28.6102C211.603 28.6204 211.604 28.631 211.603 28.6415C211.601 28.652 211.598 28.6622 211.593 28.6714C211.588 28.6806 211.581 28.6887 211.572 28.6953C211.564 28.7018 211.555 28.7066 211.544 28.7095C211.534 28.7123 211.524 28.7131 211.513 28.7119C211.502 28.7107 211.492 28.7074 211.483 28.7022C211.474 28.6971 211.466 28.6901 211.459 28.6817C211.452 28.6734 211.448 28.6638 211.445 28.6536C211.442 28.6433 211.441 28.6326 211.442 28.6221Z" fill="white"/>
    <path d="M216.975 29.1132C216.961 29.6589 217.318 30.111 217.773 30.1231C218.227 30.1351 218.608 29.7025 218.622 29.1565C218.637 28.6109 218.279 28.1587 217.825 28.1467C217.37 28.1351 216.99 28.5676 216.975 29.1132Z" fill="#FFE9E3"/>
    <path d="M217.152 29.1179C217.141 29.5464 217.421 29.902 217.778 29.9112C218.136 29.9208 218.435 29.5809 218.446 29.1519C218.457 28.723 218.176 28.3678 217.819 28.3586C217.462 28.349 217.163 28.6889 217.152 29.1179Z" fill="#302B4F"/>
    <path d="M217.393 29.1243C217.386 29.3933 217.562 29.6162 217.786 29.6218C218.01 29.6278 218.197 29.4146 218.204 29.1456C218.211 28.8766 218.035 28.6537 217.811 28.6481C217.587 28.6421 217.4 28.8553 217.393 29.1243Z" fill="#181A2E"/>
    <path d="M218.245 28.872C218.246 28.8483 218.242 28.8247 218.233 28.8026C218.225 28.7804 218.212 28.7602 218.196 28.743C218.179 28.7258 218.16 28.712 218.138 28.7023C218.116 28.6927 218.093 28.6874 218.069 28.6868C218.045 28.6862 218.022 28.6903 218 28.6988C217.978 28.7073 217.957 28.7201 217.94 28.7365C217.923 28.7528 217.909 28.7724 217.899 28.7941C217.89 28.8157 217.885 28.8391 217.884 28.8628C217.883 28.9107 217.901 28.9571 217.934 28.9919C217.967 29.0266 218.012 29.0468 218.06 29.048C218.108 29.0492 218.154 29.0314 218.189 28.9984C218.224 28.9654 218.244 28.9199 218.245 28.872Z" fill="white"/>
    <path d="M212.218 27.4375C211.819 27.0526 211.2 27.0246 210.748 27.3296C210.67 27.3821 210.664 27.5036 210.718 27.5738C210.78 27.6519 210.884 27.6559 210.963 27.6034C211.116 27.5017 211.299 27.4539 211.483 27.4675C211.685 27.4852 211.859 27.571 212.008 27.7149C212.075 27.7802 212.199 27.7502 212.251 27.6816C212.314 27.599 212.286 27.5028 212.218 27.4375ZM218.658 27.6114C218.252 27.2338 217.633 27.2174 217.187 27.5309C217.11 27.585 217.105 27.7065 217.162 27.7754C217.225 27.8528 217.329 27.8544 217.406 27.8003C217.555 27.696 217.749 27.6427 217.924 27.6547C218.126 27.6688 218.301 27.751 218.453 27.8921C218.522 27.9558 218.646 27.9237 218.696 27.8544C218.757 27.771 218.727 27.6756 218.658 27.6114Z" fill="#302B4F"/>
    <path d="M215.047 32.063C214.892 32.0181 214.739 32.0546 214.581 32.0526C214.434 32.051 214.348 31.9857 214.344 31.8409C214.341 31.6842 214.379 31.5226 214.402 31.3675L214.483 30.8283C214.493 30.7674 214.426 30.7144 214.367 30.7148C214.296 30.7152 214.254 30.7678 214.245 30.8291L214.156 31.4252C214.129 31.6012 214.082 31.788 214.12 31.9644C214.154 32.1268 214.285 32.2422 214.454 32.2699C214.628 32.2979 214.812 32.2346 214.981 32.2835C215.127 32.3256 215.192 32.1051 215.047 32.063Z" fill="#F09E8B"/>
    <path d="M217.702 28.8954C217.703 28.8849 217.707 28.8747 217.712 28.8655C217.717 28.8563 217.724 28.8482 217.732 28.8417C217.741 28.8351 217.75 28.8303 217.76 28.8274C217.77 28.8246 217.781 28.8238 217.792 28.825C217.802 28.8263 217.812 28.8296 217.821 28.8348C217.831 28.84 217.839 28.8469 217.845 28.8553C217.852 28.8636 217.857 28.8731 217.86 28.8833C217.862 28.8935 217.863 28.9041 217.862 28.9146C217.859 28.9359 217.848 28.9552 217.832 28.9684C217.815 28.9817 217.793 28.9877 217.772 28.9852C217.751 28.9826 217.732 28.9717 217.719 28.9548C217.705 28.938 217.699 28.9166 217.702 28.8954Z" fill="white"/>
    <path d="M219.505 30.9777C219.495 31.2539 219.05 31.462 218.512 31.4423C217.974 31.4227 217.545 31.1826 217.555 30.906C217.565 30.6298 218.01 30.4217 218.549 30.4413C219.087 30.4614 219.515 30.7011 219.505 30.9777ZM211.426 30.8663C211.416 31.1425 210.971 31.3505 210.433 31.3309C209.894 31.3113 209.466 31.0711 209.476 30.7945C209.486 30.5183 209.931 30.3103 210.469 30.3299C211.008 30.3495 211.436 30.5897 211.426 30.8663Z" fill="#F09E8B"/>
    <path d="M191.176 136.818C191.19 136.997 191.204 137.172 191.223 137.347C191.327 138.347 191.515 139.245 191.798 140.005C193.182 143.701 200.933 145.061 209.595 145.381C214.594 145.561 219.9 145.395 224.456 145.136C224.99 145.107 225.509 145.075 226.019 145.042C229.975 144.787 233.067 141.912 233.841 138.277C233.878 138.107 233.912 137.937 233.935 137.762C234.067 136.873 234.059 135.968 233.911 135.081C232.009 123.563 231.112 105.232 227.86 90.4522C227.74 89.9018 227.794 89.3277 228.016 88.8098C228.238 88.2919 228.615 87.8561 229.096 87.563L229.12 87.549C231.499 86.3784 234.978 89.8621 235.493 90.825C236.003 91.7879 237.381 91.1273 237.726 90.3527C239.359 86.6518 231.457 85.3204 229.672 86.0713C229.96 83.8007 235.913 85.8496 234.714 83.2579C233.51 80.6614 229.3 83.2579 228.695 85.5806L228.681 85.5854C227.742 85.9959 226.647 85.5289 226.236 84.5848C224.806 81.3088 224.362 71.9053 224.541 64.8998V64.895L224.57 63.9557C224.588 63.4033 224.612 62.8702 224.636 62.3602V62.3554C224.678 61.6286 224.725 60.9439 224.777 60.3258C226.019 45.9372 228.535 45.1679 228.535 45.1679L225.117 44.0398C223.536 46.9382 222.502 49.8887 221.978 52.8861C221.908 53.278 221.806 53.6633 221.671 54.0379C221.485 54.5655 221.231 55.0669 220.916 55.5296C219.632 57.4414 217.432 58.6593 215.015 58.6593C214.916 58.6593 214.812 58.6593 214.709 58.6545C211.909 58.541 209.591 56.8228 208.543 54.4624C208.322 53.9737 208.16 53.4602 208.062 52.933V52.9238C207.902 52.1061 207.894 51.2661 208.038 50.4456C208.401 48.3305 209.138 45.8947 209.652 43.6526L207.042 44.4127C207.042 44.4127 203.761 53.5284 204.412 62.6296C204.474 63.5027 204.662 65.0466 204.885 66.9728C204.885 66.9916 204.889 67.0105 204.894 67.0341C205.578 73.0434 206.546 82.7352 204.87 87.6115C204.796 87.8196 204.751 88.0374 204.739 88.2581C201.254 96.6691 190.274 124.365 191.176 136.818Z" fill="#2A53A3"/>
    <path d="M223.757 87.8834C228.143 94.1428 222.531 113.381 229.508 125.277C233.988 132.92 228.53 142.548 224.456 145.135C224.99 145.107 225.509 145.074 226.019 145.041C231.084 144.715 234.738 140.085 233.911 135.08C232.009 123.562 231.112 105.232 227.86 90.4515C227.74 89.9011 227.794 89.327 228.016 88.8091C228.238 88.2912 228.615 87.8554 229.096 87.5623L229.12 87.5483C231.499 86.3777 234.978 89.8614 235.493 90.8243C236.003 91.7872 237.381 91.1266 237.726 90.3521C239.359 86.6511 231.457 85.3198 229.672 86.0706C229.96 83.8 235.913 85.8489 234.714 83.2572C233.51 80.6607 229.3 83.2572 228.695 85.58L228.681 85.5848C227.742 85.9953 226.647 85.5282 226.236 84.5842C224.806 81.3081 224.362 71.9046 224.541 64.8992C224.541 64.8988 219.376 81.6192 223.757 87.8834Z" fill="#1A408A"/>
    <path d="M204.884 66.9709C204.884 66.99 204.889 67.0091 204.894 67.033C204.889 66.9904 204.884 66.9709 204.884 66.9709Z" fill="#DCDFF5"/>
    <path d="M191.798 140.004C193.182 143.7 200.933 145.06 209.595 145.381C209.558 145.376 209.524 145.371 209.487 145.371C192.828 142.919 202.014 86.4643 209.924 88.358C215.569 89.7094 219.227 86.8463 219.227 86.8463C202.968 89.6814 211.677 74.4943 204.893 67.0322C205.578 73.0415 206.545 82.7332 204.87 87.6096C204.795 87.8177 204.751 88.0355 204.738 88.2562C200.914 97.4902 188.05 129.973 191.798 140.004Z" fill="#1A408A"/>
    <path d="M232.227 47.0857C236.293 50.2062 241.128 60.6207 244.768 69.4241C241.082 72.3318 237.21 74.6328 232.92 75.5645L226.018 62.6308L232.227 47.0857Z" fill="#FFB857"/>
    <path d="M146.543 19.4042C147.634 17.5032 149.48 16.1779 151.27 14.9135L148.648 15.4142C149.683 14.4918 150.945 13.836 152.287 13.4884C151.567 13.2082 150.788 13.0594 150.078 13.3272C150.233 13.0603 150.441 12.8281 150.689 12.6448C150.938 12.4616 151.221 12.3313 151.522 12.2621C149.892 11.5385 147.959 11.5293 146.322 12.2364C147.141 11.3044 148.385 10.7616 149.626 10.796C148.307 9.8652 146.621 9.46952 145.026 9.71727C146.953 8.67256 149.22 8.51542 151.407 8.37992L148.913 7.42822C149.986 7.23861 151.092 7.26386 152.159 7.47953C151.815 6.85656 151.352 6.30414 150.699 6.05479C150.992 5.95808 151.302 5.92255 151.609 5.95041C151.917 5.97827 152.215 6.06892 152.486 6.21675C151.747 4.59317 150.309 3.30273 148.615 2.74429C149.846 2.59116 151.137 3.01209 152.042 3.86156C151.674 2.28969 150.676 0.874572 149.319 0.000244141C151.453 0.498944 153.253 1.88681 154.978 3.23819L153.745 0.870161C154.831 1.53803 156.932 4.31777 157.087 4.65251C157.244 4.41799 159.363 1.72124 160.488 0.994838C159.505 2.27526 159.042 3.94374 159.226 5.54767C159.791 4.44324 160.865 3.61181 162.076 3.34121C160.849 4.29732 159.994 5.71204 159.697 7.237C160.714 6.10611 162.023 5.23579 163.469 4.76074L161.72 6.77839C163.712 5.86357 165.785 4.93032 167.976 4.93994C166.453 5.47592 165.154 6.62084 164.432 8.06483C165.509 7.44827 166.862 7.33803 168.025 7.77218C166.248 7.92291 164.549 8.84454 163.455 10.2528C163.753 10.1718 164.064 10.1527 164.369 10.1968C164.675 10.2409 164.968 10.3471 165.23 10.509C164.296 10.6321 163.568 11.3709 163.013 12.1318C162.119 13.3573 161.704 15.0101 161.335 16.4814L160.95 16.8526C161.079 17.3886 161.143 17.9057 161.071 18.3736L159.76 19.1076C158.298 18.689 156.768 18.5556 155.255 18.7147C154.318 18.8137 153.314 19.0727 152.739 19.8191C152.731 19.5107 152.786 19.2039 152.901 18.9176C153.016 18.6313 153.188 18.3716 153.408 18.1547C151.641 18.3956 149.991 19.403 148.97 20.8646C149.177 19.6411 149.951 18.5259 151.024 17.9033C149.413 17.8059 147.77 18.3551 146.543 19.4042Z" fill="#FFBB42"/>
    <path d="M161.108 21.4491L162.214 20.7937L174.346 41.2608L173.24 41.9167L161.108 21.4491Z" fill="#585FAB"/>
    <path d="M161.115 21.4537L162.221 20.7978L161.343 16.4314C160.274 17.6533 158.997 18.4655 157.422 18.6888L161.115 21.4537ZM173.192 42.1341C173.776 42.0779 174.233 41.8069 174.563 41.3215C174.647 41.198 174.641 41.0332 174.565 40.905L171.159 35.1567C171.024 34.9302 170.721 34.9009 170.527 35.0781C170.269 35.3121 169.964 35.4887 169.632 35.5961C169.387 35.677 169.292 35.9749 169.424 36.1962L172.825 41.936C172.901 42.0647 173.043 42.1481 173.192 42.1341ZM162.821 21.804L161.715 22.4595L161.469 22.0446L162.576 21.3891L162.821 21.804Z" fill="#302B4F"/>
    <path d="M167.057 36.654C167.079 38.755 168.028 40.2126 170.175 41.7332C171.36 42.5727 171.695 38.6372 171.672 36.5361C171.65 34.4351 171.097 32.8055 169.645 32.8212C168.193 32.8368 167.034 34.553 167.057 36.654Z" fill="#FFCDC2"/>
    <path d="M172.962 33.7598C174.439 33.5445 173.991 35.4103 174.081 36.3792C174.17 37.3481 174.624 38.566 174.624 38.566L173.365 38.7665C173.365 38.7665 172.098 37.7378 171.844 36.9304C171.359 35.3846 171.487 33.9751 172.962 33.7598Z" fill="#FFCDC2"/>
    <path d="M208.181 103.634C205.035 99.7505 206.558 92.3602 206.625 92.0476L206.69 91.7405L206.967 91.8884C210.659 93.86 214.451 94.5964 220.954 91.7834L221.24 91.6599L221.282 91.9678C221.325 92.2817 222.297 99.6988 218.887 103.608C217.554 105.136 215.724 105.911 213.448 105.911C211.177 105.912 209.405 105.146 208.181 103.634ZM207.029 92.4541C206.776 93.9 205.894 100.063 208.548 103.338C209.678 104.732 211.327 105.439 213.448 105.439C215.581 105.439 217.291 104.719 218.53 103.299C221.417 99.9895 220.994 93.7942 220.848 92.3418C214.513 95.0133 210.696 94.3478 207.029 92.4541ZM191.175 136.818C191.189 136.997 191.204 137.172 191.223 137.347C196.566 139.447 202.533 140.967 208.821 141.062C209.444 141.071 210.058 141.076 210.662 141.076C221.156 141.076 228.747 139.716 233.84 138.276C233.878 138.106 233.911 137.936 233.934 137.762C231.891 138.347 229.427 138.923 226.509 139.404L225.886 139.503C221.302 140.221 215.652 140.688 208.826 140.589C202.519 140.495 196.528 138.947 191.175 136.818Z" fill="#5881D1"/>
    <path d="M224.201 89.791C226.854 97.0137 231.183 131.691 225.886 139.504C225.867 139.537 225.847 139.568 225.825 139.599L226.212 139.873C226.316 139.726 226.415 139.57 226.509 139.405C231.645 130.682 227.349 96.9997 224.644 89.6306C220.49 78.3153 222.902 68.8504 224.569 63.9548C224.587 63.4024 224.611 62.8692 224.635 62.3593C223.044 66.6881 219.532 77.0782 224.201 89.791ZM209.326 58.6772C210.228 60.0226 211.592 60.858 213.372 61.1603C213.908 61.2558 214.451 61.3048 214.996 61.3066C216.591 61.3066 217.937 60.8392 219.008 59.9139C220.882 58.2996 221.482 55.6842 221.671 54.0366C221.484 54.5642 221.23 55.0655 220.916 55.5283C220.58 56.9161 219.934 58.4928 218.702 59.5595C217.394 60.6876 215.628 61.0701 213.452 60.6972C211.804 60.4138 210.549 59.6445 209.718 58.4126C208.915 57.2276 208.618 55.7644 208.542 54.4615C208.321 53.9727 208.16 53.4593 208.061 52.9321C207.966 54.5417 208.113 56.8692 209.326 58.6772Z" fill="#5881D1"/>
    <path d="M318.267 45.7822L318.85 49.9939L321.583 69.666L324.03 87.3154C324.03 87.3154 332.191 90.0947 334.862 85.8213C334.866 85.8137 334.87 85.8096 334.874 85.802C335.82 84.2694 336.198 80.8415 336.082 76.4911C335.762 64.5512 331.708 45.678 325.401 40.1462C325.066 39.8468 324.704 39.5793 324.32 39.3472C324.038 39.1715 323.741 39.0216 323.432 38.8994L318.267 45.7822Z" fill="#FFB857"/>
    <path d="M318.85 49.9936L321.583 69.6658C324.03 72.781 326.262 75.3134 326.262 75.3134C326.262 75.3134 331.114 82.3429 334.874 85.8017C335.82 84.2692 336.198 80.8412 336.082 76.4908C332.797 71.3643 328.207 67.06 329.049 62.6707C330.315 56.0389 327.184 45.9671 327.184 45.9671L325.401 40.1459C325.066 39.8465 324.704 39.5791 324.32 39.3469C323.139 41.5357 320.834 45.8749 318.85 49.9936Z" fill="#EBA647"/>
    <path d="M325.487 219.468L323.751 229.518C321.736 233.207 318.69 233.455 314.941 229.921L314.337 219.289L325.487 219.468ZM276.215 217.504L272.621 226.976C270.136 230.185 267.293 229.799 264.869 225.622L266.821 215.166L276.215 217.504Z" fill="#FFD5CC"/>
    <path d="M291.267 81.5681L295.722 100.575L300.349 120.309L309.659 160.019L311.446 167.652L311.665 178.295V178.299L311.876 188.637C311.876 188.637 311.876 188.653 311.88 188.686L312.569 222.473C316.656 223.497 320.409 223.534 324.871 222.976C325.874 222.861 326.919 222.704 328.005 222.526C328.005 222.526 332.744 179.179 331.79 161.972C330.833 144.769 321.148 85.1969 320.408 81.8736L291.267 81.5681Z" fill="#2A53A3"/>
    <path d="M300.349 120.308L309.659 160.018L311.446 167.652L311.665 178.295C314.212 170.273 318.266 168.118 318.266 168.118C312.755 166.863 310.127 150.595 311.593 138.288C313.058 125.981 306.72 115.791 306.72 115.791L300.349 120.308Z" fill="#1A408A"/>
    <path d="M263.215 216.162C263.684 216.525 264.175 216.859 264.685 217.161C264.805 217.235 264.928 217.306 265.052 217.376C265.23 217.475 265.408 217.574 265.593 217.673H265.597C265.82 217.793 266.051 217.909 266.287 218.02C268.879 219.275 272.083 220.237 275.03 220.625C276.347 220.803 277.61 220.864 278.746 220.786C278.746 220.786 284.827 206.564 290.577 191.103C293.637 182.884 296.601 174.314 298.516 167.341C299.742 162.882 301.881 150.129 303.974 135.775C305.204 127.336 306.345 118.883 307.396 110.419C307.512 109.449 307.631 108.487 307.743 107.542C307.875 106.464 307.999 105.399 308.119 104.359C308.123 104.342 308.123 104.33 308.123 104.313C308.597 100.218 308.998 96.4487 309.299 93.204C309.493 91.1314 309.642 89.2737 309.741 87.6802C309.823 86.3962 309.902 85.1246 309.976 83.8902L309.192 83.7291L304.415 82.7465L299.069 81.6485L292.93 80.3853L291.758 80.146C289.248 81.9295 287.32 85.8598 285.809 91.1234C285.664 91.6145 285.528 92.1224 285.392 92.6468C284.971 94.2567 284.587 95.9741 284.227 97.7825C283.489 101.514 282.873 105.622 282.353 109.928C282.352 109.941 282.349 109.953 282.345 109.965C281.664 115.563 281.135 121.496 280.665 127.375C279.657 140.044 278.951 152.458 277.713 160.715C277.713 160.715 277.139 162.932 276.206 166.499C275.317 169.924 274.427 173.35 273.535 176.774C269.944 190.583 265.052 209.326 263.215 216.162Z" fill="#2A53A3"/>
    <path d="M323.785 229.323C325.052 228.973 327.253 232.752 329.45 232.227C334.265 231.076 338.002 233.891 338.002 238.923H314.646C313.949 239.095 313.645 230.712 314.941 229.921C315.56 229.543 316.763 231.098 319.851 231.509C322.939 231.92 322.025 229.754 323.785 229.323ZM274.002 224.448C274.002 224.448 274.298 227.553 276.022 228.505C277.746 229.457 286.372 231.454 282.613 239.465L261.222 231.285C260.254 228.146 263.92 221.902 265.442 221.993C266.532 222.059 269.464 228.659 271.786 226.317C272.496 225.602 272.705 223.711 274.002 224.448Z" fill="#302B4F"/>
    <path d="M265.598 217.675C269.402 219.678 274.839 221.061 278.747 220.787C278.747 220.787 284.826 206.564 290.576 191.104C284.816 201.702 273.7 219.141 265.598 217.675ZM311.879 188.685L312.568 222.473C316.656 223.494 320.408 223.533 324.871 222.976C314.329 218.545 311.983 190.019 311.879 188.685Z" fill="#1A408A"/>
    <path d="M283.411 66.4866C284.921 78.5387 286.695 89.9531 283.608 101.796C291.147 103.166 296.328 103.616 303.484 103.673C304.695 101.175 305.316 97.7327 305.492 94.2807C307.235 96.9874 307.872 100.753 307.876 103.602C314.123 103.357 318.402 103.841 324.494 102.416C318.834 88.0369 330.804 46.4528 324.227 39.3672C316.835 34.4363 285.975 33.2665 279.939 42.7763C278.223 51.9802 282.494 57.1007 283.411 66.4866Z" fill="#FFB857"/>
    <path d="M298.381 36.3288C299.322 37.9929 300.378 39.1502 301.448 39.8734H301.463C304.732 42.0871 308.017 40.2062 307.727 36.3288L306.787 30.2955L306.541 28.7473L300.19 27.5322L298.381 36.3288Z" fill="#FFD5CC"/>
    <path d="M298.381 36.3288C299.322 37.9929 300.378 39.1502 301.448 39.8734H301.463C301.767 39.9604 301.94 40.0037 301.94 40.0037C301.94 40.0037 299.538 32.7842 300.884 33.0011C302.229 33.2035 305.138 31.7712 305.138 31.7712L306.787 30.2955L306.541 28.7473L300.19 27.5322L298.381 36.3288Z" fill="#F5C0B5"/>
    <path d="M296.835 24.7176C296.835 24.7176 296.947 25.0712 297.188 25.622H297.193L296.412 19.3854C296.412 19.3854 293.642 17.648 293.339 20.1311C292.907 23.6709 296.835 24.7176 296.835 24.7176Z" fill="#393F70"/>
    <path d="M297.188 25.6218C296.947 25.0709 296.835 24.7174 296.835 24.7174C296.835 24.7174 292.907 23.6707 293.339 20.1309C293.641 17.6478 296.411 19.3852 296.411 19.3852C296.411 19.3852 298.952 13.4954 303.114 14.4419C306.24 15.1507 310.941 15.8791 313.342 14.0811C317.388 11.0512 313.665 4.15042 311.392 3.11694C311.392 3.11694 310.77 7.14943 307.069 6.33684C303.72 5.60162 298.668 5.06483 297.695 7.27891C297.695 7.27891 294.138 6.80627 292.337 10.6632C290.014 15.6381 291.392 23.9805 297.188 25.6218Z" fill="#302B4F"/>
    <path d="M296.835 24.7176C296.835 24.7176 296.947 25.0712 297.188 25.622H297.193C298.214 27.9347 301.512 33.705 308.154 31.0312C313.844 28.7385 314.025 19.4897 313.342 14.0818C311.036 16.0004 306.241 15.1513 303.114 14.4426C298.952 13.4961 296.411 19.3859 296.411 19.3859C296.411 19.3859 294.474 18.1375 293.786 20.1692C292.642 23.5463 296.835 24.7176 296.835 24.7176Z" fill="#FFD5CC"/>
    <path d="M303.981 25.5681C303.974 26.0816 304.185 26.5523 304.538 26.9031C304.917 27.2827 305.458 27.5232 306.063 27.532C306.713 27.5417 307.296 27.2811 307.687 26.8646C308.001 26.533 308.193 26.1017 308.2 25.6294C308.215 24.5607 306.849 25.346 306.061 25.3348C305.404 25.3248 303.997 24.4994 303.981 25.5681Z" fill="#B84F4F"/>
    <path d="M304.538 26.9025C304.917 27.2821 305.459 27.5227 306.063 27.5315C306.713 27.5411 307.297 27.2805 307.688 26.864C307.375 26.5405 306.808 26.3212 306.159 26.3116C305.454 26.3016 304.84 26.5421 304.538 26.9025Z" fill="#F59595"/>
    <path d="M308.53 20.3049C308.62 20.8602 309.068 21.2494 309.531 21.1745C309.993 21.0995 310.296 20.5888 310.205 20.0335C310.116 19.4783 309.667 19.0891 309.205 19.164C308.743 19.239 308.44 19.7497 308.53 20.3049Z" fill="#FFE9E3"/>
    <path d="M308.71 20.276C308.78 20.7121 309.132 21.018 309.496 20.9591C309.859 20.9001 310.097 20.4988 310.026 20.0627C309.956 19.6265 309.604 19.3207 309.24 19.3796C308.876 19.4381 308.639 19.8394 308.71 20.276Z" fill="#393F70"/>
    <path d="M308.955 20.2359C309 20.5097 309.22 20.7013 309.448 20.6645C309.676 20.6276 309.825 20.3758 309.781 20.102C309.737 19.8286 309.516 19.6366 309.288 19.6735C309.06 19.7108 308.911 19.9625 308.955 20.2359Z" fill="#181A2E"/>
    <path d="M309.769 19.8178C309.758 19.7723 309.73 19.7328 309.691 19.707C309.652 19.6811 309.605 19.671 309.559 19.6784C309.513 19.6859 309.471 19.7105 309.442 19.7473C309.413 19.7841 309.399 19.8304 309.403 19.8771C309.414 19.9225 309.442 19.9621 309.481 19.9879C309.52 20.0137 309.567 20.0239 309.613 20.0164C309.66 20.0089 309.701 19.9844 309.73 19.9476C309.759 19.9108 309.773 19.8644 309.769 19.8178ZM309.276 19.6759C309.274 19.6651 309.27 19.6548 309.265 19.6455C309.259 19.6362 309.252 19.6282 309.243 19.6218C309.234 19.6154 309.224 19.6109 309.213 19.6084C309.203 19.6059 309.192 19.6055 309.181 19.6073C309.159 19.6108 309.14 19.6229 309.127 19.6408C309.114 19.6586 309.109 19.6809 309.112 19.7027C309.117 19.7229 309.13 19.7405 309.147 19.7519C309.165 19.7634 309.186 19.7679 309.206 19.7645C309.227 19.7611 309.245 19.7501 309.258 19.7337C309.271 19.7173 309.278 19.6967 309.276 19.6759Z" fill="#FFB857"/>
    <path d="M303.601 20.4112C303.639 20.9725 303.289 21.4527 302.822 21.484C302.355 21.5153 301.945 21.0855 301.908 20.5243C301.87 19.963 302.219 19.4828 302.687 19.4515C303.154 19.4206 303.563 19.8504 303.601 20.4112Z" fill="#FFE9E3"/>
    <path d="M303.419 20.4233C303.449 20.8643 303.175 21.2415 302.807 21.2659C302.44 21.2904 302.118 20.9528 302.089 20.5119C302.06 20.0709 302.333 19.6937 302.701 19.6692C303.068 19.6448 303.39 19.9823 303.419 20.4233Z" fill="#393F70"/>
    <path d="M303.172 20.4396C303.19 20.7162 303.018 20.9528 302.788 20.9684C302.557 20.9836 302.355 20.772 302.337 20.4954C302.319 20.2187 302.491 19.9822 302.721 19.9666C302.951 19.9514 303.153 20.163 303.172 20.4396Z" fill="#181A2E"/>
    <path d="M302.284 20.2152C302.281 20.1902 302.283 20.165 302.29 20.1409C302.298 20.1169 302.31 20.0946 302.326 20.0753C302.342 20.056 302.362 20.0402 302.384 20.0288C302.406 20.0174 302.431 20.0107 302.456 20.009C302.481 20.0073 302.506 20.0106 302.53 20.0189C302.554 20.0272 302.575 20.0401 302.594 20.057C302.612 20.074 302.627 20.0944 302.638 20.1173C302.648 20.1401 302.654 20.1648 302.655 20.1899C302.656 20.2378 302.638 20.2844 302.606 20.3198C302.574 20.3553 302.529 20.3769 302.481 20.3801C302.433 20.3834 302.386 20.3681 302.349 20.3373C302.313 20.3066 302.289 20.2628 302.284 20.2152Z" fill="#FFB857"/>
    <path d="M308.428 18.489C308.823 18.0761 309.459 18.0216 309.936 18.3171C310.019 18.368 310.031 18.4926 309.977 18.5672C309.917 18.6502 309.809 18.6586 309.727 18.6077C309.564 18.5093 309.374 18.4676 309.186 18.489C308.979 18.5155 308.803 18.6109 308.656 18.7652C308.589 18.8354 308.46 18.8093 308.403 18.7412C308.336 18.659 308.361 18.5592 308.428 18.489ZM301.806 18.9352C302.208 18.5299 302.845 18.487 303.317 18.7909C303.399 18.8434 303.408 18.9681 303.353 19.0419C303.292 19.124 303.184 19.1304 303.103 19.0779C302.942 18.9766 302.753 18.9315 302.564 18.9496C302.357 18.9725 302.179 19.0643 302.029 19.2162C301.961 19.2848 301.833 19.2567 301.777 19.1874C301.711 19.1036 301.737 19.0042 301.806 18.9352Z" fill="#393F70"/>
    <path d="M305.709 23.3672C305.866 23.3147 306.026 23.3455 306.188 23.3371C306.339 23.3291 306.425 23.2585 306.423 23.1094C306.42 22.9479 306.374 22.7835 306.343 22.6243L306.238 22.0727C306.226 22.0102 306.293 21.9533 306.353 21.9513C306.426 21.9488 306.471 22.0014 306.483 22.0639L306.599 22.6736C306.634 22.854 306.69 23.0441 306.659 23.2273C306.63 23.3956 306.5 23.5203 306.327 23.5556C306.149 23.5917 305.957 23.5339 305.785 23.5913C305.637 23.641 305.561 23.4165 305.709 23.3672Z" fill="#F09986"/>
    <path d="M302.844 20.2164C302.842 20.2056 302.838 20.1953 302.832 20.186C302.827 20.1767 302.819 20.1687 302.81 20.1623C302.801 20.156 302.791 20.1514 302.781 20.1489C302.77 20.1464 302.759 20.1461 302.748 20.1478C302.737 20.1496 302.727 20.1534 302.718 20.1592C302.709 20.1649 302.701 20.1725 302.694 20.1813C302.688 20.1902 302.683 20.2002 302.681 20.2108C302.678 20.2215 302.678 20.2325 302.68 20.2432C302.687 20.2885 302.73 20.3194 302.775 20.3118C302.797 20.3081 302.816 20.296 302.829 20.2781C302.842 20.2603 302.847 20.2381 302.844 20.2164Z" fill="#FFB857"/>
    <path d="M301.074 22.4345C301.096 22.7187 301.563 22.9144 302.116 22.8715C302.67 22.8286 303.101 22.5636 303.078 22.2798C303.056 21.9956 302.59 21.7999 302.037 21.8428C301.483 21.8853 301.052 22.1503 301.074 22.4345ZM309.386 21.9843C309.408 22.2686 309.875 22.4642 310.428 22.4213C310.982 22.3784 311.413 22.1134 311.391 21.8296C311.369 21.5454 310.903 21.3497 310.349 21.3926C309.795 21.4351 309.364 21.7001 309.386 21.9843Z" fill="#F09986"/>
    <path d="M282.345 109.966L288.55 110.077L297.992 110.251L307.396 110.42L325.107 110.742C325.107 110.742 325.107 110.729 325.103 110.701V110.692C325.008 109.4 323.06 82.8507 324.591 72.1788C325.359 66.8242 323.324 71.8444 322.296 64.8346C321.284 57.9486 321.301 38.9952 319.897 37.542C317.928 36.6957 317.263 36.6998 315.455 36.551C316.78 38.8958 317.052 43.1852 317.486 46.4757C317.56 47.0329 317.594 47.5781 317.594 48.1105C317.594 53.787 313.535 58.0352 307.566 58.1795C302.125 58.3118 297.402 54.4557 296.428 49.1011C295.037 41.4182 290.83 36.9018 290.83 36.9018C290.268 37.0341 286.788 38.0579 286.788 38.0579C290.908 42.1778 291.664 47.611 290.962 52.8622V52.8662C289.715 62.0974 283.952 70.7669 283.952 70.7669C285.587 79.7747 285.083 90.0257 284.228 97.7828C283.477 104.582 282.453 109.466 282.354 109.928C282.35 109.953 282.345 109.966 282.345 109.966Z" fill="#2A53A3"/>
    <path d="M307.924 83.8438C308.098 83.8402 308.28 83.8362 308.461 83.8185C314.353 83.4441 318.886 78.3669 318.782 72.2651L318.665 65.5627L318.629 65.1201L297.009 65.4893L296.562 65.5302L296.693 72.9798C296.796 79.0729 301.831 83.9476 307.924 83.8438ZM317.676 67.7932L297.635 68.138L297.607 66.5056L317.648 66.1656L317.676 67.7932ZM297.72 72.9638L297.656 69.1654L317.696 68.8207L317.755 72.3076C317.842 77.3467 314.331 81.7937 309.583 82.6472C309.03 82.7477 308.47 82.8044 307.908 82.8167C302.379 82.9109 297.813 78.4876 297.72 72.9638Z" fill="#5881D1"/>
    <path d="M288.006 106.687C290.465 100.565 297.083 105.284 301.46 106.009C310.232 107.46 315.834 107.953 318.266 106.895V97.507C313.038 95.3242 295.499 86.8479 292.931 80.3869C292.348 79.0949 291.364 75.8489 291.917 74.6683C295.835 66.3167 291.089 53.2142 290.961 52.8674C289.714 62.0986 283.951 70.7681 283.951 70.7681C287.409 90.7758 281.521 107.815 280.665 127.376C279.098 148.336 282.3 119.596 288.006 106.687Z" fill="#1A408A"/>
    <path d="M264.685 217.162C264.805 217.236 264.928 217.306 265.052 217.376C265.06 217.361 265.065 217.344 265.069 217.327C267.6 208.137 270.844 197.833 273.982 187.871C279.175 171.382 284.08 155.806 283.952 150.481C283.481 130.83 285.62 106.348 291.428 99.0251L291.103 98.7693C285.232 106.171 283.069 130.768 283.539 150.489C283.667 155.744 278.771 171.292 273.586 187.747C270.456 197.692 267.215 207.976 264.685 217.162Z" fill="#5881D1"/>
    <path d="M300.933 48.4178L304.301 47.4404L352.58 213.87L349.212 214.847L300.933 48.4178Z" fill="#363C6B"/>
    <path d="M380.06 237.998C380.033 238.01 380.002 238.026 379.968 238.04C378.429 238.764 376.685 238.927 375.039 238.502C373.45 238.093 372.045 237.161 371.052 235.855C367.807 231.586 364.878 227.439 364.878 227.439C364.878 227.439 366.54 235.169 370.38 242.322L370.318 242.348C367.164 243.609 363.618 241.974 362.494 238.769C360.3 232.531 356.795 226.505 353.219 222.301C355.673 228.791 357.184 234.376 358.111 238.924C358.936 242.989 356.334 246.968 352.28 247.833C352.118 247.864 351.957 247.899 351.796 247.934C351.81 242.953 349.842 237.509 349.842 237.509C350.192 239.468 349.598 242.864 348.746 245.677C348.469 246.591 347.936 247.407 347.211 248.03C346.486 248.652 345.598 249.054 344.652 249.189C343.581 249.345 342.509 249.484 341.433 249.606C341.847 239.878 339.518 201.394 334.505 180.342C334.303 179.491 334.09 178.643 333.865 177.798C333.586 176.761 333.283 175.73 332.956 174.706L344.821 171.265C349.019 187.471 369.593 223.587 380.06 237.998Z" fill="#FFBB3C"/>
    <path d="M380.06 237.998C380.033 238.01 380.002 238.027 379.968 238.041C378.429 238.764 376.685 238.928 375.039 238.502C372.74 230.416 351.137 200.253 345.421 185.723C343.714 181.377 338.993 179.045 334.505 180.343L334.502 180.344C334.301 179.493 334.088 178.644 333.865 177.799C333.585 176.762 333.283 175.731 332.956 174.707L344.821 171.266C349.02 187.471 369.593 223.587 380.06 237.998Z" fill="#FFAD14"/>
    <path d="M344.88 220.279C344.859 220.285 344.868 220.319 344.89 220.312C344.912 220.306 344.902 220.273 344.88 220.279ZM334.429 173.179C334.933 175.888 335.547 178.579 336.071 181.285C336.591 183.991 337.084 186.702 337.551 189.418C338.485 194.821 339.364 200.242 340.04 205.683C340.425 208.787 340.756 211.898 341.124 215.004C341.139 215.136 341.343 215.138 341.334 215.001C340.983 209.449 340.329 203.904 339.635 198.385C338.948 192.943 338.107 187.521 337.112 182.126C336.549 179.059 336.008 175.967 335.27 172.936C335.134 172.38 334.328 172.635 334.429 173.179ZM336.77 173.309C336.621 172.982 336.039 173.155 336.083 173.508C336.21 174.525 336.585 175.535 336.849 176.524C337.124 177.553 337.389 178.584 337.644 179.618C338.146 181.656 338.615 183.701 339.052 185.754C339.942 189.926 340.668 194.131 341.229 198.36C341.541 200.717 341.84 203.078 342.083 205.443C342.088 205.494 342.167 205.495 342.165 205.442C341.755 196.98 340.554 188.533 338.632 180.281C338.356 179.095 338.066 177.913 337.764 176.734C337.474 175.604 337.255 174.373 336.77 173.309ZM337.431 172.814C340.369 182.831 342.701 193.022 344.511 203.301C345.032 206.248 345.496 209.205 345.901 212.169C345.925 212.353 346.215 212.353 346.192 212.165C344.956 201.736 343.16 191.389 340.597 181.2C339.87 178.311 339.092 175.434 338.266 172.572C338.111 172.034 337.273 172.276 337.431 172.814ZM340.237 171.165C340.065 170.658 339.29 170.877 339.436 171.397C339.916 173.11 340.486 174.799 340.978 176.51C341.47 178.221 341.951 179.934 342.404 181.655C343.31 185.095 344.027 188.579 344.897 192.025C344.92 192.116 345.075 192.097 345.063 192.001C344.624 188.495 343.832 185.009 343.031 181.569C342.631 179.834 342.2 178.105 341.739 176.385C341.268 174.643 340.819 172.874 340.237 171.165ZM358.418 204.391C353.971 195.928 350.01 187.215 346.734 178.232C345.816 175.726 344.942 173.205 344.111 170.67C343.959 170.203 343.224 170.414 343.377 170.883C346.346 179.954 350.016 188.808 354.306 197.334C355.531 199.77 356.831 202.169 358.175 204.541C358.266 204.701 358.504 204.553 358.418 204.391ZM344.372 178.073C344.006 176.917 343.657 175.756 343.327 174.589C343.162 174.006 342.998 173.422 342.835 172.838C342.675 172.26 342.58 171.64 342.257 171.129C342.107 170.891 341.755 171.009 341.744 171.278C341.723 171.802 341.905 172.283 342.045 172.783C342.191 173.308 342.343 173.832 342.501 174.355C342.818 175.399 343.146 176.441 343.483 177.479C344.156 179.556 344.88 181.617 345.655 183.659C347.193 187.703 348.923 191.672 350.838 195.551C351.94 197.786 353.132 199.949 354.385 202.1C354.404 202.133 354.452 202.103 354.435 202.07C350.43 194.362 346.997 186.358 344.372 178.073ZM350.061 198.319C349.457 196.958 348.883 195.584 348.34 194.198C348.074 193.524 347.818 192.847 347.571 192.165C347.32 191.472 347.139 190.707 346.799 190.052C346.646 189.755 346.243 189.988 346.297 190.274C346.435 190.997 346.792 191.722 347.056 192.409C347.327 193.114 347.604 193.817 347.891 194.517C348.437 195.851 349.025 197.166 349.645 198.469C350.928 201.169 352.353 203.798 353.913 206.347C353.974 206.447 354.125 206.354 354.067 206.252C352.615 203.675 351.264 201.022 350.061 198.319ZM349.629 207.314C349.187 205.956 348.794 204.582 348.452 203.195C348.101 201.781 347.862 200.33 347.482 198.927C347.402 198.634 346.895 198.692 346.938 199.008C347.135 200.431 347.558 201.864 347.954 203.244C348.366 204.675 348.815 206.096 349.301 207.504C350.257 210.279 351.405 212.968 352.69 215.606C352.748 215.724 352.92 215.616 352.864 215.499C351.609 212.85 350.54 210.1 349.629 207.314ZM342.648 207.661C342.904 209.2 343.171 210.735 343.368 212.289C343.557 213.771 343.722 215.256 343.866 216.743C344.158 219.747 344.385 222.755 344.506 225.771C344.509 225.854 344.636 225.852 344.634 225.77C344.552 222.727 344.414 219.682 344.167 216.648C343.92 213.622 343.626 210.578 343.248 207.571C343.193 207.133 342.574 207.219 342.648 207.661ZM353.515 209.695C353.348 209.329 352.806 209.659 352.978 210.025C355.168 214.684 357.715 219.222 360.845 223.317C360.903 223.393 361.027 223.322 360.974 223.238C358.254 218.849 355.663 214.396 353.515 209.695ZM362.237 216.254C361.556 215.065 360.896 213.865 360.256 212.653C359.951 212.073 359.652 211.49 359.358 210.904C359.046 210.282 358.792 209.559 358.372 209.004C358.229 208.817 357.915 208.929 357.98 209.178C358.148 209.819 358.542 210.424 358.846 211.01C359.146 211.592 359.453 212.171 359.764 212.746C360.428 213.978 361.119 215.195 361.836 216.396C363.262 218.774 364.823 221.061 366.445 223.31C366.48 223.359 366.558 223.312 366.524 223.261C365.003 220.985 363.591 218.633 362.237 216.254ZM347.089 215.085C346.973 214.738 346.432 214.89 346.54 215.244C347.319 217.797 348.1 220.33 348.629 222.951C349.165 225.607 349.543 228.306 349.782 231.005C349.79 231.09 349.92 231.09 349.916 231.003C349.788 228.328 349.483 225.665 349.004 223.031C348.519 220.363 347.956 217.658 347.089 215.085ZM341.094 220.277C341.187 221.126 341.439 221.972 341.601 222.812C342.096 225.375 342.486 227.958 342.77 230.553C343.147 234 343.351 237.474 343.346 240.941C343.346 241.08 343.561 241.077 343.562 240.938C343.603 237.438 343.487 233.945 343.162 230.459C343.001 228.733 342.794 227.013 342.541 225.298C342.419 224.477 342.288 223.657 342.146 222.839C341.995 221.968 341.903 221.039 341.637 220.196C341.547 219.911 341.058 219.955 341.094 220.277ZM346.123 226.573C346.105 226.545 346.079 226.523 346.049 226.51C346.018 226.496 345.984 226.492 345.951 226.497C345.918 226.502 345.887 226.516 345.862 226.538C345.837 226.56 345.819 226.589 345.81 226.621C345.695 227.001 345.856 227.416 345.925 227.798C346.007 228.253 346.073 228.711 346.137 229.169C346.263 230.065 346.378 230.963 346.475 231.863C346.668 233.661 346.831 235.466 346.9 237.273C346.903 237.348 347.017 237.347 347.017 237.272C347.002 235.434 346.958 233.601 346.81 231.768C346.737 230.869 346.649 229.97 346.541 229.074C346.487 228.627 346.427 228.18 346.374 227.732C346.328 227.351 346.351 226.893 346.123 226.573ZM350.893 224.236C350.755 223.84 350.127 224.02 350.265 224.418C352.047 229.539 353.682 234.768 354.846 240.067C354.87 240.174 355.029 240.126 355.008 240.02C354.484 237.347 353.956 234.677 353.263 232.041C352.575 229.409 351.784 226.806 350.893 224.236ZM360.015 228.822C358.275 225.747 356.345 222.784 354.237 219.949C353.952 219.565 353.311 219.957 353.601 220.34C355.718 223.13 357.692 226.035 359.487 229.043C361.276 232.04 362.991 235.109 364.416 238.299C364.444 238.361 364.554 238.313 364.527 238.249C363.169 235.034 361.737 231.862 360.015 228.822ZM372.387 233.395C370.546 231.727 368.867 229.828 367.404 227.821C366.694 226.851 366.032 225.846 365.422 224.81C365.118 224.291 364.827 223.764 364.548 223.231C364.25 222.661 364.018 222.008 363.657 221.478C363.472 221.205 363.024 221.385 363.118 221.717C363.285 222.306 363.649 222.876 363.939 223.414C364.225 223.943 364.525 224.463 364.84 224.976C365.51 226.073 366.242 227.131 367.031 228.146C368.584 230.136 370.341 231.897 372.287 233.501C372.359 233.56 372.458 233.459 372.387 233.395ZM347.819 209.311C347.699 209.117 347.411 209.214 347.403 209.431C347.388 209.884 347.56 210.329 347.678 210.762L348.067 212.19C348.333 213.172 348.606 214.152 348.887 215.13C349.442 217.054 349.99 218.984 350.612 220.887C350.646 220.992 350.797 220.946 350.775 220.84C350.361 218.877 349.869 216.931 349.386 214.984C349.147 214.027 348.902 213.071 348.649 212.117L348.272 210.686C348.151 210.225 348.074 209.719 347.819 209.311Z" fill="#FFCA66"/>
    <path d="M344.782 171.607L332.89 175.056C332.755 175.095 332.614 175.107 332.475 175.092C332.336 175.076 332.201 175.034 332.078 174.966C331.956 174.899 331.848 174.808 331.76 174.698C331.673 174.589 331.607 174.463 331.568 174.329L331.271 173.303C331.232 173.168 331.22 173.028 331.235 172.888C331.251 172.749 331.293 172.614 331.361 172.492C331.428 172.369 331.519 172.261 331.629 172.173C331.738 172.086 331.864 172.021 331.998 171.982L343.891 168.532C344.025 168.493 344.166 168.481 344.305 168.497C344.445 168.512 344.579 168.555 344.702 168.622C344.825 168.69 344.933 168.781 345.021 168.89C345.108 169 345.173 169.125 345.212 169.26L345.51 170.286C345.549 170.42 345.561 170.561 345.545 170.7C345.53 170.839 345.487 170.974 345.42 171.097C345.352 171.22 345.261 171.328 345.152 171.415C345.042 171.503 344.917 171.568 344.782 171.607Z" fill="#363C6B"/>
    <path d="M343.886 168.534L332.331 171.885L330.88 166.884C330.465 165.453 331.2 163.933 332.585 163.386C334.68 162.56 336.86 161.937 339.12 161.506C340.585 161.226 342.023 162.114 342.439 163.546L343.886 168.534Z" fill="#FFBB3C"/>
    <path d="M308.597 95.5599C308.597 95.5599 315.647 92.6118 316.051 94.7224C316.454 96.8331 313.007 96.2346 314.243 97.7178C315.017 98.6463 319.38 93.442 321.462 97.1189C322.55 99.0416 323.401 102.455 322.054 104.311C320.825 106.006 317.54 106.258 315.472 105.818C311.139 104.894 306.432 102.124 306.432 102.124L308.597 95.5599Z" fill="#FFD5CC"/>
    <path d="M270.396 78.5967C270.903 84.0119 271.881 88.4797 273.062 90.608C275.838 95.5914 307.875 103.602 307.875 103.602C309.334 102.236 310.316 100.57 310.792 98.5832C311.109 97.2615 311.202 95.7987 311.061 94.1903L288.488 83.6463L285.153 82.0864L285.792 73.1551C285.796 73.1507 285.796 73.1463 285.796 73.1463L286.726 60.1569L284.761 38.8972C282.452 39.6681 276.473 42.779 273.891 48.0754C270.11 55.8346 269.475 68.7755 270.396 78.5967Z" fill="#FFB857"/>
    <path d="M280.592 83.8448C280.592 83.8448 284.809 84.3956 288.488 83.6464L285.153 82.0866L285.792 73.1553C285.721 73.4684 283.333 83.5891 280.592 83.8448Z" fill="#EBA647"/>
    <path d="M270.396 78.5967C271.434 85.6374 271.881 88.4797 273.062 90.608C275.838 95.5913 307.875 103.602 307.875 103.602C309.334 102.236 310.316 100.57 310.792 98.5831C308.347 99.0193 307.151 100.681 302.584 99.9846C293.579 98.6108 272.359 91.896 270.396 78.5967Z" fill="#EBA647"/>
    <path d="M302.899 55.8278C303.314 54.0378 306.06 51.6389 309.401 52.6604C312.743 53.6814 314.851 59.8061 314.851 59.8061L309.974 63.5508C309.974 63.5508 308.642 60.4147 306.787 60.935C303.165 61.9513 302.258 58.5947 302.899 55.8278Z" fill="#FFD5CC"/>
    <path d="M307.329 64.2452C307.329 64.2452 318.648 84.5532 324.231 89.4087C327.064 91.8717 331.422 91.1665 333.968 88.5848H333.973C336.445 86.0821 337.216 81.8083 333.254 76.9304C328.963 71.6519 315.802 57.6138 315.802 57.6138C314.881 58.0102 313.673 58.7639 312.409 59.6847L312.4 59.6936C310.589 61.0245 308.673 62.7122 307.329 64.2452Z" fill="#FFB857"/>
    <path d="M307.329 64.2457C307.329 64.2457 318.648 84.5537 324.231 89.4092C327.064 91.8722 331.422 91.1671 333.968 88.5854C323.424 90.48 314.127 70.4101 311.594 67.1493C309.126 63.9767 312.233 59.9146 312.4 59.6941C310.589 61.025 308.673 62.7127 307.329 64.2457Z" fill="#EBA647"/>
</svg>
