<svg width="90" height="90" viewBox="0 0 90 90" fill="none" xmlns="http://www.w3.org/2000/svg">
    <g clip-path="url(#clip0_8802_4040)">
        <rect y="4.00073" width="68.8894" height="72.3338" fill="#EAEEF3"/>
        <g clip-path="url(#clip1_8802_4040)">
            <path d="M18.9735 4.36147L5.2164 7.7103C4.07834 7.98733 3.38032 9.13441 3.65733 10.2724L11.529 42.6092C11.806 43.7472 12.9531 44.4451 14.0912 44.1681L27.8482 40.8193C28.9863 40.5422 29.6843 39.3952 29.4073 38.2572L21.5357 5.92032C21.2587 4.78236 20.1115 4.08444 18.9735 4.36147Z" fill="#292A2E"/>
            <path d="M19.1235 5.00654L5.37933 8.35221C4.59786 8.54244 4.11855 9.33011 4.30877 10.1115L12.1698 42.4047C12.36 43.1861 13.1477 43.6654 13.9292 43.4751L27.6733 40.1295C28.4548 39.9392 28.9341 39.1516 28.7439 38.3702L20.8828 6.07694C20.6926 5.29554 19.9049 4.81631 19.1235 5.00654Z" fill="white"/>
            <path d="M8.79199 7.23975L15.5808 5.58718L15.7518 6.28959C15.8008 6.49101 15.7678 6.70366 15.6601 6.88077C15.5523 7.05789 15.3786 7.18496 15.1772 7.23405L9.90753 8.51682C9.70606 8.56586 9.49336 8.53287 9.31622 8.4251C9.13908 8.31733 9.01202 8.14361 8.96298 7.94215L8.79199 7.23975Z" fill="#292A2E"/>
            <path d="M13.175 21.5121C13.175 21.5121 13.2787 23.4554 12.9291 24.2071C11.9226 26.3711 11.8334 28.68 13.2265 29.7129C14.6195 30.7459 22.598 29.8021 22.8746 27.0072C23.1074 24.6542 21.9861 24.5392 21.4929 22.6806C21.2698 21.8397 20.7232 20.0858 20.7232 20.0858" fill="#0A0A0A"/>
            <path d="M21.0282 26.4167C21.0143 26.4183 21.4686 28.9353 18.5337 29.4209C16.5019 29.7572 15.2752 27.8134 15.2294 27.8246C15.4334 27.7265 15.7795 27.5718 15.8627 27.4976C16.1358 27.2522 16.4818 26.982 16.4345 26.3472C16.4073 25.9813 15.8706 24.2063 15.8142 23.8432L19.0436 23.7812C19.1838 24.543 19.3082 26.3579 20.4332 26.4108C20.6205 26.4191 20.8199 26.4203 21.0282 26.4167Z" fill="#E98862"/>
            <path opacity="0.52" d="M19.5947 25.8606C19.5091 25.7177 19.4394 25.5658 19.3868 25.4077C19.2635 25.0478 19.18 24.6754 19.1377 24.2972C18.4948 24.3647 17.8459 24.2505 17.2646 23.9677C17.2592 24.1914 17.1695 25.1854 17.3051 25.3638C17.5602 25.7014 18.4803 26.1319 19.5947 25.8606Z" fill="#0C0C0C"/>
            <path d="M18.9055 25.3935C17.6859 25.6615 16.0299 25.3602 15.5014 23.7569L15.0245 22.3102C14.496 20.7069 14.9098 19.1296 16.4195 18.6319C17.9292 18.1343 19.4861 19.062 20.0147 20.6654L20.2257 21.3058C20.4285 21.921 21.0814 24.9155 18.9055 25.3935Z" fill="#E98862"/>
            <path d="M19.3688 21.6293C19.4739 21.6037 19.5383 21.4978 19.5128 21.3928C19.4872 21.2877 19.3813 21.2233 19.2762 21.2489C19.1711 21.2744 19.1067 21.3803 19.1322 21.4854C19.1578 21.5905 19.2637 21.6549 19.3688 21.6293Z" fill="#0C0C0C"/>
            <path d="M17.6369 22.0513C17.7419 22.0257 17.8064 21.9198 17.7808 21.8148C17.7552 21.7097 17.6493 21.6453 17.5443 21.6709C17.4392 21.6964 17.3747 21.8023 17.4003 21.9074C17.4259 22.0125 17.5318 22.0769 17.6369 22.0513Z" fill="#0C0C0C"/>
            <path opacity="0.52" d="M19.094 23.0487L19.097 23.048C19.1581 23.0273 19.2179 23.0034 19.2763 22.9762C19.3635 22.9349 19.4763 22.8706 19.4499 22.7905C19.4199 22.6991 18.8447 21.7959 18.7791 21.6932C18.7733 21.6845 18.7643 21.6784 18.754 21.6763C18.7437 21.6741 18.733 21.6761 18.7242 21.6817C18.7153 21.6873 18.709 21.6962 18.7067 21.7065C18.7043 21.7167 18.706 21.7274 18.7115 21.7364C18.9567 22.1209 19.3535 22.7541 19.3737 22.8154C19.3673 22.846 19.2235 22.9216 19.0717 22.9716C19.0619 22.9749 19.0538 22.9819 19.0491 22.991C19.0443 23.0002 19.0432 23.0108 19.0461 23.0207C19.0489 23.0306 19.0555 23.039 19.0643 23.0442C19.0732 23.0494 19.0838 23.051 19.0938 23.0487L19.094 23.0487Z" fill="#0C0C0C"/>
            <path opacity="0.52" d="M18.9172 23.7863C19.1741 23.7875 19.4277 23.7282 19.6575 23.6134C19.6625 23.6113 19.667 23.6082 19.6707 23.6043C19.6745 23.6004 19.6774 23.5958 19.6794 23.5907C19.6813 23.5857 19.6822 23.5803 19.682 23.5749C19.6817 23.5694 19.6804 23.5641 19.6781 23.5592C19.6758 23.5543 19.6725 23.55 19.6684 23.5464C19.6644 23.5428 19.6596 23.5401 19.6545 23.5384C19.6493 23.5367 19.6439 23.536 19.6385 23.5365C19.6331 23.5369 19.6279 23.5384 19.6231 23.541C19.1272 23.7766 18.6682 23.7638 18.295 23.504C18.2874 23.4985 18.2796 23.4934 18.2715 23.4888C18.2622 23.4844 18.2515 23.4838 18.2417 23.4871C18.2319 23.4904 18.2237 23.4974 18.2189 23.5066C18.2142 23.5158 18.2131 23.5264 18.216 23.5364C18.2189 23.5463 18.2255 23.5547 18.2345 23.5599C18.2375 23.5616 18.2427 23.5652 18.2491 23.5699C18.4453 23.7069 18.6779 23.7823 18.9172 23.7863Z" fill="#0C0C0C"/>
            <path d="M13.8543 22.9909L15.2087 22.553C16.2038 21.9888 16.2814 20.1273 16.2814 20.1273C16.2814 20.1273 17.7227 21.203 20.7236 20.0864C20.7236 20.0864 19.5331 15.8532 15.1272 17.712C13.7066 18.3114 12.8449 19.9365 13.239 21.9043C13.515 23.283 13.8543 22.9909 13.8543 22.9909Z" fill="#0A0A0A"/>
            <path d="M15.7561 24.2141C15.2973 24.3653 14.7636 23.9971 14.6123 23.5383C14.4611 23.0796 14.7497 22.704 15.2085 22.5527L15.5466 22.7822L16.1509 24.0839L15.7561 24.2141Z" fill="#E98862"/>
            <path d="M18.959 20.8694C19.0845 20.7626 19.2365 20.6915 19.399 20.6637C19.4789 20.6495 19.5604 20.6474 19.641 20.6574C19.7205 20.6669 19.7986 20.6863 19.8733 20.7152C19.8839 20.7187 19.8926 20.7262 19.8976 20.7361C19.9026 20.7461 19.9035 20.7576 19.9 20.7681C19.8965 20.7787 19.889 20.7874 19.8791 20.7924C19.8692 20.7974 19.8577 20.7983 19.8471 20.7948L19.844 20.7939C19.7753 20.7706 19.704 20.7562 19.6318 20.7508C19.5604 20.7452 19.4885 20.7503 19.4186 20.766C19.2797 20.7965 19.1514 20.8631 19.0465 20.9592L19.0431 20.9625C19.031 20.9739 19.0148 20.9801 18.9981 20.9797C18.9815 20.9792 18.9656 20.9722 18.9541 20.96C18.9427 20.9479 18.9365 20.9317 18.9369 20.9151C18.9374 20.8984 18.9444 20.8825 18.9566 20.8711L18.959 20.8694Z" fill="#0C0C0C"/>
            <path d="M17.7595 21.3239C17.6182 21.3085 17.4753 21.3307 17.3454 21.3883C17.2797 21.4169 17.2186 21.4553 17.1643 21.5021C17.1092 21.5491 17.0603 21.6029 17.0186 21.6622L17.0167 21.6648C17.0136 21.6692 17.0095 21.6731 17.0048 21.676C17.0002 21.6789 16.995 21.6809 16.9896 21.6818C16.9841 21.6827 16.9786 21.6825 16.9732 21.6813C16.9678 21.6801 16.9628 21.6778 16.9583 21.6746C16.9538 21.6714 16.95 21.6673 16.9471 21.6627C16.9441 21.658 16.9422 21.6528 16.9413 21.6474C16.9403 21.642 16.9405 21.6364 16.9417 21.631C16.943 21.6257 16.9453 21.6206 16.9485 21.6161C16.9916 21.5484 17.0431 21.4864 17.1017 21.4315C17.1607 21.3758 17.2278 21.3293 17.3006 21.2936C17.4481 21.22 17.6127 21.1874 17.777 21.1993C17.7933 21.2011 17.8083 21.2092 17.8187 21.2218C17.8292 21.2344 17.8343 21.2506 17.833 21.267C17.8317 21.2833 17.8241 21.2985 17.8117 21.3093C17.7994 21.3201 17.7833 21.3257 17.767 21.3248L17.7643 21.3245L17.7595 21.3239Z" fill="#0C0C0C"/>
            <path d="M15.2093 22.5348L15.1904 22.4982C16.8657 21.6346 16.2077 19.9657 16.2008 19.9489L16.2389 19.9333C16.2459 19.9504 16.9185 21.6537 15.2093 22.5348Z" fill="#0C0C0C"/>
            <path opacity="0.1" d="M17.8615 23.3346C18.0616 23.2859 18.1949 23.1274 18.1592 22.9806C18.1234 22.8338 17.9322 22.7543 17.732 22.803C17.5319 22.8517 17.3986 23.0102 17.4343 23.1571C17.4701 23.3039 17.6613 23.3834 17.8615 23.3346Z" fill="#0C0C0C"/>
            <path opacity="0.1" d="M19.9358 22.4808C19.9715 22.6275 20.1631 22.7068 20.3633 22.6584C20.3978 22.65 20.4315 22.638 20.4636 22.6226C20.4516 22.4441 20.4317 22.2735 20.4075 22.1162C20.3494 22.1089 20.2904 22.1125 20.2337 22.1268C20.0335 22.1752 19.9002 22.3337 19.9358 22.4808Z" fill="#0C0C0C"/>
            <path d="M25.2091 40.7512L25.8964 40.2653C25.5679 40.3842 25.2164 40.4253 24.8694 40.3855C24.5224 40.3457 24.1893 40.226 23.8964 40.0358C23.6034 39.8457 23.3585 39.5902 23.1808 39.2895C23.0032 38.9888 22.8976 38.651 22.8725 38.3027L22.1963 28.9383C22.173 28.6412 22.2088 28.3425 22.3014 28.0593C22.3941 27.7761 22.5418 27.514 22.7361 27.288C22.9305 27.0621 23.1675 26.8769 23.4337 26.7429C23.6999 26.6089 23.99 26.5289 24.2872 26.5074C24.5844 26.486 24.883 26.5235 25.1657 26.6178C25.4483 26.7121 25.7096 26.8614 25.9343 27.057C26.1591 27.2527 26.3429 27.4908 26.4753 27.7578C26.6077 28.0248 26.686 28.3153 26.7057 28.6126L28.2759 35.5197L28.5014 37.1884L28.7719 38.1355L28.7719 38.6767L28.7719 39.1277L28.5465 39.5787L28.1857 39.9395L27.6896 40.1649L25.2091 40.7512Z" fill="#0059FF"/>
            <path d="M25.9378 31.0069C26.1066 32.0955 27.2847 38.8567 27.5172 40.1916L15.4872 43.12C15.1308 41.9517 13.5645 36.8453 12.7429 34.5911C11.9587 32.4401 11.2066 31.4507 11.4013 30.7109C11.7193 29.502 13.1488 28.5002 14.1903 28.0922C14.8265 27.8432 15.8005 27.5382 15.8005 27.5382C15.8005 27.5382 16.2967 29.2122 18.317 28.8203C21.067 28.2867 20.4189 26.414 20.4323 26.4107C20.8728 26.3035 23.4568 25.9698 24.1613 26.1848C26.0803 26.7698 25.5804 28.7002 25.9378 31.0069Z" fill="#0059FF"/>
            <path d="M27.3088 36.2192C27.2908 36.1614 27.2552 36.1107 27.207 36.074C27.1589 36.0373 27.1005 36.0164 27.04 36.0143C27.0414 36.0091 27.0412 36.0036 27.0393 35.9986C27.0371 35.9946 27.0339 35.9912 27.0301 35.9888C27.0262 35.9864 27.0218 35.9851 27.0172 35.985L27.2409 35.875C27.3075 35.844 27.3606 35.79 27.3905 35.7228C27.4203 35.6557 27.4249 35.5801 27.4033 35.5099C27.3797 35.4412 27.3315 35.3838 27.268 35.3487C27.2045 35.3136 27.1302 35.3033 27.0595 35.3198C27.0605 35.317 27.059 35.3141 27.0592 35.3114L27.1508 35.2662C27.2135 35.2368 27.2641 35.1866 27.294 35.1241C27.3239 35.0617 27.3313 34.9908 27.3149 34.9235C27.3038 34.8815 27.2835 34.8426 27.2555 34.8094C27.2275 34.7762 27.1925 34.7497 27.153 34.7317C27.1135 34.7137 27.0705 34.7047 27.0271 34.7053C26.9837 34.706 26.941 34.7162 26.902 34.7354L26.69 34.8397C26.6896 34.8385 26.6903 34.8373 26.6898 34.8361C26.6892 34.835 26.6872 34.8343 26.6863 34.8328C26.738 34.7911 26.7739 34.7331 26.7882 34.6683C26.8026 34.6035 26.7944 34.5357 26.7652 34.4761C26.6997 34.3174 26.4883 34.3126 26.3512 34.3802L25.1078 34.9651L25.363 34.6627C25.4139 34.6048 25.4409 34.5297 25.4386 34.4526C25.4362 34.3756 25.4047 34.3023 25.3504 34.2476C25.3214 34.2203 25.2872 34.1992 25.2497 34.1856C25.2123 34.172 25.1725 34.1662 25.1328 34.1685C25.093 34.1708 25.0542 34.1812 25.0186 34.199C24.983 34.2168 24.9514 34.2417 24.9257 34.2721L23.5322 35.9235C23.3688 36.1172 23.2874 36.367 23.3052 36.6198C23.323 36.8726 23.4387 37.1085 23.6276 37.2773C23.8468 37.4732 24.1196 37.5991 24.4108 37.639C24.7021 37.6788 24.9987 37.6308 25.2625 37.501L27.1475 36.5737C27.2104 36.5414 27.2605 36.4888 27.2898 36.4245C27.3191 36.3602 27.3258 36.2878 27.3088 36.2192Z" fill="#E98862"/>
            <g opacity="0.25">
                <path d="M25.4597 35.4175C25.4629 35.4238 25.4684 35.4287 25.4751 35.431C25.4817 35.4333 25.4891 35.4329 25.4955 35.4299L26.677 34.8721C26.6802 34.8705 26.683 34.8684 26.6854 34.8658C26.6878 34.8632 26.6897 34.8601 26.6908 34.8567C26.692 34.8534 26.6926 34.8499 26.6924 34.8463C26.6922 34.8428 26.6914 34.8393 26.6898 34.8361C26.6883 34.8329 26.6862 34.83 26.6836 34.8276C26.6809 34.8252 26.6779 34.8234 26.6745 34.8222C26.6712 34.821 26.6676 34.8205 26.6641 34.8206C26.6605 34.8208 26.6571 34.8217 26.6539 34.8232L25.4723 35.3809C25.4659 35.384 25.4609 35.3895 25.4584 35.3963C25.456 35.4031 25.4564 35.4105 25.4595 35.417L25.4597 35.4175Z" fill="#0C0C0C"/>
            </g>
            <g opacity="0.25">
                <path d="M25.6915 35.9453C25.6947 35.9516 25.7002 35.9564 25.7068 35.9587C25.7135 35.961 25.7208 35.9606 25.7272 35.9576L27.0461 35.3351C27.0526 35.332 27.0576 35.3265 27.06 35.3197C27.0624 35.313 27.0621 35.3055 27.059 35.299C27.0558 35.2927 27.0502 35.2879 27.0435 35.2855C27.0368 35.2831 27.0295 35.2833 27.023 35.2862L25.7041 35.9087C25.6976 35.9118 25.6926 35.9173 25.6902 35.9241C25.6878 35.9308 25.6882 35.9383 25.6913 35.9448L25.6915 35.9453Z" fill="#0C0C0C"/>
            </g>
            <g opacity="0.25">
                <path d="M25.9393 36.5186C25.9424 36.525 25.9479 36.5298 25.9546 36.5321C25.9613 36.5344 25.9686 36.534 25.975 36.531L27.0271 36.0344C27.0335 36.0313 27.0385 36.0258 27.0409 36.0191C27.0434 36.0123 27.043 36.0049 27.0399 35.9984C27.0369 35.9919 27.0314 35.9869 27.0246 35.9845C27.0179 35.9821 27.0104 35.9825 27.004 35.9855L25.9519 36.4821C25.9487 36.4836 25.9458 36.4858 25.9434 36.4884C25.941 36.491 25.9392 36.4941 25.938 36.4975C25.9368 36.5008 25.9362 36.5043 25.9364 36.5079C25.9366 36.5114 25.9375 36.5149 25.939 36.5181L25.9393 36.5186Z" fill="#0C0C0C"/>
            </g>
            <path d="M25.3316 38.3201L14.9955 42.906C14.667 43.0248 14.3155 43.0659 13.9685 43.0261C13.6215 42.9863 13.2885 42.8666 12.9955 42.6765C12.7025 42.4863 12.4576 42.2309 12.28 41.9302C12.1023 41.6295 11.9968 41.2917 11.9716 40.9433L11.2954 31.5789C11.2722 31.2818 11.3079 30.9831 11.4005 30.6999C11.4932 30.4167 11.6409 30.1546 11.8353 29.9287C12.0296 29.7027 12.2667 29.5175 12.5329 29.3835C12.7991 29.2495 13.0891 29.1695 13.3863 29.1481C13.6836 29.1266 13.9821 29.1641 14.2648 29.2584C14.5474 29.3527 14.8087 29.502 15.0334 29.6977C15.2582 29.8933 15.4421 30.1315 15.5744 30.3984C15.7068 30.6654 15.7851 30.9559 15.8048 31.2532L16.2801 37.6968L23.9644 34.7719L25.3316 38.3201Z" fill="#0059FF"/>
            <path d="M15.0046 42.9459C14.9949 42.9475 14.9849 42.9456 14.9764 42.9405C14.968 42.9355 14.9616 42.9276 14.9584 42.9182C14.9552 42.9089 14.9555 42.8988 14.9591 42.8896C14.9628 42.8804 14.9695 42.8729 14.9782 42.8682L25.2787 38.2986L23.9401 34.8253L16.2942 37.7356C16.2882 37.7379 16.2817 37.7388 16.2754 37.7382C16.269 37.7375 16.2628 37.7354 16.2574 37.7319C16.252 37.7284 16.2475 37.7238 16.2442 37.7183C16.2409 37.7128 16.2389 37.7066 16.2384 37.7002L15.9311 33.5825C15.9317 33.5725 15.936 33.5631 15.943 33.556C15.9501 33.5489 15.9595 33.5445 15.9695 33.5438C15.9795 33.543 15.9894 33.5459 15.9974 33.5519C16.0054 33.5579 16.011 33.5666 16.0132 33.5764L16.3164 37.639L23.9491 34.7337C23.9593 34.7299 23.9706 34.7302 23.9805 34.7347C23.9905 34.7391 23.9983 34.7472 24.0023 34.7574L25.3696 38.3055C25.3733 38.3153 25.3731 38.3262 25.3691 38.3359C25.3652 38.3456 25.3576 38.3535 25.3481 38.3579L15.012 42.9438C15.0096 42.9447 15.0071 42.9454 15.0046 42.9459Z" fill="#0C0C0C"/>
            <path d="M16.2641 37.6587L15.5957 37.9393L15.6276 38.0153L16.296 37.7347L16.2641 37.6587Z" fill="#0C0C0C"/>
        </g>
        <path d="M36.1544 68.0063C36.4492 71.4684 37.8826 93.0682 38.166 97.3328H77.2163C77.4371 93.4866 78.4275 76.6683 79.264 69.1471C80.0625 61.9699 81.6292 58.3764 80.4808 56.2547C78.6044 52.7869 73.4766 50.7829 69.9802 50.3095C67.8451 50.0205 64.6341 49.8132 64.6341 49.8132C64.6341 49.8132 64.3619 55.3126 57.8779 55.6193C49.0525 56.0348 49.6417 49.813 49.5981 49.813C48.1682 49.813 39.8427 50.4853 38.0024 51.9024C34.7838 54.3803 35.5288 60.6683 36.1544 68.0063Z" fill="#367CFF"/>
        <path d="M35.6145 63.667C35.5813 63.6671 35.5494 63.6545 35.5252 63.6317C35.5011 63.609 35.4866 63.5778 35.4846 63.5447L35.1697 58.0469C35.1677 58.0126 35.1794 57.9788 35.2023 57.9531C35.2252 57.9274 35.2573 57.9118 35.2917 57.9098C35.326 57.9082 35.3595 57.92 35.3852 57.9429C35.4108 57.9657 35.4265 57.9976 35.4288 58.0319L35.7438 63.5297C35.7458 63.564 35.734 63.5978 35.7112 63.6235C35.6883 63.6492 35.6561 63.6648 35.6218 63.6668L35.6145 63.667Z" fill="#0C0C0C"/>
        <path d="M85.6585 97.1056C86.807 97.1055 87.9385 96.8278 88.9567 96.2963C89.9748 95.7648 90.8495 94.9952 91.5063 94.0529C92.163 93.1107 92.5824 92.0237 92.7287 90.8845C92.875 89.7453 92.744 88.5877 92.3467 87.51C91.9434 86.416 82.4854 61.3712 80.685 56.7306L67.353 62.132C68.3658 64.7414 72.0333 74.6312 74.9802 82.5981L70.0846 82.066L68.5437 96.2414L84.887 97.0638C85.1432 97.0917 85.4007 97.1056 85.6585 97.1056Z" fill="#367CFF"/>
        <path d="M44.9463 49.3382C44.9899 49.3325 46.1878 53.8401 55.5357 53.1387C62.0071 52.6539 63.586 48.2489 63.7335 48.2489C63.0357 48.1006 61.9027 47.9466 61.5926 47.7814C60.5736 47.234 59.8314 46.5674 59.4578 45.1371C59.1656 44.0183 59.0163 39.712 59.0163 37.5514L49.0582 39.7891C49.1971 42.2262 50.1686 47.8765 46.7636 48.8765C46.1972 49.0417 45.5872 49.1939 44.9463 49.3382Z" fill="#E98862"/>
        <path d="M49.4032 44.5804C53.3291 44.89 58.3719 43.2327 59.3299 37.9951L60.1941 33.2688C61.1521 28.0312 59.1777 23.2821 54.2461 22.3802C49.3146 21.4783 44.8519 25.0501 43.8942 30.2876L43.5115 32.3799C43.144 34.3899 42.399 44.0278 49.4032 44.5804Z" fill="#E98862"/>
        <path d="M45.7634 39.7718C46.4679 36.231 46.7912 33.8689 46.7535 31.3767C45.761 29.6368 46.022 27.6372 46.2477 26.774C45.5643 27.2083 44.7606 27.4144 43.9526 27.3627C43.9526 27.3627 45.5938 20.775 51.1731 19.0024C52.1989 18.603 54.8183 18.0987 58.2963 18.5758C61.2544 18.9814 68.5463 21.1934 69.5882 29.4026V29.4072C69.6224 29.6794 70.3228 37.2432 71.7176 40.8723C73.5941 45.751 76.2283 47.2668 76.1616 52.8957C76.0756 60.136 62.7649 61.0997 54.7376 60.558C46.7102 60.0163 42.2275 57.3766 42.1688 52.1587C42.1049 46.3125 44.3533 46.8555 45.7634 39.7718Z" fill="#0A0A0A"/>
        <path d="M18.0647 33.4801L18.8223 39.93L19.0763 39.0773C19.1637 38.8037 19.3518 38.5735 19.6024 38.4332C19.853 38.2929 20.1476 38.2529 20.4266 38.3214C20.5693 38.3617 20.7024 38.4308 20.8176 38.5243C20.9328 38.6178 21.0278 38.7337 21.0967 38.8652C21.1656 38.9966 21.207 39.1406 21.2184 39.2886C21.2298 39.4365 21.2109 39.5852 21.1629 39.7256L18.7686 46.806C18.4664 47.6999 17.8269 48.4402 16.9865 48.8692C16.146 49.2981 15.1713 49.3817 14.2701 49.102C13.2239 48.7774 12.2984 48.1477 11.6123 47.2937C10.9262 46.4397 10.5108 45.4003 10.4194 44.3086L10.0141 39.3628C9.98806 39.1062 10.0515 38.8486 10.1936 38.6334C10.3358 38.4183 10.5479 38.2588 10.7941 38.1821C11.0177 38.1173 11.2563 38.1257 11.4749 38.2062C11.6934 38.2868 11.8804 38.4351 12.0086 38.6296C12.0181 38.6211 12.0293 38.6146 12.0415 38.6105C12.0536 38.6064 12.0665 38.6048 12.0792 38.6059C12.092 38.6069 12.1044 38.6106 12.1158 38.6165C12.1271 38.6225 12.1371 38.6308 12.1451 38.6408L12.0686 37.7268C12.0399 37.4547 12.1106 37.1815 12.2677 36.9575C12.4248 36.7335 12.6575 36.5738 12.9231 36.508C13.1879 36.4512 13.4644 36.4949 13.6987 36.6306C13.9331 36.7664 14.1086 36.9844 14.191 37.2424C14.1986 37.2336 14.2078 37.2263 14.2181 37.2208L14.1864 36.8458C14.171 36.5932 14.2374 36.3423 14.3757 36.1303C14.5139 35.9183 14.7168 35.7564 14.9541 35.6686C15.2278 35.586 15.5229 35.6139 15.7763 35.7463C16.0296 35.8787 16.221 36.105 16.3095 36.3768L16.3302 36.3728L16.0118 33.6628C15.9955 33.5238 16.0076 33.383 16.0475 33.2488C16.0874 33.1147 16.1542 32.9901 16.2438 32.8826C16.3335 32.7752 16.4441 32.6871 16.5689 32.6238C16.6937 32.5605 16.8301 32.5233 16.9698 32.5145C17.2407 32.5068 17.5044 32.6022 17.7076 32.7815C17.9108 32.9607 18.0385 33.2104 18.0647 33.4801Z" fill="#E98862"/>
        <path opacity="0.2" d="M16.2098 36.4495C16.2072 36.4612 16.2067 36.4732 16.2084 36.485L16.548 39.1137C16.5545 39.138 16.5696 39.1591 16.5904 39.1731C16.6113 39.1871 16.6365 39.193 16.6614 39.1899C16.6863 39.1867 16.7092 39.1746 16.7259 39.1558C16.7426 39.1371 16.7519 39.1129 16.7522 39.0878L16.4122 36.4591C16.4091 36.4352 16.3976 36.4132 16.3799 36.3969C16.3621 36.3807 16.3392 36.3711 16.3152 36.37C16.2911 36.3689 16.2674 36.3763 16.2483 36.391C16.2292 36.4056 16.2158 36.4264 16.2105 36.4499L16.2098 36.4495Z" fill="#0C0C0C"/>
        <path opacity="0.2" d="M14.1671 37.2824C14.1646 37.2938 14.164 37.3056 14.1655 37.3172L14.4167 39.3847C14.4237 39.4083 14.4387 39.4288 14.4593 39.4423C14.4799 39.4558 14.5046 39.4616 14.529 39.4586C14.5535 39.4557 14.5761 39.4441 14.5928 39.426C14.6095 39.4079 14.6192 39.3844 14.6202 39.3598L14.3687 37.2922C14.3646 37.269 14.3528 37.2478 14.3351 37.2323C14.3174 37.2167 14.2949 37.2076 14.2714 37.2065C14.2478 37.2054 14.2246 37.2123 14.2055 37.2261C14.1864 37.2399 14.1726 37.2598 14.1663 37.2826L14.1671 37.2824Z" fill="#0C0C0C"/>
        <path opacity="0.2" d="M11.9708 38.6855C11.9679 38.6977 11.9674 38.7103 11.9695 38.7227L12.1106 39.6966C12.1105 39.7116 12.1136 39.7265 12.1197 39.7402C12.1258 39.7539 12.1348 39.7661 12.1461 39.776C12.1574 39.7858 12.1707 39.7932 12.1851 39.7974C12.1995 39.8017 12.2146 39.8027 12.2294 39.8006C12.2443 39.7984 12.2585 39.7931 12.2711 39.7849C12.2837 39.7768 12.2943 39.766 12.3023 39.7533C12.3103 39.7406 12.3155 39.7263 12.3175 39.7115C12.3195 39.6966 12.3182 39.6815 12.3138 39.6671L12.1724 38.693C12.1677 38.6703 12.1555 38.6498 12.1378 38.6348C12.12 38.6197 12.0978 38.6111 12.0745 38.6102C12.0513 38.6094 12.0285 38.6163 12.0097 38.63C11.9908 38.6436 11.9771 38.6632 11.9708 38.6855Z" fill="#0C0C0C"/>
        <path d="M13.6014 84.5887C12.2804 84.5887 10.9819 84.2471 9.83185 83.5971C8.94322 83.0948 5.95696 77.2306 4.33106 74.0686C3.70433 72.8498 3.49548 71.4394 3.77973 70.0987L8.74929 46.6589L21.1065 45.2609L16.0934 66.2129L37.5514 52.5794L46.6419 64.7683L17.7478 83.3695C16.5113 84.1653 15.0719 84.5885 13.6014 84.5887Z" fill="#367CFF"/>
        <path d="M36.3718 71.1172C36.3427 71.1171 36.3145 71.1073 36.2917 71.0893C36.2688 71.0713 36.2527 71.0462 36.2458 71.0179C36.239 70.9897 36.2418 70.96 36.2539 70.9335C36.2659 70.9071 36.2865 70.8854 36.3123 70.872L40.0201 68.9589C40.0507 68.9431 40.0864 68.9401 40.1192 68.9506C40.152 68.9611 40.1793 68.9842 40.1951 69.0148C40.2109 69.0454 40.2139 69.081 40.2035 69.1138C40.193 69.1467 40.1699 69.174 40.1393 69.1898L36.4315 71.1029C36.413 71.1124 36.3926 71.1173 36.3718 71.1172Z" fill="#0C0C0C"/>
    </g>
    <g filter="url(#filter0_d_8802_4040)">
        <g clip-path="url(#clip2_8802_4040)">
            <rect x="46.8447" y="49.2927" width="33.4113" height="33.4113" rx="3.93075" transform="rotate(-15 46.8447 49.2927)" fill="#F4F7F9"/>
            <path d="M58.9144 56.7028C58.9144 56.7028 59.1395 60.9247 58.3801 62.5578C56.1935 67.259 55.9998 72.2751 59.0261 74.5192C62.0525 76.7633 79.3857 74.7128 79.9868 68.6411C80.4926 63.5292 78.0565 63.2793 76.9849 59.2415C76.5002 57.4146 75.3127 53.6042 75.3127 53.6042" fill="#0A0A0A"/>
            <path d="M75.9755 67.3573C75.9454 67.3607 76.9323 72.8289 70.5562 73.884C66.1422 74.6145 63.4771 70.3918 63.3776 70.416C63.8208 70.2029 64.5728 69.8668 64.7534 69.7055C65.3467 69.1726 66.0984 68.5854 65.9957 67.2062C65.9366 66.4114 64.7706 62.5553 64.6481 61.7664L71.6639 61.6317C71.9684 63.2867 72.2388 67.2297 74.6828 67.3446C75.0899 67.3626 75.5229 67.3651 75.9755 67.3573Z" fill="#E98862"/>
            <path opacity="0.52" d="M72.8609 66.1493C72.6749 65.8389 72.5235 65.509 72.4094 65.1655C72.1416 64.3835 71.9601 63.5744 71.8682 62.7529C70.4715 62.8995 69.0616 62.6514 67.7989 62.037C67.7871 62.5229 67.5921 64.6826 67.8868 65.0702C68.4411 65.8035 70.4399 66.7387 72.8609 66.1493Z" fill="#0C0C0C"/>
            <path d="M71.3651 65.1342C68.7156 65.7163 65.118 65.0617 63.9698 61.5785L62.9338 58.4356C61.7856 54.9524 62.6845 51.5257 65.9644 50.4444C69.2443 49.3634 72.6266 51.3789 73.7748 54.8622L74.2334 56.2536C74.674 57.5901 76.0924 64.0957 71.3651 65.1342Z" fill="#E98862"/>
            <path d="M72.3699 56.9575C72.5982 56.902 72.7382 56.6719 72.6826 56.4436C72.6271 56.2154 72.397 56.0754 72.1687 56.131C71.9404 56.1865 71.8004 56.4166 71.856 56.6449C71.9115 56.8731 72.1416 57.0131 72.3699 56.9575Z" fill="#0C0C0C"/>
            <path d="M68.6062 57.8739C68.8345 57.8183 68.9745 57.5883 68.919 57.36C68.8634 57.1318 68.6333 56.9918 68.405 57.0473C68.1767 57.1029 68.0367 57.333 68.0923 57.5612C68.1479 57.7895 68.378 57.9295 68.6062 57.8739Z" fill="#0C0C0C"/>
            <path opacity="0.52" d="M71.7715 60.0408L71.7782 60.0392C71.9107 59.9943 72.0407 59.9423 72.1676 59.8832C72.3571 59.7934 72.6022 59.6539 72.5448 59.4798C72.4795 59.2813 71.2299 57.3191 71.0876 57.096C71.0749 57.077 71.0553 57.0638 71.033 57.0591C71.0106 57.0544 70.9874 57.0586 70.9681 57.0709C70.9489 57.0832 70.9352 57.1025 70.9301 57.1247C70.9249 57.1469 70.9287 57.1703 70.9405 57.1898C71.4734 58.0252 72.3352 59.4007 72.3792 59.5339C72.3653 59.6004 72.0529 59.7645 71.7231 59.8733C71.7019 59.8805 71.6843 59.8956 71.674 59.9154C71.6636 59.9352 71.6613 59.9583 71.6675 59.9798C71.6736 60.0013 71.6878 60.0196 71.7071 60.031C71.7264 60.0423 71.7493 60.0458 71.7711 60.0407L71.7715 60.0408Z" fill="#0C0C0C"/>
            <path opacity="0.52" d="M71.3879 61.6436C71.946 61.6461 72.4969 61.5174 72.9962 61.268C73.007 61.2634 73.0168 61.2567 73.025 61.2482C73.0332 61.2397 73.0396 61.2297 73.0437 61.2187C73.0479 61.2077 73.0498 61.1959 73.0494 61.1842C73.0489 61.1724 73.0461 61.1609 73.041 61.1502C73.036 61.1396 73.0288 61.1301 73.02 61.1223C73.0112 61.1145 73.0009 61.1086 72.9897 61.1049C72.9785 61.1012 72.9667 61.0998 72.955 61.1008C72.9433 61.1017 72.9318 61.1051 72.9214 61.1106C71.8441 61.6225 70.8471 61.5947 70.0361 61.0303C70.0198 61.0184 70.0028 61.0073 69.9852 60.9972C69.9649 60.9877 69.9416 60.9864 69.9203 60.9936C69.899 61.0008 69.8814 61.016 69.871 61.0359C69.8606 61.0558 69.8583 61.079 69.8646 61.1006C69.8709 61.1222 69.8853 61.1405 69.9047 61.1517C69.9113 61.1555 69.9225 61.1632 69.9364 61.1734C70.3627 61.4711 70.8681 61.6348 71.3879 61.6436Z" fill="#0C0C0C"/>
            <path d="M60.3901 59.9146L63.3327 58.9632C65.4945 57.7374 65.663 53.6934 65.663 53.6934C65.663 53.6934 68.7943 56.0304 75.3137 53.6044C75.3137 53.6044 72.7273 44.4079 63.1556 48.4461C60.0693 49.7483 58.1972 53.2789 59.0533 57.5539C59.6531 60.5491 60.3901 59.9146 60.3901 59.9146Z" fill="#0A0A0A"/>
            <path d="M64.5215 62.5726C63.5248 62.9011 62.3654 62.1011 62.0368 61.1045C61.7081 60.1079 62.3351 59.2919 63.3319 58.9633L64.0664 59.4617L65.3793 62.2899L64.5215 62.5726Z" fill="#E98862"/>
            <path d="M71.4824 55.3056C71.7551 55.0736 72.0853 54.9193 72.4383 54.8589C72.6119 54.828 72.7891 54.8234 72.964 54.8452C73.1369 54.8657 73.3065 54.9079 73.4688 54.9707C73.4917 54.9783 73.5107 54.9946 73.5216 55.0162C73.5325 55.0377 73.5344 55.0627 73.5268 55.0857C73.5193 55.1086 73.5029 55.1276 73.4813 55.1385C73.4598 55.1493 73.4348 55.1512 73.4119 55.1436L73.405 55.1416C73.2559 55.0912 73.1011 55.0598 72.9441 55.0481C72.789 55.0358 72.6329 55.0469 72.481 55.0811C72.1793 55.1473 71.9004 55.2921 71.6727 55.5009L71.6652 55.5079C71.6389 55.5328 71.6038 55.5463 71.5675 55.5453C71.5312 55.5443 71.4969 55.529 71.4719 55.5026C71.447 55.4763 71.4335 55.4411 71.4345 55.4049C71.4355 55.3686 71.4508 55.3342 71.4772 55.3093L71.4824 55.3056Z" fill="#0C0C0C"/>
            <path d="M68.8743 56.2939C68.5673 56.2605 68.257 56.3087 67.9747 56.4338C67.8319 56.496 67.6992 56.5793 67.5812 56.681C67.4616 56.7832 67.3553 56.9001 67.2647 57.0288L67.2607 57.0344C67.2537 57.0441 67.2449 57.0524 67.2348 57.0588C67.2247 57.0651 67.2134 57.0694 67.2016 57.0714C67.1898 57.0734 67.1777 57.073 67.1661 57.0703C67.1544 57.0676 67.1434 57.0627 67.1336 57.0557C67.1239 57.0488 67.1156 57.04 67.1093 57.0299C67.1029 57.0197 67.0986 57.0085 67.0967 56.9967C67.0947 56.9849 67.095 56.9728 67.0977 56.9611C67.1004 56.9495 67.1054 56.9385 67.1123 56.9287C67.206 56.7816 67.3179 56.6468 67.4452 56.5275C67.5735 56.4066 67.7191 56.3056 67.8774 56.228C68.1978 56.0681 68.5553 55.9974 68.9124 56.0232C68.9478 56.0271 68.9803 56.0446 69.003 56.072C69.0257 56.0995 69.0368 56.1347 69.034 56.1702C69.0311 56.2057 69.0145 56.2387 68.9878 56.2622C68.961 56.2856 68.9261 56.2978 68.8905 56.2959L68.8848 56.2953L68.8743 56.2939Z" fill="#0C0C0C"/>
            <path d="M63.3347 58.9247L63.2937 58.8451C66.9333 56.9689 65.5038 53.3432 65.4888 53.3067L65.5716 53.2728C65.5868 53.31 67.048 57.0103 63.3347 58.9247Z" fill="#0C0C0C"/>
            <path opacity="0.1" d="M69.0963 60.6617C69.5312 60.5558 69.8208 60.2115 69.7431 59.8925C69.6655 59.5736 69.25 59.4008 68.8152 59.5067C68.3803 59.6126 68.0908 59.9569 68.1684 60.2758C68.246 60.5948 68.6615 60.7675 69.0963 60.6617Z" fill="#0C0C0C"/>
            <path opacity="0.1" d="M73.6015 58.807C73.679 59.1255 74.0952 59.2979 74.5301 59.1928C74.6053 59.1744 74.6784 59.1484 74.7482 59.115C74.7221 58.7272 74.6789 58.3565 74.6262 58.0148C74.5 57.9988 74.3719 58.0067 74.2487 58.0379C73.8138 58.143 73.5242 58.4874 73.6015 58.807Z" fill="#0C0C0C"/>
            <path d="M85.0572 98.4998L86.5502 97.4442C85.8367 97.7024 85.073 97.7918 84.3191 97.7053C83.5653 97.6188 82.8417 97.3588 82.2052 96.9456C81.5687 96.5325 81.0367 95.9776 80.6507 95.3243C80.2648 94.671 80.0355 93.9372 79.9808 93.1804L78.5117 72.8362C78.4613 72.1908 78.5389 71.5418 78.7402 70.9265C78.9415 70.3112 79.2625 69.7418 79.6846 69.251C80.1068 68.7602 80.6219 68.3577 81.2002 68.0666C81.7785 67.7756 82.4086 67.6017 83.0543 67.5551C83.7001 67.5085 84.3486 67.59 84.9628 67.7949C85.5769 67.9998 86.1444 68.3241 86.6327 68.7491C87.121 69.1742 87.5204 69.6916 87.808 70.2715C88.0956 70.8515 88.2657 71.4826 88.3084 72.1286L91.7197 87.1344L92.2096 90.7596L92.7974 92.8171L92.7974 93.9928L92.7974 94.9726L92.3076 95.9524L91.5237 96.7362L90.446 97.2261L85.0572 98.4998Z" fill="#0059FF"/>
            <path d="M86.6391 77.3298C87.0057 79.6948 89.5651 94.3837 90.0703 97.2837L63.9352 103.646C63.1608 101.108 59.7581 90.0138 57.973 85.1165C56.2694 80.4434 54.6354 78.294 55.0583 76.6869C55.7493 74.0604 58.8548 71.884 61.1176 70.9976C62.4998 70.4568 64.6157 69.7942 64.6157 69.7942C64.6157 69.7942 65.6936 73.4309 70.0827 72.5795C76.0573 71.4202 74.6492 67.3518 74.6783 67.3447C75.6353 67.1117 81.2491 66.3868 82.7796 66.8539C86.9485 68.1248 85.8626 72.3186 86.6391 77.3298Z" fill="#0059FF"/>
            <path d="M85.3213 93.2183L62.8662 103.181C62.1526 103.439 61.3889 103.529 60.6351 103.442C59.8812 103.356 59.1576 103.096 58.5211 102.683C57.8847 102.269 57.3526 101.715 56.9666 101.061C56.5807 100.408 56.3514 99.6741 56.2968 98.9173L54.8277 78.5731C54.7772 77.9277 54.8548 77.2787 55.0561 76.6634C55.2574 76.0481 55.5784 75.4787 56.0006 74.9879C56.4227 74.4971 56.9378 74.0946 57.5161 73.8036C58.0944 73.5125 58.7245 73.3387 59.3703 73.292C60.016 73.2454 60.6646 73.3269 61.2787 73.5318C61.8928 73.7367 62.4603 74.061 62.9486 74.4861C63.4369 74.9111 63.8363 75.4285 64.1239 76.0085C64.4115 76.5884 64.5816 77.2196 64.6243 77.8655L65.6569 91.8643L82.3511 85.51L85.3213 93.2183Z" fill="#0059FF"/>
            <path d="M62.8854 103.268C62.8643 103.271 62.8426 103.267 62.8242 103.256C62.8058 103.245 62.792 103.228 62.7851 103.208C62.7782 103.187 62.7788 103.165 62.7867 103.145C62.7945 103.126 62.8092 103.109 62.8281 103.099L85.2059 93.1715L82.2979 85.6257L65.6871 91.9484C65.6741 91.9534 65.66 91.9553 65.6462 91.9539C65.6323 91.9525 65.619 91.9479 65.6072 91.9403C65.5955 91.9328 65.5857 91.9227 65.5785 91.9107C65.5713 91.8987 65.567 91.8853 65.5659 91.8714L64.8982 82.9258C64.8996 82.9041 64.9088 82.8836 64.9242 82.8681C64.9395 82.8527 64.9599 82.8433 64.9816 82.8416C65.0033 82.84 65.0249 82.8463 65.0423 82.8593C65.0598 82.8724 65.0719 82.8912 65.0765 82.9125L65.7354 91.7385L82.3175 85.4267C82.3396 85.4185 82.3641 85.4192 82.3857 85.4288C82.4073 85.4385 82.4243 85.4562 82.433 85.4781L85.4033 93.1864C85.4114 93.2078 85.4111 93.2314 85.4025 93.2526C85.3938 93.2737 85.3775 93.2908 85.3567 93.3003L62.9016 103.263C62.8963 103.265 62.8909 103.267 62.8854 103.268Z" fill="#0C0C0C"/>
        </g>
        <rect x="47.1456" y="49.4664" width="32.92" height="32.92" rx="3.68507" transform="rotate(-15 47.1456 49.4664)" stroke="#BCC2C8" stroke-width="0.491343"/>
    </g>
    <circle cx="77.3281" cy="40.1284" r="8.43895" fill="white"/>
    <mask id="mask0_8802_4040" style="mask-type:alpha" maskUnits="userSpaceOnUse" x="65" y="30" width="25" height="28">
        <rect width="20.478" height="22.2981" transform="matrix(0.958965 -0.283526 0.235979 0.971758 65.1006 36.2115)" fill="#D9D9D9"/>
    </mask>
    <g mask="url(#mask0_8802_4040)">
        <path d="M77.4131 48.6344L81.636 40.5638L80.1835 39.6385L76.7992 46.1065L73.8424 44.2228L73.0038 45.8255L77.4131 48.6344ZM79.7425 53.1711C78.6107 53.5058 77.4894 53.5833 76.3788 53.4036C75.2682 53.224 74.246 52.8367 73.3122 52.2419C72.3785 51.647 71.5635 50.8639 70.8672 49.8924C70.1708 48.921 69.671 47.8108 69.3677 46.5618C69.0645 45.3129 68.9942 44.0757 69.157 42.8502C69.3199 41.6247 69.6708 40.4968 70.2099 39.4666C70.749 38.4363 71.4588 37.5369 72.3392 36.7686C73.2196 36.0003 74.2258 35.4488 75.3576 35.1141C76.4895 34.7795 77.6108 34.702 78.7214 34.8817C79.832 35.0613 80.8542 35.4486 81.7879 36.0434C82.7217 36.6383 83.5367 37.4214 84.233 38.3929C84.9293 39.3643 85.4292 40.4745 85.7324 41.7235C86.0357 42.9724 86.106 44.2096 85.9431 45.4351C85.7803 46.6606 85.4294 47.7884 84.8903 48.8187C84.3512 49.849 83.6414 50.7483 82.761 51.5167C81.8806 52.285 80.8744 52.8365 79.7425 53.1711Z" fill="#0FE16D"/>
    </g>
    <defs>
        <filter id="filter0_d_8802_4040" x="44.8794" y="40.6453" width="44.8512" height="44.851" filterUnits="userSpaceOnUse" color-interpolation-filters="sRGB">
            <feFlood flood-opacity="0" result="BackgroundImageFix"/>
            <feColorMatrix in="SourceAlpha" type="matrix" values="0 0 0 0 0 0 0 0 0 0 0 0 0 0 0 0 0 0 127 0" result="hardAlpha"/>
            <feOffset dy="1.96537"/>
            <feGaussianBlur stdDeviation="0.982687"/>
            <feComposite in2="hardAlpha" operator="out"/>
            <feColorMatrix type="matrix" values="0 0 0 0 0 0 0 0 0 0 0 0 0 0 0 0 0 0 0.25 0"/>
            <feBlend mode="normal" in2="BackgroundImageFix" result="effect1_dropShadow_8802_4040"/>
            <feBlend mode="normal" in="SourceGraphic" in2="effect1_dropShadow_8802_4040" result="shape"/>
        </filter>
        <clipPath id="clip0_8802_4040">
            <rect y="4.00037" width="68.8894" height="72.3338" rx="8.26672" fill="white"/>
        </clipPath>
        <clipPath id="clip1_8802_4040">
            <rect width="18.4004" height="37.5224" fill="white" transform="translate(3.15674 8.21191) rotate(-13.6812)"/>
        </clipPath>
        <clipPath id="clip2_8802_4040">
            <rect x="46.8447" y="49.2927" width="33.4113" height="33.4113" rx="3.93075" transform="rotate(-15 46.8447 49.2927)" fill="white"/>
        </clipPath>
    </defs>
</svg>
