<svg width="48" height="48" viewBox="0 0 48 48" fill="none" xmlns="http://www.w3.org/2000/svg">
    <path d="M19.1004 30.3L36.0504 13.35C36.4504 12.95 36.917 12.75 37.4504 12.75C37.9837 12.75 38.4504 12.95 38.8504 13.35C39.2504 13.75 39.4504 14.2253 39.4504 14.776C39.4504 15.3267 39.2504 15.8013 38.8504 16.2L20.5004 34.6C20.1004 35 19.6337 35.2 19.1004 35.2C18.567 35.2 18.1004 35 17.7004 34.6L9.10036 26C8.70036 25.6 8.50836 25.1253 8.52436 24.576C8.54036 24.0267 8.74903 23.5513 9.15036 23.15C9.55169 22.7487 10.027 22.5487 10.5764 22.55C11.1257 22.5513 11.6004 22.7513 12.0004 23.15L19.1004 30.3Z" fill="#009700"/>
</svg>
