<svg width="90" height="90" viewBox="0 0 90 90" fill="none" xmlns="http://www.w3.org/2000/svg">
    <path d="M13.2915 44.5952C13.3912 44.5353 13.5046 44.5018 13.6208 44.498C13.7371 44.4943 13.8524 44.5203 13.9557 44.5736C14.0583 44.6294 14.1555 44.6924 14.2599 44.741C14.3672 44.785 14.4668 44.8458 14.5551 44.921C14.639 45.0013 14.7009 45.1017 14.7351 45.2126C14.7608 45.3259 14.7723 45.442 14.7693 45.5582L14.7963 46.2602L17.6259 46.163L17.6097 46.1792L17.5773 45.2684C17.5805 45.1095 17.6391 44.9567 17.7429 44.8364C17.8547 44.7295 17.9807 44.6386 18.1173 44.5664L18.3081 44.4458C18.3744 44.4019 18.4473 44.369 18.5241 44.3486C18.6793 44.3048 18.845 44.3169 18.9921 44.3828L19.8003 44.8058L19.7445 44.8238L21.0603 42.3002L21.0855 42.383L20.2773 41.9546C20.1341 41.8647 20.0256 41.7289 19.9695 41.5694C19.9424 41.49 19.9284 41.4067 19.9281 41.3228V41.0978L19.9173 40.871C19.909 40.744 19.933 40.6169 19.9872 40.5017C20.0413 40.3864 20.1238 40.2868 20.2269 40.2122L21.0027 39.7262L20.9757 39.8378L19.4655 37.4402L19.5861 37.4672L18.8085 37.9514C18.655 38.0342 18.4774 38.0609 18.3063 38.027C18.2218 38.0095 18.1409 37.9779 18.0669 37.9334L17.8725 37.8218L17.6727 37.721C17.5953 37.6831 17.5248 37.6326 17.4639 37.5716C17.342 37.4486 17.2669 37.2869 17.2515 37.1144L17.2245 36.1982L17.3091 36.2792L14.4777 36.3602L14.5497 36.2846L14.5713 37.2008C14.5646 37.3686 14.5012 37.5291 14.3913 37.6562C14.3355 37.7188 14.2691 37.7712 14.1951 37.811L14.0043 37.928L13.8117 38.045C13.7088 38.1149 13.5896 38.1569 13.4656 38.167C13.3417 38.1771 13.2172 38.1549 13.1043 38.1026L12.3015 37.6652L12.3663 37.6454L11.0109 40.133L10.9983 40.0952L11.7975 40.5326C11.93 40.6169 12.0297 40.7439 12.0801 40.8926C12.115 41.0424 12.1295 41.1961 12.1233 41.3498C12.1384 41.5024 12.1317 41.6563 12.1035 41.807C12.0639 41.9579 11.972 42.0899 11.8443 42.1796L11.0667 42.6602V42.6476L12.5535 45.0578L13.2915 44.5952ZM13.2915 44.5952L12.5553 45.056L11.0541 42.6602L11.8263 42.1778C11.9487 42.0905 12.0366 41.9631 12.0747 41.8178C12.0997 41.6691 12.104 41.5177 12.0873 41.3678C12.0912 41.2182 12.0754 41.0687 12.0405 40.9232C11.9917 40.7829 11.8965 40.6635 11.7705 40.5848L10.9695 40.1402L10.9443 40.1258L10.9569 40.1006L12.2799 37.595L12.3015 37.5518L12.3447 37.5752L13.1403 37.9964C13.269 38.0527 13.413 38.0641 13.5489 38.0288C13.6131 38.0087 13.6738 37.979 13.7289 37.9406L13.9233 37.8164L14.1195 37.694C14.1793 37.66 14.2328 37.6162 14.2779 37.5644C14.3676 37.4592 14.4185 37.3264 14.4219 37.1882L14.3877 36.2882V36.2144H14.4615L17.2911 36.1172H17.3739V36.2L17.4045 37.1C17.4156 37.2358 17.4742 37.3633 17.5701 37.46C17.6175 37.5065 17.6722 37.5448 17.7321 37.5734L17.9391 37.676L18.1407 37.7912C18.1967 37.8239 18.2574 37.8476 18.3207 37.8614C18.451 37.8864 18.5859 37.8654 18.7023 37.802L19.4745 37.3286L19.5501 37.2818L19.5951 37.3574L21.0819 39.7676L21.1233 39.836L21.0549 39.8774L20.2845 40.3544C20.1739 40.4319 20.0942 40.546 20.0595 40.6766C20.0415 40.7422 20.0342 40.8103 20.0379 40.8782V41.1068V41.3354C20.0385 41.404 20.05 41.4721 20.0721 41.537C20.1142 41.6675 20.2 41.7794 20.3151 41.8538L21.1107 42.2894L21.1647 42.3182L21.1359 42.3722L19.7805 44.8598L19.7589 44.8958L19.7229 44.876L18.9255 44.4422C18.7927 44.3828 18.6436 44.3701 18.5025 44.4062C18.3629 44.4562 18.2309 44.5252 18.1101 44.6114C17.9793 44.6801 17.8582 44.7661 17.7501 44.867C17.6516 44.9773 17.5949 45.1187 17.5899 45.2666L17.6097 46.1666V46.1828H17.5917L14.7891 46.2602L14.7603 45.5582C14.7632 45.4433 14.7523 45.3285 14.7279 45.2162C14.6933 45.106 14.6314 45.0063 14.5479 44.9264C14.4603 44.8512 14.3612 44.7905 14.2545 44.7464C14.1501 44.696 14.0529 44.633 13.9521 44.5772C13.8498 44.5231 13.7352 44.4964 13.6195 44.4996C13.5038 44.5027 13.3908 44.5356 13.2915 44.5952Z" fill="#EBEBEB"/>
    <path d="M13.8759 40.4009C14.0407 39.9666 14.3298 39.5905 14.7071 39.3194C15.0843 39.0483 15.5331 38.8944 15.9973 38.8767C16.4615 38.859 16.9206 38.9785 17.3174 39.2201C17.7141 39.4617 18.0309 39.8148 18.2283 40.2353C18.3628 40.5211 18.4385 40.8311 18.4509 41.1467C18.4633 41.4623 18.4122 41.7772 18.3005 42.0727C18.1889 42.3682 18.019 42.6383 17.801 42.8668C17.5829 43.0954 17.3212 43.2779 17.0313 43.4033C16.7448 43.5277 16.4366 43.5942 16.1243 43.5992C15.812 43.6041 15.5018 43.5473 15.2115 43.4321C14.9251 43.3149 14.6632 43.1452 14.4393 42.9317C14.11 42.61 13.8813 42.1995 13.7813 41.7501C13.6813 41.3007 13.7141 40.8319 13.8759 40.4009ZM13.8759 40.4009C13.6644 40.9762 13.6896 41.6118 13.9461 42.1685C14.136 42.573 14.4409 42.9126 14.8226 43.145C15.2043 43.3773 15.646 43.4921 16.0926 43.475C16.5391 43.4579 16.9707 43.3097 17.3336 43.0489C17.6964 42.7881 17.9744 42.4261 18.1329 42.0083C18.3417 41.4514 18.3244 40.8349 18.0845 40.2907C17.8447 39.7464 17.4014 39.3176 16.8495 39.0959C16.2854 38.8718 15.6555 38.8809 15.0981 39.1211C14.5389 39.3713 14.1001 39.8308 13.8759 40.4009Z" fill="#EBEBEB"/>
    <path d="M79.456 42.5019L78.4642 40.7829L77.9404 41.0871C77.8644 41.1302 77.778 41.1514 77.6906 41.1486C77.6033 41.1457 77.5185 41.1189 77.4454 41.0709C77.3623 41.0166 77.2764 40.9667 77.188 40.9215C77.1101 40.8824 77.0445 40.8226 76.9985 40.7485C76.9524 40.6745 76.9277 40.5893 76.927 40.5021V39.8955H74.947V40.5003C74.9463 40.5875 74.9216 40.6727 74.8756 40.7468C74.8295 40.8208 74.7639 40.8806 74.686 40.9197C74.5977 40.9649 74.5117 41.0148 74.4286 41.0691C74.3556 41.1171 74.2707 41.1439 74.1834 41.1468C74.0961 41.1497 74.0096 41.1284 73.9336 41.0853L73.408 40.7811L72.4162 42.5001L72.9454 42.8043C73.0205 42.8488 73.0819 42.9132 73.1225 42.9904C73.1632 43.0676 73.1817 43.1546 73.1758 43.2417C73.1758 43.2903 73.1758 43.3389 73.1758 43.3875C73.1758 43.4361 73.1758 43.4847 73.1758 43.5333C73.1817 43.62 73.1634 43.7065 73.1231 43.7834C73.0827 43.8603 73.0219 43.9245 72.9472 43.9689L72.4072 44.2749L73.399 45.9939L73.9264 45.6897C74.0024 45.6461 74.089 45.6247 74.1765 45.6279C74.264 45.631 74.3489 45.6587 74.4214 45.7077C74.5042 45.7599 74.5888 45.8103 74.677 45.8553C74.7549 45.8944 74.8205 45.9543 74.8666 46.0283C74.9126 46.1023 74.9373 46.1875 74.938 46.2747V46.8813H76.918V46.2747C76.9187 46.1875 76.9434 46.1023 76.9895 46.0283C77.0355 45.9543 77.1011 45.8944 77.179 45.8553C77.2672 45.8103 77.359 45.7599 77.4346 45.7077C77.5072 45.6587 77.592 45.631 77.6795 45.6279C77.7671 45.6247 77.8537 45.6461 77.9296 45.6897L78.457 45.9939L79.4488 44.2749L78.9214 43.9707C78.8465 43.9266 78.7852 43.8625 78.7445 43.7855C78.7038 43.7086 78.6853 43.6219 78.691 43.5351C78.691 43.4865 78.691 43.4361 78.691 43.3875C78.691 43.3389 78.691 43.2903 78.691 43.2417C78.6852 43.1546 78.7036 43.0676 78.7443 42.9904C78.785 42.9132 78.8463 42.8488 78.9214 42.8043L79.456 42.5019ZM77.5588 43.3893C77.5588 43.7097 77.4638 44.0229 77.2858 44.2893C77.1078 44.5557 76.8548 44.7634 76.5588 44.886C76.2628 45.0086 75.937 45.0407 75.6228 44.9782C75.3085 44.9157 75.0199 44.7614 74.7933 44.5348C74.5668 44.3083 74.4125 44.0196 74.3499 43.7054C74.2874 43.3911 74.3195 43.0654 74.4421 42.7694C74.5648 42.4733 74.7724 42.2203 75.0388 42.0423C75.3052 41.8643 75.6184 41.7693 75.9388 41.7693C76.3685 41.7693 76.7805 41.94 77.0843 42.2438C77.3881 42.5476 77.5588 42.9597 77.5588 43.3893Z" fill="#EBEBEB"/>
    <path d="M27.72 27.2567L26.7282 25.5395L26.2026 25.8437C26.1265 25.8869 26.0399 25.9081 25.9525 25.905C25.8651 25.9018 25.7803 25.8743 25.7076 25.8257C25.6244 25.772 25.5385 25.7227 25.4502 25.6781C25.3723 25.639 25.3067 25.5792 25.2606 25.5052C25.2146 25.4312 25.1899 25.3459 25.1892 25.2587V24.6611H23.22V25.2677C23.2193 25.3549 23.1946 25.4402 23.1485 25.5142C23.1025 25.5882 23.0369 25.648 22.959 25.6871C22.8706 25.7317 22.7847 25.781 22.7016 25.8347C22.6289 25.8833 22.544 25.9108 22.4566 25.914C22.3692 25.9171 22.2826 25.8959 22.2066 25.8527L21.681 25.5485L20.6892 27.2657L21.2184 27.5699C21.2936 27.6147 21.355 27.6794 21.3957 27.7569C21.4364 27.8345 21.4547 27.9218 21.4488 28.0091C21.4488 28.0577 21.4488 28.1063 21.4488 28.1549C21.4488 28.2035 21.4488 28.2521 21.4488 28.3007C21.4547 28.3874 21.4364 28.4739 21.396 28.5508C21.3557 28.6277 21.2948 28.6919 21.2202 28.7363L20.6802 29.0423L21.672 30.7613L22.1994 30.4571C22.2753 30.4137 22.3618 30.3922 22.4492 30.395C22.5366 30.3979 22.6215 30.425 22.6944 30.4733C22.7769 30.5276 22.8622 30.5775 22.95 30.6227C23.0277 30.6615 23.0933 30.7211 23.1393 30.7948C23.1854 30.8685 23.2102 30.9534 23.211 31.0403V31.6487H25.191V31.0403C25.1918 30.9534 25.2166 30.8685 25.2626 30.7948C25.3087 30.7211 25.3742 30.6615 25.452 30.6227C25.5398 30.5775 25.6251 30.5276 25.7076 30.4733C25.7805 30.425 25.8654 30.3979 25.9528 30.395C26.0402 30.3922 26.1267 30.4137 26.2026 30.4571L26.73 30.7613L27.7218 29.0423L27.1926 28.7381C27.1181 28.6931 27.0574 28.6286 27.017 28.5514C26.9767 28.4743 26.9584 28.3876 26.964 28.3007C26.964 28.2521 26.964 28.2035 26.964 28.1549C26.964 28.1063 26.964 28.0577 26.964 28.0091C26.958 27.9218 26.9764 27.8345 27.0171 27.7569C27.0577 27.6794 27.1191 27.6147 27.1944 27.5699L27.72 27.2567ZM25.8228 28.1459C25.8228 28.4663 25.7278 28.7796 25.5498 29.046C25.3717 29.3124 25.1187 29.52 24.8227 29.6426C24.5267 29.7652 24.201 29.7973 23.8867 29.7348C23.5725 29.6723 23.2838 29.518 23.0573 29.2914C22.8307 29.0649 22.6764 28.7762 22.6139 28.462C22.5514 28.1477 22.5835 27.822 22.7061 27.526C22.8287 27.23 23.0363 26.977 23.3028 26.799C23.5692 26.6209 23.8824 26.5259 24.2028 26.5259C24.416 26.5252 24.6272 26.5666 24.8244 26.6477C25.0216 26.7288 25.2008 26.848 25.3518 26.9985C25.5028 27.149 25.6226 27.3278 25.7043 27.5247C25.7861 27.7216 25.8282 27.9327 25.8282 28.1459H25.8228Z" fill="#EBEBEB"/>
    <path d="M70.1158 13.8603H52.771C52.771 13.8603 54.49 9.16406 57.1378 9.16406C59.7856 9.16406 60.6136 12.4041 60.6136 12.4041C60.6136 12.4041 62.3992 10.6419 63.8662 10.6419C65.3332 10.6419 66.6004 12.9603 66.6004 12.9603C66.6004 12.9603 68.6812 11.7129 70.1158 13.8603Z" fill="#EBEBEB"/>
    <path d="M42.2572 42.0165H24.9106C24.9106 42.0165 26.6314 37.3203 29.2774 37.3203C31.9234 37.3203 32.7532 40.5603 32.7532 40.5603C32.7532 40.5603 34.5388 38.7981 36.0058 38.7981C37.4728 38.7981 38.749 41.1273 38.749 41.1273C38.749 41.1273 40.8208 39.8763 42.2572 42.0165Z" fill="#EBEBEB"/>
    <path opacity="0.5" d="M80.7553 29.4564H72.6553C72.6553 29.4564 74.4661 26.832 75.8953 26.832C77.3245 26.832 77.7439 28.5816 77.7439 28.5816C77.7439 28.5816 78.7519 27.7644 79.6843 27.9102C80.6167 28.056 80.7553 29.4564 80.7553 29.4564Z" fill="#EBEBEB"/>
    <path opacity="0.5" d="M58.2606 34.3344H50.1606C50.1606 34.3344 51.9732 31.71 53.4006 31.71C54.828 31.71 55.2492 33.4596 55.2492 33.4596C55.2492 33.4596 56.2572 32.6442 57.1896 32.79C58.122 32.9358 58.2606 34.3344 58.2606 34.3344Z" fill="#EBEBEB"/>
    <path d="M22.5774 34.2825H6.78955C6.78955 34.2825 8.94955 29.4549 11.2644 29.1525C13.5792 28.8501 14.6844 32.7399 14.6844 32.7399C14.6844 32.7399 16.1766 31.3647 17.3502 31.3647C18.5238 31.3647 19.4292 33.1755 19.4292 33.1755C19.4292 33.1755 21.78 31.9353 22.5774 34.2825Z" fill="#EBEBEB"/>
    <path opacity="0.5" d="M33.5843 21.3903H22.9175C22.9175 21.3903 24.7499 17.8947 26.7371 17.8425C28.7243 17.7903 29.7701 20.4903 29.7701 20.4903C29.7701 20.4903 32.8607 18.0009 33.5843 21.3903Z" fill="#EBEBEB"/>
    <path d="M25.2536 67.0566H11.606V80.6142H25.2536V67.0566Z" fill="#FFC73B"/>
    <path opacity="0.1" d="M15.6272 67.0566H11.606V80.6142H15.6272V67.0566Z" fill="black"/>
    <path d="M42.9674 60.8203H29.3198V80.6149H42.9674V60.8203Z" fill="#FFC73B"/>
    <path opacity="0.1" d="M33.341 60.8203H29.3198V80.6149H33.341V60.8203Z" fill="black"/>
    <path d="M60.6793 54.5801H47.0317V80.6117H60.6793V54.5801Z" fill="#FFC73B"/>
    <path opacity="0.1" d="M51.0529 54.5801H47.0317V80.6117H51.0529V54.5801Z" fill="black"/>
    <path d="M78.3937 48.3438H64.7461V80.6142H78.3937V48.3438Z" fill="#FFC73B"/>
    <path opacity="0.1" d="M68.7673 48.3438H64.7461V80.6142H68.7673V48.3438Z" fill="black"/>
    <path d="M11.5869 49.6462C11.9199 49.6462 12.3069 49.6372 12.6669 49.6282C13.0269 49.6192 13.4031 49.6048 13.7721 49.5868C14.5119 49.5562 15.2517 49.513 15.9933 49.4626C17.4765 49.3672 18.9597 49.2286 20.4411 49.072C23.4051 48.7516 26.3583 48.3238 29.3007 47.7886C32.2431 47.2534 35.1603 46.6096 38.0523 45.8572C40.9431 45.094 43.8003 44.2126 46.6239 43.213C49.4461 42.2144 52.2157 41.073 54.9219 39.793C57.638 38.5208 60.2755 37.0872 62.8203 35.5L64.7175 34.2904L66.5607 32.9962C67.1835 32.5768 67.7703 32.107 68.3607 31.648L69.2499 30.9568L69.6963 30.6112L70.1247 30.2512L71.8347 28.7806C72.1263 28.543 72.3891 28.273 72.6627 28.0156L73.4799 27.2362L74.2971 26.455C74.5671 26.1922 74.8155 25.915 75.0747 25.636L76.6209 23.9854L76.7235 24.0718L75.2547 25.7998C75.0063 26.086 74.7705 26.383 74.5113 26.6584L73.7283 27.481L72.9453 28.3054C72.6825 28.5772 72.4305 28.8616 72.1497 29.1154L70.4973 30.6796L70.0833 31.0702L69.6513 31.4392L68.7855 32.179C68.2077 32.6722 67.6389 33.1744 67.0287 33.628L65.2287 35.0266L63.3603 36.3352C60.8584 38.0697 58.2545 39.6524 55.5627 41.0746C52.8699 42.5073 50.1063 43.8032 47.2827 44.9572C44.4603 46.1116 41.5923 47.1484 38.6787 48.0676C35.7651 48.9868 32.8203 49.7859 29.8443 50.4652C26.8695 51.1551 23.8695 51.7372 20.8443 52.2112C19.3323 52.4434 17.8167 52.6594 16.2921 52.8322C15.5289 52.9204 14.7657 53.0014 13.9971 53.0716C13.6137 53.1076 13.2285 53.1382 12.8433 53.1688C12.4581 53.1994 12.0765 53.2246 11.6553 53.2462L11.5869 49.6462Z" fill="#FFC73B"/>
    <path d="M77.179 26.1247L76.2952 24.4615L74.4844 23.9449L78.4138 21.8389L77.179 26.1247Z" fill="#FFC73B"/>
    <path d="M72.801 47.3248H70.2234C70.2234 47.3248 70.0236 46.7434 70.7634 44.5042C71.5032 42.265 71.9658 40.1518 70.9704 37.954C69.975 35.7562 69.3251 33.0256 70.3997 30.2716C71.6147 27.1612 71.9496 27.2116 70.3692 22.78C70.2306 22.393 70.3692 22.3768 70.5492 22.6252C70.7292 22.8736 71.9045 25.804 72.0431 26.6068C72.0431 26.6068 73.1754 24.7258 73.5912 24.6988C74.007 24.6718 73.863 24.7438 73.5912 25.0588C71.6472 27.3016 70.578 30.9466 70.5222 32.743C70.4664 34.5394 71.4077 36.4744 71.4077 36.4744C71.4077 36.4744 72.6786 34.5394 73.5084 33.7384C74.3382 32.9374 74.8908 31.7206 74.448 30.6424C74.0052 29.5642 75.8394 31.168 74.6046 32.9356C74.6046 32.9356 76.4658 32.5756 76.9085 33.3226C77.3513 34.0696 75.6918 32.4388 74.061 33.904C73.0884 34.7727 72.3552 35.8765 71.9316 37.1098C71.9316 37.1098 73.521 40.726 73.0116 42.7492C72.1944 46.0396 72.801 47.3248 72.801 47.3248Z" fill="#FFC73B"/>
    <path opacity="0.5" d="M72.801 47.3248H70.2234C70.2234 47.3248 70.0236 46.7434 70.7634 44.5042C71.5032 42.265 71.9658 40.1518 70.9704 37.954C69.975 35.7562 69.3251 33.0256 70.3997 30.2716C71.6147 27.1612 71.9496 27.2116 70.3692 22.78C70.2306 22.393 70.3692 22.3768 70.5492 22.6252C70.7292 22.8736 71.9045 25.804 72.0431 26.6068C72.0431 26.6068 73.1754 24.7258 73.5912 24.6988C74.007 24.6718 73.863 24.7438 73.5912 25.0588C71.6472 27.3016 70.578 30.9466 70.5222 32.743C70.4664 34.5394 71.4077 36.4744 71.4077 36.4744C71.4077 36.4744 72.6786 34.5394 73.5084 33.7384C74.3382 32.9374 74.8908 31.7206 74.448 30.6424C74.0052 29.5642 75.8394 31.168 74.6046 32.9356C74.6046 32.9356 76.4658 32.5756 76.9085 33.3226C77.3513 34.0696 75.6918 32.4388 74.061 33.904C73.0884 34.7727 72.3552 35.8765 71.9316 37.1098C71.9316 37.1098 73.521 40.726 73.0116 42.7492C72.1944 46.0396 72.801 47.3248 72.801 47.3248Z" fill="black"/>
    <path d="M72.2969 36.6586C72.2969 36.6586 74.6099 36.0196 75.8645 38.2786C75.8645 38.2858 73.5065 38.7178 72.2969 36.6586Z" fill="#37474F"/>
    <path d="M66.6226 24.2706C66.6226 24.2706 68.743 23.1456 70.4584 25.086C70.4584 25.086 68.248 26.0184 66.6226 24.2706Z" fill="#37474F"/>
    <path d="M72.8848 36.0359C73.238 35.6932 73.6958 35.4787 74.1851 35.4265C74.6745 35.3743 75.1672 35.4874 75.5848 35.7479C75.5848 35.7479 74.3284 36.8351 72.8848 36.0359Z" fill="#37474F"/>
    <path d="M71.8413 24.447C71.9116 23.9609 72.1427 23.5123 72.4976 23.1727C72.8525 22.8331 73.3109 22.622 73.7997 22.5732C73.7997 22.5732 73.4721 24.1986 71.8413 24.447Z" fill="#37474F"/>
    <path d="M67.1606 30.0933C67.6443 30.0089 68.1423 30.0887 68.5755 30.32C69.0086 30.5512 69.352 30.9206 69.551 31.3695C69.551 31.3695 67.9058 31.5639 67.1606 30.0933Z" fill="#37474F"/>
    <path d="M68.5762 41.3174L68.722 43.0526L69.1702 48.3428H73.969L74.4172 43.0526L74.563 41.3174H68.5762Z" fill="#455A64"/>
    <path d="M68.5762 41.3174L68.722 43.0526H74.4172L74.563 41.3174H68.5762Z" fill="#263238"/>
    <path d="M68.1047 42.2861H75.0347V40.6211H68.1047V42.2861Z" fill="#455A64"/>
    <path d="M52.4259 53.1H55.4067C55.4067 53.1 53.5041 50.4486 53.0667 49.0266C52.4295 46.9224 53.5419 44.8866 55.0557 43.7634C55.7433 43.2522 56.4507 43.9992 57.4461 43.7634C58.6719 43.4682 58.6431 42.4422 58.5945 42.3414C58.5459 42.2406 58.3749 43.2414 57.7881 43.4322C56.4417 43.884 55.9881 42.8652 54.7785 43.2774C54.8253 42.8488 54.8319 42.4167 54.7983 41.9868C54.7425 41.2668 55.4949 39.1716 57.4983 39.3858C57.7557 39.4146 57.5991 39.2382 57.1275 39.2058C56.7945 39.1983 56.4636 39.2596 56.1555 39.3858C56.4078 39.0895 56.5685 38.7261 56.6181 38.34C56.6649 37.7568 57.0159 37.395 56.9781 37.3032C56.9403 37.2114 56.6433 37.4148 56.5137 38.0232C56.5137 38.0232 56.2185 38.9772 55.8657 39.2832C55.5129 39.5892 54.7857 40.4334 54.6057 41.2632C54.6057 41.2632 54.5535 40.7466 54.4653 39.753C54.4005 39.024 53.9559 38.4372 53.8443 38.484C53.7327 38.5308 54.2709 39.1698 54.2979 39.8538C54.3249 40.5378 54.1953 41.2794 54.3285 41.8482C54.5445 42.7572 54.3159 43.7508 53.8821 44.2512C53.4483 44.7516 52.3179 45.7722 52.2621 47.6046C52.2063 49.437 52.8885 52.335 52.4259 53.1Z" fill="#FFC73B"/>
    <g opacity="0.5">
        <path d="M52.4259 53.1H55.4067C55.4067 53.1 53.5041 50.4486 53.0667 49.0266C52.4295 46.9224 53.5419 44.8866 55.0557 43.7634C55.7433 43.2522 56.4507 43.9992 57.4461 43.7634C58.6719 43.4682 58.6431 42.4422 58.5945 42.3414C58.5459 42.2406 58.3749 43.2414 57.7881 43.4322C56.4417 43.884 55.9881 42.8652 54.7785 43.2774C54.8253 42.8488 54.8319 42.4167 54.7983 41.9868C54.7425 41.2668 55.4949 39.1716 57.4983 39.3858C57.7557 39.4146 57.5991 39.2382 57.1275 39.2058C56.7945 39.1983 56.4636 39.2596 56.1555 39.3858C56.4078 39.0895 56.5685 38.7261 56.6181 38.34C56.6649 37.7568 57.0159 37.395 56.9781 37.3032C56.9403 37.2114 56.6433 37.4148 56.5137 38.0232C56.5137 38.0232 56.2185 38.9772 55.8657 39.2832C55.5129 39.5892 54.7857 40.4334 54.6057 41.2632C54.6057 41.2632 54.5535 40.7466 54.4653 39.753C54.4005 39.024 53.9559 38.4372 53.8443 38.484C53.7327 38.5308 54.2709 39.1698 54.2979 39.8538C54.3249 40.5378 54.1953 41.2794 54.3285 41.8482C54.5445 42.7572 54.3159 43.7508 53.8821 44.2512C53.4483 44.7516 52.3179 45.7722 52.2621 47.6046C52.2063 49.437 52.8885 52.335 52.4259 53.1Z" fill="black"/>
    </g>
    <path d="M54.2246 42.9534C54.2246 42.9534 52.1762 43.2828 51.314 41.2164C51.314 41.22 53.3822 41.0706 54.2246 42.9534Z" fill="#37474F"/>
    <path d="M54.1 43.4331C53.8622 43.7847 53.5137 44.0465 53.1098 44.177C52.706 44.3075 52.2701 44.2991 51.8716 44.1531C51.8716 44.1531 52.7392 43.0209 54.1 43.4331Z" fill="#37474F"/>
    <path d="M60.4253 44.5129C60.0121 44.6094 59.5786 44.5648 59.1937 44.3864C58.8088 44.208 58.4946 43.9059 58.3013 43.5283C58.3013 43.5283 59.7107 43.2799 60.4253 44.5129Z" fill="#37474F"/>
    <path d="M56.1078 38.6622C55.6904 38.5847 55.311 38.3698 55.0298 38.0518C54.7487 37.7338 54.5819 37.3309 54.5562 36.9072C54.5562 36.9072 55.9476 37.2456 56.1078 38.6622Z" fill="#37474F"/>
    <path d="M51.1069 47.5801L51.2527 49.3153L51.7009 54.6055H56.5015L56.9479 49.3153L57.0955 47.5801H51.1069Z" fill="#455A64"/>
    <path d="M51.1069 47.5801L51.2527 49.3153H56.9479L57.0955 47.5801H51.1069Z" fill="#263238"/>
    <path d="M50.6354 48.5488H57.5654V46.8838H50.6354V48.5488Z" fill="#455A64"/>
    <path d="M34.0677 58.8609H36.4833C36.4833 58.8609 34.9407 56.7117 34.5933 55.5597C34.0767 53.8551 34.9785 52.2063 36.2043 51.2955C36.7623 50.8815 37.3347 51.4863 38.1411 51.2955C39.1347 51.0543 39.1113 50.2155 39.0717 50.1417C39.0321 50.0679 38.8917 50.8617 38.4183 51.0273C37.3275 51.3873 36.9567 50.5665 35.9793 50.9013C35.9632 50.5544 35.9699 50.2069 35.9991 49.8609C36.0981 48.6333 37.1025 47.7459 37.1025 47.7459C37.3065 47.5053 37.4365 47.2109 37.4769 46.8981C37.5147 46.4247 37.7991 46.1331 37.7685 46.0575C37.7379 45.9819 37.4985 46.1475 37.3941 46.6425C37.3941 46.6425 37.1547 47.4147 36.8685 47.6631C36.5823 47.9115 35.9937 48.5955 35.8443 49.2633C35.8443 49.2633 35.6085 51.2775 35.2557 51.6843C34.9029 52.0911 33.9957 52.9155 33.9435 54.4005C33.8913 55.8855 34.4421 58.2489 34.0677 58.8609Z" fill="#FFC73B"/>
    <g opacity="0.5">
        <path d="M34.0677 58.8609H36.4833C36.4833 58.8609 34.9407 56.7117 34.5933 55.5597C34.0767 53.8551 34.9785 52.2063 36.2043 51.2955C36.7623 50.8815 37.3347 51.4863 38.1411 51.2955C39.1347 51.0543 39.1113 50.2155 39.0717 50.1417C39.0321 50.0679 38.8917 50.8617 38.4183 51.0273C37.3275 51.3873 36.9567 50.5665 35.9793 50.9013C35.9632 50.5544 35.9699 50.2069 35.9991 49.8609C36.0981 48.6333 37.1025 47.7459 37.1025 47.7459C37.3065 47.5053 37.4365 47.2109 37.4769 46.8981C37.5147 46.4247 37.7991 46.1331 37.7685 46.0575C37.7379 45.9819 37.4985 46.1475 37.3941 46.6425C37.3941 46.6425 37.1547 47.4147 36.8685 47.6631C36.5823 47.9115 35.9937 48.5955 35.8443 49.2633C35.8443 49.2633 35.6085 51.2775 35.2557 51.6843C34.9029 52.0911 33.9957 52.9155 33.9435 54.4005C33.8913 55.8855 34.4421 58.2489 34.0677 58.8609Z" fill="black"/>
    </g>
    <path d="M35.5734 49.8827C35.1483 49.8695 34.7399 49.714 34.4136 49.4412C34.0872 49.1684 33.8618 48.794 33.7734 48.3779C33.7734 48.3779 35.2044 48.5057 35.5734 49.8827Z" fill="#37474F"/>
    <path d="M41.0898 49.1405C40.9388 49.537 40.6596 49.8717 40.2967 50.0915C39.9337 50.3112 39.5078 50.4035 39.0864 50.3537C39.0864 50.3537 39.666 49.0379 41.0898 49.1405Z" fill="#37474F"/>
    <path d="M37.5598 46.0895C37.1803 45.8992 36.8754 45.5875 36.6937 45.2038C36.512 44.8202 36.4639 44.3868 36.5572 43.9727C36.5572 43.9727 37.7992 44.6837 37.5598 46.0895Z" fill="#37474F"/>
    <path d="M32.1567 53.7949L32.3025 55.5301L32.7507 60.8203H37.5495L37.9977 55.5301L38.1435 53.7949H32.1567Z" fill="#455A64"/>
    <path d="M32.1567 53.7949L32.3025 55.5301H37.9977L38.1435 53.7949H32.1567Z" fill="#263238"/>
    <path d="M31.6847 54.7617H38.6147V53.0967H31.6847V54.7617Z" fill="#455A64"/>
    <path d="M17.6596 62.8909H19.5676C19.5676 62.8909 18.349 61.1917 18.0736 60.2809C17.6668 58.9345 18.538 57.4333 19.2778 56.9635C19.7422 56.6719 20.2408 57.0625 20.878 56.9077C21.6628 56.7277 21.6448 56.0617 21.6142 55.9969C21.5836 55.9321 21.4738 56.5693 21.0976 56.6953C20.2354 56.9851 19.942 56.3353 19.1698 56.5963C19.1698 56.5963 19.1986 55.5559 18.3958 55.0753C18.2518 54.9889 18.727 55.4839 18.853 56.0689C18.9093 56.2654 18.9152 56.473 18.8702 56.6724C18.8252 56.8718 18.7308 57.0567 18.5956 57.2101C18.3202 57.5341 17.5948 58.1839 17.5588 59.3593C17.5228 60.5347 17.9548 62.4049 17.6596 62.8909Z" fill="#FFC73B"/>
    <g opacity="0.5">
        <path d="M17.6596 62.8909H19.5676C19.5676 62.8909 18.349 61.1917 18.0736 60.2809C17.6668 58.9345 18.538 57.4333 19.2778 56.9635C19.7422 56.6719 20.2408 57.0625 20.878 56.9077C21.6628 56.7277 21.6448 56.0617 21.6142 55.9969C21.5836 55.9321 21.4738 56.5693 21.0976 56.6953C20.2354 56.9851 19.942 56.3353 19.1698 56.5963C19.1698 56.5963 19.1986 55.5559 18.3958 55.0753C18.2518 54.9889 18.727 55.4839 18.853 56.0689C18.9093 56.2654 18.9152 56.473 18.8702 56.6724C18.8252 56.8718 18.7308 57.0567 18.5956 57.2101C18.3202 57.5341 17.5948 58.1839 17.5588 59.3593C17.5228 60.5347 17.9548 62.4049 17.6596 62.8909Z" fill="black"/>
    </g>
    <path d="M15.4365 60.0312L15.5823 61.7665L16.0305 67.0566H20.8293L21.2775 61.7665L21.4233 60.0312H15.4365Z" fill="#455A64"/>
    <path d="M15.4365 60.0312L15.5823 61.7665H21.2775L21.4233 60.0312H15.4365Z" fill="#263238"/>
    <path d="M14.9645 61H21.8945V59.335H14.9645V61Z" fill="#455A64"/>
    <path d="M7.2666 80.6125L16.7004 80.5675L26.1324 80.5531L45 80.5225L63.8676 80.5513L73.3014 80.5675L82.7334 80.6125L73.3014 80.6557L63.8676 80.6719L45 80.7025L26.1324 80.6719L16.7004 80.6557L7.2666 80.6125Z" fill="#263238"/>
    <path d="M47.4173 17.4011C47.4173 17.4191 47.4443 17.4173 47.4443 17.4011C47.4695 16.5515 48.3065 15.9863 48.2795 15.1205C48.256 14.7382 48.1243 14.3705 47.8997 14.0603C47.7513 13.8605 47.5902 13.6705 47.4173 13.4915L47.3489 13.3979C47.2003 13.204 47.0689 12.9974 46.9565 12.7805C46.8418 12.5251 46.773 12.2515 46.7531 11.9723C46.6973 11.4323 46.6793 10.8923 46.3067 10.4747C45.9803 10.1353 45.5585 9.903 45.0971 9.80869C44.0783 9.56029 42.8651 9.73849 42.1901 10.6115C42.0717 10.7657 41.977 10.9368 41.9093 11.1191C41.5423 11.4039 41.2731 11.7958 41.1389 12.2405C40.9805 12.8525 41.3891 13.3529 41.3513 13.6589C41.3189 13.9271 41.1533 14.1575 41.0453 14.3987C40.929 14.6027 40.8279 14.8151 40.7429 15.0341C40.6425 15.3418 40.6344 15.6722 40.7195 15.9845C40.7821 16.2711 40.9137 16.538 41.1029 16.7621C41.2931 16.9633 41.5366 17.1062 41.8049 17.1743C41.8679 17.1941 41.9327 17.2121 41.9975 17.2283C42.2207 17.3507 42.4637 17.4425 42.6779 17.5883C42.9118 17.745 43.0802 17.9819 43.1513 18.2543C43.2251 18.5063 43.2503 18.7691 43.3061 19.0247C43.3554 19.2629 43.4508 19.4891 43.5869 19.6907C43.8665 20.0848 44.2683 20.3759 44.7299 20.5187C45.2689 20.6771 45.8391 20.6969 46.3877 20.5763C46.6329 20.5441 46.8687 20.4614 47.0803 20.3334C47.2919 20.2055 47.4747 20.035 47.6171 19.8329C47.7353 19.6448 47.8124 19.4339 47.8435 19.214C47.8745 18.9941 47.8587 18.7701 47.7971 18.5567C47.7009 18.3055 47.5803 18.0644 47.4371 17.8367C47.3054 17.6052 47.2494 17.3384 47.2769 17.0735C47.3993 16.2005 48.2399 15.5183 48.0221 14.5805C47.9586 14.3422 47.8551 14.1164 47.7161 13.9127C47.9759 14.2152 48.1461 14.5843 48.2075 14.9783C48.24 15.4049 48.1271 15.83 47.8871 16.1843C47.6693 16.5605 47.4119 16.9493 47.4173 17.4011ZM41.8373 17.1383C41.4688 17.0403 41.1542 16.8001 40.9625 16.4705C40.7524 16.1011 40.6689 15.6731 40.7249 15.2519C40.7667 15.0529 40.8364 14.8608 40.9319 14.6813C40.9316 14.6765 40.9316 14.6717 40.9319 14.6669C40.8962 14.7953 40.8721 14.9266 40.8599 15.0593C40.8277 15.4859 40.9117 15.9132 41.1029 16.2959C41.2717 16.6391 41.5281 16.9316 41.8463 17.1437L41.8373 17.1383Z" fill="#263238"/>
    <path d="M43.7799 17.6064C44.4855 21.1596 46.2819 24.2772 47.3367 24.5202C48.8487 24.8658 52.8825 24.405 54.7167 23.8614C55.2567 23.7012 53.9301 19.5414 53.3541 19.7052C52.6593 19.9104 48.6183 20.8536 48.5463 20.8518C48.3897 20.8518 45.9615 17.6244 45.3801 16.7892C44.3127 15.2592 43.3965 15.6732 43.7799 17.6064Z" fill="#F7A9A0"/>
    <path d="M56.9761 23.1921C56.2093 23.6565 54.2761 23.9949 53.7739 23.8959C53.2717 23.7969 52.5913 20.5227 52.9297 20.1267C53.2681 19.7307 55.9681 18.3609 56.8807 18.4833C57.7933 18.6057 57.7681 22.7115 56.9761 23.1921Z" fill="#F7A9A0"/>
    <path d="M65.9633 20.3262L65.6177 21.93L66.9767 22.7544L65.9633 20.3262Z" fill="#37474F"/>
    <path d="M62.1744 22.9696L61.1592 25.0612L66.0156 22.174L65.6844 21.6484L62.1744 22.9696Z" fill="#455A64"/>
    <path d="M58.9751 20.7172C58.9751 20.7172 58.1399 17.6986 57.3299 17.5186C56.5199 17.3386 54.9341 22.1536 56.4299 23.662C56.9069 24.148 57.8591 23.9626 57.8591 23.9626L58.9751 20.7172ZM56.6999 23.2624C55.5389 22.0888 56.7287 18.0622 57.3605 18.2008C57.9923 18.3394 58.6799 20.9692 58.6799 20.9692L57.8069 23.4892C57.8069 23.4892 57.0707 23.6386 56.6999 23.2624Z" fill="#455A64"/>
    <path d="M62.3868 26.4283L57.0264 25.4239L59.388 17.6533L62.8206 18.3283L62.3868 26.4283Z" fill="#37474F"/>
    <path d="M59.3873 17.6521L58.9463 16.9717L63.3509 17.7475L62.8199 18.3271L59.3873 17.6521Z" fill="#455A64"/>
    <path d="M66.624 20.6216C66.624 20.6216 67.092 19.997 67.245 20.2616C67.398 20.5262 66.624 20.6216 66.624 20.6216Z" fill="#455A64"/>
    <path d="M66.7803 21.619C66.7803 21.619 67.3455 21.079 67.4517 21.3706C67.5579 21.6622 66.7803 21.619 66.7803 21.619Z" fill="#455A64"/>
    <path d="M67.7017 20.9458C67.7017 20.9458 68.4091 20.62 68.4217 20.926C68.4343 21.232 67.7017 20.9458 67.7017 20.9458Z" fill="#455A64"/>
    <path d="M68.0977 21.7193C68.0977 21.7193 68.8303 21.4529 68.8177 21.7607C68.8051 22.0685 68.0977 21.7193 68.0977 21.7193Z" fill="#455A64"/>
    <path d="M68.0776 20.2861C68.0776 20.2861 68.7148 19.8361 68.7796 20.1367C68.8444 20.4373 68.0776 20.2861 68.0776 20.2861Z" fill="#455A64"/>
    <path d="M68.9585 20.9145C68.9585 20.9145 69.7037 20.6823 69.6785 20.9883C69.6533 21.2943 68.9585 20.9145 68.9585 20.9145Z" fill="#455A64"/>
    <path d="M67.1401 22.6816C67.1401 22.6816 67.9123 22.7968 67.7503 23.0578C67.5883 23.3188 67.1401 22.6816 67.1401 22.6816Z" fill="#455A64"/>
    <path d="M68.7817 23.9756C68.7817 23.9756 69.3703 24.4886 69.0931 24.6218C68.8159 24.755 68.7817 23.9756 68.7817 23.9756Z" fill="#455A64"/>
    <path d="M67.9019 23.4873C67.9019 23.4873 68.5787 23.8761 68.3321 24.0597C68.0855 24.2433 67.9019 23.4873 67.9019 23.4873Z" fill="#455A64"/>
    <path d="M67.4175 22.2474C67.4175 22.2474 68.1861 22.1214 68.1123 22.4274C68.0385 22.7334 67.4175 22.2474 67.4175 22.2474Z" fill="#455A64"/>
    <path d="M68.3999 22.8701C68.3999 22.8701 69.1199 23.1509 68.9129 23.3705C68.7059 23.5901 68.3999 22.8701 68.3999 22.8701Z" fill="#455A64"/>
    <path d="M55.4399 18.5816C55.2203 19.001 55.8413 19.019 55.8413 19.019C55.8413 19.019 54.9413 19.199 54.8819 19.739C54.8225 20.279 55.5767 20.2376 55.6307 20.2376C55.5839 20.2484 54.7613 20.4428 54.7559 20.9738C54.7505 21.5048 55.5047 21.3896 55.5533 21.3806C55.5101 21.4058 54.9629 21.7406 55.0511 22.1348C55.2005 22.8278 56.6243 22.0322 57.1697 22.2122C57.1697 22.2122 56.9717 23.1716 56.9717 23.2004C56.9717 23.2004 58.3415 22.4804 58.5413 21.7226C58.5723 21.6143 58.5653 21.4985 58.5214 21.3947C58.4776 21.2909 58.3994 21.2053 58.3001 21.152C58.3001 21.152 58.7681 20.972 58.7861 20.549C58.7861 20.3348 58.4585 20.1296 58.4585 20.1296C58.5625 20.0816 58.6511 20.0057 58.7146 19.9104C58.7782 19.8151 58.8141 19.7041 58.8185 19.5896C58.8185 19.2926 58.4765 19.136 58.4765 19.136C58.4765 19.136 58.7573 18.8138 58.6565 18.5114C58.4513 17.8976 55.9151 17.6816 55.4399 18.5816Z" fill="#F7A9A0"/>
    <path d="M58.4769 20.1167C58.4859 20.1167 58.4895 20.1023 58.4769 20.0987C57.5389 19.7895 56.5212 19.8259 55.6077 20.2013C55.5771 20.2157 55.5627 20.2607 55.6077 20.2463C56.2341 20.0213 57.6651 19.9799 58.4769 20.1167Z" fill="#263238"/>
    <path d="M55.5018 21.421C56.4018 21.061 57.3198 21.0286 58.2702 21.1276C58.2828 21.1276 58.2846 21.1114 58.2702 21.1078C57.8184 20.9278 57.2046 20.9278 56.7276 20.971C56.2843 21.0011 55.8564 21.1456 55.4856 21.3904C55.4748 21.403 55.4838 21.4318 55.5018 21.421Z" fill="#263238"/>
    <path d="M55.8447 19.0195C55.6757 19.0724 55.5118 19.1404 55.3551 19.2229C55.1995 19.2961 55.066 19.4091 54.9681 19.5505C54.9271 19.6186 54.9124 19.6992 54.9267 19.7773C54.9433 19.8552 54.9792 19.9276 55.0311 19.9879C55.0876 20.0438 55.1554 20.0871 55.2298 20.115C55.3042 20.1429 55.3837 20.1548 55.4631 20.1499H55.8519L55.4919 20.2921C55.3299 20.3535 55.1791 20.4411 55.0455 20.5513C54.9812 20.5992 54.9277 20.6599 54.8883 20.7297C54.849 20.7994 54.8246 20.8766 54.8169 20.9563C54.8105 21.0306 54.8299 21.1049 54.8719 21.1665C54.9138 21.2282 54.9758 21.2735 55.0473 21.2947C55.2075 21.3398 55.3766 21.3435 55.5387 21.3055L55.9905 21.2137L55.5963 21.4459C55.4865 21.5115 55.3849 21.5901 55.2939 21.6799C55.205 21.7627 55.1424 21.8697 55.1139 21.9877C55.1032 22.0412 55.1079 22.0966 55.1273 22.1475C55.1467 22.1985 55.1801 22.2429 55.2237 22.2757C55.3331 22.3376 55.4583 22.3658 55.5837 22.3567C55.8505 22.3447 56.1159 22.3116 56.3775 22.2577C56.5107 22.2361 56.6439 22.2127 56.7789 22.1965C56.9128 22.1733 57.0501 22.1782 57.1821 22.2109C57.0492 22.1935 56.9142 22.2014 56.7843 22.2343C56.6529 22.2595 56.5215 22.2919 56.3901 22.3243C56.127 22.3973 55.8576 22.4455 55.5855 22.4683C55.4383 22.4821 55.2902 22.4534 55.1589 22.3855C55.0911 22.3405 55.038 22.2766 55.006 22.2018C54.974 22.127 54.9646 22.0444 54.9789 21.9643C55.0108 21.8171 55.0853 21.6826 55.1931 21.5773C55.2919 21.4755 55.4032 21.3866 55.5243 21.3127L55.5819 21.4549C55.3907 21.5053 55.1898 21.5053 54.9987 21.4549C54.894 21.4218 54.8038 21.3538 54.7431 21.2623C54.6874 21.1703 54.6604 21.0638 54.6657 20.9563C54.6753 20.8555 54.7061 20.7579 54.7561 20.6698C54.806 20.5817 54.8739 20.5052 54.9555 20.4451C55.1003 20.3245 55.2638 20.2285 55.4397 20.1607L55.4667 20.2957C55.3677 20.2983 55.2694 20.2791 55.1786 20.2396C55.0878 20.2002 55.0067 20.1413 54.9411 20.0671C54.8809 19.989 54.8418 19.8966 54.8277 19.7989C54.8132 19.6994 54.8363 19.598 54.8925 19.5145C55.0045 19.3663 55.1561 19.2528 55.3299 19.1869C55.4944 19.1114 55.6672 19.0552 55.8447 19.0195Z" fill="#263238"/>
    <path d="M53.3486 19.8135C53.3486 19.8135 55.5608 16.7229 56.3402 18.1809C56.5742 18.6129 57.0152 20.6685 56.603 20.7639C56.063 20.8881 55.7282 20.0655 55.595 19.5147C55.595 19.5147 54.9902 20.6721 54.0596 20.4903C53.8902 20.454 53.7342 20.3716 53.6087 20.2521C53.4832 20.1327 53.3932 19.9809 53.3486 19.8135Z" fill="#F7A9A0"/>
    <path d="M56.2723 18.0615C56.3831 18.2204 56.4704 18.3944 56.5315 18.5781C56.5982 18.7606 56.6518 18.9477 56.6917 19.1379C56.7802 19.5169 56.8344 19.903 56.8537 20.2917C56.8595 20.3951 56.8504 20.4987 56.8267 20.5995C56.8121 20.6575 56.7851 20.7115 56.7475 20.7579C56.7269 20.783 56.7026 20.8049 56.6755 20.8227C56.6472 20.8386 56.6169 20.8507 56.5855 20.8587C56.4716 20.8825 56.3531 20.8653 56.2507 20.8101C56.1576 20.7582 56.0742 20.6906 56.0041 20.6103C55.8757 20.4551 55.7746 20.2792 55.7053 20.0901C55.6314 19.9077 55.5712 19.7199 55.5253 19.5285L55.6495 19.5411C55.5765 19.6694 55.4909 19.79 55.3939 19.9011C55.3006 20.0161 55.1957 20.1211 55.0807 20.2143C54.9634 20.3046 54.8336 20.3773 54.6955 20.4303C54.559 20.4835 54.4135 20.5098 54.2671 20.5077C54.4097 20.4907 54.5484 20.4499 54.6775 20.3871C54.8036 20.3242 54.9205 20.2442 55.0249 20.1495C55.1308 20.0559 55.2267 19.9516 55.3111 19.8381C55.3964 19.7256 55.4706 19.605 55.5325 19.4781L55.6099 19.3233L55.6585 19.4925C55.7069 19.6762 55.767 19.8566 55.8385 20.0325C55.9067 20.2037 56.0008 20.3633 56.1175 20.5059C56.1651 20.5724 56.229 20.6256 56.3031 20.6602C56.3772 20.6949 56.4589 20.71 56.5405 20.7039C56.6701 20.6841 56.6953 20.4735 56.6953 20.2935C56.6924 20.104 56.6798 19.9148 56.6575 19.7265C56.6395 19.5465 56.6179 19.3467 56.5855 19.1577C56.5386 18.7783 56.433 18.4084 56.2723 18.0615Z" fill="#263238"/>
    <path d="M50.2885 20.3983L50.5801 24.8029C50.5801 24.8029 47.6785 25.1935 46.8775 24.5293C46.0765 23.8651 44.2279 20.5999 43.7779 18.0151C43.3279 15.4303 44.2567 15.0361 45.7705 17.2321C47.2843 19.4281 48.4921 20.7763 48.5641 20.7727C48.6361 20.7691 50.2885 20.3983 50.2885 20.3983Z" fill="#FFC73B"/>
    <path d="M49.5003 20.7509C49.5003 20.7475 49.499 20.7443 49.4967 20.742C49.4943 20.7396 49.4911 20.7383 49.4877 20.7383C49.4844 20.7383 49.4812 20.7396 49.4788 20.742C49.4765 20.7443 49.4751 20.7475 49.4751 20.7509C49.473 22.0473 49.5421 23.3428 49.6822 24.6317C49.6822 24.6461 49.7073 24.6443 49.7073 24.6317C49.7086 23.3353 49.6395 22.0398 49.5003 20.7509Z" fill="#263238"/>
    <path opacity="0.1" d="M48.1994 24.8966C47.6486 24.857 47.1482 24.7508 46.88 24.5366C46.079 23.8706 44.2304 20.609 43.7786 18.0224C43.451 16.154 43.847 15.4304 44.6624 16.0028L48.1994 24.8966Z" fill="black"/>
    <path d="M41.2341 61.2553C40.8885 61.2949 31.6527 59.3257 31.3485 59.0269C31.2315 58.9171 31.4403 57.5545 31.7391 55.9147C31.7399 55.8979 31.7399 55.8811 31.7391 55.8643C31.8003 55.5259 33.4275 49.8721 33.4275 49.8721L39.4467 51.2905L37.7223 57.0613L37.6971 57.1621C37.6971 57.1621 40.8957 59.5021 41.1963 59.8621C41.4969 60.2221 41.5797 61.2157 41.2341 61.2553Z" fill="#F7A9A0"/>
    <path d="M31.5935 56.7295C31.3775 57.9895 31.2515 58.9345 31.3487 59.0263C31.6529 59.3269 40.8887 61.2943 41.2361 61.2547C41.5835 61.2151 41.4935 60.2269 41.1965 59.8651C41.0165 59.6437 39.7565 58.6915 38.7989 57.9787C39.4397 58.4971 40.3613 59.7373 36.4085 58.4683C33.9695 57.6835 32.4449 57.0895 31.5935 56.7295Z" fill="#263238"/>
    <path d="M44.7298 23.4014C44.7298 23.4014 45.2464 27.815 44.3356 28.8212C44.3356 28.8212 42.9334 38.8256 42.3556 41.7542C41.5942 45.617 38.5198 55.4612 38.5198 55.4612L31.9336 53.8682C31.9336 53.8682 36.0952 41.3276 36.1276 41.0756C36.3076 39.6464 37.3876 29.723 37.3012 29.4782C36.1798 26.3138 37.6702 23.4014 37.6702 23.4014H44.7298Z" fill="#37474F"/>
    <path d="M38.3944 53.689C37.4764 53.437 37.7446 53.491 36.823 53.2516C36.373 53.1346 33.403 52.366 32.9656 52.3516C32.9548 52.3516 32.9512 52.3732 32.9656 52.3768C33.3652 52.573 36.3442 53.2768 36.7978 53.3794C37.7248 53.5954 37.462 53.5198 38.3926 53.7232C38.4016 53.7286 38.4106 53.6944 38.3944 53.689Z" fill="#263238"/>
    <path d="M37.6885 52.6006L39.6829 45.5806L40.1761 43.8238L40.4173 42.9436C40.5006 42.6534 40.5655 42.3582 40.6117 42.0598C40.7917 40.8574 40.9429 39.6496 41.1013 38.4436L42.0715 31.2094L42.3145 29.4004L42.4387 28.5004C42.4621 28.3474 42.4783 28.2016 42.5053 28.0432C42.5202 27.9715 42.5293 27.8987 42.5323 27.8254V27.5986C42.5575 26.3836 42.5503 25.165 42.5449 23.9482C42.5719 25.165 42.6025 26.3818 42.5989 27.5986C42.5989 27.676 42.5989 27.7516 42.5989 27.829C42.5946 27.9075 42.5856 27.9857 42.5719 28.063C42.5485 28.2034 42.5305 28.3618 42.5089 28.5094L42.3901 29.4094L42.1579 31.2184L41.2327 38.4598C41.0671 39.6658 40.9051 40.87 40.7197 42.0742C40.6721 42.3783 40.6048 42.6789 40.5181 42.9742L40.2715 43.8544L39.7675 45.6076L38.7415 49.1104L37.6885 52.6006Z" fill="#263238"/>
    <path d="M44.3339 28.8176C44.3339 28.8176 43.7831 32.7506 43.2305 36.4046L37.6685 23.4014H44.7299C44.7299 23.4014 45.2447 27.8114 44.3339 28.8176Z" fill="#263238"/>
    <path d="M55.6201 54.6079C55.2907 54.7159 45.8461 54.6421 45.4897 54.4099C45.3529 54.3253 46.3681 45.9355 46.3681 45.9355L52.4017 46.1947L51.3361 51.3139C51.3361 51.3139 54.9361 52.9591 55.2961 53.2543C55.6561 53.5495 55.9477 54.4999 55.6201 54.6079Z" fill="#F7A9A0"/>
    <path d="M55.6197 54.6052C55.4739 54.6538 53.5695 54.6664 51.4491 54.6466H51.0279L49.9389 54.6323L49.5177 54.6232L49.1037 54.6143L48.4845 54.5998L48.0975 54.589L47.7267 54.5782C47.5467 54.5782 47.3667 54.5675 47.2065 54.5585L46.8789 54.5458C46.6737 54.5368 46.4865 54.526 46.3209 54.5152C46.2363 54.5152 46.1571 54.5044 46.0851 54.499C45.9051 54.4846 45.7593 54.4702 45.6603 54.454C45.607 54.4489 45.5548 54.4355 45.5055 54.4144C45.4569 54.3856 45.4875 53.3632 45.5469 52.0348C46.4577 52.249 48.1263 52.5839 50.6769 52.9511C54.8709 53.5541 53.6199 52.4254 52.9089 52.042L52.8873 52.0312L53.0205 52.0943L53.0439 52.1032L53.2869 52.2202L53.5533 52.3462C53.6991 52.4164 53.8467 52.4867 53.9871 52.5569C54.1275 52.6271 54.2661 52.6918 54.3939 52.7566L54.6171 52.8665L54.7197 52.9205L54.8547 52.9907C54.9483 53.0393 55.0347 53.0843 55.1031 53.1257C55.1208 53.1329 55.1377 53.1419 55.1535 53.1527C55.211 53.1845 55.2663 53.2199 55.3191 53.2589C55.6629 53.5469 55.9473 54.499 55.6197 54.6052Z" fill="#263238"/>
    <path d="M52.1245 48.9609L45.8029 49.0383C45.8029 49.0383 47.3689 37.5723 47.2051 37.0287C47.1421 36.8163 39.4651 29.8611 39.4651 29.8611C36.7147 27.1503 37.6651 23.3955 37.6651 23.3955H44.7301C44.7301 23.3955 44.8255 24.4971 45.1963 24.9147C47.3203 27.2979 52.7401 32.2209 53.5627 34.4169C54.6031 37.1655 52.1245 48.9609 52.1245 48.9609Z" fill="#37474F"/>
    <path d="M37.6886 25.8291C37.7104 26.2498 37.7885 26.6657 37.9208 27.0657C38.0469 27.4641 38.2127 27.8489 38.4158 28.2141C38.824 28.9458 39.3289 29.619 39.917 30.2157C40.493 30.8259 41.1212 31.3875 41.7458 31.9527C42.059 32.2359 42.3746 32.5155 42.6926 32.7915L43.6448 33.6249C43.3028 33.3783 42.9698 33.1173 42.635 32.8599C42.3002 32.6025 41.9798 32.3199 41.654 32.0589C41.0096 31.5189 40.3796 30.9465 39.7874 30.3381C39.1932 29.7274 38.6905 29.0338 38.2952 28.2789C37.8905 27.5262 37.6819 26.6837 37.6886 25.8291Z" fill="#263238"/>
    <path d="M43.0905 23.9414C43.0759 24.2128 43.0959 24.485 43.1499 24.7514C43.1739 24.8837 43.2176 25.0117 43.2795 25.1312C43.3569 25.241 43.4487 25.3436 43.5369 25.4462C43.8969 25.853 44.2569 26.249 44.6367 26.6468L46.8615 29.03C47.6055 29.8232 48.3417 30.623 49.0701 31.4294C49.8009 32.2358 50.5281 33.0494 51.2301 33.881C51.4101 34.0916 51.5739 34.304 51.7359 34.5254C51.8151 34.637 51.8943 34.7486 51.9663 34.871C52.005 34.9331 52.0346 35.0004 52.0545 35.0708C52.0737 35.1382 52.0888 35.2067 52.0995 35.276C52.1608 35.821 52.1729 36.3704 52.1355 36.9176C52.0815 37.9976 51.9699 39.0884 51.8367 40.1666C51.5685 42.3266 51.2301 44.474 50.8485 46.6124C51.0177 45.5396 51.1749 44.4644 51.3201 43.3868C51.4713 42.3068 51.6117 41.2268 51.7323 40.1468C51.8529 39.0668 51.9645 37.9868 52.0131 36.9068C52.0474 36.3666 52.0336 35.8245 51.9717 35.2868C51.9615 35.2219 51.9477 35.1576 51.9303 35.0942C51.9124 35.0345 51.8863 34.9776 51.8529 34.925C51.7863 34.8116 51.7089 34.7018 51.6297 34.592C51.4695 34.376 51.2985 34.1654 51.1275 33.9566C49.7397 32.288 48.2475 30.6986 46.7931 29.0966L44.5953 26.6882C44.2353 26.2832 43.8753 25.8782 43.5153 25.4624C43.4289 25.358 43.3353 25.2554 43.2633 25.142C43.2014 25.0191 43.1589 24.8873 43.1373 24.7514C43.0878 24.4844 43.0721 24.2123 43.0905 23.9414Z" fill="#263238"/>
    <path d="M51.6319 47.4618C50.7481 47.4348 51.0019 47.4258 50.1181 47.4132C49.6861 47.4132 46.8421 47.3718 46.4389 47.4672C46.4299 47.4672 46.4299 47.4906 46.4389 47.4924C46.8439 47.586 49.6789 47.5518 50.1181 47.5464C51.0019 47.5338 50.7481 47.523 51.6319 47.4978C51.6499 47.4978 51.6499 47.4618 51.6319 47.4618Z" fill="#263238"/>
    <path d="M45.1225 22.2852L44.7733 23.4012C44.7733 23.4012 40.0069 23.907 37.6885 23.4012C37.6885 23.4012 39.3247 17.7366 42.0085 16.1706C43.3477 15.3876 44.5033 15.8322 45.0217 16.8258C45.1531 17.0778 46.1017 19.4952 46.1017 20.5104C46.0999 21.5868 45.1225 22.2852 45.1225 22.2852Z" fill="#FFC73B"/>
    <path d="M45.0689 21.7897C44.753 21.76 44.4358 21.7474 44.1185 21.7519C43.9583 21.7519 43.8017 21.7681 43.6433 21.7843L43.4165 21.8131C43.3355 21.8239 43.2527 21.8455 43.1699 21.8563C43.1699 21.8563 43.1699 21.8707 43.1699 21.8689C43.2473 21.8689 43.3283 21.8689 43.4057 21.8689H43.6433L44.1185 21.8527C44.4353 21.8401 44.7503 21.8293 45.0671 21.8257C45.0869 21.8149 45.0851 21.7915 45.0689 21.7897Z" fill="#263238"/>
    <path d="M41.7604 16.3361C38.5078 18.2423 35.5144 20.6813 35.4604 21.8333C35.3974 23.3849 36.9274 26.7167 37.8814 28.3727C38.1622 28.8605 41.9044 26.6033 41.6056 26.0813C41.2456 25.4531 39.3232 22.2275 39.307 22.1573C39.2746 22.0043 41.791 18.4727 42.4138 17.6447C43.465 16.2605 43.2004 15.4901 41.7604 16.3361Z" fill="#F7A9A0"/>
    <path d="M44.3523 30.7476C44.2659 30.8532 44.1491 30.9297 44.0177 30.9667C43.8864 31.0037 43.7468 30.9995 43.618 30.9546C43.5962 31.1854 43.4943 31.4013 43.33 31.5648C43.0276 31.8402 42.4642 31.4856 42.4642 31.4856C42.3918 31.7198 42.2506 31.9267 42.0592 32.0796C41.7424 32.3136 41.1232 32.0364 41.1232 32.0364C40.937 32.2149 40.6931 32.3209 40.4356 32.3352C39.748 32.346 39.1756 31.4604 38.8156 30.8952C38.4556 30.33 37.9264 28.4076 37.7896 28.0494L41.3554 25.6572C41.3554 25.6572 43.7188 27.693 44.0554 28.4112C44.338 29.0232 44.6691 30.3318 44.3523 30.7476Z" fill="#F7A9A0"/>
    <path d="M43.6589 30.8904C43.5095 30.1704 43.1567 29.5404 42.8399 28.8888C42.8399 28.8744 42.8093 28.8888 42.8165 28.9014C43.1387 29.5458 43.3295 30.246 43.6265 30.9012C43.6288 30.9042 43.632 30.9065 43.6356 30.9076C43.6392 30.9087 43.643 30.9087 43.6466 30.9075C43.6502 30.9063 43.6533 30.904 43.6555 30.9009C43.6577 30.8979 43.6589 30.8942 43.6589 30.8904Z" fill="#263238"/>
    <path d="M42.5039 31.4409C42.4544 31.2813 42.3842 31.1288 42.2951 30.9873C42.2087 30.8325 42.1151 30.6795 42.0305 30.5283C41.8505 30.2223 41.6705 29.9235 41.4671 29.6283C41.4581 29.6157 41.4365 29.6283 41.4455 29.6391C41.6255 29.9433 41.8055 30.2493 41.9657 30.5607C42.0485 30.7155 42.1313 30.8721 42.2123 31.0287C42.2788 31.1821 42.3621 31.3276 42.4607 31.4625C42.4644 31.4665 42.4693 31.4691 42.4747 31.4701C42.48 31.471 42.4855 31.4702 42.4904 31.4678C42.4952 31.4654 42.4992 31.4615 42.5016 31.4566C42.504 31.4518 42.5048 31.4463 42.5039 31.4409Z" fill="#263238"/>
    <path d="M41.1162 32.0235C41.0689 31.88 40.9977 31.7455 40.9056 31.6257C40.821 31.4889 40.7365 31.3521 40.6537 31.2135C40.4863 30.9381 40.3189 30.6627 40.1605 30.3801C40.1605 30.3657 40.1317 30.3801 40.1389 30.3909C40.2973 30.6789 40.452 30.9669 40.6122 31.2531L40.8606 31.6815C40.9231 31.8152 41.0084 31.937 41.1126 32.0415C41.1126 32.0415 41.118 32.0307 41.1162 32.0235Z" fill="#263238"/>
    <path d="M40.3364 23.7606L36.1298 25.5318C36.1298 25.5318 35.1308 22.497 35.4998 21.5214C35.8688 20.5458 38.8532 17.8314 41.1482 16.5606C43.4432 15.2898 43.7258 16.071 42.1454 18.2184C40.565 20.3658 39.4454 22.0704 39.4796 22.137C39.5138 22.2036 40.3364 23.7606 40.3364 23.7606Z" fill="#FFC73B"/>
    <path d="M39.6668 22.9577C39.6794 22.9577 39.6668 22.9289 39.656 22.9343C38.4332 23.3663 37.235 23.8651 36.0668 24.4283C36.0542 24.4283 36.0668 24.4553 36.0776 24.4517C37.3001 24.0188 38.4982 23.5201 39.6668 22.9577Z" fill="#263238"/>
    <path d="M40.3361 23.7607C40.1795 23.4979 40.0283 23.2333 39.8771 22.9687L39.4289 22.1695L39.4199 22.1407L39.4397 22.1119L40.0643 21.1741C40.2731 20.8609 40.4891 20.5531 40.7015 20.2435C40.9139 19.9339 41.1317 19.6261 41.3495 19.3219C41.5673 19.0177 41.7905 18.7117 42.0155 18.4219C41.8193 18.7423 41.6213 19.0627 41.4179 19.3777C41.2145 19.6927 41.0111 20.0095 40.8005 20.3209C40.5899 20.6323 40.3883 20.9473 40.1741 21.2569L39.5351 22.1839V22.1263L39.9455 22.9435C40.0733 23.2045 40.2083 23.4799 40.3361 23.7607Z" fill="#263238"/>
    <path d="M41.3999 19.3154C41.48 19.2013 41.5724 19.0963 41.6753 19.0022C41.7766 18.9065 41.8856 18.8192 42.0011 18.7412C41.9682 18.8058 41.9277 18.8662 41.8805 18.9212C41.8359 18.9742 41.7884 19.0247 41.7383 19.0724C41.6359 19.1669 41.5222 19.2485 41.3999 19.3154Z" fill="#263238"/>
    <path d="M43.2275 15.9767C43.2455 16.1351 43.8575 17.2223 44.5631 17.2745C44.7935 17.2907 44.9411 16.0397 44.9411 16.0397L44.9735 15.9497L45.4199 14.6897L44.0195 13.5287L43.8143 13.3721C43.8143 13.3721 43.7153 13.7321 43.5947 14.1659L43.5785 14.2289C43.5785 14.2541 43.5641 14.2757 43.5569 14.2991L43.5029 14.4989C43.4885 14.5511 43.4759 14.5997 43.4633 14.6537L43.4255 14.8157C43.3339 15.1979 43.2677 15.5857 43.2275 15.9767Z" fill="#F7A9A0"/>
    <path d="M43.5947 14.1659C43.6824 14.545 43.851 14.9007 44.089 15.2086C44.327 15.5165 44.6287 15.7693 44.9735 15.9497L45.4199 14.6897L44.0195 13.5287L43.8143 13.3721C43.8143 13.3721 43.7153 13.7249 43.5947 14.1659Z" fill="#263238"/>
    <path d="M47.3668 12.4598C47.7268 14.7764 46.3804 15.2552 45.88 15.3398C45.4264 15.41 43.873 15.59 43.2736 13.3238C42.6742 11.0576 43.6336 10.1558 44.6668 9.93981C45.7 9.72381 47.005 10.1414 47.3668 12.4598Z" fill="#F7A9A0"/>
    <path d="M46.8416 11.8815C46.7858 11.8815 46.7336 11.8815 46.6796 11.8815C46.622 11.8855 46.5647 11.871 46.5158 11.8401C46.5025 11.8274 46.4937 11.8106 46.4908 11.7924C46.4879 11.7742 46.491 11.7556 46.4996 11.7393C46.5223 11.7103 46.5522 11.6877 46.5863 11.6738C46.6204 11.6599 46.6575 11.6552 46.694 11.6601C46.7697 11.6597 46.8427 11.6872 46.8992 11.7375C46.9094 11.7497 46.9161 11.7645 46.9185 11.7802C46.921 11.7958 46.9192 11.8119 46.9133 11.8267C46.9074 11.8414 46.8976 11.8543 46.885 11.864C46.8724 11.8736 46.8574 11.8797 46.8416 11.8815Z" fill="#263238"/>
    <path d="M45.3446 12.326C45.3988 12.3245 45.4529 12.3203 45.5066 12.3134C45.5639 12.3176 45.621 12.3024 45.6686 12.2702C45.6816 12.2572 45.6901 12.2404 45.6927 12.2222C45.6953 12.204 45.6919 12.1855 45.683 12.1694C45.6602 12.1403 45.6299 12.1179 45.5953 12.1045C45.5608 12.0912 45.5233 12.0875 45.4868 12.0938C45.4113 12.0948 45.3389 12.1236 45.2834 12.1748C45.2717 12.1873 45.2639 12.2029 45.2608 12.2198C45.2577 12.2366 45.2594 12.254 45.2659 12.2699C45.2723 12.2857 45.2831 12.2995 45.2971 12.3094C45.311 12.3193 45.3275 12.3251 45.3446 12.326Z" fill="#263238"/>
    <path d="M45.7657 12.79C45.7657 12.79 45.7549 12.8008 45.7567 12.8062C45.7891 12.9628 45.8017 13.1464 45.6685 13.2256C45.8413 13.177 45.8215 12.9322 45.7657 12.79Z" fill="#263238"/>
    <path d="M45.5957 12.6511C45.3383 12.6781 45.4157 13.1911 45.6479 13.1641C45.8801 13.1371 45.8099 12.6295 45.5957 12.6511Z" fill="#263238"/>
    <path d="M45.4985 12.6918C45.4571 12.726 45.4211 12.7836 45.3689 12.7962C45.3167 12.8088 45.2519 12.7656 45.2051 12.7188C45.2177 12.8178 45.2699 12.9114 45.3761 12.9114C45.4823 12.9114 45.5309 12.816 45.5417 12.7134C45.5399 12.7026 45.5147 12.6774 45.4985 12.6918Z" fill="#263238"/>
    <path d="M46.6206 12.6143C46.6206 12.6143 46.6332 12.6143 46.6332 12.6251C46.6494 12.7853 46.6944 12.9635 46.8456 12.9977C46.6746 13.0049 46.6206 12.7673 46.6206 12.6143Z" fill="#263238"/>
    <path d="M46.7458 12.4198C46.9978 12.3676 47.086 12.8752 46.852 12.9238C46.618 12.9724 46.5334 12.472 46.7458 12.4198Z" fill="#263238"/>
    <path d="M46.8577 12.4442C46.9027 12.464 46.9513 12.5054 46.9981 12.5C47.0449 12.4946 47.0863 12.4316 47.1133 12.374C47.1133 12.374 47.1133 12.374 47.1223 12.374C47.1421 12.4712 47.1223 12.5774 47.0359 12.6116C46.9495 12.6458 46.8775 12.572 46.8379 12.4784C46.8307 12.4658 46.8397 12.4352 46.8577 12.4442Z" fill="#263238"/>
    <path d="M45.9492 14.041C45.9906 14.0734 46.032 14.122 46.0914 14.122C46.1505 14.1143 46.2074 14.0947 46.2588 14.0644C46.2588 14.0644 46.2678 14.0644 46.2588 14.0644C46.2388 14.0977 46.2101 14.1249 46.1759 14.1433C46.1417 14.1617 46.1032 14.1705 46.0644 14.1688C46.0317 14.1624 46.0015 14.1471 45.977 14.1245C45.9525 14.1019 45.9348 14.073 45.9258 14.041C45.9258 14.0379 45.927 14.0349 45.9292 14.0327C45.9314 14.0305 45.9344 14.0293 45.9375 14.0293C45.9406 14.0293 45.9436 14.0305 45.9458 14.0327C45.9479 14.0349 45.9492 14.0379 45.9492 14.041Z" fill="#263238"/>
    <path d="M46.5207 13.368C46.5207 13.368 46.5891 13.5984 46.6053 13.71C46.6053 13.7208 46.5819 13.7298 46.5441 13.737C46.4517 13.7677 46.3528 13.7729 46.2577 13.7519C46.1627 13.731 46.075 13.6848 46.0041 13.6182C45.9951 13.6092 46.0041 13.5948 46.0185 13.6002C46.175 13.6759 46.3519 13.6987 46.5225 13.665C46.5225 13.6326 46.3929 13.2744 46.4091 13.2708C46.4971 13.2647 46.5855 13.2707 46.6719 13.2888C46.5423 12.8046 46.3371 12.3438 46.2147 11.8596C46.2147 11.8416 46.2363 11.8326 46.2435 11.847C46.4791 12.3336 46.6655 12.8425 46.7997 13.3662C46.8087 13.4274 46.5675 13.3788 46.5207 13.368Z" fill="#263238"/>
    <path d="M43.2758 13.5009C43.6754 13.4865 43.6736 12.6441 43.6736 12.6441C43.6736 12.6441 44.48 12.5559 44.6132 11.3679C44.6303 11.7175 44.5439 12.0644 44.3648 12.3651C44.3648 12.3651 45.7688 12.0537 46.2332 10.7973C46.2332 10.7973 46.0532 11.4309 45.8642 11.6703C46.2119 11.5201 46.4982 11.256 46.676 10.9215C46.676 10.9215 47.0036 11.5785 47.216 11.7459C47.216 11.7459 46.8758 9.26729 44.6024 9.79289C44.6024 9.79289 43.1714 10.0503 42.7826 11.2509C42.3938 12.4515 43.2758 13.5009 43.2758 13.5009Z" fill="#263238"/>
    <path d="M43.7402 13.399C43.7402 13.399 43.2128 12.679 42.8852 12.859C42.5576 13.039 42.9626 14.101 43.355 14.2378C43.4042 14.2587 43.4571 14.2696 43.5105 14.2697C43.564 14.2697 43.6169 14.259 43.6661 14.2382C43.7153 14.2174 43.7599 14.1868 43.797 14.1484C43.8342 14.11 43.8632 14.0645 43.8824 14.0146L43.7402 13.399Z" fill="#F7A9A0"/>
    <path d="M43.0205 13.167C43.0205 13.167 43.0205 13.167 43.0205 13.1778C43.1491 13.2361 43.2638 13.3212 43.3569 13.4274C43.45 13.5335 43.5194 13.6583 43.5605 13.7934C43.5441 13.7664 43.522 13.7434 43.4958 13.7258C43.4696 13.7082 43.4399 13.6966 43.4088 13.6916C43.3776 13.6866 43.3458 13.6885 43.3154 13.6971C43.285 13.7056 43.2569 13.7207 43.2329 13.7412C43.2329 13.7412 43.2329 13.7574 43.2329 13.7556C43.2806 13.7392 43.3322 13.7379 43.3805 13.7521C43.4289 13.7663 43.4717 13.7952 43.5029 13.8348C43.5544 13.9016 43.599 13.9733 43.6361 14.049C43.6487 14.0742 43.6937 14.0598 43.6829 14.031C43.6703 13.68 43.3895 13.194 43.0205 13.167Z" fill="#263238"/>
    <path d="M44.9405 16.062L44.4095 17.0484L43.2737 15.6084L42.8633 15.9864C42.8633 15.9864 43.8857 18.2004 43.9037 18.1086L44.4293 17.2662L44.9693 17.9538L45.0953 16.395L44.9405 16.062Z" fill="white"/>
    <path d="M45.0793 17.1775C45.0901 16.9183 45.1099 16.6591 45.1099 16.4017C45.1099 16.3927 45.0955 16.3855 45.0937 16.4017C45.0145 16.6447 44.9731 17.6311 44.9461 17.8651C44.9227 17.8345 44.4367 17.2567 44.4313 17.2639C44.3233 17.3953 43.9381 18.0073 43.9111 18.0649C43.7491 17.7049 43.1227 16.4287 42.9229 16.0849C42.9229 16.0741 42.9031 16.0849 42.9067 16.0849C43.0435 16.4449 43.8679 18.1783 43.8841 18.1747C44.0831 17.8844 44.267 17.584 44.4349 17.2747C44.6071 17.5313 44.7971 17.7755 45.0037 18.0055C45.0427 17.7309 45.0679 17.4546 45.0793 17.1775Z" fill="#263238"/>
</svg>
