<svg width="521" height="327" viewBox="0 0 521 327" fill="none" xmlns="http://www.w3.org/2000/svg">
    <path d="M199.928 115.406C192.823 115.807 182.506 113.759 173.488 100.505C160.889 81.9903 137.435 84.9671 119.903 91.007C112.115 93.7518 104.487 97.2093 97.1504 101.319C93.8441 103.134 90.6076 105.091 87.4548 107.181C64.5262 122.782 50.9045 140.115 43.8388 157.438C36.828 174.589 36.4536 191.123 38.8208 205.256C41.0398 217.631 45.0771 229.326 50.8364 240.061C53.1045 244.34 55.2145 247.756 56.7882 250.132C73.1552 274.816 101.539 294.969 139.151 288.433C168.743 283.254 199.416 265.227 226.86 246.553C252.222 229.295 271.961 211.213 281.626 191.72C291.579 171.613 290.067 151.645 276.597 131.849C264.209 113.643 249.108 107.841 236.122 107.291C230.96 107.06 225.583 107.678 220.23 109.12C213.182 111.055 207.145 115.013 199.928 115.406Z" fill="#FFD092"/>
    <path d="M367.556 256.527C362.751 256.123 357.967 255.544 353.224 254.794L353.208 254.792L353.192 254.789C342.585 253.195 332.201 250.829 322.224 247.736L322.224 247.736C311.033 244.188 299.296 239.029 290.662 231.89C282.115 224.823 276.937 216.134 277.739 205.198C278.466 195.291 276.398 187.557 272.905 181.578C269.439 175.645 264.721 171.696 260.505 169.067L260.505 169.066C256.1 166.31 251.336 164.764 246.845 163.51C242.194 162.211 238.038 161.267 233.893 159.69L233.893 159.689C227.579 157.252 221.923 154.128 217.16 150.485L217.151 150.479C205.225 141.403 195.17 126.732 196.886 103.339C197.833 90.4284 201.7 79.7414 208.279 71.0532C214.868 62.3508 224.368 55.4056 236.962 50.2971C261.541 40.3446 295.467 38.4281 335.168 41.3404C378.282 44.5028 423.482 50.5332 457.226 66.8164L457.225 66.8164C499.229 87.1415 511.614 123.533 508.81 155.726C508.538 158.821 507.994 163.207 506.936 168.458L506.934 168.47L506.931 168.482C504.365 181.599 499.359 194.382 492 206.527C483.495 220.165 470.459 233.957 450.351 243.728L450.348 243.73C430.042 253.614 402.975 259.119 367.556 256.527Z" stroke="#1A78F2" stroke-width="8.53014"/>
    <path d="M381.712 40.1027C381.605 41.552 378.28 45.5571 377.154 46.6603L377.149 46.6555C377.138 46.6262 376.21 43.7682 375.17 41.8737C374.881 41.3489 374.59 40.894 374.296 40.6031C373.126 39.3975 370.887 38.824 369.038 38.5591C368.744 38.5201 368.463 38.486 368.2 38.4584C367.776 38.4129 367.389 38.3788 367.076 38.3691C366.473 38.3284 366.101 38.3349 366.085 38.3398C366.039 38.3739 363.987 38.1822 362.494 42.0199C360.993 45.8561 359.953 53.3821 359.953 53.3821C359.953 53.3821 350.199 43.8429 350.456 41.5016C350.704 39.2285 353.265 41.4009 353.416 41.5358C353.322 41.3668 351.51 38.3528 351.947 37.4055C352.407 36.4274 354.947 37.5973 354.947 37.5973C354.947 37.5973 352.471 32.7213 353.905 31.8033C355.333 30.8983 356.83 33.5012 356.83 33.5012C356.83 33.5012 356.633 26.0824 360.279 25.8176C363.917 25.5609 364.245 28.8169 364.245 28.8169C364.245 28.8169 367.44 24.1993 368.671 24.5876C369.874 24.9694 369.224 29.7122 369.194 29.9137C369.346 29.7902 371.749 27.7543 373.882 26.4951C374.4 26.1896 374.897 25.9313 375.343 25.7558C375.916 25.5267 376.407 25.4357 376.738 25.5608C378.18 26.1165 376.366 28.9956 375.822 29.8243C376.197 29.358 377.119 28.362 377.78 29.0752C378.621 29.9819 376.542 32.5295 377.049 32.3378C378.953 31.6132 379.791 31.9397 379.991 33.5012C380.188 35.0593 376.868 38.3398 376.868 38.3398C378.82 37.7224 381.228 38.707 381.678 39.8086L381.712 40.1027Z" fill="#6E1D14"/>
    <path d="M375.343 25.7558C372.79 28.8559 369.3 36.0894 368.2 38.4584C367.776 38.4129 367.389 38.3788 367.076 38.3691C366.473 38.3284 366.101 38.3349 366.085 38.3398C366.039 38.3739 363.987 38.1822 362.494 42.0199C360.993 45.8561 359.953 53.3821 359.953 53.3821C359.953 53.3821 350.199 43.8429 350.456 41.5016C350.704 39.2285 353.265 41.4009 353.416 41.5358C353.322 41.3668 351.51 38.3528 351.947 37.4055C352.407 36.4274 354.947 37.5973 354.947 37.5973C354.947 37.5973 352.471 32.7213 353.905 31.8033C355.333 30.8983 356.83 33.5012 356.83 33.5012C356.83 33.5012 356.633 26.0824 360.279 25.8176C363.917 25.5609 364.245 28.8169 364.245 28.8169C364.245 28.8169 367.44 24.1993 368.671 24.5876C369.874 24.9694 369.224 29.7122 369.194 29.9137C369.346 29.7902 371.749 27.7543 373.882 26.4951C374.4 26.1896 374.897 25.9313 375.343 25.7558Z" fill="#5B1511"/>
    <path d="M377.342 64.6615C377.321 65.2285 377.298 65.9483 377.258 66.7656C377.089 70.9153 376.741 77.5704 376.239 79.7087L364.337 82.4253C364.337 82.4253 362.617 73.0584 361.344 67.6706C361.159 66.8663 360.98 66.1514 360.816 65.5714C363.206 64.7119 365.38 64.2666 366.656 64.0473C370.794 63.3389 374.507 63.8783 377.342 64.6615Z" fill="#7CC2C7"/>
    <path d="M379.266 65.2702C378.784 65.7414 378.126 66.2711 377.256 66.7666C375.636 67.7058 373.285 68.5491 369.955 68.7408C366.205 68.9536 363.345 68.3687 361.343 67.6717C360.151 67.2606 359.262 66.7991 358.672 66.4449C359.392 66.1135 360.112 65.8259 360.815 65.5724C363.205 64.7129 365.379 64.2677 366.655 64.0484C370.793 63.34 374.506 63.8794 377.341 64.6625C378.039 64.8526 378.68 65.0606 379.266 65.2702Z" fill="#449FA1"/>
    <path d="M374.4 61.0455C374.285 61.5557 374.124 62.3047 373.905 63.148C373.12 66.2204 371.677 70.6756 369.953 70.6139C367.919 70.5456 367.125 66.6299 366.562 63.5704C366.439 62.8847 366.327 62.2413 366.211 61.697C368.038 61.7701 370.143 61.619 372.018 61.5232C372.8 61.4777 373.604 61.3038 374.4 61.0455Z" fill="#F1B5AB"/>
    <path d="M374.4 61.0455C374.285 61.5557 374.124 62.3047 373.905 63.148C371.214 64.0302 368.241 63.8125 366.562 63.5704C366.439 62.8847 366.327 62.2413 366.211 61.697C368.038 61.7701 370.143 61.6191 372.018 61.5232C372.8 61.4777 373.604 61.3038 374.4 61.0455Z" fill="#F5948D"/>
    <path d="M379.301 58.1806C378.828 59.5828 376.391 61.5 373.776 62.3547C373.045 62.5919 372.301 62.7543 371.576 62.7933C369.844 62.8843 367.891 63.0241 366.205 62.9574C366.047 62.9509 365.889 62.9396 365.732 62.9282C364.421 62.8437 363.306 62.6146 362.646 62.0947C361.083 60.8858 360.476 58.023 359.954 53.3826C359.954 53.3826 360.518 45.6762 361.083 42.7695C361.654 39.8595 363.465 38.7855 365.27 38.3696C365.766 38.2574 366.119 38.1989 366.379 38.1892C367.077 38.1437 367.077 38.3696 367.077 38.3696C367.414 38.3858 367.818 38.4134 368.268 38.4589C370.221 38.6717 372.954 39.2177 374.298 40.6036C375.63 41.9652 377.14 46.6154 377.151 46.656C378.36 50.9698 379.723 56.9165 379.301 58.1806Z" fill="#F1B5AB"/>
    <path d="M381.714 40.0996C381.603 41.5522 378.279 45.5589 377.155 46.6621L377.15 46.6556C377.14 46.6264 376.214 43.7684 375.172 41.8755C377.109 41.505 380.1 40.86 381.714 40.0996Z" fill="#5B1511"/>
    <path d="M365.732 62.9272C364.421 62.8428 363.306 62.6136 362.646 62.0937C361.083 60.8849 360.476 58.022 359.954 53.3816C359.954 53.3816 360.518 45.6752 361.083 42.7685C361.654 39.8585 363.465 38.7845 365.27 38.3686C365.766 38.2565 366.119 38.198 366.379 38.1882L367.077 38.3686C367.414 38.3848 367.818 38.4124 368.268 38.4579C365.992 42.3623 362.796 50.8664 362.557 53.2646C362.346 55.4126 363.758 60.6379 365.732 62.9272Z" fill="#F5948D"/>
    <path d="M358.404 102.277C358.347 102.592 358.289 102.929 358.225 103.284C357.783 105.848 357.205 109.296 356.641 112.858L356.579 112.897C356.579 112.897 355.38 104.038 354.958 99.1153C354.539 94.1938 351.443 89.9742 349.828 86.5264C348.209 83.0835 344.205 74.5046 344.13 64.868C344.057 55.2395 348.303 46.5192 348.303 46.5192C348.883 47.9816 349.716 49.1027 350.667 49.9622C354.009 52.9989 358.757 52.8039 358.757 52.8039C356.084 56.6904 355.735 68.0363 355.735 68.0363C356.328 67.648 356.94 67.3052 357.553 66.9835C358.255 68.8471 360.078 73.8189 360.302 79.7088C360.585 87.0203 359.392 96.7252 358.404 102.277Z" fill="#7CC2C7"/>
    <path d="M409.707 52.8357C409.707 52.8357 407.34 59.0343 404.599 62.4106C401.861 65.7853 397.034 71.2413 393.911 74.5039C391.436 77.0921 388.496 80.6927 387.995 82.9414C387.591 84.7481 385.396 92.1962 384.546 95.0818C384.546 95.0818 381.66 83.6449 380.451 80.8324L381.909 66.3312C382.505 66.5944 382.875 66.7699 382.984 66.7699C383.197 66.7699 384.799 65.3579 386.798 63.5463C389.844 60.7793 393.815 57.0715 395.18 56.0138C397.427 54.2541 402.396 50.2702 402.396 50.2702C402.782 50.9737 403.328 51.4969 403.947 51.8852C406.297 53.3589 409.707 52.8357 409.707 52.8357Z" fill="#7CC2C7"/>
    <path d="M409.147 121.24C408.551 123.029 407.552 126.315 406.385 130.206C402.981 141.597 398.206 158.248 398.206 158.248L396.035 159.306L395.839 159.4C395.839 159.4 392.745 152.651 392.366 143.932C392.074 137.22 393.458 129.946 394.11 126.96C394.303 126.066 394.432 125.554 394.432 125.554C393.96 125.689 393.449 125.837 392.908 125.993C385.937 128.011 373.99 131.647 373.99 131.647C373.99 131.647 370.471 143.346 367.561 153.921C366.279 158.578 365.114 163.023 364.428 166.151C363.832 168.839 362.886 173.391 361.812 178.644L361.807 178.662C361.746 178.989 361.677 179.314 361.609 179.64C358.616 194.267 354.774 213.588 354.774 213.588C354.421 214.224 353.108 214.274 352.486 214.258C352.283 214.258 352.146 214.247 352.146 214.247C352.146 214.247 345.68 190.526 346.803 182.93C347.282 179.686 348.26 176.923 349.222 174.821C350.509 172.002 351.771 170.371 351.771 170.371C351.929 168.468 352.146 165.245 352.39 161.347C353.16 149.084 354.234 130.217 354.819 125.414C355.203 122.246 355.859 117.853 356.535 113.549V113.545L356.598 113.123L356.642 112.858C356.738 112.25 356.832 111.648 356.93 111.051L356.996 110.635C357.503 107.514 357.992 104.622 358.363 102.497V102.492L358.405 102.277C359.393 96.7256 360.586 87.0207 360.303 79.7092C360.079 73.8194 358.256 68.8475 357.554 66.9839C357.926 66.7937 358.301 66.6134 358.673 66.4444C359.393 66.113 360.113 65.8254 360.816 65.5719C360.98 66.152 361.159 66.8669 361.344 67.6711C362.617 73.0589 364.337 82.4258 364.337 82.4258L376.239 79.7092C376.741 77.571 377.089 70.9158 377.258 66.7661C377.298 65.9489 377.321 65.2291 377.342 64.662C378.041 64.8521 378.681 65.0601 379.267 65.2697C380.38 65.658 381.276 66.0512 381.911 66.3323L380.454 80.8335C381.662 83.6461 384.548 95.0829 384.548 95.0829V95.0878C383.875 97.3885 382.675 106.209 382.135 110.31C382.114 110.489 382.091 110.658 382.072 110.816C382.046 111.03 382.018 111.227 382 111.401C381.974 111.597 381.948 111.768 381.934 111.908C381.888 112.246 381.865 112.431 381.865 112.431C387.023 110.416 393.772 108.876 399.636 107.925C406.34 106.84 411.877 106.53 412.522 107.176C413.742 108.398 411.493 114.208 409.147 121.24Z" fill="#EE7123"/>
    <path d="M416.177 23.642C415.896 23.8338 415.896 33.6767 414.867 39.6738C413.835 45.6758 409.707 52.8362 409.707 52.8362C407.137 53.4049 405.325 52.7972 404.155 52.0385C402.928 51.2407 402.395 50.2707 402.395 50.2707C402.395 50.2707 402.769 46.8976 404.74 38.7396C406.708 30.5831 411.491 22.4267 411.491 22.4267C410.552 19.4241 410.529 14.0671 410.742 13.7974L410.817 13.7178C411.827 12.7072 412.992 17.5491 412.992 17.5491C412.992 17.5491 415.332 10.7038 416.456 11.4578C417.584 12.2052 415.241 15.5815 415.051 15.8626V15.8674C415.22 15.6708 417.717 12.3238 418.336 12.6715C418.91 13.0045 416.591 16.6619 415.829 17.7359C416.625 16.7724 419.209 13.7974 419.742 13.7974C420.379 13.7974 417.301 19.1982 417.121 19.5086C417.329 19.2762 420.508 15.7163 420.957 16.891C421.431 18.1129 416.456 23.4568 416.177 23.642Z" fill="#F1B5AB"/>
    <path d="M363.531 43.4502C365.245 43.1594 368.022 43.0619 367.498 42.5403C366.98 42.0204 366.134 41.5005 364.312 41.7604C362.491 42.0204 361.516 43.8418 361.516 43.8418C361.516 43.8418 362.302 43.6614 363.531 43.4502Z" fill="#6E1D14"/>
    <path d="M371.271 42.2586C370.63 42.1449 370.178 40.7427 372.638 40.7979C375.098 40.8516 375.92 42.5852 375.92 42.5852C375.92 42.5852 372.181 42.4195 371.271 42.2586Z" fill="#6E1D14"/>
    <path d="M352.146 214.246C352.146 214.246 349.522 217.62 349.239 218.558H357.116C357.116 218.558 355.108 214.819 354.612 213.783L352.146 214.246Z" fill="#272B6A"/>
    <path d="M395.836 159.398L396.678 161.649H406.898C406.898 161.649 403.993 153.868 395.836 159.398Z" fill="#272B6A"/>
    <path d="M367.559 153.922C366.277 158.578 365.112 163.024 364.427 166.151C363.795 169.009 362.766 173.971 361.608 179.64C359.239 181.48 355.887 183.988 355.174 183.988C354.342 183.988 350.943 177.97 349.22 174.821C350.507 172.002 351.77 170.371 351.77 170.371C351.927 168.468 352.145 165.245 352.389 161.347C353.929 160.79 357.4 159.423 361.71 157.056C364.263 155.65 366.198 154.632 367.559 153.922Z" fill="#2B91BE"/>
    <path d="M409.146 121.24C408.549 123.029 407.55 126.315 406.384 130.206C400.984 127.41 395.972 127.005 394.108 126.96C394.302 126.066 394.43 125.554 394.43 125.554C393.959 125.689 393.447 125.837 392.906 125.993C394.745 119.287 397.979 111.643 399.634 107.925C406.338 106.84 411.875 106.53 412.52 107.176C413.741 108.398 411.492 114.208 409.146 121.24Z" fill="#2B91BE"/>
    <path d="M360.969 111.654L361.385 111.727L361.355 112.149L360.939 112.081C359.151 111.761 357.812 111.384 356.93 111.051L356.996 110.635C357.823 110.945 359.151 111.327 360.969 111.654Z" fill="#6E2B28"/>
    <path d="M375.86 111.925L375.833 112.363L375.407 112.42C373.932 112.607 372.239 112.729 370.31 112.756C370.005 112.763 369.704 112.763 369.404 112.763C367.031 112.763 364.966 112.628 363.205 112.414L362.789 112.363L362.852 111.941L363.272 111.991C365.229 112.228 367.582 112.376 370.304 112.336C372.252 112.308 373.956 112.178 375.433 111.986C375.581 111.97 375.721 111.947 375.86 111.925Z" fill="#6E2B28"/>
    <path d="M382.133 110.311C382.112 110.489 382.089 110.658 382.07 110.816C380.997 111.25 379.398 111.768 377.177 112.155L376.755 112.228V111.789L377.177 111.716C379.483 111.3 381.1 110.754 382.133 110.311Z" fill="#6E2B28"/>
    <path d="M361.191 114.421L361.165 114.837L360.749 114.747V114.741C358.949 114.331 357.485 113.876 356.534 113.548V113.545L356.598 113.123C357.525 113.449 358.975 113.902 360.783 114.32V114.325L361.191 114.421Z" fill="#6E2B28"/>
    <path d="M375.259 114.626C375.406 114.585 375.553 114.544 375.692 114.5L375.66 114.944L375.231 115.063C373.657 115.474 371.829 115.76 369.764 115.778L369.465 115.782C367.07 115.782 364.787 115.519 362.782 115.163L362.366 115.084L362.434 114.674L362.845 114.747H362.852C364.91 115.124 367.276 115.389 369.757 115.36C371.845 115.344 373.683 115.046 375.259 114.626Z" fill="#6E2B28"/>
    <path d="M381.998 111.4L381.931 111.907C381.413 112.317 379.777 113.505 377.177 114.455L376.755 114.601V114.163L377.177 114.011C380.175 112.892 381.801 111.467 381.829 111.446L381.998 111.4Z" fill="#6E2B28"/>
    <path d="M362.788 112.363L362.434 114.675L362.366 115.084L362.096 116.857L361.04 116.598L361.164 114.837L361.19 114.421L361.354 112.15L361.383 111.727L361.409 111.357H362.941L362.852 111.94L362.788 112.363ZM363.344 111.008L363.182 110.934H361.212L361.004 111.126L360.967 111.654L360.938 112.082L360.782 114.32V114.325L360.748 114.741V114.748L360.605 116.751L360.762 116.97L362.22 117.318L362.272 117.33L362.389 117.291L362.48 117.149L362.782 115.164L362.845 114.748H362.852L363.204 112.413L363.271 111.991L363.394 111.175L363.344 111.008Z" fill="#6E2B28"/>
    <path d="M376.756 115.89L375.581 116.148L375.66 114.944L375.693 114.5L375.833 112.362L375.86 111.924L375.901 111.357H376.756V115.89ZM376.965 110.934H375.704L375.488 111.131L375.433 111.985L375.407 112.419L375.259 114.626L375.232 115.063L375.144 116.395L375.21 116.569L375.35 116.621H375.396L377.009 116.267L377.178 116.059V111.14L376.965 110.934ZM375.407 112.419L375.259 114.626C375.407 114.585 375.553 114.544 375.693 114.5L375.833 112.362L375.407 112.419Z" fill="#6E2B28"/>
    <path d="M367.837 53.5405L367.702 53.4382L367.822 53.2854L367.821 53.2659L367.907 53.2448L367.91 53.2513C368.154 53.1684 368.661 53.0401 369.697 52.7736C371.236 52.3788 372.019 52.3999 372.412 52.4991C371.263 49.4997 369.462 44.5181 369.713 43.3369L369.881 43.228L369.988 43.3954C369.814 44.2126 370.846 47.649 372.75 52.59L372.801 52.7265L372.737 52.8987L372.56 52.863C372.557 52.863 372.1 52.4487 369.767 53.0466C368.571 53.3537 368.131 53.469 367.972 53.5113L367.973 53.5194L367.837 53.5405Z" fill="#6E2B28"/>
    <path d="M367.606 56.7001C368.955 56.5441 368.955 56.5441 373.488 55.9348C373.488 55.9348 373.298 58.6482 370.63 58.9098C367.963 59.1697 367.606 56.7001 367.606 56.7001Z" fill="white"/>
    <path d="M366.895 46.6625C366.895 47.6584 366.534 48.4644 366.082 48.4644C365.635 48.4644 365.271 47.6584 365.271 46.6625C365.271 45.6665 365.635 44.8606 366.082 44.8606C366.534 44.8606 366.895 45.6665 366.895 46.6625Z" fill="#1E1724"/>
    <path d="M374.095 45.8597C374.095 46.7793 373.758 47.5283 373.342 47.5283C372.927 47.5283 372.59 46.7793 372.59 45.8597C372.59 44.9384 372.927 44.1926 373.342 44.1926C373.758 44.1926 374.095 44.9384 374.095 45.8597Z" fill="#1E1724"/>
    <path d="M379.053 12.8634L378.983 12.9544C378.091 14.1194 374.18 16.5208 374.18 16.5208C374.18 16.5208 373.959 17.2227 373.59 18.3584V18.365C372.677 21.1385 370.874 26.4954 369.208 30.4875C366.867 36.1125 358.756 52.804 358.756 52.804C354.272 53.0509 351.573 51.3238 350.036 49.6129C348.703 48.123 348.258 46.6493 348.302 46.5193C348.393 46.2382 352.241 37.9859 356.831 31.4266C361.427 24.8625 368.272 16.9871 368.272 16.9871C366.488 11.4677 367.666 5.14567 368.843 4.79797L369.208 4.89384C369.583 5.21393 369.684 6.26514 369.653 7.17664C369.972 6.09778 370.516 4.83208 371.085 4.87107C372.032 4.93282 371.795 8.8648 371.749 9.49522C371.839 8.91679 372.402 5.66397 373.426 5.92231C374.55 6.2034 373.426 11.1769 373.522 12.5823C373.616 13.9894 375.676 12.7692 375.676 12.7692C378.487 10.7041 379.053 12.8634 379.053 12.8634Z" fill="#F1B5AB"/>
    <path d="M369.666 53.4057C367.217 53.755 364.444 55.877 363.272 57.1785C363.272 57.1785 368.889 56.5871 371.663 56.202C374.789 55.7682 376.544 55.4156 376.544 55.4156C376.544 55.4156 375.132 52.6226 369.666 53.4057Z" fill="#6E1D14"/>
    <path d="M369.371 17.9724C368.882 18.7426 361.078 27.4628 357.207 34.2853C354.401 39.236 351.449 46.1771 350.036 49.6135C348.703 48.1236 348.258 46.6499 348.302 46.5199C348.393 46.2388 352.241 37.9865 356.831 31.4272C361.427 24.8631 368.272 16.9878 368.272 16.9878C366.488 11.4684 367.666 5.14632 368.843 4.79861C368.464 6.55825 367.84 10.1929 368.458 12.4188C369.301 15.441 369.866 17.2023 369.371 17.9724Z" fill="#F5948D"/>
    <path d="M378.983 12.9548C378.091 14.1198 374.18 16.5212 374.18 16.5212C374.18 16.5212 373.959 17.2232 373.59 18.3589C373.746 16.869 373.899 15.4131 373.931 15.301C373.983 15.1158 377.145 14.0402 378.983 12.9548Z" fill="#F5948D"/>
    <path d="M412.864 22.8929C412.864 22.8929 408.818 30.2776 407.486 37.0237C406.626 41.3781 405.18 48.2802 404.155 52.0383C402.928 51.2406 402.395 50.2706 402.395 50.2706C402.395 50.2706 402.769 46.8975 404.74 38.7394C406.708 30.583 411.491 22.4266 411.491 22.4266C410.552 19.424 410.529 14.067 410.742 13.7973L410.817 13.7177C411.096 16.1484 411.912 21.1609 412.864 22.8929Z" fill="#F5948D"/>
    <path d="M358.225 103.284C357.783 105.848 357.205 109.296 356.641 112.858L356.579 112.897C356.579 112.897 355.38 104.038 354.958 99.1153C354.539 94.1938 351.443 89.9742 349.828 86.5264C348.209 83.0835 344.205 74.5046 344.13 64.868C344.057 55.2395 348.303 46.5192 348.303 46.5192C348.883 47.9816 349.716 49.1027 350.667 49.9622C348.35 56.1884 347 64.6665 347.268 69.4872C347.55 74.5501 352.894 85.8001 355.241 92.0832C356.623 95.7861 357.629 100.246 358.225 103.284Z" fill="#449FA1"/>
    <path d="M403.948 51.8863C401.451 54.806 392.315 60.5675 386.799 63.5474C389.845 60.7803 393.816 57.0726 395.181 56.0148C397.428 54.2552 402.397 50.2712 402.397 50.2712C402.783 50.9748 403.329 51.4979 403.948 51.8863Z" fill="#449FA1"/>
    <path d="M358.226 121.24C358.226 121.24 356.27 135.213 355.055 146.834C353.835 158.461 352.991 173.649 352.991 173.649C352.991 173.649 349.24 180.867 349.24 189.777C349.24 197.63 351.864 211.176 352.486 214.258C352.283 214.258 352.146 214.246 352.146 214.246C352.146 214.246 345.68 190.526 346.803 182.93C347.282 179.686 348.26 176.923 349.222 174.821C350.509 172.002 351.771 170.371 351.771 170.371C351.929 168.468 352.146 165.244 352.39 161.347C353.16 149.084 354.234 130.217 354.819 125.414C355.203 122.246 355.859 117.853 356.535 113.549V113.545L356.598 113.123L356.642 112.858C356.738 112.25 356.832 111.648 356.93 111.051L356.996 110.635C357.503 107.514 357.992 104.622 358.363 102.497C358.616 106.157 358.589 117.398 358.226 121.24Z" fill="#D15C27"/>
    <path d="M396.034 159.306L395.838 159.4C395.838 159.4 392.744 152.65 392.365 143.932C392.073 137.22 393.457 129.946 394.109 126.959C394.302 126.066 394.43 125.554 394.43 125.554C393.959 125.689 393.448 125.837 392.906 125.993C385.936 128.011 373.989 131.647 373.989 131.647C373.989 131.647 370.47 143.345 367.56 153.921C366.278 158.578 365.113 163.023 364.427 166.151C363.831 168.838 362.885 173.391 361.811 178.644C362.419 171.145 363.269 163.54 364.427 158.18C367.617 143.459 372.02 130.206 372.02 130.206C378.961 128.855 398.369 120.587 398.369 120.587C398.369 120.587 396.866 129.115 395.459 139.465C394.336 147.74 395.409 155.952 396.034 159.306Z" fill="#D15C27"/>
    <path d="M350.175 219.4C349.71 219.4 349.332 219.023 349.332 218.557L349.384 218.266C349.686 216.942 352.697 197.631 355.88 177.198C358.57 159.93 361.62 140.357 364.051 125.096C365.375 116.774 366.374 110.611 367.104 106.256C368.444 98.2966 368.444 98.2966 369.154 98.1487C369.613 98.0528 370.058 98.3469 370.15 98.8035C370.193 99.005 370.16 99.2048 370.069 99.3722C369.325 101.902 362.525 145.532 357.547 177.459C355.787 188.745 354.182 199.053 353.002 206.54C352.411 210.283 351.927 213.322 351.584 215.426C351.412 216.48 351.275 217.301 351.176 217.857C350.996 218.885 350.908 219.4 350.175 219.4Z" fill="#90584D"/>
    <path d="M413.461 219.4C412.996 219.4 412.616 219.023 412.616 218.557V98.9741C412.616 98.5094 412.996 98.1308 413.461 98.1308C413.927 98.1308 414.305 98.5094 414.305 98.9741V218.557C414.305 219.023 413.927 219.4 413.461 219.4Z" fill="#90584D"/>
    <path d="M384.992 219.4C384.644 219.4 384.319 219.187 384.199 218.841C383.979 218.233 377.509 164.778 373.67 132.968C373.641 132.727 373.717 132.487 373.875 132.306C374.037 132.126 374.266 132.024 374.507 132.024H414.119C414.517 132.024 414.863 132.303 414.945 132.695L432.851 218.384C432.946 218.839 432.655 219.288 432.197 219.382C431.746 219.478 431.295 219.187 431.199 218.729L413.434 133.71H375.461C378.975 162.844 385.497 216.641 385.811 218.353C385.915 218.768 385.687 219.203 385.274 219.351L384.992 219.4Z" fill="#90584D"/>
    <path d="M414.116 137.649H361.382V132.868H414.116V137.649Z" fill="#A1D0C0"/>
    <path d="M412.865 167.462H357.115V163.806H412.865V167.462Z" fill="#A1D0C0"/>
    <path d="M414.117 202.199H352.576V198.542H414.117V202.199Z" fill="#A1D0C0"/>
    <path d="M414.492 100.053H368.178V96.7725H414.492V100.053Z" fill="#A1D0C0"/>
    <path d="M417.639 7.52143C417.639 9.53942 412.525 11.3007 404.938 12.2333C401.243 12.6964 396.96 12.9547 392.401 12.9547C378.457 12.9547 367.156 10.5192 367.156 7.52143C367.156 4.5172 378.457 2.08164 392.401 2.08164C395.782 2.08164 399.004 2.22137 401.946 2.48621C411.156 3.29536 417.639 5.24185 417.639 7.52143Z" fill="#97D8E9"/>
    <path d="M398.461 7.37744C398.461 8.54404 395.541 9.48804 391.942 9.48804C388.346 9.48804 385.428 8.54404 385.428 7.37744C385.428 6.21409 388.346 5.26843 391.942 5.26843C395.541 5.26843 398.461 6.21409 398.461 7.37744Z" fill="#68B4D6"/>
    <path d="M417.639 4.23556V7.52087C417.639 5.25429 411.205 3.31269 402.059 2.49704V2.49054C399.084 2.2257 395.819 2.08109 392.401 2.08109C378.457 2.08109 367.156 4.51664 367.156 7.52087V3.86347C367.156 3.86347 373.617 0.207701 392.927 0.207701C395.881 0.207701 398.504 0.303572 400.837 0.459551C413.764 1.34344 417.639 4.23556 417.639 4.23556Z" fill="#68B4D6"/>
    <path d="M417.639 4.23556V7.52087C417.639 5.25429 411.205 3.31269 402.059 2.49704V2.49054C401.631 1.77076 401.204 1.0461 400.837 0.459551C413.764 1.34344 417.639 4.23556 417.639 4.23556Z" fill="#3485BA"/>
    <path d="M417.638 7.52176C417.638 9.53974 412.525 11.301 404.937 12.2336C404.63 8.94345 402.71 4.25756 401.946 2.48654C411.155 3.29568 417.638 5.24218 417.638 7.52176Z" fill="#BDE4E8"/>
    <path d="M158.318 186.523L152.298 187.48C152.06 187.574 151.848 187.726 151.682 187.922C151.517 188.118 151.403 188.352 151.351 188.604C151.299 188.855 151.31 189.115 151.384 189.361C151.458 189.607 151.592 189.83 151.774 190.011C154.302 192.351 157.506 193.831 160.927 194.24C161.369 194.74 161.907 195.146 162.509 195.435C163.11 195.724 163.764 195.89 164.43 195.923C165.992 195.71 167.44 194.988 168.551 193.87C168.89 191.147 168.202 188.396 166.622 186.153L158.318 186.523Z" fill="#1D1D1B"/>
    <path d="M113.929 189.024L107.755 188.638C103.633 188.638 104.205 192.945 109.036 194.473C113.195 196.464 117.579 197.946 122.094 198.887C122.772 199.003 123.47 198.896 124.082 198.581C124.695 198.267 125.188 197.762 125.489 197.143C125.806 196.157 125.912 195.116 125.801 194.087C125.689 193.058 125.362 192.064 124.841 191.17L113.929 189.024Z" fill="#1D1D1B"/>
    <path d="M138.963 131.406C138.423 131.669 137.867 131.931 137.296 132.178C135.563 139.907 133.124 147.461 130.011 154.744L129.841 155.793L129.3 159.019C129.628 160.94 129.628 162.902 129.3 164.823C128.436 171.753 125.241 181.168 124.84 191.201C125.365 194.751 124.222 194.519 122.802 194.751C116.628 194.087 108.911 191.201 113.542 189.071L118.867 188.901C118.481 179.023 118.126 169.16 118.403 161.458C118.403 159.791 118.558 158.217 118.681 156.827V150.962C117.566 137.053 120.182 123.098 126.26 110.538L149.922 101.926C152.285 105.453 153.742 109.509 154.166 113.733C154.367 119.876 150.585 125.834 138.963 131.406Z" fill="#FCAF75"/>
    <path d="M167.024 187.666C166.098 188.731 164.169 189.318 161.174 189.349C159.606 189.336 158.087 188.792 156.868 187.805L159.662 185.367C158.905 178.668 155.68 170.75 152.623 161.581C152.021 159.791 151.435 157.954 150.879 156.087L148.873 152.29L147.669 149.851C143.906 144.13 140.999 137.89 139.041 131.329C138.783 130.506 138.521 129.672 138.254 128.829L144.489 110.307L154.136 113.764L156.559 144.263L158.195 148.246V148.354C160.587 151.264 162.301 154.67 163.212 158.325V158.464C165.512 171.151 164.801 178.22 167.024 187.666Z" fill="#FCAF75"/>
    <g style="mix-blend-mode:multiply" opacity="0.3">
        <path d="M129.301 159.018C129.628 160.938 129.628 162.901 129.301 164.821C125.164 165.176 120.719 162.907 118.342 161.457C118.342 159.79 118.496 158.215 118.62 156.826V153.168L129.81 155.792L129.301 159.018Z" fill="#3F76AB"/>
    </g>
    <g style="mix-blend-mode:multiply" opacity="0.3">
        <path d="M163.256 158.324C159.929 160.022 156.329 161.119 152.622 161.565C152.02 159.775 151.433 157.938 150.877 156.071L148.871 152.274L158.132 148.245V148.353C160.562 151.253 162.313 154.66 163.256 158.324Z" fill="#3F76AB"/>
    </g>
    <path d="M144.041 74.4052C144.097 75.0658 144.226 75.7181 144.427 76.35C141.662 75.9381 138.924 75.3556 136.231 74.6059L134.687 72.337L130.057 65.1134C131.857 64.2571 133.837 63.8491 135.829 63.9243C137.82 63.9996 139.764 64.5559 141.494 65.5456C143.238 66.0086 144.936 66.4871 146.572 66.9965C145.605 67.9508 144.873 69.1168 144.434 70.4026C143.994 71.6883 143.86 73.0586 144.041 74.4052Z" fill="#EDEDED"/>
    <path d="M166.345 94.2386H162.085L161.561 93.3279L152.562 76.8126C149.842 76.9365 147.116 76.7814 144.428 76.3496C144.228 75.7227 144.099 75.0756 144.042 74.4202C143.859 73.0589 143.998 71.6736 144.448 70.376C144.899 69.0784 145.648 67.9047 146.635 66.9497C150.603 68.1202 154.449 69.6709 158.119 71.5802C162.178 76.3496 164.385 84.9931 166.345 94.2386Z" fill="#FCAF75"/>
    <g style="mix-blend-mode:multiply" opacity="0.5">
        <path d="M161.559 93.3276L152.561 76.8123C149.841 76.9362 147.115 76.7811 144.427 76.3492C141.661 75.9374 138.924 75.3549 136.231 74.6051L134.687 72.3362L134.564 71.7805C137.563 73.0828 140.725 73.9707 143.964 74.4199C147.312 74.8844 150.697 75.0292 154.073 74.8521C153.842 78.294 159.136 85.7182 161.559 93.3276Z" fill="#3F76AB"/>
    </g>
    <path d="M204.423 187.635C202.293 187.635 199.592 186.091 195.718 182.526C195.408 182.201 195.233 181.772 195.228 181.324C195.222 180.876 195.386 180.442 195.687 180.11C195.988 179.777 196.403 179.571 196.85 179.533C197.297 179.494 197.741 179.626 198.095 179.902C203.173 184.532 204.485 184.085 204.546 184.069C204.608 184.054 205.102 183.745 205.534 180.982L206.584 158.895C206.641 158.453 206.862 158.048 207.204 157.761C207.546 157.475 207.984 157.327 208.429 157.349C208.875 157.37 209.296 157.559 209.609 157.877C209.922 158.195 210.104 158.619 210.118 159.065L209.053 181.43C208.776 183.19 208.266 186.477 205.719 187.372C205.305 187.532 204.867 187.621 204.423 187.635Z" fill="#DADADA"/>
    <path d="M56.5424 152.273L56.5578 155.113L64.584 159.852L63.1485 153.153L56.5424 152.273Z" fill="#DADADA"/>
    <path d="M63.1475 153.154L64.5829 159.853L86.2381 147.351L84.8026 140.652L63.1475 153.154Z" fill="#878787"/>
    <path d="M56.5424 152.274L63.1485 153.154L84.8036 140.651L78.1975 139.771L56.5424 152.274Z" fill="#9D9D9C"/>
    <path d="M73.582 150.314C72.9473 150.312 72.3312 150.099 71.8323 149.706C71.3333 149.314 70.9801 148.766 70.8291 148.149C70.6781 147.533 70.738 146.884 70.9991 146.305C71.2603 145.727 71.7077 145.252 72.27 144.958L74.894 143.584C75.5633 143.236 76.3433 143.168 77.0626 143.396C77.782 143.623 78.3815 144.126 78.7295 144.796C79.0775 145.465 79.1453 146.245 78.9181 146.964C78.6908 147.684 78.1872 148.283 77.5179 148.631L74.894 149.99C74.4878 150.198 74.0386 150.309 73.582 150.314Z" fill="#3C3C3B"/>
    <path d="M166.343 94.2377C167.37 96.4487 167.698 98.92 167.285 101.322L162.562 104.857L160.447 100.52L161.991 94.1914L166.343 94.2377Z" fill="#E89B61"/>
    <path d="M76.9602 147.829C76.5698 147.829 76.1866 147.723 75.8521 147.521C75.5175 147.32 75.2443 147.031 75.0617 146.686C74.8018 146.185 74.7518 145.601 74.9226 145.062C75.0934 144.524 75.4709 144.075 75.9723 143.815L167.038 96.5384C167.287 96.404 167.56 96.3205 167.842 96.2928C168.123 96.265 168.407 96.2936 168.677 96.3768C168.947 96.46 169.198 96.5961 169.416 96.7774C169.633 96.9586 169.811 97.1812 169.941 97.4322C170.072 97.6833 170.15 97.9577 170.173 98.2395C170.196 98.5214 170.163 98.8049 170.075 99.0737C169.987 99.3425 169.847 99.5912 169.662 99.8051C169.477 100.019 169.252 100.194 168.998 100.32L77.9326 147.597C77.6306 147.748 77.2978 147.827 76.9602 147.829Z" fill="#575756"/>
    <path d="M114.127 102.419C113.722 102.688 113.299 102.93 112.862 103.144C111.796 103.759 110.61 104.138 109.385 104.255C108.161 104.372 106.925 104.225 105.762 103.824L104.635 99.6252C101.193 94.3002 100.344 89.1449 102.69 84.7769C106.966 85.3634 110.408 88.8517 111.843 93.5747C112.191 94.7558 112.403 95.9728 112.476 97.2019C112.469 97.2841 112.469 97.3667 112.476 97.4489C113.711 99.085 113.386 99.7796 114.127 102.419Z" fill="#EDEDED"/>
    <path d="M116.643 122.221L113.356 123.225L107.892 111.695L105.762 103.823C106.925 104.225 108.161 104.372 109.385 104.254C110.61 104.137 111.796 103.759 112.862 103.144C113.299 102.93 113.722 102.687 114.127 102.418C114.482 103.715 114.807 105.073 115.115 106.493L116.566 121.511V121.635L116.643 122.221Z" fill="#FCAF75"/>
    <path d="M101.609 49.4772C97.7815 50.6966 96.4695 53.6755 97.4419 58.2597C98.3457 61.2352 99.8596 63.9897 101.887 66.3476C103.209 67.8609 104.841 69.0717 106.672 69.8976C106.975 70.0344 107.304 70.1051 107.637 70.1051C107.969 70.1051 108.298 70.0344 108.601 69.8976L109.064 69.6815C109.699 70.7439 110.217 71.8721 110.608 73.0463C110.978 74.42 111.735 76.7661 111.735 76.7661L123.481 70.5922L116.797 65.4523C116.967 60.4823 117.152 56.4692 114.173 52.4562C111.194 48.4431 106.626 47.8874 101.609 49.4772Z" fill="#FCAF75"/>
    <path d="M162.67 154.049C147.235 158.68 132.618 164.699 117.832 155.469C117.669 149.193 117.839 142.912 118.341 136.654C119.19 126.822 121.227 117.515 125.657 110.013L130.473 108.285L149.967 101.277C154.063 106.797 156.075 113.587 155.647 120.447C156.584 131.896 158.943 143.184 162.67 154.049Z" fill="#3F76AB"/>
    <path d="M143.995 111.695L129.872 110.399L125.581 110.013C121.491 102.82 117.863 103.206 112.477 97.202L112.26 96.955C111.909 95.678 111.39 94.4532 110.717 93.3124C108.702 89.8966 105.943 86.9791 102.645 84.7769C102.645 84.7769 111.134 73.5712 116.119 70.5151C121.105 67.459 130.088 65.0974 130.088 65.0974C133.127 67.1044 135.489 69.9827 136.864 73.3551C136.864 73.3551 140.769 84.7152 142.42 92.1702C143.485 96.9705 147.545 98.0509 149.875 101.277C156.358 110.183 143.995 111.695 143.995 111.695Z" fill="#3F76AB"/>
    <path d="M104.93 65.5452L102.321 64.6345C100.328 63.414 98.6805 61.7029 97.5365 59.6645C97.0497 58.5761 96.8067 57.3946 96.8245 56.2024C96.8423 55.0103 97.1204 53.8365 97.6395 52.7632C98.1585 51.6898 98.9059 50.7429 99.8293 49.9887C100.753 49.2345 101.83 48.6913 102.985 48.397C108.897 46.6374 111.598 48.5514 114.53 52.0705C115.899 53.927 116.796 56.0887 117.143 58.369C117.49 60.6493 117.276 62.9798 116.521 65.1593L112.971 67.243C110.332 68.6322 107.538 67.5208 104.93 65.5452Z" fill="#1D1D1B"/>
    <path d="M102.597 64.8348C102.458 64.4027 102.149 63.9705 102.335 63.4766C102.52 62.9826 103.276 62.9209 103.693 63.137C104.139 63.4571 104.515 63.8643 104.799 64.3338C105.082 64.8034 105.268 65.3256 105.344 65.869C105.422 66.1622 105.607 66.7642 105.344 67.0266C105.082 67.289 104.48 67.0266 104.187 66.8259C103.714 66.5726 103.315 66.2002 103.029 65.7455C102.866 65.4513 102.722 65.1472 102.597 64.8348Z" fill="#FCAF75"/>
    <path d="M113.713 63.014C116.12 61.1 135.244 70.361 114.068 91.4913C115.025 79.0663 108.542 67.1814 113.713 63.014Z" fill="#1D1D1B"/>
    <path d="M111.629 125.308L112.462 124.922C112.391 125.651 112.494 126.387 112.762 127.068C113.03 127.75 113.457 128.358 114.006 128.843L114.87 129.321L118.065 128.272C118.269 128.208 118.456 128.098 118.611 127.951C118.766 127.804 118.885 127.623 118.96 127.423L119.485 126.003L118.76 126.311C118.233 125.816 117.822 125.21 117.556 124.538C117.289 123.866 117.173 123.144 117.216 122.422L116.614 121.511L113.002 122.406C112.313 123.246 111.841 124.243 111.629 125.308Z" fill="#FCAF75"/>
    <path d="M165.96 92.4634L166.269 96.1214C165.512 97.8501 164.2 98.4212 162.425 99.5943L162.07 101.508L162.518 103.823C162.518 104.904 161.499 105.105 161.252 104.055L160.218 101.431L160.357 99.2547C160.316 97.7641 160.685 96.2908 161.422 94.9947L162.827 91.9077L165.96 92.4634Z" fill="#FCAF75"/>
    <path d="M168.182 100.83L167.827 99.888C167.772 99.742 167.686 99.6097 167.575 99.5007C167.463 99.3916 167.329 99.3083 167.182 99.2568C167.035 99.2053 166.878 99.1867 166.723 99.2024C166.567 99.2182 166.418 99.2678 166.284 99.3478L161.947 101.509L162.255 103.808L161.021 104.549L162.456 104.966C163.017 104.965 163.561 104.775 163.999 104.426L167.503 102.142L168.182 100.83Z" fill="#FCAF75"/>
    <path d="M208.389 212.285C208.392 212.933 208.202 213.568 207.843 214.108C207.485 214.649 206.974 215.071 206.376 215.32C205.777 215.57 205.118 215.636 204.482 215.51C203.846 215.384 203.261 215.072 202.803 214.614C202.344 214.155 202.032 213.571 201.906 212.935C201.78 212.298 201.847 211.639 202.096 211.041C202.346 210.442 202.768 209.931 203.308 209.573C203.849 209.215 204.483 209.025 205.132 209.028C205.995 209.028 206.824 209.371 207.435 209.982C208.045 210.593 208.389 211.421 208.389 212.285Z" fill="black"/>
    <path d="M233.395 216.282C233.395 216.93 233.203 217.563 232.842 218.102C232.482 218.64 231.97 219.059 231.371 219.307C230.773 219.554 230.114 219.618 229.479 219.49C228.844 219.363 228.261 219.049 227.804 218.59C227.347 218.131 227.036 217.547 226.912 216.911C226.787 216.275 226.854 215.617 227.104 215.019C227.354 214.421 227.776 213.911 228.316 213.554C228.856 213.196 229.49 213.007 230.138 213.01C231.003 213.014 231.832 213.36 232.442 213.974C233.052 214.587 233.395 215.417 233.395 216.282Z" fill="black"/>
    <path d="M240.818 201.371V206.202C240.818 209.181 238.842 212.16 234.922 214.444C227.034 219.074 214.208 219.074 206.274 214.444C202.277 212.129 200.286 209.104 200.286 206.078V201.216C200.286 204.303 202.277 207.267 206.274 209.567C214.208 214.197 227.034 214.197 234.922 209.567C238.858 207.298 240.818 204.319 240.818 201.371Z" fill="#575756"/>
    <path d="M234.843 192.974C242.777 197.604 242.823 204.982 234.936 209.567C227.049 214.151 214.222 214.197 206.289 209.567C198.355 204.936 198.309 197.558 206.196 192.974C214.083 188.39 226.91 188.39 234.843 192.974Z" fill="#B2B2B2"/>
    <path d="M203.451 176.106C203.442 179.491 204.437 182.803 206.31 185.623C208.184 188.443 210.851 190.645 213.975 191.949C217.099 193.253 220.54 193.601 223.862 192.949C227.185 192.298 230.239 190.676 232.639 188.288C235.04 185.901 236.678 182.855 237.348 179.537C238.017 176.218 237.688 172.776 236.4 169.644C235.113 166.513 232.927 163.834 230.117 161.945C227.307 160.057 224 159.044 220.615 159.035C218.366 159.027 216.138 159.462 214.058 160.316C211.978 161.17 210.087 162.425 208.493 164.011C206.899 165.597 205.633 167.481 204.768 169.556C203.903 171.632 203.455 173.857 203.451 176.106Z" fill="#EA4A49"/>
    <path d="M237.686 176.198V199.15C237.686 201.681 236.034 204.197 232.716 206.126C226.048 210 215.212 209.985 208.498 206.126C205.133 204.166 203.436 201.619 203.451 199.057V176.105C203.451 178.652 205.118 181.214 208.498 183.159C215.212 187.033 226.048 187.049 232.716 183.159C236.019 181.307 237.686 178.729 237.686 176.198Z" fill="#EA4A49"/>
    <path d="M237.671 179.192C237.671 181.739 236.035 184.27 232.701 186.215C226.033 190.089 215.198 190.089 208.484 186.215C205.134 184.27 203.452 181.739 203.436 179.192V184.394C203.436 186.941 205.134 189.472 208.484 191.417C215.198 195.276 226.033 195.291 232.701 191.417C236.035 189.487 237.686 186.956 237.671 184.409V179.192Z" fill="white"/>
    <path d="M237.671 186.076C237.671 188.608 236.035 191.154 232.701 193.084C226.033 196.958 215.198 196.958 208.484 193.084C205.134 191.139 203.452 188.608 203.436 186.076V187.929C203.436 190.46 205.134 192.991 208.484 194.936C215.198 198.81 226.033 198.81 232.701 194.936C236.035 192.991 237.686 190.46 237.671 187.929V186.076Z" fill="white"/>
    <path d="M206.073 196.742L207.015 196.202C207.378 196.031 207.78 195.962 208.179 196C208.578 196.038 208.96 196.182 209.284 196.418C210.221 197.027 211.001 197.849 211.559 198.818C212.117 199.786 212.438 200.874 212.494 201.99C212.535 202.393 212.468 202.8 212.3 203.169C212.132 203.538 211.869 203.856 211.537 204.089L210.596 204.614C210.93 204.383 211.195 204.066 211.363 203.696C211.532 203.327 211.597 202.919 211.553 202.515C211.494 201.401 211.172 200.317 210.614 199.351C210.056 198.386 209.278 197.566 208.342 196.958C208.018 196.722 207.637 196.578 207.238 196.54C206.838 196.502 206.436 196.572 206.073 196.742Z" fill="#B2B2B2"/>
    <path d="M205.133 198.826C205.133 196.773 206.569 195.924 208.344 196.943C209.279 197.55 210.058 198.37 210.616 199.336C211.174 200.301 211.495 201.385 211.554 202.499C211.554 204.567 210.119 205.401 208.344 204.382C207.408 203.775 206.63 202.955 206.072 201.989C205.514 201.023 205.192 199.939 205.133 198.826Z" fill="#575756"/>
    <path d="M206.32 199.304C206.242 197.915 207.107 197.405 208.264 198.162C208.886 198.617 209.405 199.197 209.791 199.864C210.176 200.531 210.418 201.27 210.502 202.036C210.58 203.425 209.715 203.934 208.558 203.178C207.937 202.723 207.417 202.143 207.031 201.476C206.646 200.809 206.404 200.07 206.32 199.304Z" fill="black"/>
    <path opacity="0.3" d="M218.345 159.898C214.425 160.438 210.831 162.374 208.225 165.352C205.619 168.33 204.176 172.148 204.16 176.105C204.144 178.07 204.49 180.022 205.179 181.862C206.079 182.776 207.073 183.593 208.143 184.301C207.865 172.756 211.152 164.56 218.345 159.898Z" fill="white"/>
    <path d="M226.865 160.67V162.213C226.818 162.766 226.622 163.296 226.299 163.747C225.976 164.197 225.537 164.553 225.029 164.775C223.648 165.483 222.119 165.851 220.568 165.851C219.017 165.851 217.488 165.483 216.107 164.775C215.592 164.553 215.147 164.193 214.821 163.736C214.494 163.279 214.299 162.742 214.255 162.182V160.639C214.3 161.2 214.498 161.739 214.827 162.196C215.156 162.653 215.604 163.011 216.123 163.232C217.502 163.935 219.028 164.302 220.576 164.302C222.124 164.302 223.65 163.935 225.029 163.232C225.537 163.009 225.976 162.654 226.299 162.203C226.622 161.752 226.818 161.222 226.865 160.67Z" fill="black"/>
    <path d="M224.998 158.155C227.467 159.575 227.483 161.89 224.998 163.31C223.619 164.013 222.093 164.38 220.545 164.38C218.997 164.38 217.471 164.013 216.092 163.31C213.622 161.89 213.607 159.575 216.092 158.155C217.47 157.448 218.996 157.079 220.545 157.079C222.093 157.079 223.62 157.448 224.998 158.155Z" fill="#B2B2B2"/>
    <path d="M208.358 160.81H208.189C207.732 160.755 207.315 160.525 207.027 160.167C206.739 159.809 206.602 159.353 206.645 158.896C207.664 147.381 213.02 146.702 214.656 146.764C219.07 146.949 222.373 152.197 222.373 158.973C222.377 159.447 222.195 159.903 221.866 160.244C221.537 160.584 221.087 160.782 220.614 160.794C220.383 160.798 220.153 160.757 219.938 160.672C219.723 160.587 219.527 160.461 219.36 160.301C219.194 160.14 219.061 159.948 218.969 159.736C218.877 159.525 218.827 159.297 218.823 159.065C218.823 153.447 216.246 150.391 214.424 150.314C212.603 150.237 210.658 152.969 210.103 159.204C210.064 159.641 209.864 160.048 209.541 160.345C209.219 160.642 208.797 160.807 208.358 160.81Z" fill="#DADADA"/>
    <path d="M196.906 182.989C196.466 182.987 196.042 182.822 195.717 182.526C185.7 173.481 182.659 155.639 182.443 146.501C182.135 133.104 180.236 111.186 179.48 105.136C179.349 104.06 178.972 103.029 178.38 102.122C177.788 101.214 176.995 100.455 176.064 99.9017C175.132 99.3486 174.086 99.0166 173.006 98.9313C171.925 98.8459 170.84 99.0094 169.833 99.4093H169.725C169.509 99.4968 169.278 99.5407 169.046 99.5383C168.813 99.536 168.583 99.4875 168.369 99.3956C168.155 99.3037 167.961 99.1703 167.799 99.0031C167.637 98.8359 167.51 98.6381 167.425 98.4214C167.252 97.9832 167.259 97.4943 167.444 97.0609C167.628 96.6275 167.977 96.2845 168.413 96.1062H168.521C170.033 95.5069 171.661 95.2617 173.282 95.3893C174.903 95.5169 176.473 96.014 177.873 96.8425C179.272 97.6709 180.463 98.8087 181.354 100.169C182.245 101.529 182.813 103.075 183.014 104.688C183.771 110.862 185.669 132.903 185.993 146.362C186.179 154.327 188.957 171.583 198.094 179.825C198.359 180.066 198.544 180.381 198.626 180.729C198.708 181.077 198.684 181.441 198.555 181.775C198.427 182.108 198.201 182.395 197.906 182.598C197.612 182.801 197.263 182.911 196.906 182.912V182.989Z" fill="#DADADA"/>
    <g style="mix-blend-mode:multiply" opacity="0.5">
        <path d="M130.968 108.763C130.598 109.318 130.227 109.889 129.872 110.476C124.646 119.402 120.825 129.08 118.543 139.169L118.343 136.653C119.191 126.821 121.229 117.514 125.659 110.013C121.568 102.82 117.941 103.206 112.554 97.2018C112.547 97.284 112.547 97.3666 112.554 97.4488C113.836 99.0848 113.45 99.7794 114.191 102.419C114.546 103.715 114.87 105.074 115.178 106.494L116.629 121.512L114.052 108.763L112.863 103.221L110.764 93.3276C111.13 93.3914 111.49 93.479 111.844 93.59C118.142 95.504 123.297 103.221 130.366 108.299L130.968 108.763Z" fill="#3F76AB"/>
    </g>
</svg>
