<svg width="29" height="29" viewBox="0 0 29 29" fill="none" xmlns="http://www.w3.org/2000/svg">
    <path d="M14 20C14.2833 20 14.521 19.904 14.713 19.712C14.905 19.52 15.0007 19.2827 15 19V15C15 14.7167 14.904 14.4793 14.712 14.288C14.52 14.0967 14.2827 14.0007 14 14C13.7173 13.9993 13.48 14.0953 13.288 14.288C13.096 14.4807 13 14.718 13 15V19C13 19.2833 13.096 19.521 13.288 19.713C13.48 19.905 13.7173 20.0007 14 20ZM14 12C14.2833 12 14.521 11.904 14.713 11.712C14.905 11.52 15.0007 11.2827 15 11C14.9993 10.7173 14.9033 10.48 14.712 10.288C14.5207 10.096 14.2833 10 14 10C13.7167 10 13.4793 10.096 13.288 10.288C13.0967 10.48 13.0007 10.7173 13 11C12.9993 11.2827 13.0953 11.5203 13.288 11.713C13.4807 11.9057 13.718 12.0013 14 12ZM14 25C12.6167 25 11.3167 24.7373 10.1 24.212C8.88334 23.6867 7.825 22.9743 6.925 22.075C6.025 21.1757 5.31267 20.1173 4.788 18.9C4.26333 17.6827 4.00067 16.3827 4 15C3.99933 13.6173 4.262 12.3173 4.788 11.1C5.314 9.88267 6.02633 8.82433 6.925 7.925C7.82367 7.02567 8.882 6.31333 10.1 5.788C11.318 5.26267 12.618 5 14 5C15.382 5 16.682 5.26267 17.9 5.788C19.118 6.31333 20.1763 7.02567 21.075 7.925C21.9737 8.82433 22.6863 9.88267 23.213 11.1C23.7397 12.3173 24.002 13.6173 24 15C23.998 16.3827 23.7353 17.6827 23.212 18.9C22.6887 20.1173 21.9763 21.1757 21.075 22.075C20.1737 22.9743 19.1153 23.687 17.9 24.213C16.6847 24.739 15.3847 25.0013 14 25ZM14 23C16.2333 23 18.125 22.225 19.675 20.675C21.225 19.125 22 17.2333 22 15C22 12.7667 21.225 10.875 19.675 9.325C18.125 7.775 16.2333 7 14 7C11.7667 7 9.875 7.775 8.325 9.325C6.775 10.875 6 12.7667 6 15C6 17.2333 6.775 19.125 8.325 20.675C9.875 22.225 11.7667 23 14 23Z" fill="black" stroke="black"/>
</svg>
