<svg width="90" height="90" viewBox="0 0 90 90" fill="none" xmlns="http://www.w3.org/2000/svg">
    <path d="M73.3193 71.7912C57.5837 80.8308 32.0723 80.8308 16.3367 71.7912C0.601069 62.7516 0.602868 48.0978 16.3367 39.06C32.0705 30.0222 57.5855 30.0222 73.3193 39.06C89.0531 48.0978 89.0549 62.7534 73.3193 71.7912Z" fill="#FAFAFA"/>
    <path d="M49.4245 55.4256C46.1179 53.5176 40.7575 53.5176 37.4509 55.4256C34.6483 57.0456 34.2235 59.5134 36.1711 61.3926C36.061 61.4214 35.9551 61.4644 35.8561 61.5204L25.4161 67.5504C24.9733 67.806 24.9733 68.2218 25.4161 68.4774L26.0713 68.8554C26.3172 68.9804 26.5905 69.0418 26.8663 69.034C27.1421 69.0261 27.4115 68.9493 27.6499 68.8104L37.3699 62.4438C37.4096 62.4178 37.447 62.3883 37.4815 62.3556C40.7899 64.2474 46.1215 64.242 49.4227 62.3394C52.7239 60.4368 52.7401 57.3354 49.4245 55.4256Z" fill="#E6E6E6"/>
    <path d="M72.6661 48.483L59.3605 56.1816C59.1945 56.2659 59.0111 56.3098 58.825 56.3098C58.6389 56.3098 58.4554 56.2659 58.2895 56.1816L35.1433 42.8166C34.8481 42.6474 34.8481 42.3702 35.1433 42.1992L48.4489 34.5006C48.6148 34.4164 48.7983 34.3724 48.9844 34.3724C49.1705 34.3724 49.3539 34.4164 49.5199 34.5006L72.6661 47.8656C72.9613 48.0348 72.9613 48.312 72.6661 48.483Z" fill="#E6E6E6"/>
    <path d="M13.4154 63.0432L9.85683 60.9876C9.42663 60.7392 9.42663 60.336 9.85683 60.0876L34.6194 45.7902C34.861 45.6676 35.128 45.6038 35.3988 45.6038C35.6697 45.6038 35.9367 45.6676 36.1782 45.7902L39.7386 47.8458C40.1688 48.0942 40.1688 48.4974 39.7386 48.7458L14.9742 63.0432C14.7327 63.1657 14.4657 63.2296 14.1948 63.2296C13.924 63.2296 13.657 63.1657 13.4154 63.0432Z" fill="#E6E6E6"/>
    <path d="M72.7019 67.1292C76.3334 67.1292 79.2773 65.5207 79.2773 63.5364C79.2773 61.5522 76.3334 59.9436 72.7019 59.9436C69.0704 59.9436 66.1265 61.5522 66.1265 63.5364C66.1265 65.5207 69.0704 67.1292 72.7019 67.1292Z" fill="#E6E6E6"/>
    <path d="M75.5801 59.9687C75.6431 59.1713 76.3523 57.5675 77.2631 56.5991C78.1739 55.6307 79.5329 54.9791 80.4311 55.3697C81.2681 55.7297 81.0845 56.8547 79.9793 57.5171C78.8741 58.1795 77.2325 58.9949 76.6691 60.2495L75.5801 61.7579V59.9687Z" fill="#1A78F2"/>
    <path opacity="0.1" d="M75.5801 59.9687C75.6431 59.1713 76.3523 57.5675 77.2631 56.5991C78.1739 55.6307 79.5329 54.9791 80.4311 55.3697C81.2681 55.7297 81.0845 56.8547 79.9793 57.5171C78.8741 58.1795 77.2325 58.9949 76.6691 60.2495L75.5801 61.7579V59.9687Z" fill="black"/>
    <path d="M75.4326 61.0541C75.4456 61.0542 75.4583 61.05 75.4687 61.0422C75.4791 61.0344 75.4867 61.0234 75.4902 61.0109C76.2426 58.3343 78.6204 56.3003 79.9758 55.9187C79.9892 55.9131 80 55.9027 80.0063 55.8896C80.0126 55.8765 80.0138 55.8616 80.0099 55.8476C80.0059 55.8337 79.9969 55.8217 79.9847 55.8139C79.9724 55.8061 79.9577 55.803 79.9434 55.8053C78.5628 56.1959 76.14 58.2623 75.3768 60.9803C75.3746 60.9878 75.374 60.9956 75.3749 61.0033C75.3758 61.011 75.3783 61.0184 75.3822 61.0251C75.386 61.0318 75.3912 61.0377 75.3974 61.0424C75.4036 61.0471 75.4107 61.0504 75.4182 61.0523L75.4326 61.0541Z" fill="white"/>
    <path d="M75.6989 62.82C75.8627 62.3826 76.4693 61.6877 77.4035 61.1477C78.4367 60.552 79.7003 60.3414 80.0279 59.8374C80.4221 59.2344 79.9379 58.5953 78.9209 58.6385C77.9039 58.6817 76.0283 59.9112 75.5801 61.9542L75.6989 62.82Z" fill="#1A78F2"/>
    <path d="M75.5426 62.3412C75.5538 62.3413 75.5647 62.3381 75.574 62.3321C75.5833 62.326 75.5905 62.3172 75.5948 62.307C76.6172 60.0444 78.4604 59.3694 79.292 59.328C79.3073 59.328 79.322 59.3219 79.3328 59.3111C79.3436 59.3003 79.3496 59.2856 79.3496 59.2704C79.3496 59.2551 79.3436 59.2404 79.3328 59.2296C79.322 59.2188 79.3073 59.2128 79.292 59.2128C78.3722 59.2578 76.538 59.949 75.494 62.2584C75.4908 62.2654 75.489 62.2731 75.4888 62.2809C75.4886 62.2886 75.4899 62.2964 75.4928 62.3036C75.4957 62.3108 75.5 62.3174 75.5054 62.3229C75.5109 62.3285 75.5174 62.3328 75.5246 62.3358C75.5302 62.3387 75.5363 62.3405 75.5426 62.3412Z" fill="white"/>
    <path d="M10.1501 55.5246C10.1501 55.5246 9.97011 53.8704 9.13851 52.5852C8.30691 51.3 7.18371 50.5008 6.12891 50.4162C5.07411 50.3316 4.22271 51.3036 5.35131 51.9714C6.47991 52.6392 8.48511 53.3178 9.40851 55.8108L10.1501 55.5246Z" fill="#1A78F2"/>
    <path opacity="0.1" d="M10.1501 55.5246C10.1501 55.5246 9.97011 53.8704 9.13851 52.5852C8.30691 51.3 7.18371 50.5008 6.12891 50.4162C5.07411 50.3316 4.22271 51.3036 5.35131 51.9714C6.47991 52.6392 8.48511 53.3178 9.40851 55.8108L10.1501 55.5246Z" fill="black"/>
    <path d="M9.84044 55.0944H9.85124C9.85815 55.0916 9.86444 55.0875 9.86974 55.0823C9.87504 55.077 9.87924 55.0708 9.88209 55.0639C9.88494 55.057 9.88639 55.0497 9.88635 55.0422C9.8863 55.0348 9.88477 55.0274 9.88184 55.0206C8.76944 52.2774 6.64184 51.1326 5.68424 50.9094C5.6702 50.9079 5.65612 50.9116 5.64465 50.9198C5.63318 50.9281 5.62513 50.9402 5.62202 50.954C5.61891 50.9677 5.62096 50.9822 5.62779 50.9945C5.63461 51.0069 5.64573 51.0163 5.65904 51.021C6.60404 51.237 8.68124 52.3638 9.77744 55.062C9.78283 55.0736 9.79195 55.0831 9.80337 55.089C9.81478 55.0949 9.82783 55.0968 9.84044 55.0944Z" fill="white"/>
    <path d="M4.77892 55.08C4.88152 55.3104 5.13892 55.4292 5.36392 55.5228C5.60704 55.5885 5.82158 55.7328 5.97412 55.9332C6.22792 56.3706 5.81212 56.9862 6.08392 57.411C6.14768 57.4971 6.22857 57.569 6.32151 57.6223C6.41445 57.6756 6.51742 57.7091 6.62392 57.7206C6.79817 57.7459 6.9736 57.7621 7.14952 57.7692C7.23322 57.7671 7.31675 57.7605 7.39972 57.7494C7.64169 57.695 7.89485 57.7222 8.11972 57.8268C8.46712 58.0212 8.57332 58.4604 8.78392 58.7988C8.91487 58.9983 9.08735 59.1673 9.28959 59.294C9.49183 59.4208 9.71905 59.5023 9.95572 59.5332C10.1573 59.5739 10.366 59.5603 10.5605 59.4936L10.5947 59.472C10.6166 59.4487 10.6371 59.424 10.6559 59.3982V59.3874C10.7171 59.1606 10.6163 58.9248 10.6127 58.6908V58.6476C10.6127 58.3758 10.6307 58.1076 10.6361 57.834C10.6481 57.3336 10.6529 56.8332 10.6505 56.3328C10.6505 56.0088 10.6865 55.6524 10.5497 55.3464C10.3967 55.0098 10.0187 55.0026 9.87652 54.6714C9.81892 54.54 9.78832 54.3996 9.73252 54.2664C9.64677 54.0715 9.50905 53.9039 9.33445 53.782C9.15984 53.6601 8.95506 53.5885 8.74252 53.5752C8.08012 53.541 7.48252 54.0756 6.82732 54.027C6.65717 54.0041 6.48834 53.9722 6.32152 53.9316C5.78152 53.8308 5.16772 53.9838 4.86712 54.4356C4.80082 54.5276 4.75811 54.6344 4.74273 54.7468C4.72735 54.8591 4.73978 54.9736 4.77892 55.08Z" fill="#1A78F2"/>
    <path d="M10.7171 58.3488C10.7243 58.3471 10.7311 58.344 10.7371 58.3396C10.743 58.3352 10.748 58.3296 10.7517 58.3232C10.7555 58.3168 10.7578 58.3097 10.7587 58.3023C10.7595 58.2949 10.7588 58.2875 10.7567 58.2804C9.84765 54.8532 6.23865 54.36 5.39985 54.4194C5.39252 54.4198 5.38535 54.4217 5.37875 54.425C5.37216 54.4282 5.36626 54.4327 5.36141 54.4382C5.35656 54.4438 5.35285 54.4502 5.35049 54.4571C5.34813 54.4641 5.34716 54.4715 5.34765 54.4788C5.34664 54.4863 5.34722 54.494 5.34936 54.5012C5.3515 54.5085 5.35516 54.5153 5.36008 54.5211C5.36501 54.5268 5.3711 54.5315 5.37795 54.5348C5.3848 54.538 5.39226 54.5398 5.39985 54.54C6.22605 54.4806 9.75765 54.9648 10.6505 58.32C10.6563 58.3319 10.6662 58.3414 10.6784 58.3467C10.6906 58.352 10.7043 58.3527 10.7171 58.3488Z" fill="white"/>
    <path d="M6.70684 56.6135C6.71846 56.6114 6.72915 56.6058 6.73744 56.5973C7.07065 56.3086 7.46345 56.097 7.88784 55.9775C8.31223 55.858 8.75775 55.8337 9.19264 55.9061C9.20759 55.9077 9.22259 55.9036 9.23461 55.8946C9.24664 55.8856 9.2548 55.8723 9.25744 55.8575C9.25845 55.8502 9.25799 55.8427 9.25608 55.8356C9.25418 55.8284 9.25087 55.8217 9.24634 55.8159C9.24182 55.81 9.23617 55.8051 9.22974 55.8014C9.2233 55.7978 9.2162 55.7954 9.20884 55.7945C8.7568 55.7204 8.29396 55.747 7.85338 55.8724C7.41279 55.9978 7.00532 56.2189 6.66004 56.5199C6.65482 56.5251 6.65067 56.5313 6.64784 56.5381C6.64501 56.5449 6.64355 56.5522 6.64355 56.5595C6.64355 56.5669 6.64501 56.5742 6.64784 56.581C6.65067 56.5878 6.65482 56.594 6.66004 56.5991C6.66637 56.6047 6.67382 56.6089 6.68189 56.6114C6.68996 56.6139 6.69847 56.6146 6.70684 56.6135Z" fill="white"/>
    <path d="M72.1799 45.99L59.3243 53.4294C59.1638 53.5101 58.9865 53.5521 58.8068 53.5521C58.6271 53.5521 58.4499 53.5101 58.2893 53.4294L35.9153 40.5144C35.6291 40.3506 35.6291 40.0824 35.9153 39.9186L48.7799 32.4774C48.9402 32.3967 49.1171 32.3546 49.2965 32.3546C49.476 32.3546 49.6529 32.3967 49.8131 32.4774L72.1799 45.3924C72.4571 45.558 72.4571 45.8244 72.1799 45.99Z" fill="#37474F"/>
    <path d="M65.3024 49.4009C65.0793 49.5143 64.8327 49.5734 64.5824 49.5734C64.3322 49.5734 64.0855 49.5143 63.8624 49.4009C63.4664 49.1723 63.4664 48.8015 63.8624 48.5729C64.0853 48.4587 64.332 48.3992 64.5824 48.3992C64.8328 48.3992 65.0796 48.4587 65.3024 48.5729C65.7002 48.8015 65.7002 49.1723 65.3024 49.4009Z" fill="#263238"/>
    <path d="M59.3157 53.4293L72.1803 45.99C72.4359 45.8424 72.4629 45.612 72.2613 45.45C72.3892 45.5511 72.4942 45.6781 72.5696 45.8226C72.645 45.9672 72.689 46.126 72.6987 46.2888V46.7747C72.6895 46.955 72.6377 47.1306 72.5476 47.287C72.4575 47.4435 72.3317 47.5763 72.1803 47.6747L59.3247 55.1142C59.1658 55.1987 58.9881 55.2415 58.8081 55.2384V53.5589C58.9855 53.5589 59.16 53.5143 59.3157 53.4293Z" fill="#455A64"/>
    <path d="M35.9155 42.1956C35.7645 42.097 35.639 41.964 35.5492 41.8076C35.4594 41.6512 35.4079 41.4757 35.3989 41.2956V40.8096C35.4084 40.6466 35.4523 40.4874 35.5277 40.3425C35.603 40.1976 35.7082 40.0703 35.8363 39.969C35.6347 40.1346 35.6563 40.3632 35.9155 40.509L58.2805 53.424C58.44 53.5088 58.6184 53.5515 58.7989 53.5482V55.2276C58.6184 55.2309 58.44 55.1882 58.2805 55.1034L35.9155 42.1956Z" fill="#263238"/>
    <path d="M57.1682 51.8705L69.2948 44.8505C69.3329 44.8383 69.3662 44.8143 69.3898 44.7819C69.4134 44.7496 69.4261 44.7106 69.4261 44.6705C69.4261 44.6305 69.4134 44.5914 69.3898 44.5591C69.3662 44.5267 69.3329 44.5027 69.2948 44.4905L51.3704 34.1225C51.2745 34.0737 51.1684 34.0482 51.0608 34.0482C50.9532 34.0482 50.8471 34.0737 50.7512 34.1225L38.6192 41.1425C38.581 41.1547 38.5477 41.1787 38.5241 41.2111C38.5005 41.2434 38.4878 41.2825 38.4878 41.3225C38.4878 41.3626 38.5005 41.4016 38.5241 41.4339C38.5477 41.4663 38.581 41.4903 38.6192 41.5025L56.5472 51.8705C56.6434 51.9194 56.7498 51.9448 56.8577 51.9448C56.9656 51.9448 57.072 51.9194 57.1682 51.8705Z" fill="#FAFAFA"/>
    <path d="M40.5001 41.4612L46.2925 44.82C46.4133 44.8812 46.5468 44.9131 46.6822 44.9131C46.8176 44.9131 46.9511 44.8812 47.0719 44.82L57.2599 38.9394C57.3069 38.9234 57.3478 38.8931 57.3767 38.8528C57.4056 38.8124 57.4212 38.764 57.4212 38.7144C57.4212 38.6647 57.4056 38.6163 57.3767 38.576C57.3478 38.5356 57.3069 38.5053 57.2599 38.4894L51.4603 35.1378C51.3395 35.0766 51.206 35.0447 51.0706 35.0447C50.9352 35.0447 50.8017 35.0766 50.6809 35.1378L40.5001 41.0112C40.4531 41.0271 40.4123 41.0574 40.3833 41.0978C40.3544 41.1381 40.3389 41.1865 40.3389 41.2362C40.3389 41.2858 40.3544 41.3342 40.3833 41.3746C40.4123 41.4149 40.4531 41.4452 40.5001 41.4612Z" fill="#EBEBEB"/>
    <path d="M44.7534 39.8609L46.2402 40.1507C46.333 40.1701 46.4295 40.1613 46.5174 40.1255L47.7774 39.5855C47.9772 39.4991 48.2616 39.5855 48.258 39.7277L48.2382 40.6277C48.2382 40.6853 48.285 40.7393 48.366 40.7735L49.6476 41.2973C49.851 41.3801 49.8024 41.5619 49.563 41.6051L48.06 41.8769C48.0206 41.8807 47.9825 41.8929 47.9483 41.9128C47.9141 41.9327 47.8847 41.9598 47.862 41.9921L47.3958 42.8579C47.3202 42.9947 47.0052 43.0235 46.8558 42.9065L45.9558 42.1667C45.8837 42.1147 45.7961 42.0887 45.7074 42.0929L44.136 42.1037C43.8858 42.1037 43.7418 41.9417 43.8912 41.8265L44.8308 41.1065C44.8442 41.0989 44.8559 41.0887 44.8653 41.0765C44.8747 41.0643 44.8817 41.0503 44.8857 41.0354C44.8897 41.0205 44.8907 41.005 44.8887 40.9897C44.8867 40.9744 44.8817 40.9597 44.874 40.9463L44.37 40.0877C44.2908 39.9437 44.5158 39.8141 44.7534 39.8609Z" fill="#FAFAFA"/>
    <path d="M48.0602 37.9638L51.2498 36.1224C51.3124 36.0855 51.3827 36.0637 51.4552 36.0587C51.5277 36.0537 51.6003 36.0657 51.6674 36.0936C51.7682 36.153 51.7448 36.261 51.617 36.3348L48.4292 38.1762C48.3664 38.2126 48.2961 38.2341 48.2238 38.2391C48.1514 38.2441 48.0788 38.2324 48.0116 38.205C47.9108 38.1456 47.9342 38.0376 48.0602 37.9638Z" fill="#FAFAFA"/>
    <path d="M48.8664 38.4282L52.0542 36.5868C52.1168 36.5499 52.1871 36.5281 52.2596 36.5231C52.3321 36.5181 52.4048 36.53 52.4718 36.558C52.5726 36.6174 52.551 36.7254 52.4214 36.7992L49.2336 38.6406C49.1708 38.6769 49.1005 38.6984 49.0282 38.7034C48.9558 38.7084 48.8832 38.6968 48.816 38.6694C48.7134 38.61 48.7368 38.502 48.8664 38.4282Z" fill="#FAFAFA"/>
    <path d="M49.6692 38.8926L52.857 37.0512C52.9194 37.0139 52.9898 36.9918 53.0623 36.9868C53.1349 36.9818 53.2076 36.994 53.2746 37.0223C53.3772 37.0817 53.3538 37.1898 53.2242 37.2636L50.04 39.105C49.9772 39.1413 49.9069 39.1628 49.8345 39.1678C49.7621 39.1728 49.6896 39.1612 49.6224 39.1338C49.518 39.0744 49.5396 38.9664 49.6692 38.8926Z" fill="#FAFAFA"/>
    <path d="M50.472 39.3552L53.6616 37.5156C53.7238 37.4783 53.7938 37.4563 53.8661 37.4513C53.9383 37.4463 54.0108 37.4585 54.0774 37.4868C54.18 37.5444 54.1566 37.6524 54.0288 37.728L50.8392 39.5676C50.7768 39.6049 50.7064 39.6269 50.6339 39.6319C50.5613 39.6369 50.4886 39.6248 50.4216 39.5964C50.3208 39.5388 50.3442 39.4308 50.472 39.3552Z" fill="#FAFAFA"/>
    <path d="M51.2766 39.8196L54.4644 37.98C54.5269 37.9427 54.5972 37.9207 54.6698 37.9156C54.7423 37.9106 54.8151 37.9228 54.882 37.9512C54.9828 38.0088 54.9612 38.1168 54.8316 38.1924L51.6438 40.032C51.5814 40.0693 51.511 40.0913 51.4385 40.0963C51.3659 40.1013 51.2932 40.0891 51.2262 40.0608C51.12 40.0032 51.147 39.8952 51.2766 39.8196Z" fill="#FAFAFA"/>
    <path d="M52.0795 40.2839L55.2601 38.4443C55.3226 38.407 55.3929 38.385 55.4655 38.38C55.538 38.375 55.6108 38.3872 55.6777 38.4155C55.7785 38.4731 55.7569 38.5811 55.6273 38.6567L52.4467 40.4999C52.3843 40.5372 52.3139 40.5593 52.2414 40.5643C52.1688 40.5693 52.0961 40.5571 52.0291 40.5287C51.9283 40.4675 51.9499 40.3595 52.0795 40.2839Z" fill="#FAFAFA"/>
    <path d="M47.6478 45.594L47.9106 45.747C47.9832 45.7834 48.0633 45.8023 48.1446 45.8023C48.2258 45.8023 48.3059 45.7834 48.3786 45.747L54.4986 42.2172C54.6282 42.1416 54.6282 42.021 54.4986 41.9472L54.234 41.7942C54.1613 41.7577 54.0812 41.7388 54 41.7388C53.9187 41.7388 53.8386 41.7577 53.766 41.7942L47.646 45.324C47.6176 45.3335 47.593 45.3518 47.5757 45.3762C47.5583 45.4005 47.5491 45.4297 47.5493 45.4596C47.5495 45.4895 47.5591 45.5186 47.5768 45.5427C47.5945 45.5668 47.6193 45.5848 47.6478 45.594Z" fill="#E0E0E0"/>
    <path d="M58.6155 39.2616L58.8783 39.4146C59.0079 39.4884 59.0079 39.609 58.8783 39.6846L56.4213 41.103C56.3486 41.1394 56.2685 41.1583 56.1873 41.1583C56.106 41.1583 56.0259 41.1394 55.9533 41.103L55.6905 40.95C55.5609 40.8762 55.5609 40.7556 55.6905 40.68L58.1403 39.2616C58.2138 39.224 58.2952 39.2043 58.3779 39.2043C58.4605 39.2043 58.5419 39.224 58.6155 39.2616Z" fill="#E0E0E0"/>
    <path d="M49.2734 46.5282L55.0802 49.878C55.201 49.9392 55.3345 49.9711 55.4699 49.9711C55.6053 49.9711 55.7388 49.9392 55.8596 49.878L66.0476 43.9974C66.0946 43.9814 66.1355 43.9511 66.1644 43.9108C66.1933 43.8704 66.2089 43.822 66.2089 43.7724C66.2089 43.7227 66.1933 43.6743 66.1644 43.6339C66.1355 43.5936 66.0946 43.5633 66.0476 43.5474L60.248 40.1958C60.1272 40.1346 59.9937 40.1027 59.8583 40.1027C59.7229 40.1027 59.5894 40.1346 59.4686 40.1958L49.2734 46.08C49.227 46.0963 49.1868 46.1266 49.1584 46.1668C49.13 46.2069 49.1147 46.2549 49.1147 46.3041C49.1147 46.3532 49.13 46.4012 49.1584 46.4413C49.1868 46.4815 49.227 46.5118 49.2734 46.5282Z" fill="#EBEBEB"/>
    <path d="M53.5322 44.9262L55.0208 45.2178C55.1136 45.237 55.2101 45.2283 55.298 45.1926L56.558 44.6526C56.7596 44.5662 57.044 44.6526 57.0404 44.793L57.0206 45.693C57.0206 45.7506 57.0656 45.8046 57.1466 45.837L58.43 46.3608C58.6334 46.4454 58.583 46.6272 58.3454 46.6704L56.8442 46.9386C56.8049 46.9428 56.767 46.9552 56.7329 46.9751C56.6988 46.9949 56.6692 47.0217 56.6462 47.0538L56.18 47.9196C56.1062 48.0564 55.7912 48.0852 55.64 47.9682L54.74 47.2284C54.6672 47.1764 54.5791 47.1504 54.4898 47.1546L52.9184 47.1654C52.67 47.1654 52.5242 47.0034 52.6736 46.8882L53.6132 46.1682C53.6398 46.1524 53.6594 46.1269 53.6677 46.0971C53.6761 46.0673 53.6727 46.0354 53.6582 46.008L53.1524 45.1494C53.0714 45.0108 53.2964 44.8812 53.5322 44.9262Z" fill="#FAFAFA"/>
    <path d="M56.8423 43.0307L60.0301 41.1893C60.0927 41.1524 60.163 41.1306 60.2355 41.1256C60.308 41.1206 60.3807 41.1326 60.4477 41.1605C60.5503 41.2199 60.5269 41.3279 60.3973 41.4017L57.2095 43.2431C57.1467 43.2795 57.0765 43.301 57.0041 43.306C56.9317 43.311 56.8591 43.2993 56.7919 43.2719C56.7001 43.2125 56.7127 43.1045 56.8423 43.0307Z" fill="#FAFAFA"/>
    <path d="M57.6453 43.4952L60.8403 41.6538C60.9029 41.6169 60.9732 41.5951 61.0457 41.5901C61.1182 41.5851 61.1909 41.597 61.2579 41.625C61.3587 41.6844 61.3353 41.7924 61.2075 41.8662L58.0179 43.7076C57.9556 43.7449 57.8854 43.7673 57.8129 43.7729C57.7405 43.7785 57.6677 43.7673 57.6003 43.74C57.4941 43.677 57.5175 43.569 57.6453 43.4952Z" fill="#FAFAFA"/>
    <path d="M58.4499 43.9578L61.6377 42.12C61.7002 42.0827 61.7705 42.0607 61.8431 42.0557C61.9156 42.0507 61.9883 42.0628 62.0553 42.0912C62.1561 42.1488 62.1345 42.2568 62.0049 42.3324L58.8171 44.172C58.7543 44.2084 58.684 44.2299 58.6117 44.2349C58.5393 44.2398 58.4667 44.2282 58.3995 44.2008C58.2969 44.1414 58.3203 44.0334 58.4499 43.9578Z" fill="#FAFAFA"/>
    <path d="M59.2524 44.4221L62.4402 42.5825C62.5026 42.5452 62.573 42.5232 62.6455 42.5182C62.7181 42.5132 62.7908 42.5254 62.8578 42.5537C62.9604 42.6113 62.937 42.7193 62.8074 42.7949L59.6196 44.6399C59.5571 44.6772 59.4868 44.6993 59.4142 44.7043C59.3417 44.7093 59.2689 44.6971 59.202 44.6687C59.1012 44.6057 59.1228 44.4977 59.2524 44.4221Z" fill="#FAFAFA"/>
    <path d="M60.0555 44.8866L63.2451 43.047C63.3072 43.0097 63.3773 42.9877 63.4496 42.9827C63.5218 42.9777 63.5943 42.9898 63.6609 43.0182C63.7635 43.0758 63.7401 43.1838 63.6123 43.2594L60.4227 45.099C60.3603 45.1363 60.2899 45.1583 60.2174 45.1633C60.1448 45.1683 60.0721 45.1561 60.0051 45.1278C59.9043 45.0702 59.9277 44.9622 60.0555 44.8866Z" fill="#FAFAFA"/>
    <path d="M60.8601 45.36L64.0479 43.5204C64.1103 43.4831 64.1807 43.4611 64.2532 43.4561C64.3258 43.451 64.3985 43.4632 64.4655 43.4916C64.5663 43.5492 64.5447 43.6572 64.4151 43.7328L61.2273 45.5724C61.1648 45.6097 61.0945 45.6317 61.0219 45.6367C60.9494 45.6417 60.8766 45.6296 60.8097 45.6012C60.7071 45.54 60.7305 45.4266 60.8601 45.36Z" fill="#FAFAFA"/>
    <path d="M56.4266 50.661L56.6912 50.814C56.7639 50.8504 56.844 50.8694 56.9252 50.8694C57.0065 50.8694 57.0866 50.8504 57.1592 50.814L63.2792 47.2842C63.3076 47.2748 63.3323 47.2567 63.3498 47.2324C63.3673 47.2082 63.3767 47.1791 63.3767 47.1492C63.3767 47.1193 63.3673 47.0901 63.3498 47.0659C63.3323 47.0417 63.3076 47.0236 63.2792 47.0142L63.0146 46.8612C62.942 46.8248 62.8619 46.8058 62.7806 46.8058C62.6994 46.8058 62.6193 46.8248 62.5466 46.8612L56.4266 50.391C56.3982 50.4004 56.3735 50.4185 56.356 50.4427C56.3385 50.4669 56.3291 50.4961 56.3291 50.526C56.3291 50.5559 56.3385 50.585 56.356 50.6092C56.3735 50.6335 56.3982 50.6516 56.4266 50.661Z" fill="#E0E0E0"/>
    <path d="M67.3941 44.3286L67.6587 44.4816C67.7883 44.5554 67.7883 44.676 67.6587 44.7516L65.2017 46.17C65.1291 46.2064 65.049 46.2253 64.9677 46.2253C64.8865 46.2253 64.8063 46.2064 64.7337 46.17L64.4691 46.017C64.4407 46.0076 64.416 45.9895 64.3985 45.9652C64.381 45.941 64.3716 45.9119 64.3716 45.882C64.3716 45.8521 64.381 45.8229 64.3985 45.7987C64.416 45.7744 64.4407 45.7563 64.4691 45.747L66.9279 44.3286C67.0002 44.2922 67.08 44.2732 67.161 44.2732C67.242 44.2732 67.3218 44.2922 67.3941 44.3286Z" fill="#E0E0E0"/>
    <path d="M43.4304 36.7542C43.3811 36.7784 43.3269 36.7909 43.272 36.7909C43.2171 36.7909 43.1629 36.7784 43.1136 36.7542C43.0949 36.7476 43.0788 36.7355 43.0674 36.7193C43.0559 36.7032 43.0498 36.684 43.0498 36.6642C43.0498 36.6444 43.0559 36.6252 43.0674 36.609C43.0788 36.5929 43.0949 36.5808 43.1136 36.5742C43.1629 36.55 43.2171 36.5375 43.272 36.5375C43.3269 36.5375 43.3811 36.55 43.4304 36.5742C43.5186 36.6228 43.5186 36.7038 43.4304 36.7542Z" fill="#263238"/>
    <path d="M42.9245 38.1924C42.8263 38.2421 42.7178 38.2679 42.6077 38.2679C42.4976 38.2679 42.3891 38.2421 42.2909 38.1924C42.2551 38.1778 42.2245 38.1529 42.203 38.1208C42.1814 38.0888 42.1699 38.051 42.1699 38.0124C42.1699 37.9738 42.1814 37.936 42.203 37.9039C42.2245 37.8719 42.2551 37.847 42.2909 37.8324C42.3891 37.7827 42.4976 37.7568 42.6077 37.7568C42.7178 37.7568 42.8263 37.7827 42.9245 37.8324C42.9603 37.847 42.9909 37.8719 43.0124 37.9039C43.034 37.936 43.0455 37.9738 43.0455 38.0124C43.0455 38.051 43.034 38.0888 43.0124 38.1208C42.9909 38.1529 42.9603 38.1778 42.9245 38.1924Z" fill="#263238"/>
    <path d="M43.3803 37.5552C43.2633 37.4868 43.2705 37.3752 43.3947 37.3032L45.4791 36.099C45.5468 36.0644 45.6218 36.0464 45.6978 36.0464C45.7738 36.0464 45.8488 36.0644 45.9165 36.099C46.0317 36.1656 46.0263 36.279 45.9021 36.351L43.8177 37.5534C43.75 37.5879 43.6752 37.606 43.5992 37.6063C43.5233 37.6066 43.4483 37.5891 43.3803 37.5552Z" fill="#263238"/>
    <path d="M38.3239 19.9457V20.3687L36.8623 21.2129L34.6699 22.4729L15.3163 33.6599C15.2016 33.7319 15.1069 33.8315 15.0409 33.9497C14.9697 34.066 14.93 34.1987 14.9257 34.3349V60.0569C14.9257 61.4555 13.9429 62.0225 12.7333 61.3169C11.5237 60.6113 10.5391 58.9175 10.5391 57.5189V31.7951C10.5466 31.6598 10.5858 31.5282 10.6537 31.4109C10.7215 31.2936 10.8161 31.194 10.9297 31.1201L32.4739 18.6803L34.5601 17.4779C34.6298 17.5952 34.6682 17.7285 34.6717 17.8649V18.2573L11.6605 31.5773C11.5525 31.6443 11.4628 31.7371 11.3995 31.8473C11.3208 31.9682 11.2766 32.1082 11.2717 32.2523V57.9401C11.2717 58.8725 11.9269 60.0047 12.7351 60.4709C13.5433 60.9371 14.1967 60.5591 14.1967 59.6267V33.9047C14.2029 33.77 14.2409 33.6386 14.3075 33.5213C14.3742 33.404 14.4675 33.3041 14.5801 33.2297L38.2105 19.5857C38.2784 19.6941 38.3174 19.818 38.3239 19.9457Z" fill="#E0E0E0"/>
    <path d="M36.1296 18.7073V19.9457L13.86 32.8085C13.7456 32.8813 13.6499 32.98 13.5808 33.0967C13.5117 33.2133 13.4711 33.3446 13.4622 33.4799V59.2019C13.4622 59.6681 13.1364 59.8571 12.7332 59.6231C12.5209 59.4854 12.3441 59.2995 12.2171 59.0806C12.0901 58.8616 12.0166 58.6158 12.0024 58.3631V32.6393C12.0071 32.5034 12.0461 32.3709 12.1158 32.2541C12.1829 32.1368 12.2774 32.0373 12.3912 31.9643L36.0198 18.3221C36.0883 18.4393 36.126 18.5718 36.1296 18.7073Z" fill="#E0E0E0"/>
    <path d="M15.7697 34.3656C15.6997 34.4816 15.6607 34.6136 15.6563 34.749V60.2496C15.6567 60.435 15.6447 60.6202 15.6203 60.804C15.6131 60.852 15.6059 60.8988 15.5987 60.9444C15.5987 60.9876 15.5825 61.029 15.5735 61.0722C15.5645 61.1154 15.5555 61.1478 15.5447 61.1838C15.5339 61.2198 15.5267 61.254 15.5159 61.2882C15.3967 61.7261 15.1163 62.1029 14.7311 62.343C14.2073 62.6436 13.5053 62.6076 12.7331 62.163C11.1131 61.2306 9.80811 58.8618 9.80811 56.8746V31.3722C9.81249 31.2368 9.85154 31.1048 9.9215 30.9888L10.6541 31.41C10.583 31.5262 10.5433 31.659 10.5389 31.7952V57.5172C10.5389 58.9158 11.5217 60.6168 12.7331 61.3152C13.9445 62.0136 14.9255 61.4484 14.9255 60.0552V34.3278C14.9299 34.1916 14.9696 34.0588 15.0407 33.9426L15.7697 34.3656Z" fill="#EBEBEB"/>
    <path d="M14.3079 33.5213C14.2382 33.6374 14.1992 33.7693 14.1945 33.9047V59.6267C14.1945 60.5591 13.5393 60.9371 12.7329 60.4709C11.9265 60.0047 11.2695 58.8725 11.2695 57.9401V32.2451C11.2745 32.101 11.3187 31.9609 11.3973 31.8401L12.1173 32.2541C12.0476 32.3708 12.0086 32.5034 12.0039 32.6393V58.3613C12.0181 58.614 12.0916 58.8598 12.2186 59.0787C12.3456 59.2976 12.5224 59.4835 12.7347 59.6213C13.1379 59.8553 13.4637 59.6663 13.4637 59.2001V33.4799C13.4681 33.3437 13.5078 33.2109 13.5789 33.0947L14.3079 33.5213Z" fill="#EBEBEB"/>
    <path d="M34.5598 17.4779L32.4772 18.6803L10.9294 31.1201C10.8143 31.1916 10.7195 31.2914 10.654 31.4099L9.92139 30.9887C9.98684 30.8697 10.0816 30.7693 10.1968 30.6971L31.7428 18.2573L32.1586 18.0161L32.5798 17.7785L32.9398 17.5697L33.154 17.4455L33.5518 17.2169C33.6678 17.1553 33.7967 17.1218 33.9281 17.1193C34.0594 17.1168 34.1895 17.1453 34.3078 17.2025C34.4143 17.2709 34.5011 17.3658 34.5598 17.4779Z" fill="#FAFAFA"/>
    <path d="M39.6738 20.4317L37.5912 21.6341L33.9354 23.7437L16.047 34.0739C15.9317 34.1465 15.8365 34.2467 15.7698 34.3655L15.0498 33.9425C15.1143 33.828 15.2057 33.731 15.3162 33.6599L34.668 22.4801L36.8604 21.2201L38.322 20.3759L38.6622 20.1797L38.7 20.1599C38.8124 20.1061 38.9354 20.0781 39.06 20.0781C39.1846 20.0781 39.3076 20.1061 39.42 20.1599L39.4578 20.1833C39.5469 20.2495 39.6206 20.3343 39.6738 20.4317Z" fill="#FAFAFA"/>
    <path d="M36.0195 18.3222L12.3909 31.9644C12.2771 32.0374 12.1826 32.1368 12.1155 32.2542L11.3955 31.8402C11.4588 31.73 11.5485 31.6372 11.6565 31.5702L34.6677 18.2502L35.0061 18.054C35.1221 17.9923 35.251 17.9588 35.3824 17.9563C35.5137 17.9538 35.6438 17.9823 35.7621 18.0396C35.8711 18.1097 35.9598 18.2072 36.0195 18.3222Z" fill="#FAFAFA"/>
    <path d="M38.2156 19.5858L14.5798 33.2298C14.4641 33.3019 14.3687 33.4022 14.3026 33.5214L13.5718 33.0984C13.6408 32.9783 13.7401 32.8784 13.8598 32.8086L36.1366 19.9458L37.2166 19.3266C37.3327 19.2652 37.4617 19.232 37.5931 19.2299C37.7244 19.2277 37.8545 19.2565 37.9726 19.314C38.0756 19.3823 38.1592 19.4759 38.2156 19.5858Z" fill="#FAFAFA"/>
    <path d="M39.7798 20.8188V46.3194C39.7798 47.3652 39.4198 48.0978 38.8384 48.4218L14.6968 62.361C14.9105 62.2325 15.0959 62.0619 15.2416 61.8595C15.3874 61.6571 15.4904 61.4272 15.5446 61.1838C15.5554 61.1478 15.5644 61.11 15.5734 61.0722C15.5824 61.0344 15.5896 60.9876 15.5986 60.9444C15.6076 60.9012 15.613 60.8526 15.6202 60.804C15.6445 60.6202 15.6566 60.435 15.6562 60.2496V34.749C15.6606 34.6136 15.6996 34.4816 15.7696 34.3656C15.8362 34.2468 15.9315 34.1466 16.0468 34.074L33.9352 23.7456L37.591 21.636L39.6736 20.4336C39.7414 20.5508 39.778 20.6834 39.7798 20.8188Z" fill="#F5F5F5"/>
    <path d="M18.2412 34.4969L21.8412 32.4143C22.0572 32.2901 22.23 32.3891 22.23 32.6393V37.6487C22.223 37.7839 22.1841 37.9156 22.1165 38.0329C22.049 38.1502 21.9546 38.2498 21.8412 38.3237L18.2412 40.4063C18.0252 40.5305 17.8506 40.4297 17.8506 40.1813V35.1719C17.8579 35.0366 17.8971 34.9049 17.965 34.7876C18.0329 34.6703 18.1275 34.5707 18.2412 34.4969Z" fill="#455A64"/>
    <path d="M17.8506 42.3197L37.593 30.9221V31.7663L17.8506 43.1639V42.3197Z" fill="#1A78F2"/>
    <path opacity="0.4" d="M17.8506 42.3197L37.593 30.9221V31.7663L17.8506 43.1639V42.3197Z" fill="white"/>
    <path d="M18.0846 44.7174L22.005 42.4548C22.1328 42.3792 22.2372 42.4404 22.2372 42.5898V50.4918C22.233 50.5728 22.2098 50.6517 22.1694 50.722C22.1291 50.7924 22.0728 50.8523 22.005 50.8968L18.0846 53.1594C17.955 53.235 17.8506 53.1738 17.8506 53.0244V45.1224C17.8548 45.0412 17.8783 44.9622 17.9189 44.8918C17.9596 44.8214 18.0164 44.7616 18.0846 44.7174Z" fill="#F0F0F0"/>
    <path d="M18.0846 54L22.005 51.7356C22.1328 51.6618 22.2372 51.723 22.2372 51.8706V58.0554L17.8506 60.5934V54.4104C17.854 54.3282 17.877 54.2481 17.9177 54.1767C17.9584 54.1053 18.0157 54.0447 18.0846 54Z" fill="#F0F0F0"/>
    <path d="M23.2037 41.76L27.1223 39.4974C27.2519 39.4236 27.3563 39.483 27.3563 39.6324V50.0724C27.3519 50.1535 27.3284 50.2325 27.2878 50.3029C27.2471 50.3732 27.1904 50.433 27.1223 50.4774L23.2037 52.74C23.0741 52.8138 22.9697 52.7544 22.9697 52.605V42.165C22.9744 42.0839 22.998 42.005 23.0386 41.9347C23.0793 41.8643 23.1358 41.8045 23.2037 41.76Z" fill="#F0F0F0"/>
    <path d="M28.3209 38.8079L32.2395 36.5399C32.3691 36.4643 32.4735 36.5255 32.4735 36.6749V44.5769C32.4693 44.6581 32.4458 44.7371 32.4052 44.8075C32.3645 44.8779 32.3077 44.9377 32.2395 44.9819L28.3209 47.2499C28.1913 47.3255 28.0869 47.2643 28.0869 47.1149V39.2129C28.0912 39.1317 28.1146 39.0527 28.1553 38.9823C28.1959 38.9119 28.2527 38.8521 28.3209 38.8079Z" fill="#F0F0F0"/>
    <path d="M33.4405 35.8523L37.3591 33.5897C37.4887 33.5141 37.5931 33.5753 37.5931 33.7247V44.1647C37.5885 44.2458 37.5649 44.3247 37.5242 44.395C37.4836 44.4653 37.4271 44.5251 37.3591 44.5697L33.4405 46.8323C33.3109 46.9061 33.2065 46.8467 33.2065 46.6973V36.2573C33.2108 36.1761 33.2342 36.0971 33.2749 36.0267C33.3156 35.9563 33.3723 35.8965 33.4405 35.8523Z" fill="#F0F0F0"/>
    <path d="M23.2037 53.5824L27.1223 51.3198C27.2519 51.2442 27.3563 51.3054 27.3563 51.4548V55.1052L22.9697 57.6396V53.9874C22.974 53.9062 22.9974 53.8272 23.0381 53.7568C23.0787 53.6864 23.1355 53.6266 23.2037 53.5824Z" fill="#F0F0F0"/>
    <path d="M28.0801 48.4992V54.684L32.4667 52.1514V45.9666C32.4667 45.8172 32.3623 45.7578 32.2327 45.8316L28.3141 48.0942C28.246 48.1385 28.1893 48.1983 28.1486 48.2687C28.108 48.3391 28.0845 48.418 28.0801 48.4992Z" fill="#F0F0F0"/>
    <path d="M33.4387 47.673L37.3591 45.4104C37.4887 45.3348 37.5931 45.396 37.5931 45.5454V49.1958L33.2065 51.7284V48.078C33.2107 47.997 33.2339 47.9181 33.2743 47.8478C33.3146 47.7774 33.371 47.7175 33.4387 47.673Z" fill="#F0F0F0"/>
    <path d="M23.9401 53.9999L26.3971 52.5815C26.5267 52.5059 26.6311 52.5671 26.6311 52.7165V54.7199C26.6268 54.8011 26.6034 54.8801 26.5627 54.9505C26.522 55.0209 26.4653 55.0807 26.3971 55.1249L23.9401 56.5397C23.8105 56.6135 23.7061 56.5541 23.7061 56.4047V54.4121C23.7092 54.3297 23.7321 54.2492 23.7728 54.1775C23.8135 54.1057 23.8709 54.0449 23.9401 53.9999Z" fill="#E0E0E0"/>
    <path d="M34.171 48.0977L36.628 46.6793C36.7558 46.6037 36.862 46.6649 36.862 46.8143V48.8069C36.8572 48.888 36.8335 48.9668 36.7929 49.0371C36.7523 49.1074 36.6958 49.1672 36.628 49.2119L34.171 50.6303C34.0414 50.7041 33.937 50.6447 33.937 50.4953V48.5027C33.9413 48.4215 33.9647 48.3425 34.0054 48.2721C34.046 48.2017 34.1028 48.1419 34.171 48.0977Z" fill="#E0E0E0"/>
    <path d="M18.8155 45.1404L21.2725 43.7202C21.4021 43.6464 21.5065 43.7076 21.5065 43.8552V45.8496C21.5019 45.9307 21.4783 46.0095 21.4376 46.0799C21.397 46.1502 21.3405 46.21 21.2725 46.2546L18.8155 47.673C18.6877 47.7468 18.5815 47.6874 18.5815 47.538V45.54C18.5868 45.4598 18.6106 45.3819 18.6513 45.3125C18.6919 45.2431 18.7481 45.1842 18.8155 45.1404Z" fill="#E0E0E0"/>
    <path d="M18.7381 48.1391L21.3517 46.6307C21.4381 46.5821 21.5065 46.6217 21.5065 46.7207V46.7837C21.5038 46.8377 21.4883 46.8903 21.4614 46.9372C21.4345 46.9841 21.397 47.0241 21.3517 47.0537L18.7381 48.5621C18.6517 48.6125 18.5815 48.5621 18.5815 48.4721V48.4091C18.5846 48.355 18.6004 48.3023 18.6276 48.2554C18.6548 48.2085 18.6927 48.1687 18.7381 48.1391Z" fill="#E0E0E0"/>
    <path d="M18.7381 48.9834L21.3517 47.475C21.4381 47.4264 21.5065 47.466 21.5065 47.565V47.628C21.5038 47.682 21.4883 47.7346 21.4614 47.7815C21.4345 47.8284 21.397 47.8683 21.3517 47.898L18.7381 49.4064C18.6517 49.4568 18.5815 49.4064 18.5815 49.3164V49.2534C18.5846 49.1992 18.6004 49.1466 18.6276 49.0997C18.6548 49.0528 18.6927 49.0129 18.7381 48.9834Z" fill="#E0E0E0"/>
    <path d="M18.7381 49.8276L21.3517 48.3192C21.4381 48.2706 21.5065 48.3102 21.5065 48.4092V48.4722C21.5038 48.5262 21.4883 48.5788 21.4614 48.6257C21.4345 48.6726 21.397 48.7125 21.3517 48.7422L18.7381 50.2506C18.6517 50.301 18.5815 50.2596 18.5815 50.1606V50.0976C18.5846 50.0435 18.6004 49.9908 18.6276 49.9439C18.6548 49.897 18.6927 49.8572 18.7381 49.8276Z" fill="#E0E0E0"/>
    <path d="M18.7381 50.6717L21.3517 49.1633C21.4381 49.1147 21.5065 49.1543 21.5065 49.2533V49.3199C21.5038 49.3739 21.4883 49.4265 21.4614 49.4734C21.4345 49.5203 21.397 49.5603 21.3517 49.5899L18.7381 51.0983C18.6517 51.1487 18.5815 51.1073 18.5815 51.0083V50.9399C18.5849 50.8861 18.6008 50.8338 18.628 50.7872C18.6552 50.7407 18.6929 50.7011 18.7381 50.6717Z" fill="#E0E0E0"/>
    <path d="M18.7381 51.5159L21.3517 50.0075C21.4381 49.9589 21.5065 49.9985 21.5065 50.0975V50.1605C21.5038 50.2146 21.4883 50.2672 21.4614 50.3141C21.4345 50.361 21.397 50.4009 21.3517 50.4305L18.7381 51.9389C18.6517 51.9893 18.5815 51.9479 18.5815 51.8489V51.7859C18.5846 51.7318 18.6004 51.6792 18.6276 51.6323C18.6548 51.5854 18.6927 51.5455 18.7381 51.5159Z" fill="#E0E0E0"/>
    <path d="M23.9401 42.1847L26.3971 40.7663C26.5267 40.6907 26.6311 40.7519 26.6311 40.9013V42.8939C26.6267 42.9751 26.6032 43.0541 26.5625 43.1244C26.5219 43.1948 26.4652 43.2546 26.3971 43.2989L23.9401 44.7173C23.8105 44.7911 23.7061 44.7317 23.7061 44.5823V42.5897C23.7103 42.5085 23.7337 42.4295 23.7744 42.3591C23.8151 42.2887 23.8718 42.229 23.9401 42.1847Z" fill="#E0E0E0"/>
    <path d="M23.8555 45.1799L26.4691 43.6715C26.5555 43.6211 26.6257 43.6607 26.6257 43.7615V43.8227C26.6227 43.8769 26.607 43.9296 26.5798 43.9765C26.5526 44.0234 26.5146 44.0632 26.4691 44.0927L23.8555 45.6011C23.7709 45.6515 23.7007 45.6011 23.7007 45.5111V45.4499C23.7034 45.3959 23.7189 45.3433 23.7458 45.2964C23.7727 45.2495 23.8103 45.2096 23.8555 45.1799Z" fill="#E0E0E0"/>
    <path d="M23.8555 46.0295L26.4691 44.5211C26.5555 44.4707 26.6257 44.5103 26.6257 44.6111V44.6723C26.6227 44.7265 26.607 44.7792 26.5798 44.8261C26.5526 44.873 26.5146 44.9129 26.4691 44.9423L23.8555 46.4507C23.7709 46.5011 23.7007 46.4597 23.7007 46.3607V46.2995C23.7034 46.2455 23.7189 46.1929 23.7458 46.146C23.7727 46.0991 23.8103 46.0592 23.8555 46.0295Z" fill="#E0E0E0"/>
    <path d="M23.8555 46.8738L26.4691 45.36C26.5555 45.3096 26.6257 45.3492 26.6257 45.45V45.5112C26.6227 45.5653 26.607 45.6181 26.5798 45.665C26.5526 45.7119 26.5146 45.7517 26.4691 45.7812L23.8555 47.2896C23.7709 47.34 23.7007 47.2986 23.7007 47.1996V47.1384C23.7043 47.0853 23.7201 47.0338 23.747 46.9879C23.7738 46.942 23.811 46.9029 23.8555 46.8738Z" fill="#E0E0E0"/>
    <path d="M23.8555 47.718L26.4691 46.2096C26.5555 46.1592 26.6257 46.1988 26.6257 46.2996V46.3608C26.6227 46.415 26.607 46.4677 26.5798 46.5146C26.5526 46.5615 26.5146 46.6013 26.4691 46.6308L23.8555 48.1392C23.7709 48.1896 23.7007 48.1482 23.7007 48.0492V47.988C23.7034 47.934 23.7189 47.8814 23.7458 47.8345C23.7727 47.7876 23.8103 47.7477 23.8555 47.718Z" fill="#E0E0E0"/>
    <path d="M23.8555 48.5621L26.4691 47.0537C26.5555 47.0033 26.6257 47.0429 26.6257 47.1437V47.2049C26.6227 47.2591 26.607 47.3118 26.5798 47.3587C26.5526 47.4056 26.5146 47.4454 26.4691 47.4749L23.8555 48.9833C23.7709 49.0337 23.7007 48.9923 23.7007 48.8933V48.8321C23.7034 48.7781 23.7189 48.7255 23.7458 48.6786C23.7727 48.6317 23.8103 48.5918 23.8555 48.5621Z" fill="#E0E0E0"/>
    <path d="M23.8555 49.4064L26.4691 47.898C26.5555 47.8476 26.6257 47.889 26.6257 47.988V48.0492C26.623 48.1034 26.6074 48.1562 26.5802 48.2032C26.5529 48.2502 26.5148 48.2899 26.4691 48.3192L23.8555 49.8276C23.7709 49.878 23.7007 49.8384 23.7007 49.7376V49.68C23.7033 49.6255 23.7187 49.5723 23.7456 49.5248C23.7724 49.4773 23.8101 49.4367 23.8555 49.4064Z" fill="#E0E0E0"/>
    <path d="M23.8555 50.2505L26.4691 48.7421C26.5555 48.6917 26.6257 48.7331 26.6257 48.8321V48.8933C26.623 48.9475 26.6074 49.0003 26.5802 49.0473C26.5529 49.0943 26.5148 49.1341 26.4691 49.1633L23.8555 50.6717C23.7709 50.7221 23.7007 50.6825 23.7007 50.5817V50.5205C23.7039 50.4666 23.7195 50.4141 23.7463 50.3673C23.7732 50.3204 23.8106 50.2805 23.8555 50.2505Z" fill="#E0E0E0"/>
    <path d="M23.8555 51.0947L26.4691 49.5863C26.5555 49.5359 26.6257 49.5773 26.6257 49.6763V49.7375C26.623 49.7918 26.6074 49.8446 26.5802 49.8916C26.5529 49.9385 26.5148 49.9783 26.4691 50.0075L23.8555 51.5159C23.7709 51.5663 23.7007 51.5267 23.7007 51.4259V51.3647C23.7039 51.3108 23.7195 51.2584 23.7463 51.2115C23.7732 51.1647 23.8106 51.1247 23.8555 51.0947Z" fill="#E0E0E0"/>
    <path d="M18.8155 54.4283L21.2725 53.0081C21.4021 52.9343 21.5065 52.9955 21.5065 53.1431V55.1375C21.5021 55.2187 21.4787 55.2977 21.438 55.368C21.3973 55.4384 21.3407 55.4982 21.2725 55.5425L18.8155 56.9609C18.6877 57.0347 18.5815 56.9753 18.5815 56.8259V54.8333C18.5859 54.7522 18.6094 54.6732 18.6501 54.6028C18.6907 54.5325 18.7474 54.4727 18.8155 54.4283Z" fill="#E0E0E0"/>
    <path d="M18.7381 57.42L21.3517 55.9116C21.4381 55.863 21.5065 55.9026 21.5065 56.0016V56.0646C21.5038 56.1186 21.4883 56.1712 21.4614 56.2181C21.4345 56.265 21.397 56.3049 21.3517 56.3346L18.7381 57.843C18.6517 57.8934 18.5815 57.852 18.5815 57.753V57.69C18.5846 57.6359 18.6004 57.5832 18.6276 57.5363C18.6548 57.4894 18.6927 57.4496 18.7381 57.42Z" fill="#E0E0E0"/>
    <path d="M18.7381 58.2713L21.3517 56.7629C21.4381 56.7143 21.5065 56.7539 21.5065 56.8529V56.9159C21.5038 56.9699 21.4883 57.0225 21.4614 57.0694C21.4345 57.1164 21.397 57.1563 21.3517 57.1859L18.7381 58.6943C18.6517 58.7447 18.5815 58.7033 18.5815 58.6043V58.5413C18.5846 58.4872 18.6004 58.4345 18.6276 58.3876C18.6548 58.3407 18.6927 58.3009 18.7381 58.2713Z" fill="#E0E0E0"/>
    <path d="M18.7381 59.1174L21.3517 57.6C21.4381 57.5514 21.5065 57.591 21.5065 57.69V57.753C21.5038 57.807 21.4883 57.8596 21.4614 57.9065C21.4345 57.9534 21.397 57.9933 21.3517 58.023L18.7381 59.5314C18.6517 59.5818 18.5815 59.5404 18.5815 59.4414V59.3802C18.5853 59.3272 18.6014 59.2758 18.6286 59.2302C18.6558 59.1845 18.6933 59.1459 18.7381 59.1174Z" fill="#E0E0E0"/>
    <path d="M29.0519 39.2291L31.5089 37.8107C31.6385 37.7369 31.7429 37.7963 31.7429 37.9457V39.9383C31.7386 40.0195 31.7152 40.0985 31.6745 40.1689C31.6338 40.2393 31.5771 40.2991 31.5089 40.3433L29.0519 41.7599C28.9241 41.8337 28.8179 41.7725 28.8179 41.6249V39.6341C28.8228 39.5531 28.8465 39.4743 28.8872 39.404C28.9278 39.3338 28.9842 39.2739 29.0519 39.2291Z" fill="#E0E0E0"/>
    <path d="M28.9798 42.2298L31.5934 40.7214C31.678 40.6728 31.7482 40.7214 31.7482 40.8114V40.8744C31.7451 40.9283 31.7294 40.9807 31.7026 41.0276C31.6757 41.0744 31.6384 41.1144 31.5934 41.1444L28.9798 42.66C28.8934 42.7086 28.8232 42.66 28.8232 42.57V42.507C28.8252 42.4516 28.8405 42.3975 28.8677 42.3492C28.895 42.301 28.9334 42.26 28.9798 42.2298Z" fill="#E0E0E0"/>
    <path d="M28.9798 43.074L31.5934 41.5656C31.678 41.517 31.7482 41.5656 31.7482 41.6556V41.7186C31.7451 41.7725 31.7294 41.8249 31.7026 41.8718C31.6757 41.9186 31.6384 41.9586 31.5934 41.9886L28.9798 43.497C28.8934 43.5456 28.8232 43.497 28.8232 43.407V43.344C28.8263 43.2899 28.8421 43.2372 28.8693 43.1903C28.8965 43.1434 28.9344 43.1036 28.9798 43.074Z" fill="#E0E0E0"/>
    <path d="M28.9798 43.92L31.5934 42.4116C31.678 42.363 31.7482 42.4026 31.7482 42.5016V42.5646C31.7451 42.6185 31.7294 42.671 31.7026 42.7178C31.6757 42.7646 31.6384 42.8046 31.5934 42.8346L28.9798 44.3412C28.8934 44.3898 28.8232 44.3412 28.8232 44.2512V44.1882C28.8266 44.1344 28.8425 44.0821 28.8697 44.0355C28.8969 43.9889 28.9346 43.9494 28.9798 43.92Z" fill="#E0E0E0"/>
    <path d="M28.9798 44.7623L31.5934 43.2539C31.678 43.2053 31.7482 43.2449 31.7482 43.3439V43.4069C31.7451 43.4608 31.7294 43.5132 31.7026 43.5601C31.6757 43.6069 31.6384 43.6469 31.5934 43.6769L28.9798 45.1799C28.8934 45.2285 28.8232 45.1889 28.8232 45.0899V45.0269C28.8272 44.9737 28.8433 44.9221 28.8705 44.8762C28.8977 44.8303 28.9351 44.7913 28.9798 44.7623Z" fill="#E0E0E0"/>
    <path d="M28.9798 45.6066L31.588 44.1C31.6726 44.0514 31.7428 44.091 31.7428 44.19V44.253C31.7397 44.3069 31.724 44.3593 31.6972 44.4062C31.6703 44.453 31.633 44.493 31.588 44.523L28.9798 46.0296C28.8934 46.0782 28.8232 46.0386 28.8232 45.9396V45.8766C28.8263 45.8224 28.8421 45.7698 28.8693 45.7229C28.8965 45.676 28.9344 45.6361 28.9798 45.6066Z" fill="#E0E0E0"/>
    <path d="M34.171 36.2753L36.628 34.8569C36.7558 34.7813 36.862 34.8425 36.862 34.9919V36.9845C36.8572 37.0656 36.8335 37.1444 36.7929 37.2147C36.7523 37.285 36.6958 37.3449 36.628 37.3895L34.171 38.8079C34.0414 38.8817 33.937 38.8223 33.937 38.6729V36.6803C33.9413 36.5991 33.9647 36.5201 34.0054 36.4497C34.046 36.3793 34.1028 36.3195 34.171 36.2753Z" fill="#E0E0E0"/>
    <path d="M34.0918 39.2741L36.7054 37.7657C36.7918 37.7171 36.862 37.7567 36.862 37.8557V37.9187C36.8589 37.9729 36.8431 38.0255 36.8159 38.0724C36.7887 38.1193 36.7509 38.1592 36.7054 38.1887L34.0918 39.6971C34.0072 39.7475 33.937 39.7061 33.937 39.6071V39.5441C33.9402 39.4902 33.9558 39.4378 33.9827 39.3909C34.0095 39.3441 34.0469 39.3041 34.0918 39.2741Z" fill="#E0E0E0"/>
    <path d="M34.0918 40.1202L36.7054 38.61C36.7918 38.5614 36.862 38.601 36.862 38.7V38.763C36.8589 38.8171 36.8431 38.8697 36.8159 38.9167C36.7887 38.9636 36.7509 39.0034 36.7054 39.033L34.0918 40.5414C34.0072 40.5918 33.937 40.5504 33.937 40.4514V40.3902C33.9398 40.3362 33.9552 40.2836 33.9821 40.2366C34.009 40.1897 34.0466 40.1498 34.0918 40.1202Z" fill="#E0E0E0"/>
    <path d="M34.0918 40.9644L36.7054 39.4542C36.7918 39.4056 36.862 39.4452 36.862 39.5442V39.6C36.8589 39.6541 36.8431 39.7068 36.8159 39.7537C36.7887 39.8006 36.7509 39.8404 36.7054 39.87L34.0918 41.3784C34.0072 41.4288 33.937 41.3874 33.937 41.2884V41.2272C33.9409 41.1744 33.9568 41.1233 33.9837 41.0777C34.0105 41.0321 34.0475 40.9933 34.0918 40.9644Z" fill="#E0E0E0"/>
    <path d="M34.0918 41.8086L36.7054 40.2984C36.7918 40.2498 36.862 40.2984 36.862 40.3884V40.4514C36.8589 40.5055 36.8431 40.5582 36.8159 40.6051C36.7887 40.652 36.7509 40.6918 36.7054 40.7214L34.0918 42.2298C34.0072 42.2802 33.937 42.2298 33.937 42.1398V42.0786C33.9398 42.0246 33.9552 41.972 33.9821 41.9251C34.009 41.8781 34.0466 41.8382 34.0918 41.8086Z" fill="#E0E0E0"/>
    <path d="M34.0918 42.6599L36.7054 41.1497C36.7918 41.1011 36.862 41.1497 36.862 41.2397V41.3027C36.8589 41.3568 36.8431 41.4095 36.8159 41.4564C36.7887 41.5033 36.7509 41.5431 36.7054 41.5727L34.0918 43.0739C34.0072 43.1243 33.937 43.0739 33.937 42.9839V42.9227C33.9409 42.8699 33.9568 42.8188 33.9837 42.7732C34.0105 42.7276 34.0475 42.6888 34.0918 42.6599Z" fill="#E0E0E0"/>
    <path d="M34.0918 43.4969L36.7054 41.9885C36.7918 41.9381 36.862 41.9777 36.862 42.0785V42.1397C36.8591 42.1939 36.8433 42.2466 36.8161 42.2935C36.7889 42.3404 36.751 42.3803 36.7054 42.4097L34.0918 43.9199C34.0072 43.9703 33.937 43.9199 33.937 43.8299V43.7687C33.9396 43.7144 33.955 43.6615 33.9819 43.6143C34.0088 43.5671 34.0465 43.5269 34.0918 43.4969Z" fill="#E0E0E0"/>
    <path d="M34.0918 44.3412L36.7054 42.84C36.7918 42.7896 36.862 42.8292 36.862 42.93V42.9912C36.8591 43.0453 36.8433 43.098 36.8161 43.145C36.7889 43.1919 36.751 43.2317 36.7054 43.2612L34.0918 44.7696C34.0072 44.82 33.937 44.7696 33.937 44.6796V44.6184C33.9388 44.5631 33.9538 44.5092 33.9807 44.4609C34.0076 44.4127 34.0457 44.3716 34.0918 44.3412Z" fill="#E0E0E0"/>
    <path d="M34.0918 45.1799L36.7054 43.6715C36.7918 43.6211 36.862 43.6607 36.862 43.7615V43.8227C36.8591 43.8769 36.8433 43.9296 36.8161 43.9765C36.7889 44.0234 36.751 44.0632 36.7054 44.0927L34.0918 45.6011C34.0072 45.6515 33.937 45.6119 33.937 45.5111V45.4499C33.9399 45.3959 33.9554 45.3434 33.9823 45.2965C34.0092 45.2496 34.0467 45.2097 34.0918 45.1799Z" fill="#E0E0E0"/>
    <path d="M29.0519 48.5172L31.5089 47.0988C31.6385 47.025 31.7429 47.0844 31.7429 47.2338V49.2264C31.7386 49.3076 31.7152 49.3866 31.6745 49.457C31.6338 49.5274 31.5771 49.5872 31.5089 49.6314L29.0519 51.0516C28.9241 51.1254 28.8179 51.0642 28.8179 50.9166V48.9222C28.8228 48.8412 28.8465 48.7624 28.8872 48.6921C28.9278 48.6218 28.9842 48.562 29.0519 48.5172Z" fill="#E0E0E0"/>
    <path d="M28.9798 51.5178L31.5934 50.0094C31.678 49.9608 31.7482 50.0004 31.7482 50.0994V50.1624C31.7451 50.2163 31.7294 50.2687 31.7026 50.3156C31.6757 50.3624 31.6384 50.4024 31.5934 50.4324L28.9798 51.9408C28.8934 51.9894 28.8232 51.9498 28.8232 51.8508V51.7878C28.8263 51.7336 28.8421 51.681 28.8693 51.6341C28.8965 51.5872 28.9344 51.5473 28.9798 51.5178Z" fill="#E0E0E0"/>
    <path d="M28.9798 52.362L31.5934 50.8536C31.678 50.805 31.7482 50.8536 31.7482 50.9436V51.0066C31.7451 51.0605 31.7294 51.1129 31.7026 51.1598C31.6757 51.2066 31.6384 51.2466 31.5934 51.2766L28.9798 52.785C28.8934 52.8336 28.8232 52.794 28.8232 52.695V52.632C28.8263 52.5778 28.8421 52.5252 28.8693 52.4783C28.8965 52.4314 28.9344 52.3915 28.9798 52.362Z" fill="#E0E0E0"/>
    <path d="M28.9798 53.2062L31.5934 51.6978C31.678 51.6492 31.7482 51.6978 31.7482 51.7878V51.8508C31.7451 51.9047 31.7294 51.9571 31.7026 52.004C31.6757 52.0508 31.6384 52.0908 31.5934 52.1208L28.9798 53.6292C28.8934 53.6778 28.8232 53.6382 28.8232 53.5392V53.4762C28.8263 53.4221 28.8421 53.3694 28.8693 53.3225C28.8965 53.2756 28.9344 53.2358 28.9798 53.2062Z" fill="#E0E0E0"/>
    <path d="M23.8138 36.7308C23.7778 36.7188 23.7598 36.6846 23.7598 36.6282C23.7619 36.5734 23.7729 36.5193 23.7922 36.468L23.9866 35.8488C23.999 35.7929 24.0271 35.7417 24.0676 35.7012C24.0808 35.694 24.0957 35.6902 24.1108 35.6902C24.1259 35.6902 24.1407 35.694 24.154 35.7012C24.254 35.7431 24.3631 35.7591 24.471 35.7478C24.5789 35.7365 24.6822 35.6982 24.7714 35.6364C24.9323 35.5426 25.0585 35.3992 25.1314 35.2278C25.2155 35.0174 25.2554 34.7919 25.2484 34.5654V30.9348C25.245 30.83 25.264 30.7257 25.3042 30.6288C25.3473 30.5394 25.418 30.4663 25.5058 30.42L25.9054 30.1896C25.9954 30.1374 26.0602 30.1302 26.098 30.1698C26.1455 30.2413 26.166 30.3275 26.1556 30.4128V34.056C26.162 34.5673 26.0538 35.0735 25.8388 35.5374C25.6428 35.9644 25.3189 36.3199 24.9118 36.5544C24.4786 36.8052 24.1126 36.864 23.8138 36.7308Z" fill="#455A64"/>
    <path d="M27.0559 34.5438C26.7331 34.2126 26.5717 33.5784 26.5717 32.6412C26.5533 31.7956 26.7185 30.9561 27.0559 30.1806C27.3435 29.5173 27.8346 28.9625 28.4581 28.5966C29.0683 28.2366 29.5381 28.2366 29.8567 28.5642C30.1753 28.8918 30.3409 29.5272 30.3409 30.465C30.3593 31.3105 30.1941 32.15 29.8567 32.9256C29.5698 33.5878 29.0801 34.1418 28.4581 34.5078C27.8461 34.8606 27.3787 34.8726 27.0559 34.5438ZM29.2015 32.5926C29.3846 32.0727 29.4701 31.5235 29.4535 30.9726C29.4535 30.3234 29.3695 29.8818 29.2015 29.6478C29.0341 29.4138 28.7875 29.3922 28.4581 29.5812C28.1089 29.7952 27.8444 30.1233 27.7093 30.51C27.5265 31.0299 27.4417 31.5792 27.4591 32.13C27.4591 32.778 27.5419 33.2208 27.7093 33.453C27.8767 33.6852 28.1269 33.7086 28.4581 33.516C28.8058 33.3041 29.0687 32.9775 29.2015 32.5926Z" fill="#455A64"/>
    <path d="M30.841 32.9201C30.7935 32.8506 30.773 32.7661 30.7834 32.6825V27.7451C30.7804 27.6396 30.8001 27.5346 30.841 27.4373C30.8783 27.3538 30.9414 27.2844 31.021 27.2393L32.605 26.3231C33.0034 26.0939 33.3034 26.0627 33.505 26.2295C33.7066 26.3963 33.8056 26.7263 33.802 27.2195C33.8021 27.4805 33.7614 27.7398 33.6814 27.9881C33.6114 28.2185 33.4985 28.4335 33.3484 28.6217C33.7192 28.5965 33.9046 28.9085 33.9046 29.5577C33.9045 29.8763 33.8566 30.193 33.7624 30.4973C33.6677 30.8044 33.5209 31.093 33.3286 31.3505C33.1356 31.6098 32.8903 31.8256 32.6086 31.9841L31.0246 32.9003C30.94 32.9489 30.8788 32.9561 30.841 32.9201ZM32.461 28.7009C32.6055 28.6164 32.7219 28.4912 32.7958 28.3409C32.88 28.1692 32.9213 27.9796 32.9164 27.7883C32.9164 27.5615 32.8786 27.4283 32.8048 27.3653C32.731 27.3023 32.6158 27.3293 32.461 27.4175L31.6798 27.8711V29.1599L32.461 28.7009ZM32.5474 31.0157C32.7082 30.9251 32.8347 30.784 32.9074 30.6143C32.9868 30.4315 33.0267 30.234 33.0244 30.0347C33.0244 29.7971 32.9794 29.6441 32.8894 29.5775C32.7994 29.5109 32.6716 29.5235 32.5096 29.6171L31.6798 30.0941V31.5179L32.5474 31.0157Z" fill="#455A64"/>
    <path d="M34.7056 30.7619C34.5003 30.8221 34.2808 30.8133 34.081 30.7367C34.0574 30.7264 34.0372 30.7096 34.0229 30.6883C34.0085 30.6669 34.0006 30.6419 34 30.6161C34.0023 30.5712 34.0114 30.5269 34.027 30.4847L34.2502 29.8151C34.2593 29.7671 34.2839 29.7235 34.3204 29.6909C34.3329 29.6843 34.3468 29.6809 34.3609 29.6809C34.375 29.6809 34.3889 29.6843 34.4014 29.6909C34.5512 29.731 34.708 29.7372 34.8604 29.7089C35.0452 29.6758 35.2225 29.6099 35.3842 29.5145C35.5717 29.4135 35.7317 29.2683 35.8504 29.0915C35.9546 28.9185 36.007 28.7192 36.0016 28.5173C36.0107 28.4043 35.985 28.2913 35.9278 28.1933C35.8752 28.1246 35.7976 28.0793 35.7118 28.0673C35.5656 28.0478 35.4183 28.0382 35.2708 28.0385C35.073 28.0432 34.8755 28.0201 34.684 27.9701C34.5186 27.9197 34.378 27.8093 34.2898 27.6605C34.1718 27.4398 34.1182 27.1903 34.135 26.9405C34.1284 26.4402 34.2578 25.9475 34.5094 25.5149C34.7437 25.1043 35.0829 24.7633 35.4922 24.5267C36.0322 24.2153 36.4408 24.1343 36.7252 24.2801C36.7478 24.2917 36.7672 24.3088 36.7813 24.3299C36.7955 24.351 36.8041 24.3754 36.8062 24.4007C36.8039 24.4457 36.7948 24.49 36.7792 24.5321L36.5578 25.2017C36.5489 25.2493 36.5242 25.2924 36.4876 25.3241C36.4753 25.3312 36.4613 25.335 36.4471 25.335C36.4329 25.335 36.4189 25.3312 36.4066 25.3241C36.187 25.2293 35.9206 25.2719 35.6074 25.4519C35.4268 25.545 35.2762 25.687 35.1727 25.8618C35.0692 26.0366 35.0171 26.2371 35.0224 26.4401C35.0143 26.549 35.0381 26.6578 35.0908 26.7533C35.1322 26.8171 35.1967 26.8622 35.2708 26.8793C35.3943 26.9017 35.5197 26.9119 35.6452 26.9099H35.7964C36.007 26.9108 36.2163 26.9429 36.4174 27.0053C36.5713 27.0614 36.6968 27.1759 36.7666 27.3239C36.8603 27.5519 36.9015 27.7979 36.8872 28.0439C36.8876 28.52 36.7635 28.9879 36.5272 29.4011C36.286 29.8296 35.9309 30.1828 35.5012 30.4217C35.2554 30.5761 34.987 30.6909 34.7056 30.7619Z" fill="#455A64"/>
    <path d="M57.1987 13.4406L56.4679 13.0176C56.4148 12.9929 56.3561 12.9829 56.2978 12.9886C56.2396 12.9943 56.1839 13.0155 56.1367 13.05L46.8361 18.432C46.7001 18.521 46.587 18.6407 46.5057 18.7813C46.4244 18.922 46.3773 19.0798 46.3681 19.242V38.412C46.3619 38.47 46.3713 38.5286 46.3953 38.5818C46.4194 38.635 46.4572 38.6808 46.5049 38.7144L47.2249 39.1356H47.2357C47.2874 39.1565 47.3435 39.164 47.3989 39.1574C47.4543 39.1508 47.5071 39.1303 47.5525 39.0978L50.0095 37.6794V39.1572C50.0095 39.4182 50.0509 39.5694 50.1193 39.6108L50.8393 40.0302C50.9221 40.0752 51.0427 39.96 51.1777 39.6702L52.9201 35.9802L56.8387 33.705C56.9746 33.616 57.0877 33.4964 57.169 33.3557C57.2503 33.215 57.2974 33.0572 57.3067 32.895V13.7412C57.3156 13.6861 57.3104 13.6295 57.2915 13.5769C57.2726 13.5244 57.2407 13.4774 57.1987 13.4406Z" fill="#1A78F2"/>
    <path opacity="0.4" d="M57.1807 13.4298C57.1289 13.4113 57.0735 13.4054 57.019 13.4126C56.9646 13.4198 56.9126 13.4399 56.8674 13.4712L47.5651 18.855C47.4299 18.939 47.3184 19.0561 47.2411 19.1952L46.5103 18.7722C46.5871 18.6327 46.6987 18.5155 46.8343 18.432L56.1348 13.0482C56.1973 13.0098 56.2686 12.9881 56.3419 12.9852C56.3852 12.9843 56.428 12.9949 56.4661 13.0158L57.1807 13.4298Z" fill="white"/>
    <path opacity="0.2" d="M50.1319 39.618C50.0653 39.5766 50.0239 39.4254 50.0239 39.1644V37.6884L50.7601 37.26V39.582C50.7601 39.8304 50.7979 39.9816 50.8573 40.032L50.1319 39.618Z" fill="black"/>
    <path opacity="0.1" d="M47.2394 39.1373L46.5086 38.7161C46.4619 38.682 46.425 38.6364 46.4013 38.5837C46.3776 38.531 46.3681 38.473 46.3736 38.4155V19.2419C46.3802 19.0755 46.4298 18.9136 46.5176 18.7721L47.2484 19.1951C47.161 19.3367 47.112 19.4986 47.1062 19.6649V38.8349C47.0994 38.8926 47.1082 38.9511 47.1316 39.0042C47.155 39.0574 47.1922 39.1033 47.2394 39.1373Z" fill="black"/>
    <path d="M48.9493 19.7424L55.4815 15.9624C55.6975 15.8382 55.8721 15.939 55.8721 16.1874V20.34C55.8648 20.4755 55.8256 20.6074 55.7577 20.725C55.6899 20.8426 55.5953 20.9426 55.4815 21.0168L48.9493 24.7968C48.7351 24.921 48.5605 24.8202 48.5605 24.5718V20.4174C48.568 20.2823 48.607 20.1508 48.6746 20.0336C48.7421 19.9163 48.8362 19.8166 48.9493 19.7424Z" fill="#455A64"/>
    <path d="M55.8721 22.0661C55.8626 22.1972 55.8223 22.3243 55.7544 22.4369C55.6866 22.5495 55.5931 22.6445 55.4815 22.7141L48.9493 26.4851C48.7351 26.6093 48.5605 26.5211 48.5605 26.2871C48.5703 26.1565 48.6105 26.03 48.678 25.9177C48.7456 25.8055 48.8385 25.7107 48.9493 25.6409L55.4815 21.8699C55.6975 21.7457 55.8721 21.8339 55.8721 22.0661Z" fill="#455A64"/>
    <path d="M55.8721 23.76C55.8626 23.8911 55.8223 24.0182 55.7544 24.1308C55.6866 24.2434 55.5931 24.3384 55.4815 24.408L48.9493 28.188C48.7351 28.3122 48.5605 28.224 48.5605 27.99C48.5703 27.8594 48.6105 27.7329 48.678 27.6206C48.7456 27.5084 48.8385 27.4136 48.9493 27.3438L55.4815 23.5638C55.6975 23.4342 55.8721 23.5224 55.8721 23.76Z" fill="#455A64"/>
    <path d="M55.8721 25.4429C55.8626 25.5741 55.8223 25.7011 55.7544 25.8137C55.6866 25.9263 55.5931 26.0213 55.4815 26.0909L48.9493 29.8709C48.7351 29.9951 48.5605 29.9069 48.5605 29.6729C48.5703 29.5423 48.6105 29.4158 48.678 29.3036C48.7456 29.1913 48.8385 29.0965 48.9493 29.0267L55.4815 25.2467C55.6975 25.1225 55.8721 25.2107 55.8721 25.4429Z" fill="#455A64"/>
    <path d="M55.8721 27.1314C55.8626 27.2625 55.8223 27.3895 55.7544 27.5021C55.6866 27.6147 55.5931 27.7097 55.4815 27.7794L48.9493 31.5504C48.7351 31.6746 48.5605 31.5864 48.5605 31.3524C48.5703 31.2218 48.6105 31.0952 48.678 30.983C48.7456 30.8708 48.8385 30.776 48.9493 30.7062L55.4815 26.9262C55.6975 26.82 55.8721 26.8992 55.8721 27.1314Z" fill="#455A64"/>
    <path d="M48.5605 33.0426C48.5605 33.2748 48.7405 33.363 48.9493 33.2388L49.6333 32.8446C49.7442 32.7748 49.8371 32.68 49.9046 32.5677C49.9722 32.4555 50.0124 32.329 50.0221 32.1984C50.0221 31.9644 49.8421 31.8762 49.6333 32.0004L48.9493 32.3946C48.8383 32.4645 48.7452 32.5596 48.6777 32.6722C48.6101 32.7847 48.57 32.9116 48.5605 33.0426Z" fill="#455A64"/>
    <path d="M51.0122 31.6296C51.0122 31.8618 51.1922 31.95 51.4028 31.8258L55.4816 29.4678C55.5931 29.3981 55.6866 29.3031 55.7545 29.1905C55.8224 29.0779 55.8627 28.9509 55.8722 28.8198C55.8722 28.5876 55.6922 28.4994 55.4816 28.6236L51.4028 30.9816C51.2913 31.0512 51.1978 31.1462 51.1299 31.2588C51.062 31.3714 51.0217 31.4984 51.0122 31.6296Z" fill="#455A64"/>
    <path d="M48.5605 34.7399C48.5605 34.9721 48.7405 35.0603 48.9493 34.9361L49.6333 34.5419C49.7442 34.4722 49.8371 34.3773 49.9046 34.2651C49.9722 34.1529 50.0124 34.0264 50.0221 33.8957C50.0221 33.6617 49.8421 33.5735 49.6333 33.6977L48.9493 34.0919C48.8383 34.1619 48.7452 34.257 48.6777 34.3696C48.6101 34.4821 48.57 34.609 48.5605 34.7399Z" fill="#455A64"/>
    <path d="M51.0122 33.3179C51.0122 33.5501 51.1922 33.6383 51.4028 33.5141L55.4816 31.1561C55.5931 31.0865 55.6866 30.9915 55.7545 30.8789C55.8224 30.7663 55.8627 30.6393 55.8722 30.5081C55.8722 30.2759 55.6922 30.1877 55.4816 30.3119L51.4028 32.6699C51.2913 32.7396 51.1978 32.8346 51.1299 32.9472C51.062 33.0598 51.0217 33.1868 51.0122 33.3179Z" fill="#455A64"/>
    <path d="M48.5605 36.4194C48.5605 36.6516 48.7405 36.7398 48.9493 36.6156L49.6333 36.2214C49.7442 36.1516 49.8371 36.0568 49.9046 35.9446C49.9722 35.8323 50.0124 35.7058 50.0221 35.5752C50.0221 35.3412 49.8421 35.253 49.6333 35.3772L48.9493 35.7714C48.8383 35.8413 48.7452 35.9364 48.6777 36.049C48.6101 36.1616 48.57 36.2885 48.5605 36.4194Z" fill="#455A64"/>
    <path d="M51.0122 35.0064C51.0122 35.2386 51.1922 35.3268 51.4028 35.2026L55.4816 32.8446C55.5929 32.7751 55.6862 32.6804 55.7541 32.5681C55.822 32.4558 55.8624 32.3292 55.8722 32.1984C55.8722 31.9644 55.6922 31.8762 55.4816 32.0004L51.4028 34.3584C51.2913 34.428 51.1978 34.523 51.1299 34.6356C51.062 34.7482 51.0217 34.8752 51.0122 35.0064Z" fill="#455A64"/>
    <path d="M65.9774 18.4949L65.2574 18.0719C65.2044 18.0472 65.1457 18.0372 65.0874 18.0429C65.0292 18.0486 64.9735 18.0698 64.9262 18.1043L55.6202 23.4845C55.4843 23.5735 55.3712 23.6932 55.2899 23.8338C55.2086 23.9745 55.1615 24.1323 55.1522 24.2945V43.4645C55.146 43.5225 55.1555 43.5812 55.1795 43.6343C55.2036 43.6875 55.2414 43.7333 55.289 43.7669L56.018 44.1881H56.027C56.079 44.2092 56.1355 44.2167 56.1912 44.2101C56.2469 44.2035 56.3 44.1829 56.3456 44.1503L58.8026 42.7319V44.2097C58.8026 44.4707 58.844 44.6219 58.9106 44.6633L59.6306 45.0827H59.6396C59.7224 45.1277 59.843 45.0125 59.9762 44.7227L61.7204 41.0327L65.639 38.7575C65.775 38.6685 65.8881 38.5489 65.9694 38.4082C66.0507 38.2675 66.0978 38.1097 66.107 37.9475V18.7955C66.1135 18.7385 66.105 18.6807 66.0822 18.628C66.0595 18.5753 66.0234 18.5294 65.9774 18.4949Z" fill="#1A78F2"/>
    <path opacity="0.4" d="M65.9578 18.4842C65.9061 18.4657 65.8507 18.4598 65.7962 18.467C65.7418 18.4742 65.6898 18.4943 65.6446 18.5256L56.3404 23.9094C56.2053 23.9934 56.0938 24.1105 56.0164 24.2496L55.2856 23.8266C55.363 23.6875 55.4745 23.5704 55.6096 23.4864L64.912 18.1026C64.9743 18.0638 65.0457 18.0421 65.119 18.0396C65.1618 18.039 65.204 18.0495 65.2414 18.0702L65.9578 18.4842Z" fill="white"/>
    <path opacity="0.2" d="M58.9088 44.6724C58.8422 44.631 58.8008 44.4798 58.8008 44.2188V42.7428L59.5316 42.3198V44.64C59.5316 44.8884 59.5694 45.0396 59.6306 45.09L58.9088 44.6724Z" fill="black"/>
    <path opacity="0.1" d="M56.0161 44.1918L55.2871 43.7706C55.2402 43.7368 55.203 43.6912 55.1793 43.6384C55.1556 43.5856 55.1462 43.5275 55.1521 43.47V24.3C55.158 24.1337 55.207 23.9718 55.2943 23.8302L56.0251 24.2532C55.9378 24.3948 55.8888 24.5567 55.8829 24.723V43.893C55.8768 43.9501 55.8859 44.0079 55.9093 44.0603C55.9327 44.1128 55.9695 44.1582 56.0161 44.1918Z" fill="black"/>
    <path d="M57.728 24.7968L64.2602 21.0168C64.4744 20.8926 64.649 20.9934 64.649 21.2418V25.4052C64.6417 25.5406 64.6027 25.6723 64.5352 25.7899C64.4677 25.9075 64.3735 26.0075 64.2602 26.082L57.728 29.862C57.512 29.9862 57.3374 29.8854 57.3374 29.637V25.4718C57.3447 25.3365 57.384 25.2048 57.4518 25.0875C57.5197 24.9702 57.6143 24.8706 57.728 24.7968Z" fill="#455A64"/>
    <path d="M64.649 27.1206C64.6396 27.2515 64.5994 27.3784 64.5319 27.4909C64.4644 27.6035 64.3713 27.6986 64.2602 27.7686L57.728 31.5396C57.512 31.6638 57.3374 31.5756 57.3374 31.3416C57.3472 31.2107 57.3876 31.0841 57.4555 30.9718C57.5234 30.8595 57.6167 30.7648 57.728 30.6954L64.2602 26.9244C64.4744 26.8002 64.649 26.8884 64.649 27.1206Z" fill="#455A64"/>
    <path d="M64.649 28.809C64.6396 28.9399 64.5994 29.0668 64.5319 29.1794C64.4644 29.2919 64.3713 29.387 64.2602 29.457L57.728 33.228C57.512 33.3522 57.3374 33.264 57.3374 33.03C57.3472 32.8992 57.3876 32.7725 57.4555 32.6602C57.5234 32.548 57.6167 32.4533 57.728 32.3838L64.2602 28.62C64.4744 28.4886 64.649 28.5768 64.649 28.809Z" fill="#455A64"/>
    <path d="M64.649 30.4974C64.6387 30.6274 64.5982 30.7532 64.5307 30.8647C64.4632 30.9763 64.3706 31.0706 64.2602 31.14L57.728 34.92C57.512 35.0442 57.3374 34.956 57.3374 34.722C57.3472 34.5912 57.3876 34.4645 57.4555 34.3522C57.5234 34.24 57.6167 34.1453 57.728 34.0758L64.2602 30.3012C64.4744 30.177 64.649 30.2652 64.649 30.4974Z" fill="#455A64"/>
    <path d="M64.649 32.1858C64.6396 32.3167 64.5994 32.4436 64.5319 32.5562C64.4644 32.6688 64.3713 32.7639 64.2602 32.8338L57.728 36.6138C57.512 36.738 57.3374 36.6498 57.3374 36.4158C57.3472 36.285 57.3876 36.1583 57.4555 36.046C57.5234 35.9338 57.6167 35.8391 57.728 35.7696L64.2602 31.9896C64.4744 31.86 64.649 31.9536 64.649 32.1858Z" fill="#455A64"/>
    <path d="M57.3374 38.097C57.3374 38.3292 57.5174 38.4174 57.728 38.2932L58.4102 37.899C58.5215 37.8295 58.6148 37.7348 58.6827 37.6226C58.7506 37.5103 58.791 37.3836 58.8008 37.2528C58.8008 37.0188 58.6208 36.9306 58.4102 37.0548L57.728 37.449C57.6165 37.5186 57.523 37.6136 57.4551 37.7262C57.3872 37.8388 57.3469 37.9659 57.3374 38.097Z" fill="#455A64"/>
    <path d="M59.791 36.684C59.791 36.9162 59.971 37.0044 60.1816 36.8802L64.2604 34.5222C64.3715 34.4523 64.4646 34.3572 64.5321 34.2446C64.5996 34.132 64.6398 34.0051 64.6492 33.8742C64.6492 33.642 64.4692 33.5538 64.2604 33.678L60.1798 36.036C60.0687 36.106 59.9757 36.2011 59.9081 36.3136C59.8406 36.4262 59.8005 36.5531 59.791 36.684Z" fill="#455A64"/>
    <path d="M57.3374 39.78C57.3374 40.0122 57.5174 40.1004 57.728 39.9762L58.4102 39.582C58.5215 39.5125 58.6148 39.4178 58.6827 39.3055C58.7506 39.1933 58.791 39.0666 58.8008 38.9358C58.8008 38.7018 58.6208 38.6136 58.4102 38.7378L57.728 39.132C57.6165 39.2016 57.523 39.2966 57.4551 39.4092C57.3872 39.5218 57.3469 39.6488 57.3374 39.78Z" fill="#455A64"/>
    <path d="M59.791 38.3724C59.791 38.6046 59.971 38.6928 60.1816 38.5686L64.2604 36.2106C64.3715 36.1406 64.4646 36.0455 64.5321 35.9329C64.5996 35.8204 64.6398 35.6935 64.6492 35.5626C64.6492 35.3304 64.4692 35.2422 64.2604 35.3664L60.1798 37.7244C60.0687 37.7943 59.9757 37.8894 59.9081 38.002C59.8406 38.1146 59.8005 38.2414 59.791 38.3724Z" fill="#455A64"/>
    <path d="M57.3374 41.4738C57.3374 41.706 57.5174 41.7942 57.728 41.67L58.4102 41.2758C58.5215 41.2064 58.6148 41.1117 58.6827 40.9994C58.7506 40.8871 58.791 40.7604 58.8008 40.6296C58.8008 40.3956 58.6208 40.3074 58.4102 40.4316L57.728 40.8258C57.6165 40.8955 57.523 40.9905 57.4551 41.1031C57.3872 41.2157 57.3469 41.3427 57.3374 41.4738Z" fill="#455A64"/>
    <path d="M59.791 40.0608C59.791 40.293 59.971 40.3812 60.1816 40.257L64.2604 37.899C64.3713 37.8292 64.4642 37.7344 64.5317 37.6222C64.5992 37.5099 64.6395 37.3834 64.6492 37.2528C64.6492 37.0188 64.4692 36.9306 64.2604 37.0548L60.1798 39.42C60.0697 39.4892 59.9772 39.5832 59.9097 39.6944C59.8422 39.8057 59.8016 39.9311 59.791 40.0608Z" fill="#455A64"/>
    <path d="M75.4883 11.0647L74.5199 10.5103H74.511C74.0844 10.2709 73.4994 10.3069 72.8514 10.6795C71.5464 11.4337 70.4897 13.2661 70.4897 14.7727C70.4897 15.5233 70.7525 16.0525 71.1791 16.2991L72.0539 16.7995L72.2627 16.4395C72.5011 16.3872 72.73 16.2986 72.9414 16.1767C74.2446 15.4243 75.3029 13.5919 75.3029 12.0853C75.3023 11.8821 75.2775 11.6797 75.2291 11.4823L75.4883 11.0647Z" fill="#1A78F2"/>
    <path d="M70.4951 14.7601C70.4951 15.5125 70.7579 16.0417 71.1845 16.2883L72.0593 16.7887L72.2681 16.4395C72.5063 16.3857 72.735 16.2965 72.9467 16.1749C73.6925 15.7055 74.2981 15.0439 74.6999 14.2597L71.2799 12.2797C70.7995 13.0206 70.5283 13.8776 70.4951 14.7601Z" fill="#263238"/>
    <path d="M75.49 11.0646L74.5288 10.5102H74.5198C74.0932 10.269 73.5082 10.305 72.8602 10.6794C72.2117 11.0787 71.6694 11.6289 71.2798 12.2832L74.6998 14.2632C75.072 13.6023 75.2794 12.8614 75.3046 12.1032C75.3039 11.9 75.2791 11.6976 75.2308 11.5002L75.49 11.0646Z" fill="#455A64"/>
    <path d="M73.7693 11.1996C72.4661 11.952 71.4077 13.7844 71.4077 15.3C71.4077 16.8156 72.4661 17.4168 73.7693 16.6626C75.0725 15.9084 76.1399 14.0688 76.1399 12.5622C76.1399 11.0556 75.0743 10.44 73.7693 11.1996Z" fill="#37474F"/>
    <path d="M73.9421 12.447C74.0121 12.4226 74.0872 12.417 74.1599 12.4308C74.2193 12.4445 74.2739 12.4737 74.3183 12.5154C74.3612 12.5572 74.3939 12.6083 74.4137 12.6648C74.4365 12.7223 74.4499 12.7831 74.4533 12.8448C74.4545 12.8748 74.4477 12.9047 74.4335 12.9312C74.4226 12.9549 74.4051 12.9749 74.3831 12.9888L74.2031 13.0914C74.1743 13.1094 74.1527 13.113 74.1383 13.104C74.1208 13.0927 74.107 13.0764 74.0987 13.0572C74.0863 13.034 74.0694 13.0134 74.049 12.9967C74.0287 12.98 74.0052 12.9676 73.9799 12.96C73.9397 12.9542 73.8987 12.9566 73.8594 12.9672C73.8201 12.9777 73.7833 12.9961 73.7513 13.0212C73.7055 13.0469 73.6632 13.0784 73.6253 13.1148C73.5858 13.1513 73.5507 13.1924 73.5209 13.2372C73.4912 13.2805 73.4675 13.3278 73.4507 13.3776C73.4344 13.4251 73.4259 13.475 73.4255 13.5252C73.4217 13.5709 73.4318 13.6167 73.4543 13.6566C73.4649 13.6705 73.4785 13.6818 73.4941 13.6896C73.5097 13.6974 73.5269 13.7015 73.5443 13.7016C73.5982 13.704 73.6522 13.6985 73.7045 13.6854L73.9421 13.6296C74.0261 13.6074 74.1128 13.5977 74.1995 13.6008C74.265 13.6019 74.3283 13.6247 74.3795 13.6656C74.4281 13.7096 74.462 13.7674 74.4767 13.8312C74.4971 13.9191 74.5068 14.0092 74.5055 14.0994C74.5042 14.2008 74.4909 14.3017 74.4659 14.4C74.4397 14.5045 74.4023 14.6059 74.3543 14.7024C74.3047 14.8017 74.2444 14.8953 74.1743 14.9814C74.105 15.0682 74.0258 15.1467 73.9385 15.2154V15.48C73.938 15.5095 73.9306 15.5384 73.9169 15.5646C73.9078 15.5887 73.8915 15.6095 73.8701 15.624L73.6631 15.7428C73.6565 15.7489 73.6478 15.7522 73.6388 15.7522C73.6298 15.7522 73.6212 15.7489 73.6145 15.7428C73.6073 15.7344 73.6019 15.7247 73.5985 15.7142C73.5951 15.7037 73.5938 15.6926 73.5947 15.6816V15.4152C73.526 15.4393 73.4533 15.4503 73.3805 15.4476C73.3165 15.4448 73.2543 15.4249 73.2005 15.39C73.1481 15.3522 73.1065 15.3013 73.0799 15.2424C73.0471 15.1656 73.0299 15.0829 73.0295 14.9994C73.0279 14.9693 73.0347 14.9394 73.0493 14.913C73.0596 14.889 73.0765 14.8684 73.0979 14.8536L73.2779 14.751C73.3067 14.7348 73.3283 14.7294 73.3445 14.7366C73.3624 14.748 73.3757 14.7651 73.3823 14.7852C73.395 14.8119 73.4094 14.8378 73.4255 14.8626C73.4426 14.8861 73.4665 14.9037 73.4939 14.913C73.5295 14.9213 73.5664 14.9213 73.6019 14.913C73.6595 14.8997 73.7143 14.8765 73.7639 14.8446C73.8159 14.8145 73.8652 14.7802 73.9115 14.742C73.9574 14.7033 73.9991 14.6599 74.0357 14.6124C74.071 14.5653 74.1001 14.5139 74.1221 14.4594C74.1441 14.4057 74.1551 14.3482 74.1545 14.2902C74.1571 14.2687 74.1552 14.2469 74.149 14.2262C74.1428 14.2054 74.1325 14.1862 74.1185 14.1696C74.1035 14.1576 74.0861 14.1487 74.0676 14.1435C74.0491 14.1382 74.0297 14.1367 74.0105 14.139C73.9497 14.1423 73.8894 14.152 73.8305 14.1678C73.7585 14.1858 73.6775 14.202 73.5839 14.22C73.5109 14.2372 73.4355 14.2427 73.3607 14.2362C73.3025 14.2322 73.2474 14.2088 73.2041 14.1696C73.1589 14.1229 73.1267 14.0652 73.1105 14.0022C73.0882 13.9085 73.0779 13.8123 73.0799 13.716C73.0798 13.6133 73.0931 13.511 73.1195 13.4118C73.1446 13.3108 73.1796 13.2125 73.2239 13.1184C73.268 13.0245 73.3224 12.9358 73.3859 12.8538C73.4468 12.7739 73.5155 12.7003 73.5911 12.6342V12.3696C73.5919 12.3403 73.5986 12.3115 73.6109 12.285C73.6212 12.261 73.6381 12.2404 73.6595 12.2256L73.8665 12.1068C73.8729 12.1008 73.8812 12.0975 73.8899 12.0975C73.8986 12.0975 73.907 12.1008 73.9133 12.1068C73.9212 12.1148 73.9271 12.1245 73.9309 12.135C73.9346 12.1456 73.936 12.1568 73.9349 12.168L73.9421 12.447Z" fill="#FAFAFA"/>
    <path d="M75.4883 28.6777L74.5199 28.1233H74.511C74.0844 27.8821 73.4994 27.9181 72.8514 28.2925C71.5464 29.0449 70.4897 30.8773 70.4897 32.3839C70.4897 33.1363 70.7525 33.6637 71.1791 33.9121L72.0539 34.4107L72.2627 34.0615C72.5008 34.0084 72.7296 33.9198 72.9414 33.7987C74.2446 33.0445 75.3029 31.2121 75.3029 29.7055C75.3021 29.5023 75.2774 29.2999 75.2291 29.1025L75.4883 28.6777Z" fill="#1A78F2"/>
    <path d="M70.4951 32.3802C70.4951 33.1326 70.7579 33.66 71.1845 33.9084L72.0593 34.407L72.2681 34.0578C72.5063 34.004 72.735 33.9149 72.9467 33.7932C73.6931 33.323 74.2988 32.6601 74.6999 31.8744L71.2799 29.8944C70.7991 30.6371 70.5279 31.496 70.4951 32.3802Z" fill="#263238"/>
    <path d="M75.4903 28.6777L74.5291 28.1233H74.5201C74.0935 27.8821 73.5085 27.9181 72.8605 28.2925C72.2129 28.6932 71.6719 29.2447 71.2837 29.8999L74.7037 31.8799C75.0791 31.213 75.2873 30.465 75.3103 29.7001C75.3095 29.4969 75.2847 29.2945 75.2365 29.0971L75.4903 28.6777Z" fill="#455A64"/>
    <path d="M73.7693 28.8126C72.4661 29.565 71.4077 31.3974 71.4077 32.904C71.4077 34.4106 72.4661 35.0208 73.7693 34.2684C75.0725 33.516 76.1399 31.68 76.1399 30.177C76.1399 28.674 75.0743 28.0602 73.7693 28.8126Z" fill="#37474F"/>
    <path d="M74.9715 32.0778L72.5685 33.4656C72.5397 33.4818 72.5181 33.4656 72.5181 33.417V31.2858C72.5176 31.2651 72.5218 31.2446 72.5306 31.2259C72.5393 31.2071 72.5523 31.1907 72.5685 31.1778L74.9715 29.79C74.9985 29.7738 75.0219 29.79 75.0219 29.8386V31.9716C75.0222 31.992 75.0178 32.0122 75.0091 32.0306C75.0003 32.049 74.9875 32.0651 74.9715 32.0778Z" fill="#FAFAFA"/>
    <path d="M74.2428 30.3517C74.2158 30.3679 74.1924 30.3517 74.1924 30.3031V29.9791L73.3482 30.4669V30.7909C73.3486 30.8117 73.344 30.8323 73.335 30.8511C73.3259 30.8698 73.3126 30.8862 73.296 30.8989C73.269 30.9151 73.2456 30.8989 73.2456 30.8503V30.4471C73.2453 30.4267 73.2497 30.4065 73.2585 30.3881C73.2672 30.3697 73.2801 30.3535 73.296 30.3409L74.2428 29.8009C74.2716 29.7847 74.2932 29.8009 74.2932 29.8495V30.2401C74.2947 30.2614 74.2908 30.2827 74.282 30.3022C74.2732 30.3217 74.2598 30.3387 74.2428 30.3517Z" fill="#FAFAFA"/>
    <path d="M74.2428 29.9502L73.296 30.4902C73.269 30.5064 73.2456 30.4902 73.2456 30.4416V30.2616C73.2454 30.241 73.2499 30.2206 73.2586 30.2019C73.2673 30.1832 73.2801 30.1667 73.296 30.1536L74.2428 29.6136C74.2716 29.5974 74.2932 29.6136 74.2932 29.6622V29.8422C74.2938 29.8629 74.2895 29.8834 74.2808 29.9022C74.272 29.9209 74.259 29.9374 74.2428 29.9502Z" fill="#FAFAFA"/>
    <path d="M74.1133 31.2805L73.4257 31.6765C73.4059 31.6891 73.3897 31.6765 73.3897 31.6405V31.5109C73.3894 31.4961 73.3925 31.4814 73.3987 31.468C73.405 31.4546 73.4142 31.4428 73.4257 31.4335L74.1133 31.0375C74.1349 31.0249 74.1511 31.0375 74.1511 31.0717V31.2013C74.1514 31.2165 74.1482 31.2317 74.1416 31.2454C74.135 31.2592 74.1253 31.2712 74.1133 31.2805Z" fill="#37474F"/>
    <path d="M75.4883 19.872L74.5199 19.3158H74.511C74.0844 19.0746 73.4994 19.1106 72.8514 19.485C71.5464 20.2392 70.4897 22.0698 70.4897 23.5764C70.4897 24.3288 70.7525 24.858 71.1791 25.1046L72.0539 25.6032L72.2627 25.254C72.5011 25.2017 72.73 25.1131 72.9414 24.9912C74.2446 24.237 75.3029 22.4064 75.3029 20.8998C75.3022 20.696 75.2775 20.493 75.2291 20.295L75.4883 19.872Z" fill="#1A78F2"/>
    <path d="M70.4951 23.58C70.4951 24.3324 70.7579 24.8616 71.1845 25.1082L72.0593 25.6068L72.2681 25.2576C72.5065 25.2054 72.7353 25.1167 72.9467 24.9948C73.6942 24.522 74.2999 23.8559 74.6999 23.067L71.2799 21.087C70.7978 21.8318 70.5266 22.6934 70.4951 23.58Z" fill="#263238"/>
    <path d="M75.4903 19.8721L74.5291 19.3159H74.5201C74.0935 19.0765 73.5085 19.1107 72.8605 19.4851C72.2129 19.8858 71.6719 20.4373 71.2837 21.0925L74.7037 23.0725C75.0769 22.4087 75.2844 21.6646 75.3085 20.9035C75.3078 20.6997 75.283 20.4967 75.2347 20.2987L75.4903 19.8721Z" fill="#455A64"/>
    <path d="M73.7693 20.0053C72.4661 20.7595 71.4077 22.5901 71.4077 24.0967C71.4077 25.6033 72.4661 26.2153 73.7693 25.4611C75.0725 24.7069 76.1399 22.8763 76.1399 21.3697C76.1399 19.8631 75.0743 19.2601 73.7693 20.0053Z" fill="#37474F"/>
    <path d="M72.8999 22.4028C72.8999 22.0608 73.0799 21.6828 73.3031 21.5496C73.5263 21.4164 73.7063 21.5946 73.7063 21.9384C73.7063 22.2822 73.5263 22.6584 73.3031 22.7916C73.0799 22.9248 72.8999 22.7466 72.8999 22.4028Z" fill="white"/>
    <path d="M74.0232 24.1309L72.54 24.9877L72.6192 24.0013C72.6534 23.5819 72.8748 23.1517 73.1376 23.0005L73.4238 22.8349C73.6866 22.6837 73.908 22.8565 73.9422 23.2381L74.0232 24.1309Z" fill="white"/>
    <path d="M73.8789 21.375C73.8789 21.033 74.0589 20.655 74.2821 20.5218C74.5053 20.3886 74.6853 20.5668 74.6853 20.9106C74.6853 21.2544 74.5053 21.6306 74.2821 21.7638C74.0589 21.897 73.8789 21.7188 73.8789 21.375Z" fill="white"/>
    <path d="M74.9988 23.1031L74.0898 23.6287L74.0484 23.1571C74.0178 22.8259 73.8684 22.6171 73.6704 22.6171C73.7401 22.359 73.8973 22.1332 74.115 21.9781L74.4012 21.8143C74.664 21.6613 74.8854 21.8341 74.9196 22.2157L74.9988 23.1031Z" fill="white"/>
    <path d="M50.8501 56.6676C50.8501 55.5516 50.1121 54.4356 48.6361 53.5842C45.6859 51.8796 40.8961 51.8796 37.9513 53.5842C36.4753 54.4356 35.7373 55.5516 35.7373 56.6676V58.725C35.7373 59.841 36.4753 60.957 37.9513 61.8102C40.9015 63.513 45.6913 63.513 48.6361 61.8102C50.1121 60.957 50.8501 59.841 50.8501 58.725V56.6676ZM38.3167 54.216C39.6343 53.4546 41.4019 53.037 43.2937 53.037C45.1855 53.037 46.9531 53.4546 48.2707 54.216C49.4623 54.9036 50.1193 55.7748 50.1193 56.6676C50.1193 57.5604 49.4623 58.4316 48.2707 59.1192C46.9531 59.8806 45.1801 60.3 43.2937 60.3C41.4073 60.3 39.6343 59.8806 38.3167 59.1192C37.1251 58.4316 36.4681 57.5604 36.4681 56.6676C36.4681 55.7748 37.1251 54.9 38.3167 54.216Z" fill="#1A78F2"/>
    <path opacity="0.3" d="M37.9491 59.7601C40.9011 61.4629 45.6891 61.4629 48.6357 59.7601C51.5823 58.0573 51.5859 55.2943 48.6357 53.5915C45.6855 51.8887 40.8957 51.8869 37.9491 53.5915C35.0025 55.2961 34.9989 58.0501 37.9491 59.7601ZM36.4677 56.6749C36.4677 55.7749 37.1229 54.9109 38.3145 54.2233C39.6321 53.4619 41.4015 53.0443 43.2933 53.0443C45.1851 53.0443 46.9527 53.4619 48.2703 54.2233C49.4619 54.9109 50.1171 55.7821 50.1171 56.6749C50.1171 57.5677 49.4619 58.4389 48.2703 59.1265C46.9527 59.8807 45.1797 60.3001 43.2933 60.3001C41.4069 60.3001 39.6321 59.8807 38.3145 59.1193C37.1229 58.4317 36.4677 57.5605 36.4677 56.6677V56.6749Z" fill="white"/>
    <path d="M36.4678 56.6676C36.4722 57.031 36.5741 57.3866 36.763 57.6972C37.0618 57.1788 37.5892 56.691 38.3164 56.2734C39.6322 55.512 41.4016 55.0926 43.2934 55.0926C45.1852 55.0926 46.9528 55.512 48.2704 56.2734C48.9026 56.6063 49.4382 57.0967 49.8256 57.6972C50.0132 57.3862 50.1144 57.0308 50.119 56.6676C50.119 55.7676 49.462 54.9036 48.2704 54.216C46.9528 53.4564 45.1852 53.037 43.2934 53.037C41.4016 53.037 39.6322 53.4564 38.3164 54.216C37.123 54.9 36.4678 55.7748 36.4678 56.6676Z" fill="#1A78F2"/>
    <path opacity="0.1" d="M36.4678 56.6676C36.4722 57.031 36.5741 57.3866 36.763 57.6972C37.0618 57.1788 37.5892 56.691 38.3164 56.2734C39.6322 55.512 41.4016 55.0926 43.2934 55.0926C45.1852 55.0926 46.9528 55.512 48.2704 56.2734C48.9026 56.6063 49.4382 57.0967 49.8256 57.6972C50.0132 57.3862 50.1144 57.0308 50.119 56.6676C50.119 55.7676 49.462 54.9036 48.2704 54.216C46.9528 53.4564 45.1852 53.037 43.2934 53.037C41.4016 53.037 39.6322 53.4564 38.3164 54.216C37.123 54.9 36.4678 55.7748 36.4678 56.6676Z" fill="black"/>
    <path opacity="0.4" d="M38.3149 55.1466C39.6325 54.387 41.4019 53.9677 43.2937 53.9677C45.1855 53.9677 46.9531 54.387 48.2707 55.1466C49.2535 55.7154 49.8709 56.4066 50.0581 57.1266C49.8781 57.8466 49.2535 58.545 48.2707 59.1066C46.9531 59.8806 45.1801 60.3001 43.2937 60.3001C41.4073 60.3001 39.6325 59.8807 38.3149 59.1193C37.3321 58.5523 36.7147 57.8593 36.5293 57.1393C36.7201 56.4067 37.3321 55.7154 38.3149 55.1466Z" fill="white"/>
    <path opacity="0.1" d="M41.5135 60.9084V62.964C40.2636 62.8091 39.0546 62.4175 37.9513 61.8102C36.4753 60.957 35.7373 59.841 35.7373 58.725V56.6676C35.7378 56.4402 35.7681 56.2139 35.8273 55.9944C35.4673 57.3228 36.1765 58.7286 37.9495 59.7528C39.0533 60.3609 40.2628 60.7531 41.5135 60.9084Z" fill="black"/>
    <path d="M38.1743 61.0614C38.165 60.8778 38.1126 60.699 38.0213 60.5395C37.93 60.38 37.8023 60.2443 37.6487 60.1434C37.5956 60.1045 37.5331 60.0803 37.4677 60.0734C37.4022 60.0664 37.3361 60.0769 37.2761 60.1038L34.7399 61.56C34.6854 61.5971 34.6421 61.6485 34.6148 61.7085C34.5875 61.7684 34.5772 61.8348 34.5851 61.9002C34.5929 62.0831 34.6436 62.2616 34.733 62.4214C34.8224 62.5811 34.9481 62.7177 35.0999 62.82C35.1532 62.8592 35.2161 62.8833 35.2819 62.8899C35.3477 62.8966 35.4142 62.8855 35.4743 62.8578L38.0177 61.407C38.0722 61.3686 38.1154 61.3163 38.143 61.2555C38.1705 61.1948 38.1813 61.1278 38.1743 61.0614Z" fill="#37474F"/>
    <path d="M38.0177 61.4052C38.0719 61.3669 38.115 61.3149 38.1425 61.2545C38.17 61.1941 38.181 61.1275 38.1743 61.0614C38.1721 60.9248 38.1421 60.79 38.0861 60.6654L34.8047 62.541C34.8834 62.6528 34.9838 62.7477 35.0999 62.82C35.1532 62.8591 35.2161 62.8833 35.2819 62.8899C35.3478 62.8966 35.4142 62.8855 35.4743 62.8578L38.0177 61.407V61.4052Z" fill="#263238"/>
    <path d="M35.5281 62.82C35.5164 62.5807 35.4484 62.3475 35.3295 62.1395C35.2107 61.9315 35.0443 61.7545 34.8441 61.623C34.7758 61.5733 34.6957 61.5423 34.6117 61.5331C34.5277 61.524 34.4427 61.537 34.3653 61.5708L25.9287 66.0708L27.1887 68.2956L35.3319 63.2556C35.3998 63.2064 35.4536 63.1403 35.488 63.0639C35.5224 62.9875 35.5362 62.9034 35.5281 62.82Z" fill="#1A78F2"/>
    <path opacity="0.1" d="M27.1797 68.2938L35.3229 63.2538C35.3935 63.2047 35.4496 63.1375 35.4854 63.0593C35.5212 62.9811 35.5353 62.8948 35.5263 62.8092C35.5161 62.5531 35.4371 62.3044 35.2977 62.0892L26.5317 67.14L27.1797 68.2938Z" fill="black"/>
    <path d="M26.5445 68.22C26.2816 68.0476 26.0631 67.8156 25.9067 67.5429C25.7503 67.2702 25.6605 66.9644 25.6445 66.6504C25.6445 66.0744 26.0513 65.8422 26.5445 66.132C26.8074 66.304 27.026 66.5356 27.1824 66.8081C27.3388 67.0805 27.4286 67.386 27.4445 67.6998C27.4481 68.2848 27.0431 68.517 26.5445 68.22Z" fill="#1A78F2"/>
    <g opacity="0.2">
        <path d="M26.5445 68.22C26.2816 68.0476 26.0631 67.8156 25.9067 67.5429C25.7503 67.2702 25.6605 66.9644 25.6445 66.6504C25.6445 66.0744 26.0513 65.8422 26.5445 66.132C26.8074 66.304 27.026 66.5356 27.1824 66.8081C27.3388 67.0805 27.4286 67.386 27.4445 67.6998C27.4481 68.2848 27.0431 68.517 26.5445 68.22Z" fill="black"/>
    </g>
    <path d="M76.2716 48.3408C76.3634 44.9208 76.0916 44.0982 75.179 43.47L74.819 45.45C74.819 45.45 75.2348 47.79 75.1898 48.5658C75.152 49.2498 75.0854 50.1066 74.9234 50.6592C74.8937 50.7564 74.8298 50.8396 74.7434 50.8932C74.5547 51.0275 74.3862 51.1882 74.243 51.3702C74.1062 51.5142 73.9892 51.5502 74.0072 51.5952C74.0335 51.6454 74.0777 51.6839 74.1311 51.7029C74.1845 51.7219 74.2431 51.7201 74.2952 51.6978C74.4119 51.6514 74.5226 51.591 74.6246 51.5178C74.544 51.7276 74.4303 51.9233 74.288 52.0974C73.9622 52.4952 73.9478 52.74 74.6048 52.7472C75.017 52.7472 75.3464 52.497 75.656 51.5898C75.7757 51.2572 75.8725 50.9168 75.9458 50.571C76.0999 49.8349 76.2087 49.0901 76.2716 48.3408Z" fill="#FFA8A7"/>
    <path d="M74.4121 43.2108C74.6921 43.1607 74.9808 43.203 75.2346 43.3312C75.4885 43.4595 75.6938 43.6667 75.8197 43.9218C76.2013 44.604 76.2949 45.7794 76.3381 46.9476C76.3381 46.9476 75.5803 47.583 74.6695 47.2716L74.4121 43.2108Z" fill="#1A78F2"/>
    <path d="M75.6919 62.0387C75.7603 62.0657 75.7783 62.1971 75.7891 62.4581C75.7891 62.6561 75.8377 62.9981 75.6091 63.0719C75.3805 63.1457 75.0367 63.1043 74.8891 62.9189C74.7091 62.6849 74.5777 62.4815 74.3131 62.1989C74.0827 61.9523 73.8343 61.7219 73.7425 61.3763C73.6579 61.0631 73.7281 60.9281 73.9405 60.8363C74.2339 60.7121 74.6947 61.1207 74.9251 61.1837C75.1195 61.2377 75.6217 62.0135 75.6919 62.0387Z" fill="#263238"/>
    <path d="M75.6918 61.7975V62.1179C75.5713 62.1952 75.432 62.2381 75.2889 62.2419C75.1458 62.2457 75.0044 62.2103 74.88 62.1395C74.8656 62.1089 74.7954 61.6805 74.7954 61.6805L75.6918 61.7975Z" fill="#FFA8A7"/>
    <path d="M73.089 63.9C73.1458 64.0719 73.1932 64.2468 73.2312 64.4238C73.2708 64.6182 73.3284 64.9422 73.26 65.088C73.1916 65.2338 72.927 65.3292 72.5148 65.3256C72.1728 65.3675 71.8438 65.4823 71.55 65.6622C71.1668 65.8249 70.7496 65.891 70.335 65.8548C69.975 65.8134 69.5898 65.601 69.5304 65.4498C69.471 65.2986 69.5502 65.1402 70.4124 64.773C70.4124 64.773 71.6112 64.3824 72.0324 63.9216L73.089 63.9Z" fill="#263238"/>
    <path d="M73.0891 63.54V63.9144C73.0891 64.0512 72.9307 64.2546 72.5131 64.2384C72.2215 64.2276 72.0163 64.1502 72.0289 63.909V63.5616L73.0891 63.54Z" fill="#FFA8A7"/>
    <path d="M75.9005 57.5351C75.8291 56.966 75.7019 56.4053 75.5207 55.8611C75.5207 55.8611 75.6359 54.4211 75.6899 53.0495C75.7493 51.5717 75.6899 49.7123 75.7151 49.3433C75.7151 49.3433 70.9451 48.3785 70.8551 50.0885C70.7651 51.7985 71.0351 56.1473 71.0999 56.8979C71.1647 57.6485 71.2799 58.3109 71.4401 59.5277C71.6003 60.7445 72.0233 63.5651 72.0233 63.5651C72.1881 63.6491 72.3711 63.6911 72.5561 63.6873C72.7411 63.6836 72.9222 63.6342 73.0835 63.5435C73.0835 63.5435 73.4201 60.1235 73.3841 59.2613C73.3571 58.6192 73.2469 57.9833 73.0565 57.3695C73.0565 57.3695 73.1465 55.9601 73.2257 54.7343C73.3049 53.5085 73.3913 52.9199 73.4057 52.3943L73.5083 52.3439C73.5083 52.3439 73.6127 54.4589 73.6703 55.2095C73.7279 55.9601 73.8503 56.6801 74.0627 58.0733C74.2517 59.2829 74.8115 61.8425 74.8115 61.8425C75.3515 62.1377 75.6827 61.8047 75.6827 61.8047C75.6827 61.8047 76.0463 58.5845 75.9005 57.5351Z" fill="#37474F"/>
    <path d="M73.415 52.3799C73.415 52.3799 74.5724 51.8093 75.152 51.2999C75.152 51.2999 74.612 52.0577 73.9082 52.3925C73.9082 52.3925 73.6562 55.0205 73.658 54.9683L73.5122 52.3799H73.415Z" fill="#263238"/>
    <path d="M72.3853 42.669L72.6678 44.2224L74.0701 44.1198L73.7767 42.3594L72.3853 42.669Z" fill="#FFA8A7"/>
    <path d="M75.5533 44.0063C75.4129 43.5833 74.8783 43.1243 74.3419 43.2233C73.5476 43.3595 72.7648 43.5557 72.0001 43.8101C71.5087 43.9901 71.0623 44.4095 71.0209 46.0241C71.0209 46.0241 70.8571 49.7897 70.8535 50.5241C71.878 50.9261 72.9939 51.0364 74.0773 50.8427C75.5533 50.5205 75.7315 49.9085 75.7315 49.9085C75.7315 49.9085 75.7495 47.2085 75.7063 46.0313C75.6613 45.0323 75.6487 44.2961 75.5533 44.0063Z" fill="#F5F5F5"/>
    <path d="M71.3017 40.7789C71.3017 40.7789 70.9418 41.3459 70.9904 41.3999C71.039 41.4539 71.3054 41.4971 71.3054 41.4971L71.3017 40.7789Z" fill="#FFA8A7"/>
    <path d="M72.2899 39.2093C71.5483 39.3893 71.3413 39.7169 71.2963 40.9013C71.2513 42.1415 71.3863 42.5213 71.5537 42.6905C71.6653 42.8003 72.2738 42.8075 72.5816 42.7157C72.965 42.6005 73.8271 42.2729 74.2213 41.6357C74.6839 40.8923 74.7883 39.8969 74.2645 39.5009C73.5301 38.9501 72.5923 39.1391 72.2899 39.2093Z" fill="#FFA8A7"/>
    <path d="M71.3052 39.519C71.4757 39.7673 71.7164 39.959 71.9964 40.0698C72.1386 40.2318 72.0594 40.8636 72.3096 40.9698C72.3096 40.9698 72.4176 40.509 72.8046 40.5576C73.1916 40.6062 73.2564 41.0976 73.0188 41.4072C72.7812 41.7168 72.5508 41.6034 72.5508 41.6034C72.5508 41.6034 72.5778 42.2568 72.8766 42.6204C73.187 42.6808 73.5074 42.666 73.8108 42.5772C74.1816 42.489 74.6982 42.0102 74.9088 41.5116C75.3552 40.4586 75.366 39.519 74.6928 39.2526C74.61 38.772 74.2266 38.565 73.7928 38.4768C72.8586 38.2842 72.2574 38.8674 71.5392 38.8152C71.127 38.781 71.0496 39.0816 71.3052 39.519Z" fill="#263238"/>
    <path d="M74.709 39.4074L75.1482 39.1338C75.1314 39.1027 75.1084 39.0754 75.0806 39.0535C75.0528 39.0316 75.0208 39.0157 74.9866 39.0067C74.9524 38.9976 74.9167 38.9957 74.8818 39.0009C74.8468 39.0062 74.8133 39.0185 74.7833 39.0372C74.7533 39.0559 74.7274 39.0806 74.7073 39.1096C74.6871 39.1387 74.6732 39.1716 74.6662 39.2063C74.6592 39.2409 74.6595 39.2767 74.6668 39.3112C74.6742 39.3458 74.6885 39.3785 74.709 39.4074Z" fill="#263238"/>
    <path d="M66.0601 46.6074C66.2905 46.71 69.0085 48.7188 69.4333 48.4848C69.8581 48.2508 72.0307 45.7092 72.0307 45.7092C72.2144 45.4252 72.3121 45.0943 72.3121 44.7561C72.3121 44.4179 72.2144 44.0869 72.0307 43.803C71.606 43.8947 71.2288 44.137 70.9687 44.4852C70.6087 45.036 69.0283 47.0052 69.0283 47.0052C68.6395 46.8108 68.2507 46.6128 67.8655 46.413C67.5469 46.2474 67.2265 46.0836 66.9151 45.9054C66.8273 45.8658 66.745 45.815 66.6703 45.7542C66.5155 45.603 66.5425 45.234 66.5461 45.0342C66.5449 44.941 66.5491 44.8479 66.5587 44.7552C66.5731 44.64 66.5947 44.361 66.3877 44.4492C66.3491 44.4686 66.3158 44.497 66.2905 44.532C66.2579 44.5741 66.2329 44.6216 66.2167 44.6724C66.1771 44.793 66.1897 44.9262 66.1555 45.0468C66.1513 45.0652 66.1419 45.082 66.1285 45.0954C66.1197 45.1031 66.1094 45.1088 66.0983 45.1122C66.0871 45.1156 66.0753 45.1166 66.0637 45.1152C65.7649 45.1062 65.4805 44.6868 65.3437 44.4636C65.2939 44.3576 65.2153 44.2678 65.1169 44.2044C65.0303 44.1782 64.9374 44.1817 64.8529 44.2144C64.7685 44.247 64.6973 44.3068 64.6507 44.3844C64.5213 44.5787 64.4681 44.8139 64.5013 45.045C64.5281 45.3589 64.6667 45.6527 64.8919 45.873C65.236 46.1833 65.6313 46.4318 66.0601 46.6074Z" fill="#FFA8A7"/>
    <path d="M72.2738 43.7219C71.975 43.7561 71.5538 43.7003 70.967 44.3321C70.4933 44.8729 70.0516 45.4409 69.644 46.0331C69.7215 46.344 69.8867 46.626 70.12 46.8456C70.3533 47.0652 70.6449 47.213 70.9598 47.2715C70.9598 47.2715 71.9876 46.2167 72.2738 45.6371C72.56 45.0575 72.6284 44.1143 72.2738 43.7219Z" fill="#1A78F2"/>
</svg>
