<svg width="24" height="25" viewBox="0 0 24 25" fill="none" xmlns="http://www.w3.org/2000/svg">
    <path d="M16.017 2.3916H7.947C6.37015 2.39345 4.85844 3.02074 3.74353 4.13584C2.62862 5.25093 2.00159 6.76275 2 8.3396L2 16.4096C2.00185 17.9864 2.62914 19.4982 3.74424 20.6131C4.85933 21.728 6.37115 22.355 7.948 22.3566H16.018C17.5948 22.3547 19.1066 21.7275 20.2215 20.6124C21.3364 19.4973 21.9634 17.9854 21.965 16.4086V8.3386C21.9631 6.76175 21.3359 5.25004 20.2208 4.13513C19.1057 3.02022 17.5938 2.39319 16.017 2.3916V2.3916ZM19.957 16.4086C19.957 16.926 19.8551 17.4384 19.6571 17.9164C19.4591 18.3944 19.1689 18.8287 18.803 19.1946C18.4371 19.5605 18.0028 19.8507 17.5248 20.0487C17.0468 20.2467 16.5344 20.3486 16.017 20.3486H7.947C6.90222 20.3483 5.90032 19.9331 5.16165 19.1942C4.42297 18.4554 4.008 17.4534 4.008 16.4086V8.3386C4.00827 7.29382 4.42349 6.29192 5.16235 5.55325C5.90122 4.81457 6.90322 4.3996 7.948 4.3996H16.018C17.0628 4.39987 18.0647 4.81509 18.8034 5.55395C19.542 6.29282 19.957 7.29482 19.957 8.3396V16.4096V16.4086Z" fill="#0B0B0D"/>
    <path d="M11.9818 7.21094C10.6133 7.21305 9.30136 7.75772 8.33372 8.72554C7.36609 9.69336 6.82168 11.0054 6.81982 12.3739C6.82141 13.7429 7.36585 15.0553 8.33372 16.0233C9.3016 16.9914 10.6139 17.5361 11.9828 17.5379C13.3519 17.5363 14.6645 16.9918 15.6326 16.0237C16.6007 15.0556 17.1452 13.743 17.1468 12.3739C17.1447 11.005 16.5998 9.69282 15.6315 8.72513C14.6633 7.75744 13.3507 7.21326 11.9818 7.21194V7.21094ZM11.9818 15.5299C11.1451 15.5299 10.3426 15.1975 9.7509 14.6059C9.15922 14.0142 8.82682 13.2117 8.82682 12.3749C8.82682 11.5382 9.15922 10.7357 9.7509 10.144C10.3426 9.55234 11.1451 9.21994 11.9818 9.21994C12.8186 9.21994 13.6211 9.55234 14.2127 10.144C14.8044 10.7357 15.1368 11.5382 15.1368 12.3749C15.1368 13.2117 14.8044 14.0142 14.2127 14.6059C13.6211 15.1975 12.8186 15.5299 11.9818 15.5299Z" fill="#0B0B0D"/>
    <path d="M17.1559 8.4867C17.8391 8.4867 18.3929 7.93287 18.3929 7.2497C18.3929 6.56652 17.8391 6.0127 17.1559 6.0127C16.4728 6.0127 15.9189 6.56652 15.9189 7.2497C15.9189 7.93287 16.4728 8.4867 17.1559 8.4867Z" fill="#0B0B0D"/>
</svg>
