<svg width="24" height="25" viewBox="0 0 24 25" fill="none" xmlns="http://www.w3.org/2000/svg">
    <path d="M21.959 14.111V21.49H17.681V14.605C17.681 12.875 17.062 11.695 15.514 11.695C14.332 11.695 13.628 12.491 13.319 13.26C13.206 13.535 13.177 13.918 13.177 14.303V21.49H8.897C8.897 21.49 8.955 9.82997 8.897 8.62097H13.177V10.445L13.149 10.487H13.177V10.445C13.745 9.56997 14.76 8.31897 17.033 8.31897C19.848 8.31897 21.959 10.159 21.959 14.111ZM4.421 2.41797C2.958 2.41797 2 3.37797 2 4.64097C2 5.87597 2.93 6.86497 4.365 6.86497H4.393C5.886 6.86497 6.813 5.87597 6.813 4.64097C6.787 3.37797 5.887 2.41797 4.422 2.41797H4.421ZM2.254 21.49H6.532V8.62097H2.254V21.49Z" fill="#0B0B0D"/>
</svg>
