<svg width="90" height="90" viewBox="0 0 90 90" fill="none" xmlns="http://www.w3.org/2000/svg">
    <path d="M80.9825 71.7295H75.0205V71.7745H80.9825V71.7295Z" fill="#EBEBEB"/>
    <path d="M59.6194 72.2178H58.0547V72.2628H59.6194V72.2178Z" fill="#EBEBEB"/>
    <path d="M74.8403 70.0576H71.3857V70.1026H74.8403V70.0576Z" fill="#EBEBEB"/>
    <path d="M17.2171 70.3604H9.44238V70.4054H17.2171V70.3604Z" fill="#EBEBEB"/>
    <path d="M19.9603 70.3604H18.8203V70.4054H19.9603V70.3604Z" fill="#EBEBEB"/>
    <path d="M40.5267 71.1201H23.665V71.1651H40.5267V71.1201Z" fill="#EBEBEB"/>
    <path d="M42.9122 60.8042H8.15439C7.58793 60.8042 7.12695 60.3433 7.12695 59.7768V10.919C7.12695 10.3526 7.58793 9.8916 8.15439 9.8916H42.9122C43.4785 9.8916 43.9395 10.3526 43.9395 10.919V59.7768C43.9395 60.3433 43.4785 60.8042 42.9122 60.8042ZM8.15439 9.93678C7.61259 9.93678 7.17195 10.3774 7.17195 10.9192V59.777C7.17195 60.3188 7.61259 60.7594 8.15439 60.7594H42.9122C43.4538 60.7594 43.8945 60.3188 43.8945 59.777V10.919C43.8945 10.3774 43.4538 9.9366 42.9122 9.9366L8.15439 9.93678Z" fill="#EBEBEB"/>
    <path d="M81.8456 60.8042H47.0878C46.5215 60.8042 46.0605 60.3433 46.0605 59.7768V10.919C46.0605 10.3526 46.5215 9.8916 47.0878 9.8916H81.8456C82.4123 9.8916 82.8731 10.3526 82.8731 10.919V59.7768C82.8731 60.3433 82.4121 60.8042 81.8456 60.8042ZM47.0878 9.93678C46.5462 9.93678 46.1055 10.3774 46.1055 10.9192V59.777C46.1055 60.3188 46.5462 60.7594 47.0878 60.7594H81.8456C82.3874 60.7594 82.8281 60.3188 82.8281 59.777V10.919C82.8281 10.3774 82.3874 9.9366 81.8456 9.9366L47.0878 9.93678Z" fill="#EBEBEB"/>
    <path d="M90 68.832H0V68.877H90V68.832Z" fill="#EBEBEB"/>
    <path d="M21.4794 56.6552C21.3273 54.9167 19.5527 54.266 17.4497 54.45C15.347 54.634 13.7122 55.5831 13.8643 57.3215L21.4794 56.6552Z" fill="#F0F0F0"/>
    <path d="M17.3802 53.6558C18.3562 53.5704 18.6678 52.746 18.5823 51.7701C18.497 50.7941 18.047 50.0363 17.071 50.1218C16.095 50.2071 15.7835 51.0315 15.869 52.0075C15.9543 52.9835 16.4043 53.7413 17.3802 53.6558Z" fill="#F0F0F0"/>
    <path d="M61.2183 19.6148C61.2654 20.153 60.8673 20.6275 60.3291 20.6745C59.7909 20.7216 59.3164 20.3235 59.2694 19.7853C59.2223 19.2471 59.6204 18.7726 60.1586 18.7254C60.6968 18.6785 61.1713 19.0766 61.2183 19.6148Z" fill="#F5F5F5"/>
    <path d="M66.6315 19.1412C66.6787 19.6794 66.2805 20.1539 65.7423 20.2009C65.2041 20.248 64.7297 19.8499 64.6825 19.3117C64.6353 18.7735 65.0335 18.299 65.5717 18.2518C66.1101 18.2048 66.5844 18.603 66.6315 19.1412Z" fill="#F5F5F5"/>
    <path d="M72.0446 18.6674C72.0918 19.2056 71.6936 19.6801 71.1554 19.7272C70.6172 19.7744 70.1427 19.3762 70.0956 18.838C70.0484 18.2998 70.4466 17.8254 70.9848 17.7782C71.523 17.731 71.9975 18.1292 72.0446 18.6674Z" fill="#F5F5F5"/>
    <path d="M61.7009 25.1321C61.748 25.6703 61.3499 26.1448 60.8117 26.1919C60.2735 26.2391 59.799 25.8409 59.7518 25.3027C59.7047 24.7645 60.1028 24.2901 60.641 24.2431C61.1794 24.1957 61.6539 24.5937 61.7009 25.1321Z" fill="#F5F5F5"/>
    <path d="M67.114 24.6586C67.1611 25.1968 66.763 25.6713 66.2248 25.7184C65.6866 25.7656 65.2121 25.3674 65.1649 24.8292C65.1178 24.291 65.5159 23.8165 66.0541 23.7694C66.5923 23.7224 67.0668 24.1206 67.114 24.6586Z" fill="#F5F5F5"/>
    <path d="M72.5271 24.1851C72.5742 24.7233 72.1761 25.1978 71.6379 25.2448C71.0997 25.2919 70.6252 24.8938 70.578 24.3556C70.5309 23.8174 70.929 23.3429 71.4672 23.2957C72.0054 23.2489 72.4799 23.6471 72.5271 24.1851Z" fill="#F5F5F5"/>
    <path d="M62.1841 30.6498C62.2313 31.188 61.8331 31.6625 61.2949 31.7097C60.7567 31.7568 60.2822 31.3587 60.2352 30.8205C60.1881 30.2823 60.5862 29.8078 61.1244 29.7606C61.6625 29.7135 62.1369 30.1116 62.1841 30.6498Z" fill="#F5F5F5"/>
    <path d="M67.5974 30.176C67.6445 30.7142 67.2464 31.1887 66.7082 31.2359C66.17 31.283 65.6955 30.8849 65.6483 30.3467C65.6012 29.8085 65.9993 29.334 66.5375 29.287C67.0757 29.2397 67.5502 29.6378 67.5974 30.176Z" fill="#F5F5F5"/>
    <path d="M73.0095 29.7026C73.0566 30.2408 72.6585 30.7152 72.1203 30.7622C71.5821 30.8092 71.1076 30.4112 71.0604 29.873C71.0133 29.3348 71.4114 28.8603 71.9496 28.8134C72.488 28.7662 72.9625 29.1644 73.0095 29.7026Z" fill="#F5F5F5"/>
    <path d="M71.8405 30.0197L60.719 30.9928L70.5798 19.0107L60.4764 19.8947C60.3583 19.905 60.2542 19.8177 60.244 19.6996C60.2337 19.5815 60.321 19.4775 60.4391 19.4672L71.5606 18.4941L61.6998 30.4762L71.8032 29.5922C71.9213 29.582 72.0253 29.6693 72.0356 29.7872C72.0459 29.9052 71.9586 30.0095 71.8405 30.0197Z" fill="#E6E6E6"/>
    <path d="M72.0108 51.4094C71.9741 51.3034 71.8792 51.2247 71.7672 51.2174C71.2571 51.1832 70.8262 50.9924 70.4851 50.6498C70.0403 50.2032 69.7788 49.5236 69.7365 48.7166C69.7286 48.5663 69.6026 48.4491 69.4521 48.4482C69.2854 48.4472 69.1526 48.5879 69.1616 48.7543C69.2129 49.7007 69.5329 50.5101 70.0769 51.0564C70.5018 51.4832 71.0499 51.7332 71.6745 51.7878C71.6853 51.7887 71.6994 51.7899 71.7156 51.7912C71.9228 51.8076 72.0788 51.6056 72.0108 51.4094Z" fill="#F0F0F0"/>
    <path d="M71.4355 54.8641C69.0498 54.6553 67.3296 53.0293 66.7851 50.4921C66.7503 50.3302 66.8534 50.1709 67.0165 50.1427C67.1672 50.1166 67.3144 50.212 67.3463 50.3616C67.8341 52.6434 69.3655 54.1047 71.4856 54.2902C73.8106 54.4936 76.3078 52.964 76.7551 49.1077C76.7732 48.9514 76.9095 48.8361 77.0661 48.8497C77.2265 48.8638 77.3467 49.0069 77.3278 49.1667C76.8992 52.8025 74.5087 55.133 71.4355 54.8641Z" fill="#F0F0F0"/>
    <path d="M66.9355 47.9633C66.7752 47.9492 66.6549 47.8061 66.6738 47.6463C67.1026 44.0103 69.4934 41.68 72.5663 41.9488C75.2589 42.1844 77.0744 44.2002 77.3572 47.2368C77.3721 47.3972 77.2478 47.5369 77.087 47.5464H77.0865C76.9297 47.5558 76.7974 47.4373 76.7825 47.2811C76.5229 44.5453 74.9072 42.7318 72.5159 42.5226C70.1909 42.3192 67.6937 43.8487 67.2464 47.7052C67.2284 47.8616 67.0921 47.977 66.9355 47.9633Z" fill="#F0F0F0"/>
    <path d="M71.5535 53.3215C71.11 53.2827 70.694 53.1792 70.3122 53.0123C70.1569 52.9444 70.0928 52.7574 70.174 52.6086C70.2447 52.4788 70.4026 52.4226 70.5378 52.4822C70.8967 52.6399 71.2934 52.7326 71.7209 52.756C73.4844 52.857 75.3456 51.6079 75.5279 48.5901C75.6402 46.7314 75.0036 45.23 73.8148 44.512C73.6874 44.4349 73.6401 44.2738 73.7058 44.1403C73.7805 43.9885 73.9698 43.9326 74.1145 44.0199C75.4901 44.8504 76.2288 46.5449 76.103 48.6248C75.9271 51.5349 74.1115 53.4702 71.6878 53.3314C71.643 53.3286 71.598 53.3253 71.5535 53.3215Z" fill="#F0F0F0"/>
    <path d="M68.9883 51.5262C68.849 51.6214 68.6585 51.577 68.5739 51.4308C68.0636 50.5481 67.825 49.41 67.8989 48.1876C68.0672 45.4039 69.7362 43.5119 72.0026 43.4746C72.1707 43.4719 72.3066 43.6125 72.2971 43.7805V43.7812C72.2884 43.9308 72.1666 44.0485 72.0168 44.0514C70.3361 44.0845 68.6476 45.3549 68.4742 48.2223C68.4069 49.3355 68.6198 50.3627 69.0763 51.1482C69.1512 51.2773 69.1116 51.442 68.9883 51.5262Z" fill="#F0F0F0"/>
    <path d="M72.9239 51.2908C72.8652 51.1574 72.9165 51.0034 73.0414 50.9281C73.7983 50.4724 74.2633 49.5158 74.2712 48.3629C74.2775 47.4394 74.0095 46.6582 73.5165 46.1632C73.1363 45.7812 72.6447 45.589 72.0556 45.59C71.1682 45.5924 70.4496 46.0786 70.0515 46.9341C69.9888 47.0687 69.8329 47.1325 69.6934 47.0812C69.5349 47.0228 69.4594 46.8401 69.5311 46.6871C70.0236 45.6361 70.9475 45.0167 72.054 45.0137C72.7918 45.0126 73.4389 45.2687 73.9247 45.7565C74.527 46.3613 74.8546 47.2882 74.8472 48.3667C74.838 49.7273 74.2649 50.8678 73.3314 51.426C73.1845 51.5138 72.9928 51.4476 72.9239 51.2908Z" fill="#F0F0F0"/>
    <path d="M70.85 49.1746C70.6864 49.2403 70.5034 49.1452 70.4614 48.9739C70.4423 48.8959 70.4265 48.8157 70.4141 48.733C70.2512 47.6559 70.8302 46.7179 71.761 46.5516C72.2414 46.4654 72.6698 46.5784 72.9973 46.8708C73.1301 46.9896 73.1198 47.2014 72.9749 47.3053L72.9569 47.3181C72.8479 47.3962 72.704 47.3785 72.6023 47.2911C72.407 47.1235 72.159 47.0655 71.8624 47.1186C71.153 47.2455 70.8833 47.9835 70.9838 48.6468C70.9935 48.7114 71.0057 48.7741 71.0205 48.8342C71.0547 48.9755 70.9849 49.1202 70.85 49.1746Z" fill="#F0F0F0"/>
    <path d="M71.8014 50.2837C71.8007 50.2837 71.7998 50.2835 71.7991 50.2835C71.6005 50.2658 71.4909 50.0434 71.5968 49.8743L71.6212 49.8353C71.6743 49.7507 71.7692 49.7041 71.8689 49.7111C71.9542 49.7168 72.0446 49.7114 72.1391 49.6945C72.7585 49.5836 73.0427 49.0069 73.0378 48.4208C73.0366 48.2745 73.1379 48.1481 73.2825 48.1264C73.4515 48.1008 73.6111 48.2264 73.6144 48.3974C73.6315 49.3367 73.0785 50.1119 72.2404 50.2617C72.0892 50.2887 71.9422 50.2961 71.8014 50.2837Z" fill="#F0F0F0"/>
    <path d="M71.9294 49.2193C71.6227 49.1925 71.3941 48.9858 71.3111 48.6908C71.2631 48.5198 71.4065 48.3542 71.5833 48.3697L71.6494 48.3755C71.752 48.3845 71.8366 48.4547 71.8708 48.5519C71.8875 48.5994 71.9195 48.6401 71.9795 48.6453C72.1179 48.6573 72.1422 48.4588 72.1458 48.4188C72.1483 48.3904 72.1543 48.2801 72.1071 48.2151C72.0608 48.1514 72.0292 48.0785 72.036 48C72.0585 47.7438 72.3821 47.6409 72.5454 47.8396C72.6752 47.9976 72.7418 48.2189 72.7198 48.4691C72.6786 48.9401 72.3461 49.2558 71.9294 49.2193Z" fill="#F0F0F0"/>
    <path d="M66.5169 42.7777C66.3583 42.7639 66.2412 42.6242 66.255 42.4656L66.4734 39.9697L68.9692 40.1881C69.1278 40.2019 69.245 40.3416 69.2311 40.5002C69.2173 40.6588 69.0776 40.7759 68.919 40.7621L66.9972 40.594L66.829 42.5158C66.8152 42.6744 66.6753 42.7916 66.5169 42.7777Z" fill="#F0F0F0"/>
    <path d="M78.3831 43.8161C78.2246 43.8022 78.1074 43.6626 78.1212 43.504L78.2894 41.5821L76.3675 41.414C76.2089 41.4001 76.0917 41.2605 76.1056 41.1019C76.1195 40.9433 76.2591 40.8261 76.4177 40.84L78.9136 41.0583L78.6953 43.5542C78.6814 43.7128 78.5417 43.83 78.3831 43.8161Z" fill="#F0F0F0"/>
    <path d="M77.4991 57.2349L75.0032 57.0166C74.8447 57.0027 74.7275 56.863 74.7413 56.7044C74.7552 56.5459 74.8949 56.4287 75.0535 56.4425L76.9753 56.6107L77.1434 54.6888C77.1573 54.5302 77.297 54.413 77.4556 54.4269C77.6141 54.4408 77.7313 54.5804 77.7175 54.739L77.4991 57.2349Z" fill="#F0F0F0"/>
    <path d="M67.5535 56.3649L65.0576 56.1466L65.276 53.6507C65.2898 53.4921 65.4295 53.3749 65.5881 53.3888C65.7467 53.4027 65.8638 53.5423 65.85 53.7009L65.6819 55.6228L67.6037 55.7909C67.7623 55.8048 67.8795 55.9445 67.8656 56.103C67.8518 56.2616 67.7121 56.3788 67.5535 56.3649Z" fill="#F0F0F0"/>
    <path d="M13.4512 50.9634C13.3538 50.9718 13.2677 50.8998 13.2593 50.8023L13.125 49.2678L14.6595 49.1335C14.7571 49.125 14.8429 49.197 14.8514 49.2946C14.8598 49.392 14.7878 49.478 14.6903 49.4865L13.5086 49.5898L13.6119 50.7715C13.6207 50.869 13.5485 50.9549 13.4512 50.9634Z" fill="#E0E0E0"/>
    <path d="M20.7476 50.3244C20.6502 50.3329 20.5642 50.2609 20.5557 50.1633L20.4524 48.9816L19.2707 49.0849C19.1733 49.0934 19.0873 49.0214 19.0788 48.9238C19.0703 48.8264 19.1423 48.7404 19.2399 48.7319L20.7744 48.5977L20.9087 50.1322C20.9171 50.2299 20.8451 50.3159 20.7476 50.3244Z" fill="#E0E0E0"/>
    <path d="M21.5034 56.9326L19.9689 57.0669C19.8715 57.0753 19.7855 57.0033 19.777 56.9058C19.7686 56.8084 19.8406 56.7224 19.9381 56.7139L21.1198 56.6106L21.0165 55.4289C21.0081 55.3313 21.0801 55.2455 21.1776 55.237C21.275 55.2285 21.361 55.3005 21.3695 55.3981L21.5034 56.9326Z" fill="#E0E0E0"/>
    <path d="M15.3892 57.467L13.8547 57.6013L13.7204 56.0666C13.7119 55.9692 13.7839 55.8832 13.8815 55.8747C13.9789 55.8662 14.0649 55.9382 14.0734 56.0358L14.1767 57.2175L15.3584 57.1142C15.4558 57.1057 15.5418 57.1777 15.5503 57.2753C15.5587 57.3725 15.4866 57.4583 15.3892 57.467Z" fill="#E0E0E0"/>
    <path d="M20.6247 25.3713L14.7511 25.8852L14.6309 24.5107C14.5061 23.0848 15.5647 21.8233 16.9905 21.6986C18.4165 21.5738 19.6779 22.6324 19.8026 24.0582L19.8725 24.8569L20.7199 24.7827L20.6501 23.984C20.4845 22.0908 18.8096 20.6855 16.9163 20.8511C15.0231 21.0167 13.6178 22.6916 13.7834 24.5849L13.9044 25.9673C13.2209 26.1005 12.7344 26.7308 12.7963 27.4399L13.2159 32.2356C13.2823 32.9939 13.9508 33.5548 14.7092 33.4886L21.2846 32.9133C22.0429 32.8471 22.6038 32.1785 22.5376 31.4202L22.118 26.6245C22.0516 25.8659 21.383 25.3049 20.6247 25.3713ZM18.1297 29.0667L18.2743 30.718C18.298 30.9891 18.0975 31.228 17.8264 31.2517C17.5553 31.2755 17.3165 31.075 17.2927 30.8039L17.1482 29.1526C16.9325 29.0197 16.7786 28.7924 16.7549 28.5206C16.7149 28.0643 17.0526 27.662 17.5089 27.622C17.9652 27.5821 18.3675 27.9197 18.4075 28.376C18.431 28.6477 18.3189 28.8984 18.1297 29.0667Z" fill="#EBEBEB"/>
    <path d="M30.6803 28.1508L30.0864 27.1828C29.7648 27.2272 29.5016 27.2272 29.18 27.1828L28.5861 28.1508L28.4722 28.1206C28.0895 28.0189 27.7203 27.8655 27.3751 27.6652L27.273 27.606L27.5249 26.5551C27.5452 26.47 27.6307 26.4176 27.7158 26.4379C27.801 26.4583 27.8534 26.5438 27.8328 26.6289L27.6363 27.4486C27.8928 27.5883 28.1624 27.7003 28.4403 27.7827L29.0203 26.837L29.1252 26.8541C29.4615 26.909 29.8046 26.909 30.1408 26.8541L30.2457 26.837L30.8257 27.7827C31.1036 27.7001 31.3733 27.5883 31.6298 27.4486L31.3716 26.3713L31.458 26.3094C31.6935 26.1402 31.9034 25.9402 32.0835 25.714C32.137 25.6467 32.2322 25.6308 32.3019 25.681C32.3742 25.7331 32.3912 25.8357 32.3359 25.9055C32.1588 26.1291 31.9554 26.3292 31.7289 26.5027L31.9934 27.606L31.8915 27.6652C31.5462 27.8655 31.1771 28.0189 30.7944 28.1206L30.6803 28.1508ZM27.0407 26.0374C26.9908 25.9804 26.9426 25.9217 26.8963 25.8614L25.7929 26.1256L25.7337 26.0238C25.5333 25.6785 25.38 25.3093 25.2783 24.9267L25.248 24.8127L26.2161 24.2189C26.1938 24.0576 26.183 23.9086 26.183 23.7657C26.183 23.6229 26.1939 23.4737 26.2161 23.3124L25.248 22.7188L25.2783 22.6048C25.38 22.2222 25.5333 21.853 25.7337 21.5077L25.7929 21.4059L26.8961 21.6701C27.081 21.4289 27.2961 21.214 27.5373 21.0289L27.3371 20.1941C27.3168 20.1091 27.3692 20.0238 27.4539 20.0035L27.4545 20.0033C27.5394 19.983 27.6248 20.0353 27.6451 20.1201L27.8942 21.1602L27.8071 21.2228C27.5306 21.4219 27.2882 21.6643 27.0893 21.9408L27.0272 22.027L25.9499 21.7689C25.8104 22.0254 25.6986 22.2951 25.616 22.573L26.5613 23.1528L26.5442 23.2577C26.514 23.4433 26.4992 23.6094 26.4992 23.7655C26.4992 23.9219 26.514 24.0879 26.5442 24.2733L26.5613 24.378L25.6158 24.9582C25.6982 25.2363 25.8102 25.5057 25.9497 25.7622L27.027 25.5041L27.0891 25.5903C27.1476 25.6717 27.2104 25.7507 27.2766 25.8265C27.3317 25.8895 27.3303 25.9836 27.27 26.0418L27.2642 26.0473C27.2009 26.1091 27.099 26.104 27.0407 26.0374ZM33.4733 26.1258L33.0665 26.0284C32.9814 26.0081 32.929 25.9226 32.9493 25.8375C32.9697 25.7525 33.0552 25.6999 33.1403 25.7203L33.316 25.7624C33.4555 25.5059 33.5673 25.2363 33.6499 24.9583L32.7044 24.3782L32.7215 24.2734C32.7517 24.088 32.7665 23.9219 32.7665 23.7657C32.7665 23.6094 32.7517 23.4435 32.7215 23.2579L32.7044 23.1529L33.6497 22.5732C33.5673 22.2951 33.4553 22.0256 33.3158 21.7691L32.2385 22.0272L32.1764 21.941C31.9775 21.6645 31.7351 21.4221 31.4586 21.223L31.3715 21.1603L31.6296 20.083C31.3731 19.9435 31.1034 19.8316 30.8255 19.749L30.2456 20.6945L30.1406 20.6776C29.8042 20.623 29.4611 20.623 29.1247 20.6776L29.0199 20.6945L28.44 19.7491C28.404 19.7598 28.368 19.7711 28.332 19.7828C28.2517 19.8091 28.1653 19.7659 28.1363 19.6867C28.1057 19.6033 28.1491 19.5094 28.2333 19.4818C28.3124 19.4559 28.3921 19.4323 28.4715 19.4113L28.5856 19.3809L29.1794 20.3491C29.5025 20.3043 29.7626 20.3043 30.0857 20.3491L30.6795 19.3809L30.7937 19.4111C31.1763 19.513 31.5455 19.6663 31.8908 19.8665L31.9926 19.9257L31.7282 21.0291C31.9694 21.2142 32.1845 21.4291 32.3694 21.6703L33.4726 21.406L33.5318 21.5079C33.7322 21.8532 33.8855 22.2223 33.9872 22.605L34.0175 22.719L33.0494 23.3126C33.0717 23.4739 33.0825 23.6231 33.0825 23.7658C33.0825 23.9088 33.0716 24.0578 33.0494 24.2191L34.0175 24.8129L33.9872 24.9268C33.8855 25.3095 33.7322 25.6787 33.5318 26.0239L33.4733 26.1258ZM29.5887 25.3081C28.7845 25.2854 28.1138 24.6151 28.0908 23.8108C28.0676 23.0003 28.6733 22.3233 29.455 22.2331C29.5495 22.2222 29.6332 22.2961 29.6332 22.3914C29.6332 22.4713 29.5736 22.5384 29.4942 22.5474C28.8048 22.6255 28.287 23.2775 28.4313 24.0126C28.5251 24.49 28.9098 24.8746 29.3873 24.9679C30.1709 25.1211 30.8595 24.5224 30.8595 23.7657C30.8595 23.5124 30.7814 23.2672 30.6376 23.0619C30.5922 22.9971 30.6045 22.9085 30.6639 22.8561C30.735 22.7933 30.8459 22.8064 30.9 22.8844C31.0791 23.1418 31.1763 23.4487 31.1763 23.7657C31.176 24.6313 30.4598 25.3326 29.5887 25.3081Z" fill="#F0F0F0"/>
    <path d="M19.4966 41.3272L19.113 40.7019C18.9053 40.7307 18.7352 40.7307 18.5275 40.7019L18.1439 41.3272L18.0703 41.3076C17.8229 41.2419 17.5844 41.1429 17.3614 41.0133L17.2955 40.9749L17.4583 40.296C17.4714 40.2411 17.5267 40.207 17.5816 40.2204C17.6365 40.2335 17.6703 40.2888 17.6572 40.3437L17.5303 40.8732C17.696 40.9634 17.8701 41.0358 18.0497 41.089L18.4243 40.4781L18.4922 40.4893C18.7094 40.5247 18.931 40.5247 19.1483 40.4893L19.2161 40.4781L19.5909 41.089C19.7705 41.0358 19.9446 40.9634 20.1104 40.8732L19.9435 40.1773L19.9993 40.1372C20.1514 40.0279 20.287 39.8987 20.4034 39.7525C20.438 39.7092 20.4995 39.6989 20.5445 39.7313C20.5912 39.765 20.6021 39.8312 20.5665 39.8764C20.452 40.0207 20.3206 40.1502 20.1743 40.2623L20.3451 40.9749L20.2792 41.0133C20.0562 41.1427 19.8177 41.2417 19.5704 41.3076L19.4966 41.3272ZM17.1452 39.9621C17.113 39.9252 17.0819 39.8874 17.052 39.8483L16.3392 40.0191L16.301 39.9532C16.1716 39.7302 16.0726 39.4917 16.0069 39.2444L15.9873 39.1708L16.6126 38.7872C16.5982 38.683 16.5912 38.5867 16.5912 38.4943C16.5912 38.4022 16.5982 38.3057 16.6126 38.2015L15.9873 37.8179L16.0069 37.7443C16.0726 37.497 16.1716 37.2586 16.301 37.0354L16.3392 36.9696L17.052 37.1404C17.1713 36.9845 17.3103 36.8457 17.4662 36.7262L17.3369 36.1869C17.3238 36.132 17.3576 36.0769 17.4124 36.0638L17.4127 36.0636C17.4676 36.0505 17.5227 36.0843 17.5358 36.1392L17.6968 36.8112L17.6404 36.8517C17.4619 36.9802 17.3053 37.1368 17.1767 37.3155L17.1366 37.3713L16.4405 37.2046C16.3505 37.3704 16.2782 37.5445 16.2249 37.7241L16.8356 38.0987L16.8247 38.1666C16.805 38.2864 16.7957 38.3937 16.7957 38.4947C16.7957 38.5957 16.8052 38.703 16.8247 38.8228L16.8358 38.8905L16.2251 39.2653C16.2784 39.4449 16.3507 39.619 16.4407 39.7848L17.1368 39.6181L17.1769 39.6739C17.2147 39.7264 17.2552 39.7776 17.2981 39.8265C17.3337 39.8672 17.3326 39.928 17.2937 39.9655L17.29 39.9691C17.2487 40.0081 17.183 40.0049 17.1452 39.9621ZM21.3009 40.0189L21.0381 39.9561C20.9832 39.943 20.9492 39.8877 20.9623 39.8328C20.9755 39.7779 21.0307 39.7441 21.0856 39.7572L21.1992 39.7844C21.2892 39.6186 21.3616 39.4446 21.4148 39.2649L20.8041 38.8902L20.8153 38.8225C20.8347 38.7028 20.8442 38.5953 20.8442 38.4943C20.8442 38.3934 20.8347 38.2861 20.8153 38.1662L20.8043 38.0983L21.415 37.7238C21.3617 37.5441 21.2894 37.3701 21.1994 37.2043L20.5033 37.371L20.4632 37.3152C20.3347 37.1366 20.1781 36.9798 19.9995 36.8513L19.9432 36.8108L20.11 36.1147C19.9442 36.0246 19.7702 35.9524 19.5905 35.8989L19.216 36.5097L19.1483 36.4987C18.931 36.4634 18.7094 36.4634 18.492 36.4987L18.4243 36.5097L18.0497 35.8989C18.0265 35.9058 18.0031 35.9131 17.9801 35.9207C17.9282 35.9376 17.8724 35.9097 17.8537 35.8586C17.8339 35.8048 17.862 35.7441 17.9164 35.7263C17.9675 35.7096 18.019 35.6943 18.0701 35.6808L18.1439 35.6611L18.5275 36.2866C18.7363 36.2577 18.9042 36.2577 19.113 36.2866L19.4966 35.6611L19.5702 35.6808C19.8173 35.7466 20.0558 35.8456 20.279 35.9749L20.3449 36.0132L20.1741 36.726C20.33 36.8455 20.4688 36.9843 20.5883 37.1402L21.3011 36.9694L21.3392 37.0353C21.4687 37.2583 21.5677 37.4968 21.6334 37.7441L21.653 37.8177L21.0277 38.2013C21.0421 38.3055 21.0491 38.4018 21.0491 38.4942C21.0491 38.5865 21.0421 38.6828 21.0277 38.787L21.653 39.1706L21.6334 39.2442C21.5677 39.4915 21.4687 39.73 21.3392 39.9531L21.3009 40.0189ZM18.7915 39.4906C18.2719 39.4761 17.8388 39.043 17.8238 38.5233C17.8087 37.9997 18.2 37.5623 18.7051 37.504C18.7661 37.497 18.8201 37.5448 18.8201 37.6062C18.8201 37.6579 18.7816 37.7013 18.7303 37.707C18.285 37.7574 17.9504 38.1786 18.0436 38.6536C18.1041 38.962 18.3527 39.2106 18.6612 39.2709C19.1674 39.3699 19.6123 38.983 19.6123 38.4942C19.6123 38.3305 19.5619 38.1721 19.469 38.0395C19.4397 37.9977 19.4476 37.9403 19.486 37.9065C19.532 37.8658 19.6035 37.8744 19.6386 37.9248C19.7543 38.0911 19.8172 38.2893 19.8172 38.4942C19.8168 39.0534 19.354 39.5067 18.7915 39.4906Z" fill="#E6E6E6"/>
    <path d="M44.9996 76.8624C64.2744 76.8624 79.8997 75.9499 79.8997 74.8243C79.8997 73.6986 64.2744 72.7861 44.9996 72.7861C25.7249 72.7861 10.0996 73.6986 10.0996 74.8243C10.0996 75.9499 25.7249 76.8624 44.9996 76.8624Z" fill="#F5F5F5"/>
    <path d="M65.4206 26.249H59.5596L55.4141 73.6338H61.275C62.9418 73.6338 64.4164 72.2779 64.5622 70.6111L68.1789 29.2718C68.3247 27.605 67.0874 26.249 65.4206 26.249Z" fill="#407BFF"/>
    <path d="M64.225 26.249H44.3892C42.7224 26.249 41.2478 27.605 41.102 29.2718L37.4853 70.6111C37.3395 72.2779 38.5768 73.6338 40.2436 73.6338H60.0794C61.7462 73.6338 63.2208 72.2779 63.3666 70.6111L66.9833 29.2718C67.1291 27.605 65.8918 26.249 64.225 26.249Z" fill="#407BFF"/>
    <path opacity="0.3" d="M64.225 26.249H44.3892C42.7224 26.249 41.2478 27.605 41.102 29.2718L37.4853 70.6111C37.3395 72.2779 38.5768 73.6338 40.2436 73.6338H60.0794C61.7462 73.6338 63.2208 72.2779 63.3666 70.6111L66.9833 29.2718C67.1291 27.605 65.8918 26.249 64.225 26.249Z" fill="white"/>
    <path opacity="0.4" d="M64.1398 27.2178H58.9101C58.6016 27.2178 58.312 27.4203 58.1977 27.7158C57.7748 28.8084 56.7042 29.5567 55.5637 29.5567H52.4711C51.3307 29.5567 50.3907 28.8083 50.159 27.7158C50.0964 27.4203 49.8422 27.218 49.5337 27.218H44.304C43.1695 27.218 42.1694 28.1376 42.07 29.2721L38.4533 70.6115C38.3541 71.746 39.1933 72.6656 40.3278 72.6656H60.1636C61.2981 72.6656 62.2982 71.746 62.3976 70.6115L66.0143 29.2721C66.1135 28.1376 65.2743 27.2178 64.1398 27.2178Z" fill="white"/>
    <path d="M59.199 49.6724H45.3167C44.9051 49.6724 44.6007 49.3387 44.6367 48.9272L44.7062 48.1329C44.7422 47.7212 45.105 47.3877 45.5167 47.3877H59.399C59.8107 47.3877 60.1151 47.7214 60.0791 48.1329L60.0096 48.9272C59.9736 49.3387 59.6107 49.6724 59.199 49.6724Z" fill="white"/>
    <path d="M58.8992 53.1002H45.0169C44.6053 53.1002 44.3009 52.7665 44.3369 52.355L44.4064 51.5606C44.4424 51.149 44.8052 50.8154 45.2169 50.8154H59.0992C59.5109 50.8154 59.8153 51.1492 59.7793 51.5606L59.7098 52.355C59.6738 52.7665 59.3109 53.1002 58.8992 53.1002Z" fill="white"/>
    <path opacity="0.1" d="M54.9812 27.9914C54.9412 28.4479 54.5389 28.8178 54.0824 28.8178C53.6259 28.8178 53.2884 28.4479 53.3284 27.9914C53.3684 27.5349 53.7707 27.165 54.2271 27.165C54.6834 27.165 55.0211 27.5349 54.9812 27.9914Z" fill="black"/>
    <path opacity="0.1" d="M54.606 27.9915C54.5842 28.2408 54.3644 28.4429 54.1149 28.4429C53.8656 28.4429 53.6811 28.2408 53.7029 27.9915C53.7247 27.7422 53.9445 27.54 54.194 27.54C54.4434 27.54 54.6278 27.7422 54.606 27.9915Z" fill="black"/>
    <g opacity="0.8">
        <path d="M61.6985 29.3702C61.5648 29.3702 61.4658 29.2618 61.4775 29.1281L61.5162 28.6855C61.5279 28.5517 61.6458 28.4434 61.7795 28.4434C61.9133 28.4434 62.0123 28.5517 62.0006 28.6855L61.9619 29.1281C61.9502 29.2618 61.8323 29.3702 61.6985 29.3702Z" fill="white"/>
        <path d="M63.636 29.3706C63.5023 29.3706 63.4033 29.2623 63.415 29.1285L63.5059 28.0898C63.5176 27.956 63.6355 27.8477 63.7692 27.8477C63.903 27.8477 64.002 27.956 63.9903 28.0898L63.8994 29.1285C63.8877 29.2623 63.7698 29.3706 63.636 29.3706Z" fill="white"/>
        <path d="M62.6673 29.3704C62.5336 29.3704 62.4346 29.262 62.4463 29.1283L62.5111 28.3876C62.5228 28.2539 62.6407 28.1455 62.7744 28.1455C62.9081 28.1455 63.0071 28.2539 62.9954 28.3876L62.9306 29.1283C62.9189 29.262 62.801 29.3704 62.6673 29.3704Z" fill="white"/>
    </g>
    <g opacity="0.8">
        <path d="M45.114 29.3705H43.8981C43.8223 29.3705 43.7663 29.3092 43.773 29.2334L43.8301 28.5805C43.8367 28.5047 43.9035 28.4434 43.9791 28.4434H45.195C45.2708 28.4434 45.3268 28.5047 45.3201 28.5805L45.263 29.2334C45.2564 29.3092 45.1898 29.3705 45.114 29.3705Z" fill="white"/>
        <path d="M45.6774 29.1931C45.6016 29.1931 45.5456 29.1317 45.5523 29.0559L45.5784 28.7573C45.5851 28.6815 45.6518 28.6201 45.7274 28.6201C45.8032 28.6201 45.8592 28.6815 45.8525 28.7573L45.8264 29.0559C45.82 29.1317 45.7532 29.1931 45.6774 29.1931Z" fill="white"/>
    </g>
    <path d="M56.9139 44.4512C59.3361 42.1326 59.5774 38.4539 57.453 36.2346C55.3286 34.0152 51.6428 34.0956 49.2207 36.4142C46.7985 38.7327 46.5572 42.4115 48.6816 44.6308C50.806 46.8502 54.4918 46.7698 56.9139 44.4512Z" fill="white"/>
    <path d="M53.0855 40.208C51.5582 40.208 50.2691 40.789 50.1587 42.0517L50.0361 43.453H55.5674L55.6899 42.0517C55.8003 40.789 54.613 40.208 53.0855 40.208Z" fill="#407BFF"/>
    <path d="M53.136 39.6313C53.8449 39.6313 54.1718 39.0567 54.2337 38.3479C54.2958 37.639 54.0693 37.0645 53.3605 37.0645C52.6517 37.0645 52.3248 37.639 52.2627 38.3479C52.2008 39.0567 52.4272 39.6313 53.136 39.6313Z" fill="#407BFF"/>
    <path d="M58.5656 48.4893C58.1883 48.4893 57.8699 48.6327 57.8427 48.9447L57.8125 49.2908H59.1787L59.2089 48.9447C59.2361 48.6327 58.9429 48.4893 58.5656 48.4893Z" fill="#407BFF"/>
    <path d="M58.5784 48.3469C58.7535 48.3469 58.8342 48.2048 58.8495 48.0299C58.8648 47.8547 58.809 47.7129 58.6338 47.7129C58.4587 47.7129 58.3781 47.8549 58.3628 48.0299C58.3475 48.205 58.4034 48.3469 58.5784 48.3469Z" fill="#407BFF"/>
    <path d="M54.3586 56.5271H48.957C48.3261 56.5271 47.8593 56.0157 47.9146 55.3847C47.9699 54.7538 48.5261 54.2422 49.157 54.2422H54.5586C55.1895 54.2422 55.6562 54.7538 55.601 55.3847C55.5457 56.0157 54.9895 56.5271 54.3586 56.5271Z" fill="#407BFF"/>
    <path d="M53.7077 69.2677H47.9266C47.2599 69.2677 46.7667 68.7272 46.825 68.0605L47.1938 63.844C47.2521 63.1773 47.8398 62.6367 48.5066 62.6367H54.2876C54.9543 62.6367 55.4475 63.1773 55.3892 63.844L55.0204 68.0605C54.9621 68.7272 54.3744 69.2677 53.7077 69.2677Z" fill="#407BFF"/>
    <g opacity="0.6">
        <path d="M51.9245 64.9091C51.9596 64.5079 51.6628 64.1826 51.2615 64.1826C50.8603 64.1826 50.5066 64.5079 50.4715 64.9091C50.4506 65.148 50.5491 65.3582 50.7156 65.4905L50.5885 66.9424C50.5676 67.1807 50.7439 67.3738 50.9822 67.3738C51.2205 67.3738 51.4306 67.1807 51.4514 66.9424L51.5785 65.4905C51.7684 65.3582 51.9036 65.1481 51.9245 64.9091Z" fill="white"/>
    </g>
    <path d="M54.339 63.514H53.5939L53.7765 61.4278C53.8861 60.1741 52.9555 59.1542 51.7018 59.1542C50.4481 59.1542 49.3389 60.1741 49.2293 61.4278L49.0468 63.514H48.3018L48.4843 61.4278C48.6299 59.7633 50.1025 58.4092 51.7669 58.4092C53.4314 58.4092 54.6671 59.7633 54.5215 61.4278L54.339 63.514Z" fill="#407BFF"/>
    <path d="M58.6569 51.6844L58.6744 51.4843C58.6924 51.2796 58.5405 51.1133 58.3358 51.1133C58.1312 51.1133 57.9503 51.2798 57.9324 51.4843L57.915 51.6844C57.8333 51.6844 57.7613 51.7507 57.7542 51.8324L57.7076 52.3645C57.7004 52.4462 57.7609 52.5124 57.8426 52.5124H58.5842C58.6659 52.5124 58.7379 52.4462 58.7451 52.3645L58.7918 51.8324C58.799 51.7507 58.7387 51.6844 58.6569 51.6844ZM58.3279 51.2047C58.482 51.2047 58.5963 51.33 58.583 51.4841L58.5655 51.6842H58.0066L58.0241 51.4841C58.0376 51.33 58.1738 51.2047 58.3279 51.2047Z" fill="#407BFF"/>
    <path d="M47.4924 51.8974L47.2335 51.844C47.2029 51.8377 47.1871 51.8054 47.1999 51.7752L47.3077 51.5203C47.3309 51.4656 47.2643 51.4251 47.2224 51.4685L47.0267 51.6701C47.0035 51.694 46.9662 51.694 46.9473 51.6701L46.7869 51.4685C46.7526 51.4253 46.6789 51.4656 46.6924 51.5203L46.7556 51.7752C46.7632 51.8054 46.7418 51.8377 46.7099 51.844L46.4417 51.8974C46.3841 51.9089 46.3771 51.9898 46.4327 52.0013L46.6915 52.0547C46.7221 52.061 46.738 52.0933 46.7252 52.1235L46.6174 52.3784C46.5942 52.4331 46.6608 52.4736 46.7027 52.4302L46.8984 52.2286C46.9216 52.2047 46.9588 52.2047 46.9777 52.2286L47.1381 52.4302C47.1725 52.4736 47.2461 52.4331 47.2326 52.3784L47.1694 52.1235C47.1619 52.0933 47.1833 52.061 47.2152 52.0547L47.4834 52.0013C47.541 51.9898 47.548 51.9088 47.4924 51.8974Z" fill="#263238"/>
    <path d="M49.1955 51.8974L48.9367 51.844C48.9061 51.8377 48.8902 51.8054 48.903 51.7752L49.0108 51.5203C49.0341 51.4656 48.9675 51.4251 48.9255 51.4685L48.7299 51.6701C48.7066 51.694 48.6696 51.694 48.6505 51.6701L48.4901 51.4685C48.4557 51.4253 48.3821 51.4656 48.3956 51.5203L48.4588 51.7752C48.4663 51.8054 48.4447 51.8377 48.4131 51.844L48.1449 51.8974C48.0873 51.9089 48.0802 51.9898 48.1357 52.0013L48.3945 52.0547C48.4251 52.061 48.441 52.0933 48.4282 52.1235L48.3204 52.3784C48.2971 52.4331 48.3637 52.4736 48.4057 52.4302L48.6013 52.2286C48.6246 52.2047 48.6616 52.2047 48.6807 52.2286L48.8411 52.4302C48.8755 52.4736 48.9491 52.4331 48.9356 52.3784L48.8724 52.1235C48.8649 52.0933 48.8865 52.061 48.9181 52.0547L49.1863 52.0013C49.2441 51.9898 49.2511 51.9088 49.1955 51.8974Z" fill="#263238"/>
    <path d="M50.8986 51.8974L50.6398 51.844C50.6092 51.8377 50.5934 51.8054 50.6061 51.7752L50.714 51.5203C50.7372 51.4656 50.6706 51.4251 50.6286 51.4685L50.433 51.6701C50.4098 51.694 50.3725 51.694 50.3536 51.6701L50.1932 51.4685C50.1588 51.4253 50.0852 51.4656 50.0987 51.5203L50.1619 51.7752C50.1695 51.8054 50.148 51.8377 50.1162 51.844L49.848 51.8974C49.7904 51.9089 49.7834 51.9898 49.8388 52.0013L50.0976 52.0547C50.1282 52.061 50.1441 52.0933 50.1313 52.1235L50.0235 52.3784C50.0003 52.4331 50.0669 52.4736 50.1088 52.4302L50.3045 52.2286C50.3277 52.2047 50.3649 52.2047 50.3838 52.2286L50.5442 52.4302C50.5786 52.4736 50.6522 52.4331 50.6387 52.3784L50.5755 52.1235C50.568 52.0933 50.5894 52.061 50.6213 52.0547L50.8895 52.0013C50.9472 51.9898 50.9543 51.9088 50.8986 51.8974Z" fill="#263238"/>
    <path d="M52.6027 51.8974L52.3439 51.844C52.3133 51.8377 52.2974 51.8054 52.3102 51.7752L52.418 51.5203C52.4413 51.4656 52.3747 51.4251 52.3327 51.4685L52.1371 51.6701C52.1138 51.694 52.0766 51.694 52.0577 51.6701L51.8973 51.4685C51.8629 51.4253 51.7893 51.4656 51.8028 51.5203L51.866 51.7752C51.8735 51.8054 51.8521 51.8377 51.8203 51.844L51.5521 51.8974C51.4945 51.9089 51.4874 51.9898 51.5431 52.0013L51.8019 52.0547C51.8325 52.061 51.8483 52.0933 51.8356 52.1235L51.7277 52.3784C51.7045 52.4331 51.7711 52.4736 51.8131 52.4302L52.0087 52.2286C52.0319 52.2047 52.0692 52.2047 52.0881 52.2286L52.2485 52.4302C52.2829 52.4736 52.3565 52.4331 52.343 52.3784L52.2798 52.1235C52.2722 52.0933 52.2937 52.061 52.3255 52.0547L52.5937 52.0013C52.6511 51.9898 52.6583 51.9088 52.6027 51.8974Z" fill="#263238"/>
    <path d="M54.3059 51.8974L54.047 51.844C54.0164 51.8377 54.0006 51.8054 54.0134 51.7752L54.1212 51.5203C54.1444 51.4656 54.0778 51.4251 54.0359 51.4685L53.8402 51.6701C53.817 51.694 53.7797 51.694 53.7608 51.6701L53.6004 51.4685C53.5661 51.4253 53.4924 51.4656 53.5059 51.5203L53.5691 51.7752C53.5767 51.8054 53.5553 51.8377 53.5234 51.844L53.2552 51.8974C53.1976 51.9089 53.1906 51.9898 53.246 52.0013L53.5049 52.0547C53.5355 52.061 53.5513 52.0933 53.5385 52.1235L53.4307 52.3784C53.4077 52.4331 53.4741 52.4736 53.516 52.4302L53.7117 52.2286C53.7349 52.2047 53.772 52.2047 53.7911 52.2286L53.9514 52.4302C53.9858 52.4736 54.0594 52.4331 54.0459 52.3784L53.9828 52.1235C53.9752 52.0933 53.9968 52.061 54.0285 52.0547L54.2967 52.0013C54.3543 51.9898 54.3615 51.9088 54.3059 51.8974Z" fill="#263238"/>
    <path d="M56.009 51.8974L55.7502 51.844C55.7196 51.8377 55.7037 51.8054 55.7165 51.7752L55.8243 51.5203C55.8474 51.4656 55.7809 51.4251 55.739 51.4685L55.5433 51.6701C55.5201 51.694 55.483 51.694 55.464 51.6701L55.3036 51.4685C55.2692 51.4253 55.1956 51.4656 55.2091 51.5203L55.2723 51.7752C55.2798 51.8054 55.2582 51.8377 55.2265 51.844L54.9583 51.8974C54.9007 51.9089 54.8937 51.9898 54.9492 52.0013L55.208 52.0547C55.2386 52.061 55.2544 52.0933 55.2417 52.1235L55.1338 52.3784C55.1106 52.4331 55.1772 52.4736 55.2192 52.4302L55.4148 52.2286C55.438 52.2047 55.4753 52.2047 55.4942 52.2286L55.6546 52.4302C55.689 52.4736 55.7626 52.4331 55.7491 52.3784L55.6859 52.1235C55.6783 52.0933 55.6998 52.061 55.7316 52.0547L55.9998 52.0013C56.0574 51.9898 56.0646 51.9088 56.009 51.8974Z" fill="#263238"/>
    <path d="M51.9035 48.1699H48.7052C48.5065 48.1699 48.3314 48.331 48.3139 48.5297C48.2964 48.7285 48.4435 48.8896 48.6422 48.8896H51.8405C52.0392 48.8896 52.2143 48.7285 52.2318 48.5297C52.2492 48.331 52.1022 48.1699 51.9035 48.1699Z" fill="#263238"/>
    <path d="M55.1499 48.1699H53.2941C53.0954 48.1699 52.9202 48.331 52.9028 48.5297C52.8853 48.7285 53.0324 48.8896 53.2311 48.8896H55.0869C55.2856 48.8896 55.4608 48.7285 55.4782 48.5297C55.4957 48.331 55.3486 48.1699 55.1499 48.1699Z" fill="#263238"/>
    <path d="M57.6001 64.4874C56.3943 64.9689 55.3372 65.6712 54.6136 66.4699C54.1893 66.1088 53.5861 65.8581 52.8631 65.7434L52.7783 65.7299L52.7412 66.1545L52.7886 66.1723C53.5023 66.442 54.0831 66.9204 54.4685 67.5556L54.529 67.6555L54.5959 67.5484C55.3375 66.3612 56.419 65.3665 57.6408 64.7476L57.6822 64.7266L57.7069 64.4443L57.6001 64.4874Z" fill="#263238"/>
    <path opacity="0.2" d="M41.5156 29.0479C41.2908 29.4433 41.1425 29.8845 41.1015 30.352L38.4209 60.9917H46.7148L48.3812 54.603L47.8327 48.2143L49.4992 41.8255L48.9507 35.4368L50.6172 29.048H41.5156V29.0479Z" fill="black"/>
    <path d="M48.2308 33.637L49.897 27.248H28.9227L27.2563 33.637L27.8049 40.0257L26.1385 46.4144L26.6869 52.8034L25.0205 59.1921H45.9948L47.6613 52.8034L47.1128 46.4144L48.7791 40.0257L48.2308 33.637Z" fill="#407BFF"/>
    <path opacity="0.7" d="M48.2308 33.637L49.897 27.248H28.9227L27.2563 33.637L27.8049 40.0257L26.1385 46.4144L26.6869 52.8034L25.0205 59.1921H45.9948L47.6613 52.8034L47.1128 46.4144L48.7791 40.0257L48.2308 33.637Z" fill="white"/>
    <path opacity="0.5" d="M48.2302 33.637H27.2559L28.9223 27.248H49.8966L48.2302 33.637Z" fill="white"/>
    <path opacity="0.5" d="M47.113 46.4141H26.1387L27.8051 40.0254H48.7794L47.113 46.4141Z" fill="white"/>
    <path opacity="0.5" d="M45.9948 59.1925H25.0205L26.6869 52.8037H47.6613L45.9948 59.1925Z" fill="white"/>
    <path opacity="0.2" d="M45.4241 36.306C45.2439 36.3623 45.0131 36.3961 44.7617 36.3961C44.3914 36.3961 44.066 36.3229 43.8809 36.2125C43.8302 36.1821 43.7744 36.167 43.7186 36.167C43.6667 36.167 43.6151 36.1816 43.5672 36.2077C43.5636 36.2097 43.5596 36.2104 43.5562 36.2125C43.5542 36.2138 43.5517 36.2147 43.5497 36.216C43.4812 36.2559 43.3948 36.291 43.294 36.3193C43.121 36.3677 42.9071 36.3963 42.6757 36.3963C42.6128 36.3963 42.5511 36.3942 42.4913 36.3902C42.3119 36.378 42.1482 36.3484 42.0133 36.3063C41.9897 36.2989 41.9659 36.2946 41.9427 36.293C41.7794 36.2822 41.6327 36.4075 41.6327 36.5806V36.7758H33.4804C32.8495 36.7758 32.3379 37.2871 32.3379 37.9182V39.0695C32.3379 39.7004 32.8495 40.212 33.4804 40.212H42.7552C42.7757 40.212 42.7955 40.21 42.8159 40.2089C42.9159 40.2917 43.0202 40.3743 43.1305 40.458C43.2626 40.5581 43.4018 40.6596 43.5476 40.7655C43.6491 40.8391 43.7884 40.8391 43.8899 40.7655C45.0562 39.9196 45.805 39.3363 45.805 37.7334V36.5808C45.8048 36.3826 45.6131 36.2469 45.4241 36.306Z" fill="black"/>
    <path d="M42.5775 39.5778H33.3026C32.6717 39.5778 32.1602 39.0664 32.1602 38.4353V37.2841C32.1602 36.6532 32.6715 36.1416 33.3026 36.1416H42.5775C43.2084 36.1416 43.7199 36.653 43.7199 37.2841V38.4353C43.7199 39.0662 43.2084 39.5778 42.5775 39.5778Z" fill="#407BFF"/>
    <path d="M44.5844 35.7623C44.2141 35.7623 43.8889 35.689 43.7036 35.5787C43.6019 35.518 43.4806 35.518 43.3789 35.5787C43.1939 35.689 42.8686 35.7623 42.4982 35.7623C42.2465 35.7623 42.016 35.7285 41.8358 35.6723C41.647 35.6133 41.4551 35.7488 41.4551 35.9468V37.0993C41.4551 38.7022 42.2039 39.2856 43.3701 40.1314C43.4716 40.2051 43.6109 40.2051 43.7125 40.1314C44.8787 39.2856 45.6275 38.7022 45.6275 37.0993V35.9468C45.6275 35.7488 45.4358 35.6133 45.2468 35.6723C45.0666 35.7285 44.836 35.7623 44.5844 35.7623Z" fill="#407BFF"/>
    <path opacity="0.3" d="M44.5844 35.7623C44.2141 35.7623 43.8889 35.689 43.7036 35.5787C43.6019 35.518 43.4806 35.518 43.3789 35.5787C43.1939 35.689 42.8686 35.7623 42.4982 35.7623C42.2465 35.7623 42.016 35.7285 41.8358 35.6723C41.647 35.6133 41.4551 35.7488 41.4551 35.9468V37.0993C41.4551 38.7022 42.2039 39.2856 43.3701 40.1314C43.4716 40.2051 43.6109 40.2051 43.7125 40.1314C44.8787 39.2856 45.6275 38.7022 45.6275 37.0993V35.9468C45.6275 35.7488 45.4358 35.6133 45.2468 35.6723C45.0666 35.7285 44.836 35.7623 44.5844 35.7623Z" fill="white"/>
    <path opacity="0.2" d="M43.3789 35.5787C43.1939 35.6891 42.8686 35.7623 42.4982 35.7623C42.2465 35.7623 42.016 35.7285 41.8358 35.6723C41.647 35.6133 41.4551 35.7488 41.4551 35.9467V37.0994C41.4551 38.7023 42.2039 39.2857 43.3701 40.1315C43.4209 40.1682 43.481 40.1867 43.5413 40.1867V35.5332C43.4855 35.5332 43.4297 35.5483 43.3789 35.5787Z" fill="white"/>
    <path d="M45.2134 36.7846C44.4597 37.0963 43.8148 37.5512 43.3916 38.0685C43.0964 37.8347 42.6916 37.6723 42.2168 37.598L42.1611 37.5893V37.8644L42.1928 37.8759C42.6704 38.0505 43.0736 38.3605 43.3592 38.7718L43.404 38.8364L43.4413 38.7671C43.8544 37.9981 44.4984 37.3539 45.2546 36.9532L45.2804 36.9395V36.7568L45.2134 36.7846Z" fill="#263238"/>
    <path d="M49.5271 29.0442H48.7313C48.2899 29.0442 47.9636 28.6866 48.0021 28.2452L48.0718 27.4494C48.1105 27.008 48.4995 26.6504 48.9408 26.6504H49.7366C50.178 26.6504 50.5043 27.0082 50.4658 27.4494L50.3961 28.2452C50.3574 28.6866 49.9684 29.0442 49.5271 29.0442Z" fill="#407BFF"/>
    <path d="M49.8581 27.4481L49.6855 27.2588L49.2508 27.6584L48.8861 27.2588L48.6802 27.4481L49.0449 27.8477L48.6104 28.2473L48.7832 28.4367L49.2177 28.0371L49.5824 28.4367L49.7883 28.2473L49.4236 27.8477L49.8581 27.4481Z" fill="white"/>
    <path d="M31.7469 35.9092C32.2082 36.4108 32.6491 36.9305 33.0843 37.455C33.5201 37.979 33.9451 38.5123 34.3648 39.0504C34.3832 39.0738 34.3758 39.0642 34.3801 39.0712C34.3821 39.0743 34.3825 39.0793 34.385 39.0819C34.3897 39.0871 34.3922 39.0957 34.3978 39.1004C34.4061 39.1137 34.4181 39.1233 34.4302 39.1359C34.4557 39.1587 34.4906 39.1762 34.5295 39.1834C34.5488 39.1863 34.5691 39.1891 34.5898 39.187C34.601 39.1884 34.6109 39.185 34.6226 39.1846C34.6287 39.1848 34.6332 39.1816 34.6392 39.1809C34.6483 39.1769 34.6426 39.185 34.6674 39.1702L35.1183 38.9258C35.7231 38.6056 36.3328 38.2926 36.9633 38.0116L37.4904 38.6643C36.9824 39.1317 36.4534 39.7164 35.9195 40.1448L35.5163 40.4617C35.506 40.4711 35.4626 40.4995 35.4355 40.5177C35.4043 40.5377 35.3739 40.5593 35.341 40.5769C35.2756 40.6129 35.2097 40.6489 35.1397 40.6767C35.0015 40.7364 34.8539 40.7744 34.7043 40.7974C34.4043 40.8421 34.0925 40.8118 33.8014 40.7076C33.6563 40.6554 33.5158 40.5858 33.3878 40.4968C33.3223 40.4544 33.2623 40.4045 33.2026 40.3543C33.1725 40.3293 33.1457 40.3014 33.1176 40.2742L33.046 40.2016C32.5697 39.7131 32.0986 39.2199 31.6382 38.7174C31.1774 38.2152 30.722 37.7085 30.2871 37.1836L31.7469 35.9092Z" fill="#B55B52"/>
    <path d="M36.7178 38.4092L37.1374 37.0615L38.2418 37.612C38.2418 37.612 38.0809 38.5953 37.2769 38.7658L36.7178 38.4092Z" fill="#B55B52"/>
    <path d="M37.5807 36.6875L38.5768 36.9618L38.2422 37.6116L37.1377 37.0612L37.5807 36.6875Z" fill="#B55B52"/>
    <path d="M25.9366 36.2759C25.8164 36.8485 25.6695 37.4146 25.5156 37.9791C25.3624 38.5437 25.1952 39.105 25.0213 39.6646L24.9565 39.8745L24.9241 39.9794C24.9173 40.0023 24.9128 40.008 24.9067 40.0233C24.8869 40.0764 24.875 40.134 24.8727 40.1945C24.8696 40.3144 24.898 40.4478 24.9765 40.5637C24.983 40.5824 25.0451 40.6476 25.0935 40.7001L25.2429 40.8625L25.5376 41.1924C25.7316 41.4151 25.9249 41.6385 26.1085 41.8734L25.4812 42.5995C25.2222 42.452 24.9731 42.2931 24.7245 42.1335L24.3553 41.8899L24.1728 41.7655C24.1107 41.7223 24.0609 41.6934 23.9615 41.6111C23.6191 41.3208 23.3634 40.9086 23.2696 40.4508C23.2217 40.2224 23.21 39.9843 23.2366 39.7485C23.2437 39.6919 23.2543 39.6261 23.2629 39.5776L23.282 39.4695L23.3202 39.2531C23.4211 38.6758 23.5288 38.1002 23.6503 37.5278C23.7712 36.9554 23.8992 36.3846 24.0537 35.8203L25.9366 36.2759Z" fill="#B55B52"/>
    <path d="M25.4922 41.8222L26.2349 41.4424L26.5625 42.7047C26.5625 42.7047 25.9665 42.9331 25.5051 42.6397L25.4922 41.8222Z" fill="#B55B52"/>
    <path d="M27.261 41.0381L27.2946 42.196L26.4654 42.7384L26.1777 41.4663L27.261 41.0381Z" fill="#B55B52"/>
    <path d="M29.6895 30.3242C29.7077 30.4134 29.7696 30.4761 29.8279 30.4642C29.8863 30.4523 29.9188 30.3704 29.9007 30.2811C29.8825 30.1919 29.8206 30.1292 29.7622 30.1411C29.7041 30.153 29.6715 30.2349 29.6895 30.3242Z" fill="#263238"/>
    <path d="M29.7607 30.4785C29.7607 30.4785 30.0682 30.9519 30.342 31.1548C30.214 31.3342 29.9321 31.3215 29.9321 31.3215L29.7607 30.4785Z" fill="#A02724"/>
    <path d="M29.2615 29.8954C29.2485 29.8954 29.2354 29.8907 29.2251 29.8812C29.2035 29.8612 29.2021 29.8274 29.2223 29.8056C29.423 29.5883 29.6665 29.627 29.6771 29.6287C29.7063 29.6337 29.7257 29.6612 29.7209 29.6904C29.7158 29.7194 29.6879 29.7388 29.6595 29.7341C29.6514 29.7329 29.4609 29.705 29.3009 29.8781C29.2903 29.8897 29.2759 29.8954 29.2615 29.8954Z" fill="#263238"/>
    <path d="M27.0932 31.5791C27.2917 32.4048 27.4899 33.9177 26.7812 34.4685C26.7812 34.4685 27.0581 35.306 28.9404 35.306C31.01 35.306 29.9295 34.7665 29.9295 34.7665C28.8 34.5468 28.8289 33.5656 29.0257 32.9241L27.0932 31.5791Z" fill="#B55B52"/>
    <path d="M26.5606 34.6214C26.4373 34.3919 26.3014 34.1294 26.5824 34.0472C26.8914 33.9566 28.877 33.7889 29.4602 33.9588C29.2809 34.2776 29.5844 34.6694 29.5844 34.6694L26.5606 34.6214Z" fill="#263238"/>
    <path d="M28.2051 73.2456H29.5038L29.633 70.6318H28.3345L28.2051 73.2456Z" fill="#B55B52"/>
    <path d="M19.9639 72.8856L21.2791 72.9551L22.0785 70.3802L20.7631 70.3105L19.9639 72.8856Z" fill="#B55B52"/>
    <path d="M21.2391 72.8507L19.9998 72.5823C19.9548 72.5726 19.9089 72.5954 19.8896 72.6374L19.4594 73.5707C19.4148 73.6675 19.4738 73.7811 19.5784 73.8018C20.0125 73.888 20.2284 73.9082 20.7732 74.0261C21.1086 74.0986 21.8653 74.2831 22.3284 74.3834C22.7813 74.4815 22.951 74.0389 22.7705 73.9564C21.9609 73.5865 21.6226 73.2607 21.4034 72.9572C21.364 72.9027 21.3051 72.8651 21.2391 72.8507Z" fill="#263238"/>
    <path d="M29.4345 73.1152H28.2021C28.156 73.1152 28.116 73.1473 28.1059 73.1923L27.8829 74.1954C27.8599 74.2995 27.9387 74.3979 28.0453 74.3961C28.4899 74.3886 29.1323 74.3625 29.6912 74.3625C30.3446 74.3625 30.9089 74.3981 31.6752 74.3981C32.1385 74.3981 32.267 73.9297 32.0731 73.8873C31.1902 73.6941 30.4693 73.6734 29.7063 73.2031C29.6235 73.152 29.5319 73.1152 29.4345 73.1152Z" fill="#263238"/>
    <path d="M24.4301 34.8506C23.45 35.3167 23.1836 38.1418 23.1836 38.1418L25.6082 39.2621C25.6082 39.2621 26.2099 38.3756 26.256 36.9817C26.3043 35.5213 25.4322 34.3742 24.4301 34.8506Z" fill="#263238"/>
    <path opacity="0.4" d="M25.7457 36.5928C25.308 37.2723 25.3494 38.3237 25.5009 39.2121L25.608 39.2624C25.608 39.2624 26.2105 38.3748 26.2568 36.9812C26.2595 36.8941 26.2591 36.8075 26.256 36.7233L25.7457 36.5928Z" fill="black"/>
    <path d="M31.1961 34.7817C31.1961 34.7817 32.3974 36.1385 31.2629 44.5368C29.444 44.5368 26.1113 44.5368 25.2262 44.5368C25.1846 43.6101 25.7669 39.0898 24.873 34.7235C24.873 34.7235 25.9079 34.5158 26.8939 34.4683C27.6652 34.4312 28.7819 34.4065 29.46 34.4683C30.354 34.55 31.1961 34.7817 31.1961 34.7817Z" fill="#407BFF"/>
    <path opacity="0.6" d="M31.1961 34.7817C31.1961 34.7817 32.3974 36.1385 31.2629 44.5368C29.444 44.5368 26.1113 44.5368 25.2262 44.5368C25.1846 43.6101 25.7669 39.0898 24.873 34.7235C24.873 34.7235 25.9079 34.5158 26.8939 34.4683C27.6652 34.4312 28.7819 34.4065 29.46 34.4683C30.354 34.55 31.1961 34.7817 31.1961 34.7817Z" fill="#FAFAFA"/>
    <path opacity="0.2" d="M31.7231 37.349L31.7 37.329L30.4994 36.6875C30.3774 38.5361 31.2038 39.6949 31.6954 40.2018C31.763 39.0174 31.7614 38.0832 31.7231 37.349Z" fill="black"/>
    <path opacity="0.2" d="M29.6323 70.6328L29.5658 71.9801H28.2666L28.333 70.6328H29.6323Z" fill="black"/>
    <path opacity="0.2" d="M20.7623 70.3115L22.0782 70.3812L21.6654 71.7083L20.3496 71.6388L20.7623 70.3115Z" fill="black"/>
    <path d="M26.6757 30.7401C26.9656 31.8221 27.0803 32.4701 27.7481 32.9199C28.7523 33.5965 30.0028 32.82 30.0418 31.6732C30.0771 30.6411 29.5969 29.0452 28.4359 28.8271C27.292 28.6123 26.3857 29.6581 26.6757 30.7401Z" fill="#B55B52"/>
    <path d="M29.1209 44.5371C29.1209 44.5371 27.8401 53.1622 27.137 56.3935C26.3669 59.932 22.2381 71.6392 22.2381 71.6392L20.2178 71.2018C20.2178 71.2018 22.8069 61.6612 23.4531 56.7143C23.7053 54.7838 24.0097 51.672 24.3949 49.0774C24.7678 46.5648 25.2257 44.5371 25.2257 44.5371H29.1209Z" fill="#263238"/>
    <path d="M22.7219 70.9643C22.7305 70.9661 22.3453 71.6949 22.3453 71.6949L20.0723 71.2028L20.264 70.5195L22.7219 70.9643Z" fill="#407BFF"/>
    <path opacity="0.6" d="M22.7219 70.9643C22.7305 70.9661 22.3453 71.6949 22.3453 71.6949L20.0723 71.2028L20.264 70.5195L22.7219 70.9643Z" fill="white"/>
    <path opacity="0.6" d="M28.3123 47.6101C26.8312 47.9005 26.988 53.4234 27.1662 56.2642C27.5934 54.2563 28.2185 50.3924 28.6456 47.6501C28.5474 47.6009 28.4367 47.5856 28.3123 47.6101Z" fill="black"/>
    <path d="M31.2628 44.5371C31.2628 44.5371 31.8653 52.9755 31.7425 56.4173C31.6149 59.9971 29.9175 71.7189 29.9175 71.7189H28.0056C28.0056 71.7189 27.9354 60.2063 27.8504 56.6905C27.7577 52.8576 27.2949 44.5371 27.2949 44.5371H31.2628Z" fill="#263238"/>
    <path d="M30.2855 70.957C30.2943 70.957 30.1777 71.7508 30.1777 71.7508H27.8519L27.7891 71.0424L30.2855 70.957Z" fill="#407BFF"/>
    <path opacity="0.6" d="M30.2855 70.957C30.2943 70.957 30.1777 71.7508 30.1777 71.7508H27.8519L27.7891 71.0424L30.2855 70.957Z" fill="white"/>
    <path d="M30.4912 36.3627C30.4912 38.6272 31.6963 39.5596 31.6963 39.5596L33.6551 37.6448C33.6551 37.6448 32.9891 36.4973 32.0732 35.4439C30.9416 34.1425 30.4912 34.9065 30.4912 36.3627Z" fill="#263238"/>
    <path opacity="0.2" d="M29.9728 32.083C29.9231 32.2218 29.7926 32.457 29.4649 32.5508C28.9868 32.6876 28.9805 33.0928 28.9805 33.0928L28.9864 33.1004C29.4425 32.9497 29.8223 32.5728 29.9728 32.083Z" fill="black"/>
    <path d="M29.4654 28.5896C29.869 28.0808 29.2482 28.0565 29.2482 28.0565C29.4095 27.449 28.6833 27.7761 28.6833 27.7761C28.2474 27.1752 28.0015 27.9064 28.0015 27.9064C27.5493 27.3973 27.4662 28.2293 27.4662 28.2293C27.0128 27.5836 26.7818 28.515 26.7818 28.515C26.3642 27.8445 26.1086 28.718 26.1086 28.718C25.2464 28.4093 25.6563 29.3053 25.6563 29.3053C24.9203 29.326 25.5107 29.8954 25.5107 29.8954C24.629 29.8975 25.4064 30.4024 25.4064 30.4024C24.7062 30.8618 25.5852 30.9855 25.5852 30.9855C25.0139 31.8788 25.9949 31.5474 25.9949 31.5474C25.5974 32.4316 26.4787 32.0421 26.4787 32.0421C26.4215 32.8953 26.9143 32.663 27.1512 32.505C27.1969 32.6769 27.2822 32.8589 27.4406 32.8796C27.7481 32.9197 27.8078 32.3394 27.8078 32.3394C27.8078 32.3394 28.0931 32.5613 28.3323 32.4411C28.5716 32.3209 28.4814 32.0165 28.4814 32.0165C28.4814 32.0165 28.6644 32.1531 28.8322 32.0228C28.9348 31.9431 28.9353 31.3701 28.8045 31.1687L29.273 30.9853C29.273 30.9853 29.6208 30.9363 29.4654 30.4779C29.3103 30.0196 29.4419 29.6576 29.4419 29.6576C29.9707 29.4097 29.5369 29.1117 29.5369 29.1117C30.1484 28.7155 29.4654 28.5896 29.4654 28.5896Z" fill="#263238"/>
    <path d="M28.5157 30.7857C28.5893 31.0697 28.776 31.3138 28.9711 31.459C29.2649 31.6776 29.4841 31.4625 29.4632 31.1302C29.4445 30.831 29.269 30.3569 28.945 30.2682C28.626 30.1807 28.4316 30.4609 28.5157 30.7857Z" fill="#B55B52"/>
</svg>
