<svg width="24" height="25" viewBox="0 0 24 25" fill="none" xmlns="http://www.w3.org/2000/svg">
    <path d="M22 6.29828C21.2504 6.62565 20.4565 6.84031 19.644 6.93528C20.4968 6.43451 21.138 5.64038 21.448 4.70128C20.64 5.17161 19.7587 5.50288 18.841 5.68128C18.4545 5.27648 17.9897 4.95466 17.4748 4.73546C16.9598 4.51625 16.4056 4.40424 15.846 4.40628C13.58 4.40628 11.743 6.21628 11.743 8.44628C11.743 8.76228 11.779 9.07128 11.849 9.36628C10.2236 9.28897 8.63212 8.87368 7.17617 8.14692C5.72022 7.42015 4.43176 6.39786 3.393 5.14528C3.02883 5.75968 2.83742 6.46106 2.839 7.17528C2.8397 7.84324 3.00683 8.50051 3.32529 9.08767C3.64375 9.67483 4.1035 10.1734 4.663 10.5383C4.01248 10.5173 3.37602 10.3436 2.805 10.0313V10.0813C2.805 12.0393 4.22 13.6723 6.095 14.0443C5.74261 14.1378 5.37958 14.1852 5.015 14.1853C4.75 14.1853 4.493 14.1603 4.242 14.1103C4.51008 14.9182 5.02311 15.6226 5.70982 16.1256C6.39653 16.6286 7.22284 16.9053 8.074 16.9173C6.61407 18.0418 4.82182 18.6493 2.979 18.6443C2.647 18.6443 2.321 18.6243 2 18.5883C3.88125 19.779 6.06259 20.4096 8.289 20.4063C15.836 20.4063 19.962 14.2493 19.962 8.91028L19.948 8.38728C20.7529 7.82095 21.4481 7.11312 22 6.29828Z" fill="#0B0B0D"/>
</svg>
