<svg width="496" height="337" viewBox="0 0 496 337" fill="none" xmlns="http://www.w3.org/2000/svg">
    <path opacity="0.178404" fill-rule="evenodd" clip-rule="evenodd" d="M213.178 314.099C139.776 314.099 159.771 308.029 146.931 308.029C134.09 308.029 110.373 304.106 144.856 304.106C179.339 304.106 147.013 300.046 165.585 298.014C177.47 296.714 196.049 297.283 222.489 298.014C237.364 298.425 250.764 299.023 255.191 299.729C267.488 301.692 236.335 302.095 272.222 304.106C276.107 304.323 289.483 306.931 285.323 308.029C279.282 309.622 265.942 311.439 248.733 311.439C228.135 311.439 236.178 314.099 213.178 314.099Z" fill="#C4CFCF"/>
    <path fill-rule="evenodd" clip-rule="evenodd" d="M131.194 121.639C129.599 121.639 128.307 122.932 128.307 124.526V202.664C128.307 204.259 129.599 205.551 131.194 205.551H168.511C170.105 205.551 171.398 204.259 171.398 202.664V124.526C171.398 122.932 170.105 121.639 168.511 121.639H131.194Z" fill="#FFD092"/>
    <path fill-rule="evenodd" clip-rule="evenodd" d="M128.404 213.477C128.404 211.882 129.696 210.59 131.291 210.59H168.188C169.782 210.59 171.075 211.882 171.075 213.477V254.958C171.075 256.553 169.782 257.845 168.188 257.845H131.291C129.696 257.845 128.404 256.553 128.404 254.958V213.477Z" fill="#FFD092"/>
    <path fill-rule="evenodd" clip-rule="evenodd" d="M182.543 202.605C182.543 204.199 183.836 205.492 185.43 205.492H221.014C222.608 205.492 223.901 204.199 223.901 202.605V124.526C223.901 122.932 222.608 121.639 221.014 121.639H185.43C183.836 121.639 182.543 122.932 182.543 124.526V202.605Z" fill="#FFD092"/>
    <path fill-rule="evenodd" clip-rule="evenodd" d="M214.171 205.959H221.014C222.609 205.959 223.901 204.667 223.901 203.073V124.994C223.901 123.399 222.609 122.107 221.014 122.107H203.249L214.171 205.959Z" fill="url(#paint0_linear_8802_3201)"/>
    <path fill-rule="evenodd" clip-rule="evenodd" d="M237.669 121.639C236.075 121.639 234.783 122.932 234.783 124.526V202.916C234.783 204.51 236.075 205.803 237.669 205.803H274.352C275.947 205.803 277.239 204.51 277.239 202.916V124.526C277.239 122.932 275.947 121.639 274.352 121.639H237.669Z" fill="#FFD092"/>
    <path fill-rule="evenodd" clip-rule="evenodd" d="M138.614 233.713C138.614 233.713 141.753 224.995 141.753 224.039C141.753 224.039 142.909 223.377 143.501 222.032C144.094 220.687 144.08 218.827 144.457 218.203C144.835 217.578 149.419 204.436 149.419 204.436L149.773 188.356C149.773 188.356 145.975 187.708 145.216 188.356C144.457 189.004 144.682 190.424 143.501 191.044C142.32 191.663 139.779 199.857 139.779 201.025C139.779 202.193 139.934 205.251 139.431 206.218C138.928 207.186 138.308 210.048 138.308 214.125C138.308 214.125 137.97 215.955 137.06 217.079C136.151 218.203 132.136 229.182 132.136 232.014C132.136 232.014 130.724 237.599 130.865 238.887C130.946 239.624 131.839 239.965 132.136 240.061C132.136 240.061 132.535 238.887 132.712 238.352C132.712 238.352 135.695 239.062 137.06 240.236C137.06 240.236 138.132 236.252 138.614 234.229C138.65 234.078 138.614 233.713 138.614 233.713Z" fill="#3A5971"/>
    <path fill-rule="evenodd" clip-rule="evenodd" d="M155.569 239.002C155.569 239.002 151.334 237.086 149.411 237.368C149.411 237.368 149.084 227.92 149.411 226.879C149.738 225.838 148.879 225.163 149.248 224.274C149.617 223.385 149.617 221.314 149.617 220.213C149.617 219.111 149.948 215.654 150.313 214.866C150.679 214.079 149.944 207.688 149.944 206.898C149.944 206.108 148.457 201.087 147.736 199.945C147.015 198.803 146.574 194.557 147.736 191.735C148.899 188.913 149.617 188.337 149.617 188.337C149.617 188.337 153.906 189.334 155.466 189.607C157.026 189.879 160.935 191.545 161.554 193.467C161.554 193.467 161.007 195.689 161.007 196.024C161.007 196.359 161.226 201.287 160.201 206.534C159.175 211.781 157.378 221.289 157.378 221.937C157.378 222.585 156.961 223.774 156.55 224.274C156.139 224.773 156.743 226.099 156.926 227.435C157.108 228.771 155.656 234.18 155.656 235.291C155.656 236.402 155.569 239.002 155.569 239.002Z" fill="#304D63"/>
    <path fill-rule="evenodd" clip-rule="evenodd" d="M149.744 194.257C149.744 194.257 149.744 200.902 149.744 201.259C149.744 201.616 153.119 202.824 153.119 202.824L156.753 202.574L157.897 195.949C157.897 195.949 153.926 195.2 152.841 194.729C151.756 194.257 149.744 194.257 149.744 194.257Z" fill="#254054"/>
    <path fill-rule="evenodd" clip-rule="evenodd" d="M131.542 234.474C131.019 236.766 130.794 238.237 130.865 238.886C130.946 239.623 131.839 239.964 132.136 240.06C132.136 240.06 132.535 238.886 132.712 238.351C132.712 238.351 135.695 239.062 137.06 240.235C137.06 240.235 137.977 236.764 138.154 236.077C138.171 236.012 135.991 234.898 134.316 234.474C132.684 234.062 131.592 234.254 131.542 234.474Z" fill="#9D9A91"/>
    <path fill-rule="evenodd" clip-rule="evenodd" d="M137.567 235.745C137.34 236.788 136.656 239.923 136.656 239.923C136.801 240.025 136.936 240.129 137.06 240.236C137.06 240.236 137.527 238.478 137.711 237.775C137.896 237.075 138.047 236.498 138.167 236.036L137.567 235.745Z" fill="#716F67"/>
    <path fill-rule="evenodd" clip-rule="evenodd" d="M130.866 238.887C130.931 239.479 131.52 239.815 131.903 239.974C131.997 240.013 132.257 240.092 132.315 240.111C132.315 240.111 137.012 240.444 137.063 240.232C137.097 240.092 136.68 239.824 136.091 239.592C134.799 239.082 132.684 238.53 132.713 238.352C132.713 238.352 130.725 237.599 130.866 238.887Z" fill="#504F4D"/>
    <path fill-rule="evenodd" clip-rule="evenodd" d="M149.773 188.356C149.773 188.356 145.975 187.708 145.216 188.356C144.634 188.854 144.631 189.807 144.127 190.503C144.127 190.503 145.83 190.578 146.68 190.705C147.675 190.854 149.665 191.388 149.665 191.388L149.773 188.356Z" fill="#304D63"/>
    <path fill-rule="evenodd" clip-rule="evenodd" d="M148.058 190.977C148.687 189.547 149.617 188.337 149.617 188.337C149.617 188.337 153.755 189.354 155.652 189.659C157.548 189.964 160.935 191.545 161.554 193.467C161.554 193.467 161.187 194.998 161.098 195.434C161.098 195.434 157.427 193.111 155.937 192.602C154.492 192.108 152.94 192.082 150.48 191.583C149.698 191.425 148.058 190.977 148.058 190.977Z" fill="#304D63"/>
    <path fill-rule="evenodd" clip-rule="evenodd" d="M188.019 159.476C188.019 159.476 186.065 159.046 186.265 157.932C186.466 156.818 185.493 156.31 185.019 155.817C184.546 155.324 182.561 153.317 182.866 152.229C183.171 151.141 182.384 150.091 183.274 149.344C184.164 148.597 182.336 147.226 183.554 145.813C184.773 144.401 185.991 144.388 186.482 145.101C186.973 145.813 187.482 146.814 188.588 147.032C189.694 147.249 189.496 146.473 190.721 146.251C191.947 146.028 193.98 146.762 193.074 148.334C192.169 149.906 191.33 149.082 192.161 150.569C192.991 152.056 193.829 151.317 194.238 152.635C194.451 153.323 195.055 153.723 195.208 154.272C195.348 154.774 195.066 155.437 194.669 155.817C193.839 156.612 192.269 155.787 191.857 156.5C191.445 157.214 191.478 157.645 191.163 157.645C190.847 157.645 188.019 159.476 188.019 159.476Z" fill="white"/>
    <path fill-rule="evenodd" clip-rule="evenodd" d="M187.979 157.505C187.979 157.505 186.966 156.532 187.09 155.847C187.215 155.161 186.238 154.848 185.945 154.545C185.651 154.242 183.117 151.231 183.307 150.561C183.496 149.891 184.683 151.021 185.235 150.561C185.787 150.101 183.522 147.918 184.278 147.049C185.034 146.18 186.013 147.961 186.317 148.399C186.622 148.838 185.468 145.899 186.154 146.033C186.257 146.053 186.981 146.348 187.09 146.592C187.395 147.277 187.446 148.568 187.76 148.822C187.861 148.903 187.86 147.931 187.925 147.737C188.02 147.457 188.032 147.347 188.285 147.237C188.539 147.127 188.802 147.482 188.856 147.619C189.199 148.487 189.147 150.667 189.278 150.561C189.519 150.367 189.145 148.399 189.745 148.399C190.299 148.399 191.087 149.07 190.807 150.303C190.527 151.536 191.051 151.761 191.386 152.703C191.72 153.644 191.42 154.013 191.125 154.851C190.83 155.688 191.821 156.823 190.807 157.505C190.147 157.95 187.979 157.505 187.979 157.505Z" fill="#E0E0E0"/>
    <path fill-rule="evenodd" clip-rule="evenodd" d="M188.103 157.888C188.103 157.888 187.648 156.193 187.335 155.627C186.956 154.941 186.29 154.58 186.136 154.355C185.715 153.737 184.128 151.454 183.483 150.832C182.838 150.211 183.838 150.092 184.32 150.462C184.803 150.832 185.656 151.163 185.656 151.163C185.656 151.163 184.32 147.677 184.32 147.09C184.32 146.503 184.889 146.393 185.32 147.09C185.75 147.787 186.59 149.975 186.59 149.975L186.136 146.252C186.136 146.252 186.099 146.067 186.234 145.921C186.41 145.729 186.79 145.613 187.018 146.148C187.21 146.598 187.308 147.382 187.509 148.44C187.561 148.712 187.85 149.812 187.85 149.812C187.85 149.812 187.853 149.214 187.85 149.091C187.815 147.828 187.947 147.296 188.305 147.296C188.629 147.296 188.791 147.989 189.014 149.371C189.075 149.753 189.298 150.671 189.298 150.671C189.298 150.671 189.343 148.724 189.755 148.724C189.869 148.724 190.098 148.839 190.197 149.091C190.459 149.75 190.459 151.022 190.341 151.995C190.19 153.25 191.047 157.888 191.047 157.888H188.103Z" fill="#EDB79F"/>
    <path opacity="0.5" fill-rule="evenodd" clip-rule="evenodd" d="M188.103 157.888C188.103 157.888 187.677 156.213 187.39 155.69C186.937 154.864 186.308 154.607 186.136 154.355C185.715 153.737 184.128 151.454 183.483 150.832C182.838 150.211 185.032 151.682 186.322 154.014C186.519 154.369 187.364 154.857 187.769 155.549C188.137 156.178 188.586 157.888 188.586 157.888H188.103Z" fill="#D5987C"/>
    <path fill-rule="evenodd" clip-rule="evenodd" d="M150.881 166.497C150.881 166.497 152.208 164.438 152.954 163.97C153.7 163.503 154.431 163.361 154.745 163.361C155.06 163.361 155.959 162.298 156.473 162.298C156.987 162.298 156.473 163.361 156.473 163.361C156.473 163.361 157.101 162.774 157.533 162.774C157.965 162.774 158.058 163.361 158.058 163.361L156.803 165.211L150.881 166.497Z" fill="#EDB79F"/>
    <path fill-rule="evenodd" clip-rule="evenodd" d="M145.96 188.129C145.96 188.129 149.85 183.983 150.824 183.032C151.797 182.08 153.067 178.519 153.442 177.539C153.817 176.559 155.449 172.931 154.91 172.22C154.371 171.508 153.442 172.22 153.442 172.22C153.442 172.22 153.103 174.42 152.283 174.42C151.463 174.42 150.192 175.11 149.63 175.615C149.067 176.12 147.81 175.615 146.455 175.615C145.1 175.615 141.834 176.279 140.547 174.42C139.261 172.562 142.976 169.844 144.716 169.844C146.455 169.844 149.098 168.328 149.63 167.565C150.162 166.803 154.894 163.379 156.128 163.379C157.361 163.379 160.728 163.634 161.051 164.221C161.373 164.808 170.422 166.436 170.422 166.436C170.422 166.436 171.103 167.139 171.605 167.139C172.108 167.139 173.215 167.069 173.215 167.565C173.215 168.062 174.46 168.434 175.505 168.434C176.551 168.434 178.487 168.856 179.748 168.856C180.425 168.856 182.451 168.813 184.396 168.434C186.076 168.106 187.678 167.464 188.505 167.139C188.505 167.139 188.631 160.364 187.983 159.474C187.335 158.583 187.767 157.606 188.505 157.606C189.242 157.606 191.75 157.44 191.75 158.457C191.75 159.474 191.49 160.979 192.114 161.983C192.737 162.987 193.392 167.868 193.392 168.856C193.392 169.844 186.761 173.259 183.458 173.84C180.155 174.42 175.417 174.312 171.605 180.637C167.794 186.963 165.866 189.241 165.866 190.391C165.866 191.542 164.259 191.998 163.748 193.385C163.237 194.771 162.943 196.341 161.051 196.01L161.582 193.385C161.582 193.385 159.812 190.604 156.682 189.932C153.551 189.261 152.978 189.103 151.354 188.77C146.937 187.867 145.96 188.129 145.96 188.129Z" fill="#4993F3"/>
    <path fill-rule="evenodd" clip-rule="evenodd" d="M154.909 172.22C154.233 171.475 153.442 172.22 153.442 172.22C153.442 172.22 153.103 174.421 152.282 174.421C151.462 174.421 150.192 175.11 149.63 175.615C149.067 176.12 147.809 175.615 146.455 175.615C146.455 175.615 148.889 174.384 149.63 173.84C150.682 173.067 151.92 172.476 152.282 172.22C152.55 172.031 153.323 171.416 153.783 171.416C154.243 171.416 154.909 172.22 154.909 172.22Z" fill="#4181D5"/>
    <path fill-rule="evenodd" clip-rule="evenodd" d="M145.96 188.13C145.96 188.13 146.446 187.612 146.675 187.368C146.675 187.368 149.554 187.157 152.005 187.712C153.85 188.13 156.286 188.41 157.97 189.092C161.581 190.553 163.354 194.591 163.078 195.085C162.702 195.759 162.142 196.201 161.051 196.011L161.581 193.385C161.581 193.385 160.692 192.233 160.165 191.777C159.127 190.88 157.904 190.284 156.692 189.916C155.545 189.567 154.716 189.489 154.021 189.354C153.056 189.166 152.349 188.979 151.405 188.786C146.989 187.882 145.96 188.13 145.96 188.13Z" fill="#EDB79F"/>
    <path fill-rule="evenodd" clip-rule="evenodd" d="M163.078 195.085C162.702 195.759 162.075 196.232 160.983 196.042C160.983 196.042 161.274 194.245 161.462 193.379C161.553 192.957 161.819 192.177 161.819 192.177C161.819 192.177 162.41 192.877 162.625 193.379C162.975 194.196 163.197 194.871 163.078 195.085Z" fill="#2A538A"/>
    <path fill-rule="evenodd" clip-rule="evenodd" d="M174.379 161.749C174.379 161.749 171.792 166.87 170.825 166.557C169.858 166.244 169.653 165.996 169.653 165.996L172.073 161.749H174.379Z" fill="#EDB79F"/>
    <path fill-rule="evenodd" clip-rule="evenodd" d="M162.635 167.672C161.77 167.672 161.076 167.1 161.699 165.989C162.322 164.877 162.392 164.671 162.956 163.556C163.519 162.44 163.781 161.703 164.086 160.842C164.39 159.981 164.57 159.282 164.771 158.514C164.972 157.747 165.461 156.324 166.372 155.163C167.282 154.002 167.877 153.773 168.793 153.058C169.709 152.342 171.722 151.578 173.394 152.318C175.065 153.058 177.289 155.524 176.517 158.291C175.746 161.058 175.069 161.058 174.85 161.277C174.631 161.495 174.428 161.753 173.394 162.264C173.394 162.264 172.213 163.084 171.81 164.016C171.407 164.948 171.208 166.306 169.97 166.306C168.733 166.306 168.86 166.406 167.453 167.168C166.045 167.93 165.898 167.168 165.036 167.168C164.173 167.168 163.5 167.672 162.635 167.672Z" fill="#4F3737"/>
    <path fill-rule="evenodd" clip-rule="evenodd" d="M163.664 162.013C164.24 160.565 164.497 159.534 164.699 158.764C164.901 157.994 165.11 157.123 166.028 155.628C166.947 154.132 167.877 153.773 168.793 153.058C169.709 152.342 171.723 151.578 173.394 152.318C174.233 152.689 175.217 153.514 175.89 154.584C176.074 154.877 174.875 153.058 172.722 153.058C171.087 153.058 170.592 154.09 169.773 154.584C168.953 155.077 168.279 155.045 167.215 155.417C165.948 155.859 166.341 157.253 165.465 158.402C165.039 158.961 164.929 160.085 164.532 160.486C164.264 160.756 163.664 162.013 163.664 162.013Z" fill="#685353"/>
    <path fill-rule="evenodd" clip-rule="evenodd" d="M156.123 173.756C156.303 172.524 157.792 170.385 159.11 169.071C160.192 167.993 160.629 167.326 161.059 166.817C161.988 165.715 162.26 164.997 162.498 164.466C162.498 164.466 162.982 164.613 163.741 164.613C165.035 164.613 165.442 162.887 166.444 162.264C167.204 161.792 169.134 162.731 169.97 162.264C170.976 161.703 171.621 160.312 172.472 159.708C173.192 159.198 174.187 160.026 174.772 159.708C176.169 158.951 176.656 157.529 176.517 158.291C176.259 159.708 175.669 160.616 174.98 161.226C174.29 161.835 174.408 161.755 173.394 162.264C173.394 162.264 172.166 163.122 171.81 164.016C171.454 164.911 171.211 165.288 171.013 167.059C170.967 167.47 170.913 168.609 171.092 169.883C171.355 171.754 173.116 173.3 171.81 176.602C170.736 179.317 167.024 179.743 165.096 179.963C160.585 180.48 158.252 178.977 157.212 178.272C156.171 177.566 155.807 175.92 156.123 173.756Z" fill="#3F2727"/>
    <path fill-rule="evenodd" clip-rule="evenodd" d="M185.952 211.07C184.358 211.07 183.065 212.362 183.065 213.956V255.034C183.065 256.628 184.358 257.921 185.952 257.921H221.084C222.678 257.921 223.97 256.628 223.97 255.034V213.956C223.97 212.362 222.678 211.07 221.084 211.07H185.952Z" fill="#FFD092"/>
    <path fill-rule="evenodd" clip-rule="evenodd" d="M116.822 303.488C116.822 303.488 116.176 305.454 114.427 304.799C112.679 304.143 114.033 301.984 114.033 301.984L140.855 240.128L142.131 237.522H143.892L144.745 239.442L116.822 303.488Z" fill="#C6C6C6"/>
    <path fill-rule="evenodd" clip-rule="evenodd" d="M132.707 238.349C132.707 238.349 131.975 241.807 130.908 243.17C130.469 243.732 130.817 244.337 131.305 244.934C132.003 245.787 133.179 246.561 133.494 246.925C134.03 247.544 134.21 248.422 135.167 248.876C136.124 249.331 138.104 249.025 138.104 249.025C138.104 249.025 139.23 248.414 138.384 247.434C137.537 246.454 136.43 244.478 136.43 244.07C136.43 243.917 136.039 243.316 136.039 242.425C136.039 241.728 136.43 239.736 136.43 239.736C136.43 239.736 135.7 239.293 134.652 238.918C133.604 238.542 132.707 238.349 132.707 238.349Z" fill="#DFDEDE"/>
    <path fill-rule="evenodd" clip-rule="evenodd" d="M132.704 238.349C132.704 238.349 132.606 238.82 132.563 238.999C132.563 238.999 133.147 238.98 133.499 239.148C133.852 239.315 134.48 240.016 135.037 240.424C135.424 240.707 136.223 240.835 136.223 240.835C136.264 240.601 136.431 239.736 136.431 239.736C136.431 239.736 135.7 239.293 134.652 238.917C133.605 238.542 132.704 238.349 132.704 238.349Z" fill="#EDB79F"/>
    <path fill-rule="evenodd" clip-rule="evenodd" d="M130.925 244.354C131.435 245.421 133.109 246.479 133.494 246.925C134.031 247.544 134.094 248.351 135.051 248.805C136.008 249.26 137.72 249.187 137.72 249.187C137.344 249 136.673 248.843 136.387 248.512C136.102 248.182 135.543 247.559 134.957 246.601C134.474 245.812 134.009 244.722 133.105 244.354C131.435 243.676 130.848 244.194 130.925 244.354Z" fill="#D5987C"/>
    <path fill-rule="evenodd" clip-rule="evenodd" d="M130.426 243.733L130.775 242.926C130.775 242.926 131.005 242.583 131.065 242.436C131.125 242.289 131.879 240.393 131.977 239.959C132.076 239.525 132.195 239.854 132.507 239.854C132.819 239.854 132.945 239.701 133.277 239.959C133.478 240.116 134.266 241.269 135.441 242.025C135.903 242.322 136.123 241.885 136.411 241.885C137.144 241.885 136.626 244.606 137.196 245.478C137.766 246.351 139.578 247.967 139.578 248.552C139.578 249.137 139.316 249.616 139.128 249.616C138.941 249.616 136.924 249.616 136.924 249.616L130.426 243.733Z" fill="#868686"/>
    <path fill-rule="evenodd" clip-rule="evenodd" d="M130.426 243.733L130.771 242.917C130.771 242.917 131.495 242.786 131.905 242.856C132.804 243.01 133.247 243.351 133.725 243.83C134.151 244.257 134.438 244.842 134.593 245.079C134.914 245.57 135.98 247.308 136.924 248.3C137.621 249.032 139.128 249.615 139.128 249.615C138.941 249.615 136.924 249.615 136.924 249.615L130.426 243.733Z" fill="#D9D9D9"/>
    <path fill-rule="evenodd" clip-rule="evenodd" d="M130.575 244.588C130.349 244.191 130.365 243.783 130.492 243.572C130.697 243.232 131.355 243.165 132.053 243.396C133.749 243.958 134.327 245.491 134.689 246.152C135.051 246.812 136.809 248.887 137.419 249.239C138.03 249.591 138.339 249.623 138.339 249.623H134.858C134.858 249.623 134.069 248.599 133.604 247.561C133.401 247.107 132.343 246.459 131.581 245.778C131.179 245.419 130.802 244.985 130.575 244.588Z" fill="#9DA0A3"/>
    <path fill-rule="evenodd" clip-rule="evenodd" d="M116.822 303.488C116.822 303.488 116.176 305.454 114.427 304.798C112.679 304.143 114.033 301.984 114.033 301.984L116.822 303.488Z" fill="#2F2F2F"/>
    <path fill-rule="evenodd" clip-rule="evenodd" d="M173.059 305.341C173.059 305.341 173.636 307.327 175.407 306.734C177.177 306.14 175.899 303.935 175.899 303.935L149.85 237.417L147.676 237.417L147.389 240.359L173.059 305.341Z" fill="#C6C6C6"/>
    <path fill-rule="evenodd" clip-rule="evenodd" d="M150.051 242.862C150.051 242.862 149.746 246.34 149.587 247.284C149.351 248.678 148.801 249.132 149.5 249.562C149.93 249.828 157.383 249.799 157.383 249.799C157.383 249.799 158.049 249.963 158.049 249.145C158.049 248.327 154.384 247.314 153.974 246.866C153.565 246.418 153.534 244.169 153.534 244.169L153.463 242.589L150.133 241.645L150.051 242.862Z" fill="#DFDEDE"/>
    <path fill-rule="evenodd" clip-rule="evenodd" d="M150.051 242.862C150.051 242.862 150.434 243.666 151.362 243.85C152.29 244.035 153.538 244.32 153.538 244.32L153.482 242.553L150.133 241.645L150.051 242.862Z" fill="#EDB79F"/>
    <path fill-rule="evenodd" clip-rule="evenodd" d="M149.483 244.929C149.483 244.929 149.26 245.806 149.144 246.329C148.869 247.561 148.696 248.434 148.723 248.797C148.752 249.18 149.155 249.73 149.393 249.73C150.139 249.73 158.194 249.843 158.194 249.843C158.194 249.843 158.783 248.949 158.194 248.375C157.605 247.801 154.424 246.733 154.424 246.329C154.424 245.926 154.483 245.368 154.025 245.368C153.567 245.368 153.642 246.113 152.93 246.113C152.217 246.113 151.993 245.631 151.02 245.085C150.792 244.957 150.279 244.741 149.786 244.75C149.645 244.752 149.483 244.929 149.483 244.929Z" fill="#868686"/>
    <path fill-rule="evenodd" clip-rule="evenodd" d="M148.79 249.064C148.92 249.394 149.207 249.73 149.393 249.73C150.139 249.73 158.194 249.843 158.194 249.843C158.194 249.843 158.374 249.535 158.423 249.392L148.79 249.064Z" fill="#D9D9D9"/>
    <path fill-rule="evenodd" clip-rule="evenodd" d="M149.279 237.309L148.829 242.2L154.827 244.067C155.103 241.759 155.403 240.084 155.621 239.005C155.621 239.005 153.063 237.508 150.502 237.132C149.636 237.005 149.279 237.309 149.279 237.309Z" fill="#9D9A91"/>
    <path fill-rule="evenodd" clip-rule="evenodd" d="M154.827 244.067C155.103 241.759 155.437 240.074 155.625 239.006C155.625 239.006 155.082 238.7 154.853 238.58C154.853 238.58 154.432 242.121 154.221 243.891L154.827 244.067Z" fill="#716F67"/>
    <path fill-rule="evenodd" clip-rule="evenodd" d="M173.059 305.34C173.059 305.34 173.636 307.327 175.407 306.733C177.177 306.14 175.899 303.935 175.899 303.935L173.059 305.34Z" fill="#2F2F2F"/>
    <path fill-rule="evenodd" clip-rule="evenodd" d="M238.032 211.029C236.438 211.029 235.145 212.322 235.145 213.916V255.327C235.145 256.922 236.438 258.214 238.032 258.214H275.353C276.948 258.214 278.24 256.922 278.24 255.327V213.916C278.24 212.322 276.948 211.029 275.353 211.029H238.032Z" fill="#FFD092"/>
    <path fill-rule="evenodd" clip-rule="evenodd" d="M112.791 293.275C112.791 293.02 112.989 292.81 113.243 292.795L118.032 292.509H119.931C120.506 292.509 120.596 293.337 120.034 293.46L118.615 293.772C118.581 293.779 118.547 293.783 118.512 293.783H113.272C113.006 293.783 112.791 293.568 112.791 293.302V293.275Z" fill="#DCDCDC"/>
    <rect x="112.791" y="292.822" width="5.77366" height="0.961311" rx="0.480656" fill="#2C2A2B"/>
    <path fill-rule="evenodd" clip-rule="evenodd" d="M119.045 279.337C119.045 279.082 119.244 278.871 119.498 278.856L124.287 278.571H126.185C126.761 278.571 126.851 279.398 126.289 279.522L124.87 279.833C124.836 279.841 124.802 279.845 124.767 279.845H119.527C119.261 279.845 119.045 279.629 119.045 279.363V279.337Z" fill="#DCDCDC"/>
    <rect x="119.045" y="278.884" width="5.77366" height="0.961311" rx="0.480656" fill="#2C2A2B"/>
    <path fill-rule="evenodd" clip-rule="evenodd" d="M124.819 265.397C124.819 265.143 125.018 264.932 125.272 264.917L130.061 264.631H131.959C132.535 264.631 132.625 265.459 132.063 265.582L130.644 265.894C130.61 265.901 130.575 265.905 130.541 265.905H125.3C125.035 265.905 124.819 265.69 124.819 265.424V265.397Z" fill="#DCDCDC"/>
    <rect x="124.819" y="264.944" width="5.77366" height="0.961311" rx="0.480656" fill="#2C2A2B"/>
    <path fill-rule="evenodd" clip-rule="evenodd" d="M131.036 250.341C131.036 250.086 131.234 249.876 131.489 249.861L136.278 249.575H138.176C138.752 249.575 138.842 250.403 138.279 250.526L136.861 250.838C136.827 250.845 136.792 250.849 136.757 250.849H131.517C131.251 250.849 131.036 250.634 131.036 250.368V250.341Z" fill="#EAE7E7"/>
    <path fill-rule="evenodd" clip-rule="evenodd" d="M131.036 250.368C131.036 250.103 131.251 249.888 131.517 249.888H136.329C136.595 249.888 136.81 250.103 136.81 250.368C136.81 250.634 136.595 250.849 136.329 250.849H131.517C131.251 250.849 131.036 250.634 131.036 250.368Z" fill="#2C2A2B"/>
    <path fill-rule="evenodd" clip-rule="evenodd" d="M147.906 250.572C147.906 250.317 148.105 250.107 148.359 250.092L153.148 249.806H155.046C155.622 249.806 155.712 250.634 155.149 250.757L153.731 251.069C153.697 251.076 153.662 251.08 153.628 251.08H148.387C148.122 251.08 147.906 250.865 147.906 250.599V250.572Z" fill="#EAE7E7"/>
    <path fill-rule="evenodd" clip-rule="evenodd" d="M147.906 250.599C147.906 250.334 148.121 250.119 148.387 250.119H153.199C153.465 250.119 153.68 250.334 153.68 250.599C153.68 250.865 153.465 251.08 153.199 251.08H148.387C148.121 251.08 147.906 250.865 147.906 250.599Z" fill="#2C2A2B"/>
    <path fill-rule="evenodd" clip-rule="evenodd" d="M152.725 265.878C152.725 265.624 152.923 265.413 153.177 265.398L157.967 265.112H159.865C160.441 265.112 160.53 265.94 159.968 266.063L158.55 266.375C158.516 266.382 158.481 266.386 158.446 266.386H153.206C152.94 266.386 152.725 266.171 152.725 265.905V265.878Z" fill="#EAE7E7"/>
    <rect x="152.725" y="265.425" width="5.77366" height="0.961311" rx="0.480656" fill="#2C2A2B"/>
    <path fill-rule="evenodd" clip-rule="evenodd" d="M158.499 280.298C158.499 280.043 158.697 279.832 158.951 279.817L163.741 279.532H165.639C166.214 279.532 166.304 280.359 165.742 280.483L164.323 280.794C164.29 280.802 164.255 280.806 164.22 280.806H158.98C158.714 280.806 158.499 280.59 158.499 280.324V280.298Z" fill="#DCDCDC"/>
    <rect x="158.499" y="279.844" width="5.77366" height="0.961311" rx="0.480656" fill="#2C2A2B"/>
    <path fill-rule="evenodd" clip-rule="evenodd" d="M163.792 294.237C163.792 293.982 163.99 293.771 164.244 293.756L169.033 293.471H170.932C171.507 293.471 171.597 294.298 171.035 294.422L169.616 294.733C169.582 294.741 169.548 294.745 169.513 294.745H164.273C164.007 294.745 163.792 294.529 163.792 294.263V294.237Z" fill="#DCDCDC"/>
    <rect x="163.792" y="293.783" width="5.77366" height="0.961311" rx="0.480656" fill="#2C2A2B"/>
    <path fill-rule="evenodd" clip-rule="evenodd" d="M170.498 307.515C170.498 307.515 171.04 309.512 172.821 308.949C174.601 308.386 173.362 306.159 173.362 306.159L148.264 238.824L147.615 237.847L143.893 237.652L145.233 240.294L170.498 307.515Z" fill="#D2D1D6"/>
    <path fill-rule="evenodd" clip-rule="evenodd" d="M148.266 238.825L147.666 237.543L143.885 237.543L145.235 240.295L148.266 238.825Z" fill="#2C2A2B"/>
    <path fill-rule="evenodd" clip-rule="evenodd" d="M170.496 307.514C170.496 307.514 171.039 309.511 172.819 308.948C174.6 308.385 173.36 306.158 173.36 306.158L170.496 307.514Z" fill="#2F2F2F"/>
    <path fill-rule="evenodd" clip-rule="evenodd" d="M112.011 305.892C112.011 305.892 111.365 307.857 109.616 307.202C107.868 306.547 109.222 304.388 109.222 304.388L137.809 238.459L138.508 237.517H142.236L140.759 240.085L112.011 305.892Z" fill="#D2D1D6"/>
    <path fill-rule="evenodd" clip-rule="evenodd" d="M137.809 238.459L138.508 237.517H142.236L140.759 240.085L137.809 238.459Z" fill="#2C2A2B"/>
    <path fill-rule="evenodd" clip-rule="evenodd" d="M112.011 305.891C112.011 305.891 111.365 307.857 109.616 307.202C107.868 306.547 109.222 304.387 109.222 304.387L112.011 305.891Z" fill="#2F2F2F"/>
    <rect x="137.81" y="236.105" width="12.0285" height="1.44197" fill="#D8D8D8"/>
    <path fill-rule="evenodd" clip-rule="evenodd" d="M181.033 293.651C181.033 293.651 180.286 293.529 180.098 293.339C179.91 293.148 179.911 292.516 179.911 292.516H195.716C195.716 292.516 195.711 293.089 195.521 293.339C195.331 293.588 194.811 293.917 194.811 293.917L193.184 308.824C193.184 308.824 189.632 309.11 187.814 309.11C185.995 309.11 182.892 308.824 182.892 308.824L181.033 293.651Z" fill="#D5E6FD"/>
    <path fill-rule="evenodd" clip-rule="evenodd" d="M193.728 292.516H195.716C195.716 292.516 195.711 293.089 195.521 293.339C195.331 293.588 194.811 293.917 194.811 293.917L193.184 308.824C193.184 308.824 191.019 308.987 190.141 309.034L193.728 292.516Z" fill="#C0D5F2"/>
    <path fill-rule="evenodd" clip-rule="evenodd" d="M181.033 293.651C181.033 293.651 180.286 293.529 180.098 293.339C179.91 293.148 179.911 292.516 179.911 292.516H195.716C195.716 292.516 195.711 293.089 195.521 293.339C195.331 293.588 194.811 293.917 194.811 293.917L181.033 293.651Z" fill="#A4BCDC"/>
    <path d="M187.969 293.78C187.969 293.78 188.233 300.717 193.616 302.346" stroke="white" stroke-width="0.962277" stroke-linecap="round"/>
    <path fill-rule="evenodd" clip-rule="evenodd" d="M284.633 53.374L284.755 57.4216C284.755 57.4216 288.937 57.1779 289.202 57.0178C289.467 56.8578 291.539 55.8521 292.145 55.8521C292.752 55.8521 293.694 55.0247 293.694 55.0247V51.209L284.633 53.374Z" fill="#826E65"/>
    <path fill-rule="evenodd" clip-rule="evenodd" d="M282.797 42.8644C282.797 42.8644 282.768 42.1619 283.372 41.9545C283.975 41.7471 284.215 40.7584 284.755 39.9232C285.294 39.088 286.333 37.9921 286.957 37.6678C287.581 37.3435 289.977 36.6401 292.608 37.8827C295.238 39.1253 295.805 40.5899 295.805 41.8955C295.805 43.201 295.721 45.1426 296.083 45.6843C296.446 46.226 296.083 46.7347 296.083 46.7347C296.083 46.7347 295.84 45.5382 295.279 44.9825C294.719 44.4267 292.199 42.4599 288.544 42.1072C284.89 41.7544 283.468 42.1072 283.468 42.1072C283.468 42.1072 282.99 42.5507 282.99 43.0495C282.99 44.065 283.386 44.9861 283.372 45.3525C283.345 46.0323 283.417 46.5049 283.372 46.5555C283.311 46.6236 283.036 46.1755 282.912 45.1413C282.843 44.5679 282.797 42.8644 282.797 42.8644Z" fill="#4993F3"/>
    <path fill-rule="evenodd" clip-rule="evenodd" d="M286.969 37.7485V39.0172C286.969 39.3081 287.123 39.578 287.388 39.6959C287.815 39.8851 288.516 40.1341 289.252 40.1341C290.038 40.1341 290.623 39.8067 290.93 39.5851C291.093 39.467 291.176 39.2748 291.185 39.0735L291.243 37.8308L286.969 37.7485Z" fill="#4B76AE"/>
    <path fill-rule="evenodd" clip-rule="evenodd" d="M286.52 42.0005C286.52 42.0005 284.382 42.4537 284.139 43.7313C283.896 45.0088 283.861 46.7833 283.726 47.0377C283.592 47.2921 283.405 46.6057 283.172 47.0377C282.939 47.4697 283.172 48.8552 283.172 49.4653C283.172 50.0753 283.579 50.5508 283.726 50.5508C283.726 50.5508 284.687 53.8758 285.243 54.6709C285.8 55.4659 287.959 56.1085 289.241 55.8414C290.524 55.5744 293.352 52.8946 293.714 51.1799C293.714 51.1799 294.424 51.5169 294.686 50.6655C294.948 49.814 295.053 49.7176 295.459 49.4653C295.865 49.213 295.923 48.7137 295.894 48.5432C295.865 48.3728 295.278 47.0377 295.278 47.0377L294.415 44.2527C294.415 44.2527 291.812 42.7364 290.463 42.3516C289.114 41.9668 286.52 42.0005 286.52 42.0005Z" fill="#AD8979"/>
    <path fill-rule="evenodd" clip-rule="evenodd" d="M288.023 49.8442C288.023 49.8442 287.773 49.4406 287.327 49.5751C286.882 49.7097 286.467 50.1876 286.223 50.1876C285.98 50.1876 285.362 50.7467 285.533 51.1928C285.703 51.6389 285.944 51.4004 286.223 51.1928C286.503 50.9851 286.715 50.6777 287.086 50.4936C287.456 50.3094 287.683 50.4936 288.023 50.4936C288.362 50.4936 288.969 50.2586 289.157 50.4936C289.345 50.7285 289.656 51.1928 289.9 51.1928C290.145 51.1928 290.814 50.4936 290.814 50.4936C290.814 50.4936 289.83 50.3617 289.602 50.1876C289.373 50.0136 289.009 49.3705 288.49 49.714C288.391 49.7793 288.364 49.8091 288.296 49.8442C288.126 49.9321 288.023 49.8442 288.023 49.8442Z" fill="#251D19"/>
    <ellipse cx="289.11" cy="37.7287" rx="2.13211" ry="1.21137" fill="#7AB3FC"/>
    <path fill-rule="evenodd" clip-rule="evenodd" d="M291.263 42.6377C291.263 42.6377 294.859 45.0636 295.302 47.1348L296.021 46.778C296.021 46.778 296.21 45.4448 294.401 44.2488C292.592 43.0529 291.263 42.6377 291.263 42.6377Z" fill="#484D48"/>
    <path fill-rule="evenodd" clip-rule="evenodd" d="M294.348 44.2183L293.5 48.5403C293.5 48.5403 292.586 54.3282 289.286 55.8337C289.286 55.8337 291.375 55.1651 292.545 53.1345C293.716 51.104 294.472 45.4134 294.761 44.5086L294.348 44.2183Z" fill="#131720"/>
    <path fill-rule="evenodd" clip-rule="evenodd" d="M248.604 119.056C248.604 119.056 250.234 115.667 253.066 114.006C254.292 113.287 255.732 112.841 257.172 113.233C258.478 113.589 258.88 114.873 258.88 114.873C258.88 114.873 258.95 108.069 259.371 107.219C259.791 106.37 260.269 97.9141 260.269 97.9141C260.269 97.9141 265.903 90.242 270.831 90.242C275.759 90.242 274.257 95.1041 277.996 95.8991C281.735 96.694 286.8 93.987 288.896 92.4274C290.992 90.8677 294.191 89.8169 294.191 88.1989C294.191 86.581 295.111 77.9655 289.574 74.7376C284.036 71.5097 264.761 83.115 264.761 83.115C264.761 83.115 255.888 88.7145 253.998 91.1248C252.108 93.535 248.906 96.1156 248.906 97.9141C248.906 98.403 248.669 100.768 248.604 103.109C248.561 104.688 248.453 107.275 248.311 109.348C248.213 110.762 248.066 111.692 248.046 112.861C248.028 113.923 248.285 114.572 248.311 115.38C248.329 115.944 248.21 116.572 248.213 117.03C248.221 118.339 248.604 119.056 248.604 119.056Z" fill="#304D63"/>
    <path fill-rule="evenodd" clip-rule="evenodd" d="M259.327 98.5594C259.327 98.5594 257.561 95.5344 258.444 91.9453C259.327 88.3563 262.883 85.8739 265.852 85.5099C268.821 85.1459 274.308 84.4138 279.375 88.0356C284.441 91.6574 282.219 98.5594 282.219 98.5594H259.327Z" fill="#DEDDDA"/>
    <path fill-rule="evenodd" clip-rule="evenodd" d="M261.115 112.865C261.115 112.865 259.138 97.999 259.138 96.1259C259.138 94.2529 258.985 89.7265 263.702 88.14C268.418 86.5535 275.948 86.407 280.121 90.8599C281.83 92.6825 282.104 94.0331 282.249 95.488C282.341 96.4027 282.249 98.3022 282.249 98.3022L281.734 114.028L261.115 112.865Z" fill="#F7F6F0"/>
    <ellipse cx="271.418" cy="113.512" rx="10.4048" ry="7.28085" fill="#E1E0D9"/>
    <ellipse cx="271.545" cy="113.717" rx="7.14544" ry="5.02119" fill="#E6E4DC"/>
    <path fill-rule="evenodd" clip-rule="evenodd" d="M283.999 51.4757C283.999 51.4757 283.658 51.4392 283.658 51.8039C283.658 51.9458 283.614 52.13 283.658 52.3338C283.704 52.5464 283.838 52.6611 283.896 52.7893C284.041 53.1107 284.097 53.2118 284.349 53.2118C284.43 53.2118 284.544 53.1255 284.544 53.1255L283.999 51.4757Z" fill="#484D48"/>
    <path fill-rule="evenodd" clip-rule="evenodd" d="M284.747 57.0438C284.747 57.0438 280.301 59.0314 279.225 59.7928C278.15 60.5543 274.732 61.826 274.129 62.4857C273.526 63.1453 271.275 67.3599 270.437 68.1984C269.599 69.0369 269.457 70.2607 269.171 70.2607C268.884 70.2607 267.846 71.7384 267.394 72.0235C267.087 72.217 266.229 72.37 265.791 72.8615C265.583 73.094 265.469 73.4024 265.552 73.8263C265.676 74.4509 265.14 74.3527 264.948 74.3527C264.755 74.3527 263.97 74.4984 263.97 74.9886C263.97 75.4787 262.792 75.2399 262.641 75.3044C262.491 75.3689 256.911 79.4989 256.911 79.4989C256.911 79.4989 257.543 80.5885 258.15 80.5885C258.15 80.5885 258.22 81.869 260.661 82.4531C263.103 83.0372 264.174 83.3037 264.709 82.9573C265.244 82.6109 282.83 72.0235 282.83 72.0235L288.199 76.0314C288.199 76.0314 295.921 75.6909 297.945 74.9886C302.509 73.4044 302.404 71.0311 302.124 70.7877C301.517 70.2607 301.513 69.7454 301.818 69.5321C302.124 69.3188 303.039 68.8092 302.518 67.8608C302.518 67.8608 303.023 67.3169 302.771 66.7236C302.771 66.7236 304.175 66.824 304.483 66.2834C304.791 65.7428 306.76 63.8229 308.732 62.6874C310.704 61.552 310.742 60.3582 311.059 59.7928C311.377 59.2275 312.927 57.9007 312.395 55.0308C312.395 55.0308 313.646 52.6263 313.788 51.8302C313.93 51.0341 314.887 49.2533 314.887 48.8496C314.887 48.4459 315.218 46.2355 315.218 45.7063C315.218 45.1771 315.688 43.0166 315.063 42.5719C315.063 42.5719 314.852 45.4119 311.713 45.011C308.574 44.6101 308.951 42.6219 309.145 42.2849C309.338 41.9479 309.718 41.2053 309.718 41.2053C309.718 41.2053 308.844 41.464 308.393 42.5719C307.942 43.6798 307.618 44.8714 307.432 45.4509C307.246 46.0304 306.099 47.7703 305.857 48.6425C305.616 49.5146 304.728 50.9517 304.728 51.5472C304.728 51.5472 303.212 52.6082 302.771 52.9357C302.771 52.9357 300.809 52.789 298.98 54.2367C298.98 54.2367 297.257 54.5481 296.684 55.4011L295.608 55.8125L293.68 55.0308L284.747 57.0438Z" fill="#4993F3"/>
    <path fill-rule="evenodd" clip-rule="evenodd" d="M262.808 76.3175C262.808 76.3175 262.451 75.7192 262.808 75.7192C263.164 75.7192 264.124 76.312 264.124 76.5873C264.124 76.8626 264.368 77.4135 264.368 77.6134C264.368 77.8133 264.146 79.5886 263.851 79.7776C263.557 79.9666 263.67 80.4878 263.499 80.4878C263.327 80.4878 263.267 79.9311 263.267 79.5501C263.267 79.1691 263.132 78.7813 263.132 78.6245C263.132 78.4677 263.26 77.103 263.132 76.8451C263.004 76.5873 262.808 76.3175 262.808 76.3175Z" fill="#4181D5"/>
    <path fill-rule="evenodd" clip-rule="evenodd" d="M259.532 82.0159C259.532 82.0159 261.267 81.7663 261.411 81.5147C261.554 81.263 262.472 80.7137 262.472 80.2436C262.472 79.7735 262.693 78.9741 262.693 78.9741C262.693 78.9741 263.064 79.4228 262.878 79.9589C262.693 80.495 262.596 81.654 262.003 81.8349C261.411 82.0159 259.532 82.0159 259.532 82.0159Z" fill="#4181D5"/>
    <path fill-rule="evenodd" clip-rule="evenodd" d="M263.1 82.5895C263.1 82.5895 263.611 81.3368 263.763 80.7873C263.915 80.2377 264.525 78.951 264.525 78.5213C264.525 78.0915 264.525 77.8176 264.525 77.8176C264.525 77.8176 264.971 78.924 264.834 79.6579C264.698 80.3917 264.958 81.229 264.247 81.8155C263.535 82.402 263.1 82.5895 263.1 82.5895Z" fill="#4181D5"/>
    <path fill-rule="evenodd" clip-rule="evenodd" d="M265.13 80.5619C265.13 80.5619 265.333 78.1463 265.13 77.905C264.928 77.6637 263.851 75.7543 263.431 75.6042C263.431 75.6042 264.071 75.6421 264.331 75.8692C264.592 76.0964 265.586 77.0654 265.586 77.3024C265.586 77.5395 265.735 78.8006 265.586 79.2151C265.437 79.6296 265.13 80.5619 265.13 80.5619Z" fill="#4181D5"/>
    <path fill-rule="evenodd" clip-rule="evenodd" d="M258.293 80.84C258.293 80.84 260.453 81.0267 260.765 80.7C261.077 80.3732 261.533 80.048 261.533 79.8051C261.533 79.5621 261.249 78.0161 261.249 78.0161C261.249 78.0161 259.913 79.3109 259.913 79.4546C259.913 79.5984 258.293 80.84 258.293 80.84Z" fill="#4181D5"/>
    <path fill-rule="evenodd" clip-rule="evenodd" d="M274.222 95.851C274.222 95.851 273.578 90.7919 267.2 90.7919C264.267 90.7919 262.64 91.1084 262.32 91.7415C262.32 91.7415 263.415 85.7147 263.906 84.4678C264.397 83.2208 266.406 81.2474 266.891 80.1531C267.376 79.0587 267.289 74.8753 268.264 73.1826C269.238 71.4899 271.679 70.2952 273.902 70.2952C276.126 70.2952 276.348 68.5849 277.641 68.5849C278.934 68.5849 279.857 68.1446 280.761 69.3789C281.664 70.6132 282.716 70.0095 283.744 70.6311C284.771 71.2527 286.8 73.179 288.009 75.144C289.217 77.1091 293.829 83.7415 291.874 87.3767C291.014 88.9769 289.217 92.3693 285.424 93.5344C283.696 94.0656 280.655 88.9172 279.734 88.1927C278.696 87.3767 278.95 86.5531 278.696 86.3318C278.696 86.3318 278.367 87.0469 278.214 87.3767C277.613 88.6823 277.144 89.6982 276.809 90.4242C275.942 92.3059 274.222 95.851 274.222 95.851Z" fill="#304D63"/>
    <path opacity="0.5" fill-rule="evenodd" clip-rule="evenodd" d="M274.228 95.8734C274.228 95.8734 273.578 90.7914 267.2 90.7914C264.267 90.7914 262.64 91.1079 262.32 91.741C262.32 91.741 263.415 85.7143 263.906 84.4673C264.397 83.2203 266.715 81.828 267.2 80.7336C267.685 79.6392 267.533 75.2664 268.507 73.5737C268.702 73.2356 268.302 74.2975 268.507 75.485C268.684 76.5083 269.431 77.5249 269.953 78.9929C270.471 80.4533 272.058 81.5212 272.581 83.1505C273.037 84.5733 273.295 86.0454 273.722 87.297C274.598 89.8698 276.295 91.4842 276.102 91.9035C275.234 93.7852 274.228 95.8734 274.228 95.8734Z" fill="#213D53"/>
    <path fill-rule="evenodd" clip-rule="evenodd" d="M267.386 90.8013C267.386 90.8013 267.054 92.3271 267.199 92.9404C267.343 93.5537 267.018 94.2918 267.018 94.2918C267.018 94.2918 265.737 93.2515 265.154 93.2515C264.572 93.2515 262.055 92.9624 262.329 91.7677C262.602 90.5729 267.386 90.8013 267.386 90.8013Z" fill="#1B3345"/>
    <path fill-rule="evenodd" clip-rule="evenodd" d="M267.364 90.8556C267.364 90.8556 266.893 92.6619 267.05 94.2488C267.207 95.8357 267.05 96.62 267.05 96.62C267.05 96.62 268.28 97.3522 268.895 97.7761C269.51 98.2001 270.22 98.8045 270.22 98.8045C270.22 98.8045 270.644 99.5002 271.012 99.7589C271.381 100.018 272.966 100.732 272.966 100.732C272.966 100.732 272.966 100.142 272.966 99.2981C272.966 98.4543 274.228 95.7936 274.228 95.7936C274.228 95.7936 274.228 93.3965 271.991 92.0259C269.753 90.6554 267.364 90.8556 267.364 90.8556Z" fill="#F0EEEE"/>
    <path fill-rule="evenodd" clip-rule="evenodd" d="M234.178 123.876C234.178 123.876 233.508 127.243 235.077 129.415C236.647 131.586 242.564 134.866 243.751 135.218C244.938 135.571 245.882 135.547 246.391 135.97C246.9 136.393 248.023 137.072 249.708 137.556C251.392 138.04 252.756 138.301 253.403 137.817C254.05 137.333 254.573 135.541 254.456 135.271C254.339 135 234.178 123.876 234.178 123.876Z" fill="#9DA0A3"/>
    <path fill-rule="evenodd" clip-rule="evenodd" d="M255.46 101.005C255.46 101.005 256.295 99.038 257.98 98.8095C259.665 98.5809 261.426 98.7676 263.183 98.2498C264.94 97.732 265.469 96.5154 266.496 96.6812C267.524 96.847 268.178 96.3038 269.068 97.2768C269.959 98.2498 270.648 99.5176 271.211 99.8179C271.773 100.118 272.791 100.668 273.156 100.668C273.522 100.668 272.946 102.626 273.156 103.138C273.367 103.65 273.897 107.858 273.156 108.391C273.156 108.391 264.252 102.58 262.433 101.984L255.46 101.005Z" fill="#C0C0C0"/>
    <path fill-rule="evenodd" clip-rule="evenodd" d="M273.195 108.354L273 109.576C273 109.576 262.295 101.911 262.006 101.735C262.006 101.735 265.645 103.395 267.149 104.327C267.991 104.848 268.86 105.482 269.866 106.146C271.877 107.473 273.195 108.354 273.195 108.354Z" fill="#D8D8D9"/>
    <path fill-rule="evenodd" clip-rule="evenodd" d="M247.242 123.426C247.242 123.426 241.539 124.557 240.427 125.118C239.315 125.679 237.64 124.024 237.299 123.725C236.958 123.426 235.033 122.523 234.431 123.426C233.83 124.33 234.729 127.902 238.321 130.147C241.914 132.393 245.144 132.535 246.382 133.382C247.621 134.23 251.088 136.001 252.69 136.001C254.293 136.001 254.673 135.662 254.673 134.283C254.673 132.905 255.134 131.3 254.673 130.409C254.212 129.518 255.454 129.014 254.673 128.006C254.531 127.823 254.242 127.823 254.242 127.603C254.242 126.503 247.242 123.426 247.242 123.426Z" fill="#C0C0C0"/>
    <path fill-rule="evenodd" clip-rule="evenodd" d="M255.806 103.642C255.806 103.642 255.264 106.504 257.119 107.881C258.973 109.257 258.855 109.055 258.855 109.055L259.331 106.941L255.806 103.642Z" fill="#213D53"/>
    <path fill-rule="evenodd" clip-rule="evenodd" d="M265.384 109.654C264.766 109.088 264.855 107.648 263.855 107.648C262.855 107.648 259.052 107.298 257.578 106.022C256.103 104.746 253.965 100.909 256.302 100.586C258.639 100.262 262.892 101.912 264.663 103.324C266.435 104.737 272.678 108.988 272.978 109.519C273.278 110.049 270.547 111.673 268.42 111.089C266.293 110.506 266.001 110.22 265.384 109.654Z" fill="#9DA0A3"/>
    <path fill-rule="evenodd" clip-rule="evenodd" d="M255.772 120.436C255.772 120.436 258.635 118.362 258.905 115.16C258.905 115.16 258.905 113.855 257.916 113.504C257.916 113.504 255.902 118.713 255.902 120.032L255.772 120.436Z" fill="#1B3345"/>
    <path fill-rule="evenodd" clip-rule="evenodd" d="M249.385 117.527C249.385 117.527 253.644 111.575 257.908 113.504C257.908 113.504 256.24 118.111 256.027 119.203C256.027 119.203 254.968 118.038 252.817 117.482C250.666 116.927 249.385 117.527 249.385 117.527Z" fill="#BD9A8A"/>
    <path fill-rule="evenodd" clip-rule="evenodd" d="M247.279 123.405C247.279 123.405 248.96 127.166 250.08 127.609C251.201 128.053 253.535 126.051 254.252 127.609C254.252 127.609 255.081 121.465 256.006 120.031C256.93 118.598 252.871 117.242 251.642 117.242C250.413 117.242 248.35 116.485 248.35 121.003C248.35 121.627 248.013 122.292 247.761 122.792C247.642 123.029 247.279 123.405 247.279 123.405Z" fill="#F0EEEE"/>
    <path d="M255.301 101.508V102.258C253.704 106.655 253.453 110.049 252.818 111.695C252.18 113.353 248.261 116.478 248.261 116.478C248.943 114.43 249.467 112.705 250.108 111.042C250.753 109.368 252.705 105.826 255.301 101.508Z" fill="#213D53"/>
    <path d="M248.493 111.416L248.306 111.363C248.306 111.363 249.3 107.996 249.526 107.321C249.628 107.015 249.758 106.837 249.775 106.81C250.02 106.44 250.294 106.028 250.59 105.583C251.438 104.314 253.374 101.499 253.497 101.324C255.712 98.1626 257.097 96.4043 257.514 96.4043V96.5981C257.207 96.5981 249.912 107.358 250.036 107.691C250.16 108.024 248.493 111.416 248.493 111.416Z" fill="#213D53"/>
    <path fill-rule="evenodd" clip-rule="evenodd" d="M257.037 89.8286C256.626 90.015 253.764 91.4996 253.764 91.4996C253.764 91.4996 255.864 90.0377 257.109 89.4123C258.353 88.787 260.601 87.9836 260.601 87.9836C260.601 87.9836 257.448 89.6421 257.037 89.8286Z" fill="#213D53"/>
    <path fill-rule="evenodd" clip-rule="evenodd" d="M277.45 72.9175C277.45 72.9175 280.129 81.5496 279.236 84.0416C279.236 84.0416 279.63 81.6556 279.63 81.3168C279.63 80.978 279.393 79.1874 279.63 78.8335C279.867 78.4796 279.882 76.5019 279.756 75.8476C279.63 75.1932 279.603 74.7104 278.922 74.2418C278.242 73.7731 278.209 73.3148 277.83 72.9175C277.45 72.5202 277.241 72.3035 277.241 72.3035L277.45 72.9175Z" fill="#28455B"/>
    <path fill-rule="evenodd" clip-rule="evenodd" d="M284.773 74.2754C284.773 74.2754 284.028 79.1159 282.356 81.1556C280.684 83.1952 280.909 83.7502 280.797 84.3748C280.684 84.9994 279.532 85.6543 279.532 85.6543C279.532 85.6543 280.777 85.2159 281.271 84.0779C281.764 82.9399 282.479 81.3395 283.215 81.1556C283.95 80.9717 284.951 79.6397 285.22 79.1022C285.489 78.5648 284.951 77.6249 285.22 76.6341C285.489 75.6434 284.773 74.2754 284.773 74.2754Z" fill="#28455B"/>
    <path fill-rule="evenodd" clip-rule="evenodd" d="M301.86 72.4571C301.86 72.4571 302.325 74.396 302.311 75.1593C302.221 79.9749 300.355 83.2171 297.49 85.5207C292.509 89.5239 292.512 90.2602 292.512 90.2602C292.512 90.2602 291.077 83.4903 290.254 80.8743C288.806 76.2712 286.855 73.4393 285.258 71.8269C285.258 71.8269 288.617 72.8468 290.348 72.8759C294.216 72.9408 301.86 72.4571 301.86 72.4571Z" fill="#3A5971"/>
    <path fill-rule="evenodd" clip-rule="evenodd" d="M304.539 52.0007C304.539 52.0007 303.797 56.4453 303.797 58.6712C303.797 60.8971 301.625 57.8161 302.596 55.336C303.568 52.8559 304.539 52.0007 304.539 52.0007Z" fill="#4181D5"/>
    <path fill-rule="evenodd" clip-rule="evenodd" d="M301.876 53.4436C301.876 53.4436 298.668 57.6482 300.272 61.4587C300.272 61.4587 298.267 58.1033 299.269 56.1291C300.272 54.1548 301.876 53.4436 301.876 53.4436Z" fill="#4181D5"/>
    <path fill-rule="evenodd" clip-rule="evenodd" d="M298.696 61.9338C299.636 60.7915 298.565 59.6462 298.565 59.0918C298.565 58.5374 298.365 57.8856 298.565 57.1569C298.764 56.4282 299.346 54.8895 299.91 54.2222C300.473 53.5548 301.793 53.2047 300.789 53.4854C299.786 53.7661 298.696 54.8895 298.696 54.8895C298.696 54.8895 295.376 59.9103 297.036 63.117C298.696 66.3237 297.755 63.0762 298.696 61.9338Z" fill="#4181D5"/>
    <path fill-rule="evenodd" clip-rule="evenodd" d="M285.147 66.5194C285.147 66.5194 289.469 66.374 290.723 66.6941C291.976 67.0143 295.351 68.6236 296.531 68.8505C296.746 68.8918 296.973 68.9437 297.204 69.0042C298.244 69.2755 299.384 69.7184 300.015 70.1427C300.786 70.6615 301.61 70.8033 301.61 70.8033V70.4638C301.61 70.4638 300.403 69.5236 299.84 68.8505C299.84 68.8505 299.845 69.7534 299.63 69.7534C299.63 69.7534 296.965 68.6387 296.335 68.6387C295.705 68.6387 291.48 66.6999 290.6 66.5194C289.721 66.339 285.147 66.5194 285.147 66.5194Z" fill="#4181D5"/>
    <path d="M302.523 60.2439C302.523 60.2439 303.052 61.9461 303.156 62.669C303.211 63.048 303.385 63.6638 303.366 64.1146C303.335 64.8455 302.827 66.3895 302.827 66.3895C303.01 65.4518 303.081 63.0369 302.523 60.2439Z" fill="#4181D5"/>
    <path fill-rule="evenodd" clip-rule="evenodd" d="M277.882 55.5642C277.882 55.5642 276.964 55.6899 276.964 56.2994C276.964 56.9089 276.684 59.9114 276.862 60.0321C277.04 60.1529 277.399 60.1654 277.399 60.1654L279.123 59.3019L279.988 58.6144V57.391C279.988 57.391 279.783 56.2672 279.123 56.3861C278.462 56.5049 277.882 55.5642 277.882 55.5642Z" fill="#446891"/>
    <path d="M278.385 55.4723L277.716 1.14551" stroke="#979797" stroke-width="0.678366"/>
    <path fill-rule="evenodd" clip-rule="evenodd" d="M277.857 55.6501C277.857 55.4712 278.002 55.3262 278.181 55.3262H278.788C278.967 55.3262 279.112 55.4705 279.112 55.6494C279.112 56.1935 279.112 57.284 279.112 57.8059C279.112 58.5174 279.112 59.2964 279.112 59.2964L277.39 60.6033V59.654V59.2094V57.1398L277.857 56.5532V55.6501Z" fill="#234872"/>
    <path d="M277.103 57.1909C277.103 57.1909 275.973 58.5921 275.973 60.6299C275.973 62.6676 275.763 68.7451 274.988 70.0568" stroke="#979797" stroke-width="0.678366" stroke-linecap="round"/>
    <path d="M280.435 61.7215L280.364 61.5758C282.584 60.4997 283.111 59.6035 283.928 59.1571C284.054 59.0886 285.711 58.1075 287.383 57.4063C288.609 56.8924 290.247 56.5059 290.247 56.5059C289.65 56.7283 288.817 57.1043 287.699 57.7619C287.585 57.829 286.067 58.5923 284.49 59.4668C283.014 60.2849 281.509 61.2008 280.435 61.7215Z" fill="#4181D5"/>
    <path fill-rule="evenodd" clip-rule="evenodd" d="M295.612 55.8086C295.612 55.8086 295.056 58.0516 295.733 61.258C296.41 64.4643 295.733 70.4738 295.733 70.4738H293.56C293.56 70.4738 294.113 64.0612 294.113 63.2348C294.113 62.4084 293.132 56.8956 293.685 55.0286L295.612 55.8086Z" fill="#FFE186"/>
    <path fill-rule="evenodd" clip-rule="evenodd" d="M274.441 63.2525C274.475 62.9848 274.62 62.7434 274.839 62.5862L277.369 60.774C277.671 60.5571 278.071 60.5323 278.398 60.7101L279.507 61.3123C279.856 61.5018 280.054 61.8846 280.008 62.2789L279.522 66.4466C279.489 66.7237 279.34 66.9735 279.11 67.1325L276.587 68.8827C276.151 69.1852 275.552 69.0818 275.243 68.6505L274.198 67.1932C274.055 66.9935 273.993 66.7469 274.024 66.5031L274.441 63.2525Z" stroke="#CDCDCD" stroke-width="0.647896" stroke-linecap="round" stroke-linejoin="round"/>
    <path fill-rule="evenodd" clip-rule="evenodd" d="M310.031 39.3199C310.031 39.3199 310.286 40.4808 309.736 41.1624C309.185 41.844 308.258 43.5345 309.736 44.3787C311.213 45.2228 313.513 45.7076 314.434 44.3787C315.355 43.0498 314.844 42.6927 315.324 41.1624C315.804 39.6321 315.927 39.2776 315.482 38.8361C315.037 38.3946 312.528 37.1827 311.405 37.7886C311.044 37.9834 310.647 37.9834 310.298 38.4761C309.948 38.9688 310.031 39.3199 310.031 39.3199Z" fill="#4181D5"/>
    <path d="M249.484 83.262C249.484 83.262 250.648 83.9507 250.26 84.8021" stroke="#979797" stroke-width="0.484547" stroke-linecap="round"/>
    <path d="M249.969 83.0684C249.969 83.0684 251.133 83.7571 250.745 84.6085" stroke="#979797" stroke-width="0.484547" stroke-linecap="round"/>
    <path d="M250.454 82.874C250.454 82.874 251.617 83.5628 251.229 84.4142" stroke="#979797" stroke-width="0.484547" stroke-linecap="round"/>
    <path d="M248.832 85.0228C248.832 85.0228 249.269 84.4932 249.924 84.4932" stroke="#979797" stroke-width="0.484547" stroke-linecap="round"/>
    <path d="M248.832 84.6348C248.832 84.6348 249.269 84.1052 249.924 84.1052" stroke="#979797" stroke-width="0.484547" stroke-linecap="round"/>
    <path d="M248.832 84.2469C248.832 84.2469 249.269 83.7173 249.924 83.7173" stroke="#979797" stroke-width="0.484547" stroke-linecap="round"/>
    <path d="M249.236 85.0781C249.236 85.0781 248.794 86.1958 248.473 86.552C248.152 86.9082 248.607 87.7311 249.236 86.8496C249.866 85.968 249.549 85.0781 249.549 85.0781" stroke="#979797" stroke-width="0.484547"/>
    <path d="M267.439 76.528L267.378 77.0559L247.599 85.4398L244.839 85.9783L245.798 85.0119L267.51 75.9546L267.439 76.485L246.858 85.0949L247.433 84.9837L267.439 76.528Z" fill="#979797"/>
    <path fill-rule="evenodd" clip-rule="evenodd" d="M254.435 76.2844C254.435 76.2844 254.163 76.6305 254.163 77.0382C254.163 77.446 254.241 78.0109 254.519 78.1355L255.076 77.7015L254.435 76.2844Z" fill="#BD9A8A"/>
    <path fill-rule="evenodd" clip-rule="evenodd" d="M311.238 37.8938C311.238 37.8938 310.262 38.7691 310.421 39.6544C310.58 40.5398 310.294 41.743 312.171 41.9207C314.048 42.0985 315.151 41.2777 315.32 41.0402C315.489 40.8028 316.178 39.3612 315.32 38.7391C314.462 38.1171 311.238 37.8938 311.238 37.8938Z" fill="#6C86A9"/>
    <path fill-rule="evenodd" clip-rule="evenodd" d="M255.617 79.0211L256.108 78.638L260.499 75.3132L262.47 73.8044L263.254 73.2419C263.254 73.2419 263.464 73.8861 262.967 74.3943C262.47 74.9025 262.053 75.6916 262.053 76.177C262.053 76.6625 261.426 77.4597 261.426 77.4597C261.426 77.4597 260.339 78.8446 259.519 79.1589C258.699 79.4732 258.001 79.6209 257.308 79.5532C256.615 79.4855 255.617 79.0211 255.617 79.0211Z" fill="#AB8675"/>
    <path d="M245.578 86.6455C245.293 86.8612 244.888 86.8058 244.671 86.5217L244.516 86.3178C244.299 86.0327 244.354 85.6253 244.64 85.4089L283.592 55.8939L318.772 29.2371L319.713 30.4717L284.536 57.1264L245.578 86.6455Z" fill="#D8D8D8"/>
    <path d="M245.578 86.6455C245.293 86.8612 244.888 86.8058 244.671 86.5217L244.516 86.3178C244.299 86.0327 244.354 85.6253 244.64 85.4089L283.592 55.8939L318.772 29.2371L319.713 30.4717L284.536 57.1264L245.578 86.6455Z" fill="#D8D8D8"/>
    <path d="M319.405 30.0671L319.713 30.4716L284.536 57.1262C284.536 57.1262 284.223 56.9587 284.108 56.8705L319.405 30.0671Z" fill="#ADACAC"/>
    <path d="M245.578 86.6454C245.294 86.8611 244.888 86.8057 244.672 86.5216L244.516 86.3177C244.299 86.0326 244.355 85.6252 244.64 85.4087L283.593 55.8938C283.593 55.8938 283.667 56.3345 283.882 56.6226C284.097 56.9106 284.536 57.1262 284.536 57.1262L245.578 86.6454Z" fill="#00223C"/>
    <path fill-rule="evenodd" clip-rule="evenodd" d="M257.656 78.2715C257.656 78.2715 257.44 78.8947 257.008 78.8947C256.576 78.8947 256.068 78.614 255.916 78.5176C255.764 78.4212 254.634 77.2724 254.634 77.2724C254.634 77.2724 254.431 77.0299 254.431 76.7337C254.431 76.4375 254.378 75.4477 254.571 75.2852C254.765 75.1226 255.314 74.8135 255.4 74.8135L257.656 78.2715Z" fill="#BD9A8A"/>
    <path fill-rule="evenodd" clip-rule="evenodd" d="M257.657 78.2715C257.657 78.2715 257.632 78.3389 257.619 78.3705C257.593 78.4358 257.387 78.2233 257.076 77.9764C256.817 77.7711 256.478 77.5711 256.181 77.2186C255.888 76.8711 255.708 76.5484 255.401 76.1514C255.057 75.7067 254.826 75.1076 254.826 75.1076C255.058 74.9622 255.341 74.8135 255.401 74.8135L257.657 78.2715Z" fill="#AB8675"/>
    <path d="M245.578 86.6459C245.294 86.8616 244.888 86.8062 244.672 86.5221L244.516 86.3182C244.299 86.0331 244.355 85.6257 244.64 85.4093L248.089 82.7961C248.089 82.7961 248.122 83.2137 248.365 83.5175C248.608 83.8213 249.008 84.0473 249.008 84.0473L245.578 86.6459Z" fill="#3C658A"/>
    <path fill-rule="evenodd" clip-rule="evenodd" d="M258.85 77.4927C258.85 77.4927 258.687 77.9419 258.38 78.0977C258.072 78.2535 257.645 78.2726 257.645 78.2726C257.645 78.2726 256.532 77.4711 256.209 77.0508C255.886 76.6305 255.522 75.9656 255.522 75.8306C255.522 75.6956 255.266 75.1239 255.453 74.5376C255.641 73.9513 256.559 73.8687 256.634 73.8687C256.71 73.8687 258.85 77.4927 258.85 77.4927Z" fill="#BD9A8A"/>
    <path fill-rule="evenodd" clip-rule="evenodd" d="M258.85 77.4927C258.85 77.4927 258.819 77.5745 258.802 77.6125C258.802 77.6125 258.604 77.5933 258.545 77.5518C258.08 77.2244 257.846 76.9216 257.699 76.7796C257.227 76.3214 256.938 75.9543 256.75 75.583C256.633 75.3528 256.57 75.1043 256.481 74.8818C256.378 74.6224 255.961 74.0336 255.961 74.0336C256.265 73.8964 256.591 73.8687 256.635 73.8687C256.711 73.8687 258.85 77.4927 258.85 77.4927Z" fill="#AB8675"/>
    <path fill-rule="evenodd" clip-rule="evenodd" d="M259.835 76.5717C259.835 76.5717 259.792 77.142 259.485 77.3132C259.177 77.4843 258.717 77.502 258.613 77.4932C258.508 77.4843 257.475 76.4288 257.289 76.039C257.102 75.6491 256.626 75.0108 256.626 74.3785C256.626 73.7462 256.586 73.2545 256.861 73.1259C257.014 73.0543 257.299 72.9816 257.581 73.0307C257.806 73.0698 258.039 73.2132 258.125 73.2989C258.32 73.4924 259.835 76.5717 259.835 76.5717Z" fill="#BD9A8A"/>
    <path fill-rule="evenodd" clip-rule="evenodd" d="M259.836 76.5712C259.836 76.5712 259.83 76.6369 259.826 76.6682C259.826 76.6682 259.396 76.5279 259.101 76.3118C258.955 76.2047 258.862 76.0025 258.709 75.7078C258.628 75.5534 258.583 75.3786 258.507 75.212C258.454 75.0973 258.38 74.9635 258.33 74.8918C258.13 74.6058 258.13 74.5289 257.98 73.925C257.909 73.6389 257.582 73.0303 257.582 73.0303C257.806 73.0693 258.04 73.2127 258.126 73.2984C258.321 73.492 259.836 76.5712 259.836 76.5712Z" fill="#AB8675"/>
    <path fill-rule="evenodd" clip-rule="evenodd" d="M260.189 73.6161C260.189 73.6161 259.389 72.6956 259.093 72.6956C258.796 72.6956 258.133 73.1924 258.133 73.4042C258.133 73.6161 258.265 74.581 258.51 74.8485C258.755 75.1161 259.068 76.1638 259.239 76.248C259.411 76.3323 259.873 76.7003 260.189 76.592C260.504 76.4838 260.823 76.2949 260.663 75.8058C260.586 75.5691 260.404 75.1628 260.272 74.5006C260.222 74.2505 260.189 73.6161 260.189 73.6161Z" fill="#BD9A8A"/>
    <path d="M293.894 74.5482C293.894 74.5482 290.716 71.1856 291.626 69.7028C291.626 69.7028 292.945 69.6112 293.646 69.7028C293.796 69.7223 295.061 69.8404 295.771 70.2678C296.221 70.5391 296.336 71.1065 296.161 71.2546C295.71 71.6361 295.426 70.9597 294.391 72.1026C293.355 73.2456 291.701 72.6297 290.621 72.507" stroke="#CDCDCD" stroke-width="0.387638" stroke-linecap="round"/>
    <path fill-rule="evenodd" clip-rule="evenodd" d="M317.409 29.7647C317.409 29.7647 317.563 29.3059 318.024 29.3059C318.486 29.3059 318.339 29.878 318.339 29.878L317.409 29.7647Z" fill="#AB8675"/>
    <path fill-rule="evenodd" clip-rule="evenodd" d="M316.559 30.4766C316.559 30.2942 316.738 29.7798 316.99 29.7798C317.242 29.7798 317.341 29.7129 317.94 29.7129C318.539 29.7129 319.218 30.6169 319.365 30.8632C319.461 31.0245 319.59 31.915 319.581 32.647C319.577 33.0328 319.505 33.4115 319.435 33.5358C319.233 33.8962 318.942 33.9614 318.942 33.9614C318.942 34.3048 318.374 35.158 317.791 35.6156C317.676 35.7058 316.83 36.5892 316.746 36.6818C316.264 37.2167 315.808 37.6237 315.492 38.3031C315.177 38.9824 315.265 39.1187 315.123 39.5123C314.981 39.9058 314.709 40.8322 314.115 41.281C313.522 41.7299 312.55 41.5713 312.048 41.4336C311.545 41.2959 311.333 41.2071 311.112 40.8466C310.892 40.486 310.944 40.0389 310.984 39.6914C311.057 39.0561 311.135 38.582 311.322 38.3031C311.322 38.3031 311.246 36.0519 312.048 35.7236C312.048 35.7236 312.279 34.8585 312.55 34.8585C312.55 34.8585 312.488 34.2901 312.048 34.2901C311.607 34.2901 311.545 33.9503 312.048 33.2965C312.232 33.0568 312.402 32.9851 312.55 32.9189C312.672 32.8646 312.874 32.8489 312.874 32.8489C312.874 32.8489 312.916 32.3832 313.167 32.2222C313.419 32.0612 313.914 31.6903 314.168 31.6903C314.423 31.6903 314.391 31.3395 314.531 31.2207C314.67 31.1019 315.657 30.6296 316.005 30.5531C316.353 30.4766 316.559 30.4766 316.559 30.4766Z" fill="#BD9A8A"/>
    <path fill-rule="evenodd" clip-rule="evenodd" d="M319.581 32.647C319.577 33.0327 319.505 33.4114 319.435 33.5358C319.232 33.8962 318.941 33.9614 318.941 33.9614C318.941 34.3048 318.374 35.158 317.79 35.6155C317.675 35.7057 316.83 36.5891 316.746 36.6818C316.264 37.2167 315.807 37.6237 315.492 38.303C315.176 38.9823 315.271 39.0895 315.123 39.5123C315.056 39.7017 314.932 40.0952 314.677 40.5683C314.611 40.6922 314.512 40.8751 314.356 41.0552C314.285 41.1362 314.106 41.2844 314.106 41.2844C314.106 41.2844 314.506 39.042 314.858 38.303C315.702 36.5359 316.887 35.8712 317.917 34.898C318.63 34.2249 319.581 32.647 319.581 32.647Z" fill="#AB8675"/>
    <path d="M315.148 34.5699C315.177 34.5885 314.589 34.2353 314.337 34.0741C314.269 34.0312 314.205 33.9895 314.145 33.9491C313.813 33.7281 313.595 33.5559 313.509 33.4315C313.378 33.2431 313.181 33.0161 312.868 32.8577C312.868 32.8577 313.092 32.8375 313.217 32.9045C313.382 32.9932 313.611 33.2384 313.668 33.3212C313.735 33.4175 313.943 33.5816 314.252 33.7879C314.312 33.8275 314.375 33.8685 314.441 33.9108C314.679 34.063 315.148 34.5699 315.148 34.5699Z" fill="#AB8675"/>
    <path d="M314.252 31.6716C314.538 31.6563 314.803 31.7613 315.067 32.0866C315.27 32.3372 315.456 32.5574 315.622 32.7431C315.906 33.0596 316.202 33.5402 316.202 33.5402C315.909 33.3695 315.485 32.9092 314.916 32.2087C314.688 31.9271 314.252 31.6716 314.252 31.6716Z" fill="#AB8675"/>
    <path d="M315.136 31.8859C315.242 31.8529 315.304 31.7163 315.334 31.705C315.358 31.6959 315.411 31.705 315.411 31.705C315.386 32.1205 315.465 32.4842 315.58 32.6485L315.421 32.7592C315.295 32.5791 314.764 31.9403 314.804 31.8859C314.855 31.817 315.031 31.9188 315.136 31.8859Z" fill="#AB8675"/>
    <path d="M316.552 30.4846C316.552 30.4846 316.846 30.4998 316.974 30.59C317.239 30.7781 317.429 31.1242 317.472 31.2667C317.568 31.5903 318.021 32.3108 318.278 32.6424C318.487 32.9112 318.939 33.977 318.939 33.977C318.939 33.9091 318.294 32.9786 318.125 32.7614C317.853 32.4114 317.391 31.6757 317.286 31.3218C317.209 31.0621 316.948 30.7006 316.552 30.4846Z" fill="#AB8675"/>
    <path fill-rule="evenodd" clip-rule="evenodd" d="M315.776 11.001C315.776 11.001 317.876 6.87462 319.889 7.33986C321.902 7.80511 326.071 15.0186 327.435 16.716C328.798 18.4135 335.024 27.6331 337.137 29.6777C339.25 31.7222 342.31 37.0884 341.948 37.5005C341.585 37.9125 339.163 40.7394 337.434 39.884C335.705 39.0287 335.351 36.108 330.985 30.4391C326.619 24.7703 324.516 21.6168 323.504 20.6045C322.492 19.5923 315.776 11.001 315.776 11.001Z" fill="#B5C3CF"/>
    <path fill-rule="evenodd" clip-rule="evenodd" d="M326.023 23.7556L318.21 29.3403C318.21 29.3403 318.331 29.4327 318.352 29.5414C318.374 29.6502 318.352 29.8307 318.352 29.8307C318.352 29.8307 319.282 30.5308 319.428 31.0559L327.243 25.4256L326.023 23.7556Z" fill="#3C658A"/>
    <path fill-rule="evenodd" clip-rule="evenodd" d="M291.791 77.7676V80.4426C291.791 80.4426 293.202 82.2973 292.732 85.8964C292.261 89.4955 292.471 94.3397 293.2 96.2506C293.2 96.2506 293.32 93.0169 293.593 90.013C293.865 87.0091 293.985 83.9293 293.593 81.8319C293.2 79.7345 291.791 77.7676 291.791 77.7676Z" fill="#FFE186"/>
    <path fill-rule="evenodd" clip-rule="evenodd" d="M293.243 96.5813C293.243 96.5813 294.719 102.207 295.361 102.495C296.002 102.782 296.55 101.777 296.55 101.777C296.55 101.777 296.088 102.131 295.361 100.415C294.633 98.6984 293.243 96.5813 293.243 96.5813Z" fill="#FFE186"/>
    <path fill-rule="evenodd" clip-rule="evenodd" d="M295.829 102.618C295.829 102.618 297.507 102.45 298.014 101.729C298.521 101.007 299.225 99.9111 298.467 96.7764C297.709 93.6417 295.112 89.6653 295.112 89.6653C295.112 89.6653 295.603 90.9481 295.603 91.4507C295.603 91.9533 295.603 93.0666 295.603 93.0666C295.603 93.0666 297.375 96.7325 297.605 98.0391C297.762 98.9267 297.842 99.6414 297.605 100.261C297.317 101.017 296.651 101.729 296.651 101.729L295.829 102.618Z" fill="#FFE186"/>
    <path fill-rule="evenodd" clip-rule="evenodd" d="M294.933 89.3877C294.933 89.3877 295.239 86.0556 295.239 85.7902C295.239 85.5248 295.246 85.155 295.382 82.9863C295.517 80.8175 295.784 77.9042 295.157 76.8291L294.746 75.7864C294.746 75.7864 295.657 77.0096 295.657 77.5157C295.657 78.0218 295.769 80.9044 295.923 81.6072C296.076 82.31 296.399 85.6807 296.182 87.1772C295.965 88.6738 295.854 90.854 295.854 90.854L294.933 89.3877Z" fill="#FFE186"/>
    <path fill-rule="evenodd" clip-rule="evenodd" d="M283.723 49.7647C283.723 49.7647 283.947 45.3854 284.021 44.7712C284.096 44.1569 284.682 42.6101 287.231 42.0004C287.231 42.0004 284.081 41.6483 283.316 42.1736C282.551 42.699 283.227 45.1181 283.227 45.1181C283.227 45.1181 283.521 47.966 283.521 48.4352C283.521 48.9044 283.723 49.7647 283.723 49.7647Z" fill="#484D48"/>
    <path fill-rule="evenodd" clip-rule="evenodd" d="M276.954 68.2273C276.954 68.2273 280.737 69.0302 281.359 69.4063C281.981 69.7824 283.789 70.6281 283.789 70.6281C283.789 70.6281 282.091 68.4393 281.359 67.9216C280.626 67.4039 278.983 66.8262 278.983 66.8262L276.954 68.2273Z" fill="#FFE186"/>
    <path fill-rule="evenodd" clip-rule="evenodd" d="M274.414 66.9714L275.605 68.6009C275.605 68.6009 274.098 69.6361 274.098 70.0877L272.531 70.3534L274.414 66.9714Z" fill="#FFE186"/>
    <path d="M276.458 68.481C276.458 68.481 279.181 63.5392 280.061 64.5572C280.941 65.5751 279.296 66.4322 279.296 66.4322" stroke="#E7E7E7" stroke-width="0.969095" stroke-linecap="round"/>
    <path d="M295.789 61.5244C295.789 61.5244 296.752 63.3001 296.941 63.7791C297.48 65.1475 298.019 66.5938 298.522 68.053C298.892 69.1234 299.228 70.1613 299.523 71.153C300.323 73.841 300.787 76.0633 300.828 77.6711C300.831 77.8048 300.726 77.916 300.592 77.9194C300.458 77.9228 300.347 77.8171 300.344 77.6833C300.304 76.1284 299.847 73.9415 299.058 71.2912C298.765 70.3065 298.431 69.2751 298.064 68.211C297.564 66.7589 297.027 65.319 296.49 63.9567C296.302 63.48 296.117 63.067 295.96 62.686L295.789 61.5244Z" fill="#C0C0C0"/>
    <path fill-rule="evenodd" clip-rule="evenodd" d="M293.144 76.4892C293.144 76.4892 293.137 75.3877 293.908 75.3877C294.679 75.3877 294.845 76.8058 294.845 77.0681C294.845 77.3303 295.042 80.3432 295.042 80.3432H293.542L293.144 76.4892Z" fill="#68859A"/>
    <path fill-rule="evenodd" clip-rule="evenodd" d="M293.671 80.661C293.433 80.5122 293.379 80.04 294.015 79.8694C294.652 79.6988 295.218 80.1239 295.007 80.4891C294.797 80.8543 293.909 80.8097 293.671 80.661Z" fill="#8FA9BB"/>
    <path d="M294.208 80.4542C294.208 80.3739 294.273 80.3088 294.353 80.3088C294.434 80.3088 294.499 80.3739 294.499 80.4542V83.1079C294.499 83.1881 294.434 83.2532 294.353 83.2532C294.273 83.2532 294.208 83.1881 294.208 83.1079V80.4542Z" fill="#68859A"/>
    <path fill-rule="evenodd" clip-rule="evenodd" d="M297.973 84.5111C297.973 84.5111 297.708 81.5857 297.708 81.1517C297.708 80.7177 298.612 79.7815 298.612 79.4303C298.612 79.0791 300.283 78.5708 300.283 77.841C300.283 77.1113 299.498 75.2316 300.396 75.0709C301.293 74.9102 301.22 75.3413 301.493 74.9352C301.767 74.5291 302.451 75.4198 301.871 76.0047C301.291 76.5895 300.884 77.011 300.884 77.6892C300.884 78.3674 300.788 78.393 300.638 78.393C300.489 78.393 300.368 78.7988 300.503 79.4303C300.638 80.0617 300.723 80.4158 300.503 80.7184C300.283 81.0209 300.263 81.8955 300.024 82.0519C299.785 82.2084 299.589 82.883 299.28 83.0968C298.971 83.3106 297.973 84.5111 297.973 84.5111Z" fill="#28455B"/>
    <path fill-rule="evenodd" clip-rule="evenodd" d="M288.782 68.9722L289.901 70.2403L290.296 69.6062L288.782 68.9722Z" fill="#FFE186"/>
    <path fill-rule="evenodd" clip-rule="evenodd" d="M290.597 70.1324C290.339 70.2754 289.659 70.9184 289.659 70.9184L289.349 71.9447L290.21 72.2163C290.21 72.2163 290.855 69.9894 290.597 70.1324Z" fill="#FFE186"/>
    <path fill-rule="evenodd" clip-rule="evenodd" d="M290.104 73.4355C290.104 73.4355 289.471 72.8929 289.245 73.0738C289.02 73.2546 289.501 73.8609 289.501 73.8609L290.635 75.17C290.635 75.17 290.356 74.9229 290.104 74.0993C290.057 73.947 290.104 73.4355 290.104 73.4355Z" fill="#FFE186"/>
    <path fill-rule="evenodd" clip-rule="evenodd" d="M290.057 74.7866C290.057 74.7866 289.844 75.9531 290.057 76.1992C290.271 76.4452 290.897 78.2633 290.897 78.6113C290.897 78.9593 291.144 79.2933 291.144 79.2933L291.382 77.4119C291.382 77.4119 291.144 77.0589 291.144 76.1992C291.144 75.3395 290.057 74.7866 290.057 74.7866Z" fill="#FFE186"/>
    <path fill-rule="evenodd" clip-rule="evenodd" d="M293.447 56.2071C293.447 56.2071 290.19 58.0348 288.602 60.4621C287.013 62.8893 285.295 63.7984 285.295 63.7984C285.295 63.7984 280.117 63.4553 280.824 62.3709C281.531 61.2866 285.613 59.2208 285.613 59.2208C285.613 59.2208 289.171 57.2875 290.162 56.7473C291.153 56.2071 293.447 55.9119 293.447 55.9119V56.2071Z" fill="#4181D5"/>
    <path fill-rule="evenodd" clip-rule="evenodd" d="M281 66.5569C281 66.5569 283.189 65.1712 284.264 65.1712C285.338 65.1712 287.586 63.6116 288.857 63.6116C290.128 63.6116 293.667 61.9109 293.667 61.9109V66.5569C293.667 66.5569 289.241 65.1712 287.334 65.1712C285.426 65.1712 281 66.5569 281 66.5569Z" fill="#4181D5"/>
    <path d="M308.049 43.4962C308.317 42.6173 308.626 42.1035 308.626 42.1035C308.478 42.9549 308.389 43.8904 308.436 44.6859C308.486 45.5273 308.754 46.2828 309.006 46.9744C309.006 46.9744 308.143 46.2036 308.012 45.8138C308.004 45.79 308.019 45.6381 308.012 45.6146C307.694 44.4643 307.781 44.3751 308.049 43.4962Z" fill="#4181D5"/>
    <path fill-rule="evenodd" clip-rule="evenodd" d="M257.931 92.3977C257.931 92.3977 256.439 92.938 255.895 93.1785C255.352 93.419 253.511 94.7 253.051 94.8337C252.591 94.9675 251.262 95.9969 251.992 95.6064C252.722 95.2159 253.327 94.9729 253.575 94.8337C253.823 94.6946 255.173 93.9385 255.464 93.6907C255.756 93.443 256.124 93.2864 256.275 93.1785C256.427 93.0707 257.128 92.6665 257.53 92.7796C257.931 92.8927 258.113 92.7796 258.113 92.7796L257.931 92.3977Z" fill="#213D53"/>
    <path fill-rule="evenodd" clip-rule="evenodd" d="M266.207 74.2599C266.207 74.2599 265.658 73.0893 266.583 72.8993C267.507 72.7094 267.792 72.7433 267.792 72.8993C267.792 73.0554 267.884 73.689 267.512 74.2599C267.375 74.4705 267.295 74.9179 267.043 74.8954C266.84 74.8772 266.207 74.2599 266.207 74.2599Z" fill="#4181D5"/>
    <path fill-rule="evenodd" clip-rule="evenodd" d="M272.062 70.9793C272.062 70.9793 273.67 70.7749 273.974 70.9793C274.277 71.1837 275.157 71.1665 275.574 71.1751C275.992 71.1837 276.68 71.5632 276.888 71.7159C276.888 71.7159 275.984 70.7366 274.475 70.7366C272.966 70.7366 272.062 70.9793 272.062 70.9793Z" fill="#28455B"/>
    <path fill-rule="evenodd" clip-rule="evenodd" d="M278.698 86.0416C278.698 86.0416 279.891 84.8587 280.197 84.4181C280.503 83.9775 280.898 82.7104 281.064 82.3284C281.231 81.9464 282.3 80.64 282.3 80.513C282.3 80.386 281.752 80.1382 281.752 80.1382C281.752 80.1382 280.362 81.1708 280.197 81.7496C280.032 82.3284 279.491 82.9184 279.491 83.0899C279.491 83.2614 278.698 86.0416 278.698 86.0416Z" fill="#28455B"/>
    <path fill-rule="evenodd" clip-rule="evenodd" d="M277.11 78.4704C277.11 78.4704 275.064 78.0744 275.064 77.8063C275.064 77.5382 275.307 77.3763 274.53 76.7255C273.752 76.0748 273.334 75.8786 273.334 75.7559C273.334 75.6331 271.609 74.0929 271.609 73.6349C271.609 73.177 270.228 71.4536 271.228 71.9797C272.229 72.5058 272.68 72.9245 273.334 72.9245C273.987 72.9245 273.995 72.5555 274.53 73.2638C275.064 73.972 275.618 74.4455 276.014 75.5825C276.41 76.7195 275.927 77.0717 276.519 77.5607C277.11 78.0497 277.11 78.4704 277.11 78.4704Z" fill="#28455B"/>
    <path fill-rule="evenodd" clip-rule="evenodd" d="M279.257 81.9905C279.257 81.9905 278.217 78.5422 278.217 78.4026C278.217 78.2629 277.109 76.5591 277.109 76.3817C277.109 76.2044 274.966 73.154 275.43 73.2802C275.893 73.4063 276.175 73.2899 276.542 73.8744C276.909 74.4589 277.137 74.8329 277.311 75.6073C277.484 76.3817 277.558 76.7317 277.812 77.1826C278.067 77.6334 278.34 77.8401 278.34 77.8401L279.257 81.9905Z" fill="#28455B"/>
    <path fill-rule="evenodd" clip-rule="evenodd" d="M275.59 70.354C275.59 70.354 277.32 69.7743 277.889 70.354C278.457 70.9338 280.142 72.473 280.142 72.7609C280.142 73.0488 280.497 74.4086 280.497 74.5318C280.497 74.655 280.979 76.5165 280.979 76.5165C280.979 76.5165 280.457 72.5761 280.142 72.1648C279.828 71.7535 278.956 71.2078 278.62 70.7809C278.284 70.354 277.843 69.9131 276.98 69.9131C276.117 69.9131 275.59 70.354 275.59 70.354Z" fill="#28455B"/>
    <path d="M290.462 81.5796C290.462 81.5796 288.891 87.7486 289.464 89.0049C290.038 90.2611 291.723 94.1861 294.331 92.8625C296.939 91.5389 298.21 89.0253 297.921 87.7244C297.632 86.4235 297.978 82.0469 296.155 82.0469" stroke="#E4E4E4" stroke-width="0.387638" stroke-linecap="round"/>
    <defs>
        <linearGradient id="paint0_linear_8802_3201" x1="203.249" y1="122.107" x2="203.249" y2="205.959" gradientUnits="userSpaceOnUse">
            <stop stop-color="#FAF9F9"/>
            <stop offset="1" stop-color="#F2F0F0" stop-opacity="0.01"/>
        </linearGradient>
    </defs>
</svg>
