<svg width="24" height="25" viewBox="0 0 24 25" fill="none" xmlns="http://www.w3.org/2000/svg">
    <path d="M17.812 5.40823H6.145C3.855 5.40823 2 7.24323 2 9.50723V15.2752C2 17.5392 3.856 19.3752 6.145 19.3752H17.812C20.102 19.3752 21.957 17.5392 21.957 15.2752V9.50723C21.957 7.24323 20.101 5.40723 17.812 5.40723V5.40823ZM15.009 12.6712L9.552 15.2462C9.51872 15.2623 9.48192 15.2696 9.44503 15.2676C9.40815 15.2656 9.37237 15.2542 9.34103 15.2347C9.3097 15.2151 9.28382 15.188 9.2658 15.1557C9.24779 15.1235 9.23822 15.0872 9.238 15.0502V9.74123C9.23867 9.7041 9.24872 9.66775 9.26722 9.63555C9.28573 9.60336 9.31208 9.57637 9.34382 9.5571C9.37556 9.53784 9.41167 9.52692 9.44877 9.52537C9.48587 9.52382 9.52276 9.53168 9.556 9.54823L15.014 12.2832C15.0504 12.3014 15.0809 12.3294 15.102 12.3641C15.1232 12.3987 15.1341 12.4387 15.1336 12.4793C15.1331 12.5199 15.1211 12.5596 15.0991 12.5937C15.077 12.6278 15.0458 12.655 15.009 12.6722V12.6712Z" fill="#0B0B0D"/>
</svg>
